<svg width="1396" height="526" viewBox="0 0 1396 526" fill="none" xmlns="http://www.w3.org/2000/svg">
<path d="M492.353 18.8241L483.113 50H477.326L470.777 26.405L463.824 50L458.082 50.0449L449.245 18.8241H454.673L461.132 44.2134L468.13 18.8241H473.872L480.376 44.0788L486.881 18.8241H492.353ZM509.355 24.8798C511.239 24.8798 512.914 25.2836 514.379 26.091C515.875 26.8984 517.041 28.0946 517.878 29.6796C518.745 31.2645 519.179 33.1785 519.179 35.4213V50H514.11V36.1839C514.11 33.9709 513.557 32.2813 512.45 31.115C511.344 29.9188 509.834 29.3207 507.92 29.3207C506.006 29.3207 504.481 29.9188 503.344 31.115C502.238 32.2813 501.685 33.9709 501.685 36.1839V50H496.571V16.8055H501.685V28.1544C502.552 27.1078 503.643 26.3003 504.959 25.7321C506.305 25.1639 507.77 24.8798 509.355 24.8798ZM523.997 37.5296C523.997 35.0475 524.506 32.8495 525.522 30.9356C526.569 29.0217 527.975 27.5414 529.739 26.4947C531.533 25.4181 533.507 24.8798 535.66 24.8798C537.604 24.8798 539.294 25.2686 540.729 26.0461C542.194 26.7938 543.361 27.7358 544.228 28.8721V25.2836H549.387V50H544.228V46.3217C543.361 47.488 542.18 48.4599 540.684 49.2374C539.189 50.015 537.484 50.4037 535.571 50.4037C533.447 50.4037 531.503 49.8654 529.739 48.7888C527.975 47.6824 526.569 46.1572 525.522 44.2134C524.506 42.2397 523.997 40.0117 523.997 37.5296ZM544.228 37.6193C544.228 35.9148 543.869 34.4345 543.151 33.1785C542.464 31.9225 541.552 30.9655 540.415 30.3076C539.279 29.6497 538.053 29.3207 536.737 29.3207C535.421 29.3207 534.195 29.6497 533.059 30.3076C531.922 30.9356 530.995 31.8776 530.277 33.1336C529.59 34.3597 529.246 35.8251 529.246 37.5296C529.246 39.2342 529.59 40.7295 530.277 42.0154C530.995 43.3013 531.922 44.2882 533.059 44.976C534.225 45.6339 535.451 45.9628 536.737 45.9628C538.053 45.9628 539.279 45.6339 540.415 44.976C541.552 44.3181 542.464 43.3611 543.151 42.1051C543.869 40.8192 544.228 39.3239 544.228 37.6193ZM562.069 29.4553V43.1368C562.069 44.0639 562.279 44.7367 562.697 45.1554C563.146 45.5442 563.894 45.7385 564.94 45.7385H568.08V50H564.043C561.74 50 559.976 49.4617 558.75 48.3851C557.524 47.3086 556.911 45.5591 556.911 43.1368V29.4553H553.995V25.2836H556.911V19.1381H562.069V25.2836H568.08V29.4553H562.069ZM587.048 22.009C586.121 22.009 585.343 21.695 584.715 21.067C584.087 20.439 583.773 19.6614 583.773 18.7344C583.773 17.8073 584.087 17.0298 584.715 16.4018C585.343 15.7738 586.121 15.4598 587.048 15.4598C587.945 15.4598 588.707 15.7738 589.335 16.4018C589.963 17.0298 590.277 17.8073 590.277 18.7344C590.277 19.6614 589.963 20.439 589.335 21.067C588.707 21.695 587.945 22.009 587.048 22.009ZM589.56 25.2836V50H584.446V25.2836H589.56ZM605.245 50.4037C603.301 50.4037 601.552 50.0598 599.997 49.372C598.472 48.6543 597.26 47.6973 596.363 46.5011C595.466 45.275 594.988 43.9143 594.928 42.4191H600.221C600.311 43.4658 600.804 44.348 601.701 45.0657C602.628 45.7535 603.78 46.0974 605.155 46.0974C606.591 46.0974 607.697 45.8283 608.475 45.29C609.282 44.7218 609.686 44.0041 609.686 43.1368C609.686 42.2098 609.237 41.5219 608.34 41.0734C607.473 40.6248 606.082 40.1314 604.168 39.5931C602.314 39.0847 600.804 38.5913 599.638 38.1128C598.472 37.6343 597.455 36.9016 596.588 35.9148C595.75 34.9279 595.331 33.627 595.331 32.0122C595.331 30.6964 595.72 29.5002 596.498 28.4236C597.275 27.3171 598.382 26.4498 599.817 25.8218C601.283 25.1938 602.957 24.8798 604.841 24.8798C607.652 24.8798 609.91 25.5976 611.615 27.033C613.349 28.4385 614.276 30.3674 614.396 32.8196H609.282C609.192 31.7131 608.744 30.8309 607.936 30.173C607.129 29.5151 606.037 29.1862 604.662 29.1862C603.316 29.1862 602.284 29.4403 601.567 29.9487C600.849 30.4571 600.49 31.13 600.49 31.9673C600.49 32.6252 600.729 33.1785 601.208 33.627C601.686 34.0756 602.269 34.4345 602.957 34.7036C603.645 34.9429 604.662 35.2569 606.008 35.6456C607.802 36.1241 609.267 36.6175 610.404 37.1259C611.57 37.6044 612.572 38.3221 613.409 39.2791C614.246 40.236 614.68 41.507 614.71 43.092C614.71 44.4975 614.321 45.7535 613.544 46.86C612.766 47.9665 611.66 48.8337 610.224 49.4617C608.819 50.0897 607.159 50.4037 605.245 50.4037ZM664.723 18.8241V50H659.61V28.6479L650.1 50H646.556L637.002 28.6479V50H631.888V18.8241H637.405L648.351 43.2714L659.251 18.8241H664.723ZM669.74 37.5296C669.74 35.0475 670.249 32.8495 671.265 30.9356C672.312 29.0217 673.718 27.5414 675.482 26.4947C677.276 25.4181 679.25 24.8798 681.403 24.8798C683.347 24.8798 685.037 25.2686 686.472 26.0461C687.937 26.7938 689.104 27.7358 689.971 28.8721V25.2836H695.129V50H689.971V46.3217C689.104 47.488 687.922 48.4599 686.427 49.2374C684.932 50.015 683.227 50.4037 681.313 50.4037C679.19 50.4037 677.246 49.8654 675.482 48.7888C673.718 47.6824 672.312 46.1572 671.265 44.2134C670.249 42.2397 669.74 40.0117 669.74 37.5296ZM689.971 37.6193C689.971 35.9148 689.612 34.4345 688.894 33.1785C688.206 31.9225 687.294 30.9655 686.158 30.3076C685.022 29.6497 683.795 29.3207 682.48 29.3207C681.164 29.3207 679.938 29.6497 678.801 30.3076C677.665 30.9356 676.738 31.8776 676.02 33.1336C675.332 34.3597 674.988 35.8251 674.988 37.5296C674.988 39.2342 675.332 40.7295 676.02 42.0154C676.738 43.3013 677.665 44.2882 678.801 44.976C679.968 45.6339 681.194 45.9628 682.48 45.9628C683.795 45.9628 685.022 45.6339 686.158 44.976C687.294 44.3181 688.206 43.3611 688.894 42.1051C689.612 40.8192 689.971 39.3239 689.971 37.6193ZM724.095 25.2836L708.934 61.6181H703.64L708.665 49.5963L698.93 25.2836H704.627L711.58 44.1237L718.802 25.2836H724.095ZM737.734 37.6642L749.127 50H742.219L733.068 39.3688V50H727.955V16.8055H733.068V36.0942L742.04 25.2836H749.127L737.734 37.6642ZM775.446 37.0362C775.446 37.9633 775.386 38.8006 775.266 39.5482H756.381C756.531 41.5219 757.263 43.1069 758.579 44.3031C759.895 45.4993 761.51 46.0974 763.424 46.0974C766.175 46.0974 768.119 44.9461 769.255 42.6434H774.773C774.025 44.9162 772.664 46.7852 770.691 48.2506C768.747 49.686 766.325 50.4037 763.424 50.4037C761.061 50.4037 758.938 49.8804 757.054 48.8337C755.2 47.7571 753.735 46.2619 752.658 44.348C751.611 42.4041 751.088 40.1613 751.088 37.6193C751.088 35.0774 751.596 32.8495 752.613 30.9356C753.66 28.9918 755.11 27.4965 756.964 26.4498C758.848 25.4032 761.002 24.8798 763.424 24.8798C765.756 24.8798 767.835 25.3882 769.659 26.405C771.483 27.4218 772.904 28.8572 773.921 30.7113C774.937 32.5355 775.446 34.6438 775.446 37.0362ZM770.108 35.4213C770.078 33.5373 769.405 32.0271 768.089 30.8907C766.773 29.7543 765.143 29.1862 763.2 29.1862C761.435 29.1862 759.925 29.7543 758.669 30.8907C757.413 31.9972 756.665 33.5074 756.426 35.4213H770.108ZM785.592 28.8721C786.339 27.6161 787.326 26.6442 788.552 25.9564C789.808 25.2387 791.289 24.8798 792.993 24.8798V30.173H791.692C789.689 30.173 788.164 30.6814 787.117 31.6982C786.1 32.7149 785.592 34.4793 785.592 36.9913V50H780.478V25.2836H785.592V28.8721ZM799.757 50.314C798.83 50.314 798.053 50 797.425 49.372C796.797 48.744 796.483 47.9665 796.483 47.0394C796.483 46.1124 796.797 45.3348 797.425 44.7068C798.053 44.0788 798.83 43.7648 799.757 43.7648C800.654 43.7648 801.417 44.0788 802.045 44.7068C802.673 45.3348 802.987 46.1124 802.987 47.0394C802.987 47.9665 802.673 48.744 802.045 49.372C801.417 50 800.654 50.314 799.757 50.314ZM818.786 50.314C816.693 50.314 814.809 49.9551 813.134 49.2374C811.46 48.4898 810.144 47.4431 809.187 46.0974C808.23 44.7517 807.751 43.1817 807.751 41.3874H813.224C813.344 42.7331 813.867 43.8396 814.794 44.7068C815.751 45.5741 817.082 46.0077 818.786 46.0077C820.551 46.0077 821.926 45.589 822.913 44.7517C823.9 43.8844 824.394 42.778 824.394 41.4322C824.394 40.3856 824.08 39.5333 823.452 38.8754C822.853 38.2174 822.091 37.7091 821.164 37.3502C820.267 36.9913 819.011 36.6026 817.396 36.1839C815.362 35.6456 813.703 35.1073 812.417 34.569C811.161 34.0008 810.084 33.1336 809.187 31.9673C808.29 30.801 807.841 29.246 807.841 27.3021C807.841 25.5078 808.29 23.9378 809.187 22.5921C810.084 21.2464 811.34 20.2147 812.955 19.4969C814.57 18.7792 816.439 18.4204 818.562 18.4204C821.582 18.4204 824.05 19.1829 825.964 20.7081C827.907 22.2033 828.984 24.2668 829.193 26.8984H823.541C823.452 25.762 822.913 24.7901 821.926 23.9827C820.94 23.1753 819.639 22.7715 818.024 22.7715C816.558 22.7715 815.362 23.1453 814.435 23.893C813.508 24.6406 813.045 25.7172 813.045 27.1227C813.045 28.0797 813.329 28.8721 813.897 29.5002C814.495 30.0983 815.243 30.5767 816.14 30.9356C817.037 31.2944 818.263 31.6832 819.818 32.1019C821.882 32.6701 823.556 33.2383 824.842 33.8065C826.158 34.3747 827.264 35.2569 828.162 36.4531C829.089 37.6193 829.552 39.1894 829.552 41.1631C829.552 42.748 829.119 44.2433 828.251 45.6488C827.414 47.0544 826.173 48.1908 824.528 49.058C822.913 49.8953 820.999 50.314 818.786 50.314ZM840.7 28.917C841.567 27.7806 842.748 26.8237 844.244 26.0461C845.739 25.2686 847.429 24.8798 849.313 24.8798C851.466 24.8798 853.424 25.4181 855.189 26.4947C856.983 27.5414 858.389 29.0217 859.405 30.9356C860.422 32.8495 860.931 35.0475 860.931 37.5296C860.931 40.0117 860.422 42.2397 859.405 44.2134C858.389 46.1572 856.983 47.6824 855.189 48.7888C853.424 49.8654 851.466 50.4037 849.313 50.4037C847.429 50.4037 845.754 50.0299 844.288 49.2823C842.823 48.5048 841.627 47.5478 840.7 46.4114V61.7526H835.586V25.2836H840.7V28.917ZM855.727 37.5296C855.727 35.8251 855.368 34.3597 854.651 33.1336C853.963 31.8776 853.036 30.9356 851.869 30.3076C850.733 29.6497 849.507 29.3207 848.191 29.3207C846.905 29.3207 845.679 29.6497 844.513 30.3076C843.376 30.9655 842.449 31.9225 841.732 33.1785C841.044 34.4345 840.7 35.9148 840.7 37.6193C840.7 39.3239 841.044 40.8192 841.732 42.1051C842.449 43.3611 843.376 44.3181 844.513 44.976C845.679 45.6339 846.905 45.9628 848.191 45.9628C849.507 45.9628 850.733 45.6339 851.869 44.976C853.036 44.2882 853.963 43.3013 854.651 42.0154C855.368 40.7295 855.727 39.2342 855.727 37.5296ZM864.283 37.5296C864.283 35.0475 864.791 32.8495 865.808 30.9356C866.855 29.0217 868.26 27.5414 870.025 26.4947C871.819 25.4181 873.793 24.8798 875.946 24.8798C877.89 24.8798 879.579 25.2686 881.015 26.0461C882.48 26.7938 883.646 27.7358 884.514 28.8721V25.2836H889.672V50H884.514V46.3217C883.646 47.488 882.465 48.4599 880.97 49.2374C879.475 50.015 877.77 50.4037 875.856 50.4037C873.733 50.4037 871.789 49.8654 870.025 48.7888C868.26 47.6824 866.855 46.1572 865.808 44.2134C864.791 42.2397 864.283 40.0117 864.283 37.5296ZM884.514 37.6193C884.514 35.9148 884.155 34.4345 883.437 33.1785C882.749 31.9225 881.837 30.9655 880.701 30.3076C879.564 29.6497 878.338 29.3207 877.022 29.3207C875.707 29.3207 874.481 29.6497 873.344 30.3076C872.208 30.9356 871.281 31.8776 870.563 33.1336C869.875 34.3597 869.531 35.8251 869.531 37.5296C869.531 39.2342 869.875 40.7295 870.563 42.0154C871.281 43.3013 872.208 44.2882 873.344 44.976C874.51 45.6339 875.737 45.9628 877.022 45.9628C878.338 45.9628 879.564 45.6339 880.701 44.976C881.837 44.3181 882.749 43.3611 883.437 42.1051C884.155 40.8192 884.514 39.3239 884.514 37.6193ZM894.684 37.6193C894.684 35.0774 895.193 32.8495 896.21 30.9356C897.256 28.9918 898.692 27.4965 900.516 26.4498C902.34 25.4032 904.433 24.8798 906.796 24.8798C909.786 24.8798 912.254 25.5976 914.197 27.033C916.171 28.4385 917.502 30.4571 918.19 33.0887H912.672C912.224 31.8626 911.506 30.9057 910.519 30.2179C909.532 29.5301 908.291 29.1862 906.796 29.1862C904.703 29.1862 903.028 29.9338 901.772 31.429C900.546 32.8944 899.933 34.9578 899.933 37.6193C899.933 40.2809 900.546 42.3593 901.772 43.8545C903.028 45.3498 904.703 46.0974 906.796 46.0974C909.757 46.0974 911.715 44.7965 912.672 42.1948H918.19C917.472 44.7068 916.126 46.7105 914.153 48.2057C912.179 49.671 909.727 50.4037 906.796 50.4037C904.433 50.4037 902.34 49.8804 900.516 48.8337C898.692 47.7571 897.256 46.2619 896.21 44.348C895.193 42.4041 894.684 40.1613 894.684 37.6193ZM945.939 37.0362C945.939 37.9633 945.879 38.8006 945.76 39.5482H926.875C927.024 41.5219 927.757 43.1069 929.073 44.3031C930.388 45.4993 932.003 46.0974 933.917 46.0974C936.668 46.0974 938.612 44.9461 939.749 42.6434H945.266C944.518 44.9162 943.158 46.7852 941.184 48.2506C939.24 49.686 936.818 50.4037 933.917 50.4037C931.555 50.4037 929.431 49.8804 927.547 48.8337C925.693 47.7571 924.228 46.2619 923.151 44.348C922.105 42.4041 921.581 40.1613 921.581 37.6193C921.581 35.0774 922.09 32.8495 923.107 30.9356C924.153 28.9918 925.604 27.4965 927.458 26.4498C929.342 25.4032 931.495 24.8798 933.917 24.8798C936.25 24.8798 938.328 25.3882 940.152 26.405C941.977 27.4218 943.397 28.8572 944.414 30.7113C945.431 32.5355 945.939 34.6438 945.939 37.0362ZM940.601 35.4213C940.571 33.5373 939.898 32.0271 938.582 30.8907C937.267 29.7543 935.637 29.1862 933.693 29.1862C931.928 29.1862 930.418 29.7543 929.162 30.8907C927.906 31.9972 927.159 33.5074 926.919 35.4213H940.601Z" fill="white"/>
<rect y="143" width="383" height="383" rx="59.9088" fill="white"/>
<path d="M241.817 233.438L199.674 210.516C199.052 210.178 198.353 210 197.643 210C196.932 210 196.234 210.178 195.611 210.516L153.468 233.438C152.808 233.797 152.257 234.326 151.873 234.968C151.489 235.61 151.287 236.342 151.287 237.088C151.287 237.834 151.489 238.566 151.873 239.209C152.257 239.851 152.808 240.379 153.468 240.739L191.392 261.365C192.647 262.048 193.428 263.362 193.428 264.791V300.583C193.428 303.542 190.264 305.423 187.665 304.009L184.026 302.03C182.147 301.008 179.796 301.69 178.755 303.559L178.487 304.041C177.432 305.936 178.126 308.328 180.031 309.364L195.611 317.838C196.234 318.178 196.932 318.356 197.643 318.356C198.353 318.356 199.052 318.178 199.674 317.838L241.817 294.917C242.478 294.557 243.029 294.029 243.413 293.387C243.797 292.745 244 292.012 244 291.266V237.088C244 236.342 243.797 235.61 243.413 234.968C243.029 234.326 242.478 233.797 241.817 233.438ZM195.78 219.939C196.941 219.308 198.344 219.308 199.506 219.939L224.741 233.662C227.456 235.139 227.456 239.038 224.741 240.514L199.506 254.237C198.344 254.869 196.941 254.869 195.78 254.237L170.545 240.514C167.829 239.038 167.829 235.139 170.545 233.662L195.78 219.939ZM235.571 286.485C235.571 287.914 234.79 289.228 233.535 289.911L207.62 304.006C205.022 305.419 201.857 303.538 201.857 300.58V264.787C201.857 263.358 202.638 262.044 203.894 261.361L229.808 247.266C232.407 245.853 235.571 247.734 235.571 250.692V286.485Z" fill="#CF2B57"/>
<path d="M159.714 260.277C159.714 262.431 157.968 264.177 155.814 264.177H129.9C127.746 264.177 126 262.431 126 260.277V259.742C126 257.588 127.746 255.842 129.9 255.842H155.814C157.968 255.842 159.714 257.588 159.714 259.742V260.277Z" fill="#CF2B57"/>
<path d="M168.143 293.618C168.143 295.772 166.397 297.518 164.243 297.518H138.329C136.175 297.518 134.429 295.772 134.429 293.618V293.083C134.429 290.929 136.175 289.183 138.329 289.183H164.243C166.397 289.183 168.143 290.929 168.143 293.083V293.618Z" fill="#CF2B57"/>
<path d="M176.572 276.948C176.572 279.102 174.825 280.848 172.672 280.848H146.757C144.603 280.848 142.857 279.102 142.857 276.948V276.413C142.857 274.259 144.603 272.513 146.757 272.513H172.672C174.825 272.513 176.572 274.259 176.572 276.413V276.948Z" fill="#CF2B57"/>
<path d="M98.7652 385.045C96.9691 385.045 95.3596 384.753 93.9367 384.17C92.5138 383.587 91.3709 382.724 90.5078 381.581C89.6681 380.438 89.2249 379.062 89.1782 377.452H95.5462C95.6395 378.362 95.9544 379.062 96.4909 379.552C97.0274 380.018 97.7272 380.252 98.5902 380.252C99.4766 380.252 100.176 380.053 100.69 379.657C101.203 379.237 101.459 378.665 101.459 377.942C101.459 377.336 101.249 376.834 100.829 376.438C100.433 376.041 99.9314 375.715 99.325 375.458C98.7418 375.201 97.9021 374.91 96.8058 374.583C95.2196 374.093 93.925 373.604 92.922 373.114C91.919 372.624 91.056 371.901 90.3329 370.944C89.6098 369.988 89.2482 368.74 89.2482 367.201C89.2482 364.915 90.0763 363.13 91.7324 361.847C93.3885 360.541 95.5462 359.888 98.2053 359.888C100.911 359.888 103.092 360.541 104.748 361.847C106.404 363.13 107.291 364.926 107.407 367.236H100.934C100.888 366.443 100.596 365.824 100.06 365.381C99.5232 364.915 98.8351 364.681 97.9954 364.681C97.2723 364.681 96.6892 364.88 96.246 365.276C95.8028 365.65 95.5812 366.198 95.5812 366.921C95.5812 367.714 95.9544 368.332 96.7008 368.775C97.4472 369.218 98.6135 369.697 100.2 370.21C101.786 370.746 103.069 371.259 104.048 371.749C105.051 372.239 105.915 372.951 106.638 373.884C107.361 374.817 107.722 376.018 107.722 377.487C107.722 378.887 107.361 380.158 106.638 381.301C105.938 382.444 104.912 383.354 103.559 384.03C102.206 384.707 100.608 385.045 98.7652 385.045ZM123.405 365.066C125.645 365.066 127.441 365.813 128.794 367.306C130.147 368.775 130.823 370.805 130.823 373.394V384.8H124.875V374.198C124.875 372.892 124.537 371.878 123.86 371.154C123.184 370.431 122.274 370.07 121.131 370.07C119.988 370.07 119.079 370.431 118.402 371.154C117.726 371.878 117.387 372.892 117.387 374.198V384.8H111.404V358.908H117.387V367.9C117.994 367.037 118.822 366.349 119.872 365.836C120.921 365.323 122.099 365.066 123.405 365.066ZM133.791 375.003C133.791 372.997 134.164 371.236 134.911 369.72C135.681 368.204 136.719 367.037 138.025 366.221C139.331 365.405 140.789 364.996 142.398 364.996C143.775 364.996 144.976 365.276 146.002 365.836C147.052 366.396 147.857 367.131 148.416 368.04V365.276H154.4V384.8H148.416V382.036C147.833 382.946 147.017 383.68 145.967 384.24C144.941 384.8 143.74 385.08 142.363 385.08C140.777 385.08 139.331 384.672 138.025 383.855C136.719 383.016 135.681 381.838 134.911 380.321C134.164 378.782 133.791 377.009 133.791 375.003ZM148.416 375.038C148.416 373.545 147.997 372.367 147.157 371.504C146.34 370.641 145.337 370.21 144.148 370.21C142.958 370.21 141.944 370.641 141.104 371.504C140.287 372.344 139.879 373.51 139.879 375.003C139.879 376.496 140.287 377.686 141.104 378.572C141.944 379.435 142.958 379.867 144.148 379.867C145.337 379.867 146.34 379.435 147.157 378.572C147.997 377.709 148.416 376.531 148.416 375.038ZM164.711 368.53C165.411 367.457 166.286 366.618 167.335 366.011C168.385 365.381 169.551 365.066 170.834 365.066V371.399H169.19C167.697 371.399 166.577 371.726 165.831 372.379C165.084 373.009 164.711 374.128 164.711 375.738V384.8H158.728V365.276H164.711V368.53ZM192.098 374.723C192.098 375.283 192.063 375.866 191.993 376.473H178.452C178.546 377.686 178.931 378.619 179.607 379.272C180.307 379.902 181.158 380.217 182.161 380.217C183.654 380.217 184.692 379.587 185.275 378.327H191.643C191.317 379.61 190.722 380.765 189.859 381.791C189.019 382.817 187.958 383.622 186.675 384.205C185.392 384.788 183.957 385.08 182.371 385.08C180.458 385.08 178.756 384.672 177.263 383.855C175.77 383.039 174.604 381.873 173.764 380.356C172.924 378.84 172.504 377.068 172.504 375.038C172.504 373.009 172.913 371.236 173.729 369.72C174.569 368.204 175.735 367.037 177.228 366.221C178.721 365.405 180.435 364.996 182.371 364.996C184.261 364.996 185.94 365.393 187.41 366.186C188.879 366.979 190.022 368.11 190.838 369.58C191.678 371.049 192.098 372.764 192.098 374.723ZM185.975 373.149C185.975 372.122 185.625 371.306 184.925 370.7C184.226 370.093 183.351 369.79 182.301 369.79C181.298 369.79 180.447 370.081 179.747 370.665C179.071 371.248 178.651 372.076 178.487 373.149H185.975ZM221.388 368.145C221.388 369.568 221.061 370.875 220.408 372.064C219.755 373.23 218.752 374.175 217.399 374.898C216.046 375.621 214.367 375.983 212.361 375.983H208.652V384.8H202.669V360.238H212.361C214.32 360.238 215.976 360.576 217.329 361.253C218.682 361.929 219.697 362.862 220.373 364.052C221.05 365.241 221.388 366.606 221.388 368.145ZM211.906 371.224C213.049 371.224 213.9 370.956 214.46 370.42C215.02 369.883 215.3 369.125 215.3 368.145C215.3 367.166 215.02 366.408 214.46 365.871C213.9 365.335 213.049 365.066 211.906 365.066H208.652V371.224H211.906ZM223.313 375.003C223.313 372.997 223.686 371.236 224.433 369.72C225.203 368.204 226.241 367.037 227.547 366.221C228.853 365.405 230.311 364.996 231.92 364.996C233.297 364.996 234.498 365.276 235.524 365.836C236.574 366.396 237.379 367.131 237.939 368.04V365.276H243.922V384.8H237.939V382.036C237.355 382.946 236.539 383.68 235.489 384.24C234.463 384.8 233.262 385.08 231.885 385.08C230.299 385.08 228.853 384.672 227.547 383.855C226.241 383.016 225.203 381.838 224.433 380.321C223.686 378.782 223.313 377.009 223.313 375.003ZM237.939 375.038C237.939 373.545 237.519 372.367 236.679 371.504C235.863 370.641 234.86 370.21 233.67 370.21C232.48 370.21 231.466 370.641 230.626 371.504C229.809 372.344 229.401 373.51 229.401 375.003C229.401 376.496 229.809 377.686 230.626 378.572C231.466 379.435 232.48 379.867 233.67 379.867C234.86 379.867 235.863 379.435 236.679 378.572C237.519 377.709 237.939 376.531 237.939 375.038ZM254.233 368.53C254.933 367.457 255.808 366.618 256.857 366.011C257.907 365.381 259.073 365.066 260.356 365.066V371.399H258.712C257.219 371.399 256.099 371.726 255.353 372.379C254.606 373.009 254.233 374.128 254.233 375.738V384.8H248.25V365.276H254.233V368.53ZM274.098 379.727V384.8H271.054C268.884 384.8 267.193 384.275 265.98 383.226C264.767 382.153 264.161 380.415 264.161 378.012V370.245H261.782V365.276H264.161V360.518H270.144V365.276H274.063V370.245H270.144V378.082C270.144 378.665 270.284 379.085 270.564 379.342C270.844 379.598 271.31 379.727 271.963 379.727H274.098ZM285.373 385.08C283.67 385.08 282.154 384.788 280.824 384.205C279.495 383.622 278.445 382.829 277.675 381.826C276.905 380.8 276.474 379.657 276.381 378.397H282.294C282.364 379.074 282.679 379.622 283.238 380.042C283.798 380.461 284.486 380.671 285.303 380.671C286.049 380.671 286.621 380.531 287.017 380.252C287.437 379.948 287.647 379.563 287.647 379.097C287.647 378.537 287.355 378.129 286.772 377.872C286.189 377.592 285.244 377.289 283.938 376.963C282.539 376.636 281.372 376.298 280.439 375.948C279.506 375.575 278.702 375.003 278.025 374.233C277.349 373.44 277.01 372.379 277.01 371.049C277.01 369.93 277.314 368.915 277.92 368.005C278.55 367.072 279.46 366.338 280.649 365.801C281.862 365.265 283.297 364.996 284.953 364.996C287.402 364.996 289.326 365.603 290.726 366.816C292.149 368.029 292.965 369.638 293.175 371.644H287.647C287.554 370.968 287.25 370.431 286.737 370.035C286.247 369.638 285.594 369.44 284.778 369.44C284.078 369.44 283.542 369.58 283.168 369.86C282.795 370.116 282.609 370.478 282.609 370.944C282.609 371.504 282.9 371.924 283.483 372.204C284.09 372.484 285.023 372.764 286.282 373.044C287.729 373.417 288.907 373.79 289.816 374.163C290.726 374.513 291.519 375.096 292.196 375.913C292.895 376.706 293.257 377.779 293.28 379.132C293.28 380.275 292.954 381.301 292.3 382.211C291.671 383.097 290.749 383.797 289.536 384.31C288.347 384.823 286.959 385.08 285.373 385.08Z" fill="#111111"/>
<path d="M94.5429 404.814L90.6137 417.36H89.0052L85.5356 406.836L82.066 417.36H80.4345L76.5053 404.814H78.1368L81.2617 415.729L84.7773 404.814H86.3858L89.8554 415.752L92.9574 404.814H94.5429ZM97.5398 402.447C97.2181 402.447 96.9424 402.333 96.7126 402.103C96.4829 401.873 96.368 401.59 96.368 401.253C96.368 400.916 96.4829 400.64 96.7126 400.425C96.9424 400.196 97.2181 400.081 97.5398 400.081C97.8615 400.081 98.1373 400.196 98.367 400.425C98.5968 400.64 98.7117 400.916 98.7117 401.253C98.7117 401.59 98.5968 401.873 98.367 402.103C98.1373 402.333 97.8615 402.447 97.5398 402.447ZM98.3441 404.814V417.36H96.7356V404.814H98.3441ZM104.077 406.17V413.959C104.077 414.725 104.223 415.254 104.514 415.545C104.805 415.836 105.318 415.981 106.053 415.981H107.524V417.36H105.801C104.667 417.36 103.825 417.1 103.273 416.579C102.722 416.043 102.446 415.169 102.446 413.959V406.17H100.7V404.814H102.446V401.666H104.077V404.814H107.524V406.17H104.077ZM116.151 404.584C117.101 404.584 117.951 404.784 118.701 405.182C119.467 405.58 120.065 406.193 120.494 407.02C120.938 407.832 121.16 408.828 121.16 410.007V417.36H119.575V410.191C119.575 408.828 119.23 407.786 118.541 407.066C117.867 406.346 116.94 405.986 115.76 405.986C114.55 405.986 113.585 406.369 112.865 407.135C112.145 407.901 111.785 409.027 111.785 410.513V417.36H110.177V400.356H111.785V406.951C112.183 406.2 112.765 405.618 113.531 405.205C114.313 404.791 115.186 404.584 116.151 404.584ZM136.514 417.544C135.335 417.544 134.27 417.283 133.32 416.763C132.386 416.226 131.643 415.476 131.092 414.511C130.555 413.53 130.287 412.389 130.287 411.087C130.287 409.785 130.563 408.651 131.115 407.686C131.666 406.706 132.417 405.955 133.366 405.435C134.316 404.898 135.381 404.63 136.56 404.63C137.74 404.63 138.804 404.898 139.754 405.435C140.719 405.955 141.47 406.706 142.006 407.686C142.557 408.651 142.833 409.785 142.833 411.087C142.833 412.374 142.557 413.507 142.006 414.488C141.455 415.468 140.696 416.226 139.731 416.763C138.766 417.283 137.694 417.544 136.514 417.544ZM136.514 416.142C137.342 416.142 138.107 415.958 138.812 415.591C139.517 415.208 140.084 414.641 140.512 413.89C140.957 413.124 141.179 412.19 141.179 411.087C141.179 409.984 140.964 409.057 140.535 408.307C140.107 407.541 139.54 406.974 138.835 406.606C138.13 406.223 137.365 406.032 136.537 406.032C135.71 406.032 134.944 406.223 134.24 406.606C133.535 406.974 132.968 407.541 132.539 408.307C132.126 409.057 131.919 409.984 131.919 411.087C131.919 412.19 132.126 413.124 132.539 413.89C132.968 414.641 133.527 415.208 134.217 415.591C134.921 415.958 135.687 416.142 136.514 416.142ZM147.856 406.17V413.959C147.856 414.725 148.002 415.254 148.293 415.545C148.584 415.836 149.097 415.981 149.832 415.981H151.303V417.36H149.58C148.446 417.36 147.603 417.1 147.052 416.579C146.5 416.043 146.225 415.169 146.225 413.959V406.17H144.478V404.814H146.225V401.666H147.856V404.814H151.303V406.17H147.856ZM159.93 404.584C160.879 404.584 161.73 404.784 162.48 405.182C163.246 405.58 163.844 406.193 164.273 407.02C164.717 407.832 164.939 408.828 164.939 410.007V417.36H163.353V410.191C163.353 408.828 163.009 407.786 162.319 407.066C161.645 406.346 160.719 405.986 159.539 405.986C158.329 405.986 157.364 406.369 156.644 407.135C155.924 407.901 155.564 409.027 155.564 410.513V417.36H153.956V400.356H155.564V406.951C155.962 406.2 156.544 405.618 157.31 405.205C158.092 404.791 158.965 404.584 159.93 404.584ZM179.847 410.444C179.847 410.995 179.832 411.416 179.801 411.707H169.392C169.438 412.657 169.668 413.469 170.082 414.143C170.495 414.817 171.039 415.33 171.713 415.683C172.387 416.02 173.122 416.188 173.919 416.188C174.96 416.188 175.834 415.935 176.538 415.43C177.258 414.924 177.733 414.243 177.963 413.385H179.663C179.357 414.61 178.698 415.614 177.687 416.395C176.691 417.161 175.435 417.544 173.919 417.544C172.739 417.544 171.682 417.283 170.748 416.763C169.813 416.226 169.078 415.476 168.542 414.511C168.021 413.53 167.761 412.389 167.761 411.087C167.761 409.785 168.021 408.644 168.542 407.663C169.063 406.683 169.791 405.932 170.725 405.412C171.659 404.891 172.724 404.63 173.919 404.63C175.114 404.63 176.155 404.891 177.044 405.412C177.948 405.932 178.637 406.637 179.112 407.526C179.602 408.399 179.847 409.371 179.847 410.444ZM178.216 410.398C178.231 409.463 178.04 408.667 177.641 408.008C177.258 407.349 176.73 406.852 176.056 406.515C175.382 406.177 174.646 406.009 173.85 406.009C172.655 406.009 171.636 406.392 170.794 407.158C169.951 407.924 169.484 409.004 169.392 410.398H178.216ZM184.398 407.043C184.751 406.262 185.287 405.657 186.007 405.228C186.742 404.799 187.638 404.584 188.695 404.584V406.262H188.259C187.094 406.262 186.16 406.576 185.455 407.204C184.751 407.832 184.398 408.881 184.398 410.352V417.36H182.79V404.814H184.398V407.043ZM203.394 404.584C204.344 404.584 205.194 404.784 205.945 405.182C206.711 405.58 207.308 406.193 207.737 407.02C208.181 407.832 208.404 408.828 208.404 410.007V417.36H206.818V410.191C206.818 408.828 206.473 407.786 205.784 407.066C205.11 406.346 204.183 405.986 203.004 405.986C201.794 405.986 200.829 406.369 200.109 407.135C199.389 407.901 199.029 409.027 199.029 410.513V417.36H197.42V400.356H199.029V406.951C199.427 406.2 200.009 405.618 200.775 405.205C201.556 404.791 202.429 404.584 203.394 404.584ZM211.225 411.064C211.225 409.777 211.478 408.651 211.984 407.686C212.505 406.706 213.217 405.955 214.121 405.435C215.04 404.898 216.074 404.63 217.223 404.63C218.418 404.63 219.444 404.906 220.302 405.458C221.175 406.009 221.803 406.714 222.186 407.571V404.814H223.794V417.36H222.186V414.58C221.788 415.438 221.152 416.15 220.279 416.717C219.421 417.268 218.395 417.544 217.2 417.544C216.066 417.544 215.04 417.276 214.121 416.74C213.217 416.203 212.505 415.445 211.984 414.465C211.478 413.484 211.225 412.351 211.225 411.064ZM222.186 411.087C222.186 410.076 221.979 409.188 221.565 408.422C221.152 407.656 220.585 407.066 219.865 406.652C219.16 406.239 218.379 406.032 217.521 406.032C216.633 406.032 215.836 406.231 215.132 406.629C214.427 407.028 213.868 407.61 213.454 408.376C213.056 409.126 212.857 410.022 212.857 411.064C212.857 412.09 213.056 412.994 213.454 413.775C213.868 414.541 214.427 415.131 215.132 415.545C215.836 415.943 216.633 416.142 217.521 416.142C218.379 416.142 219.16 415.935 219.865 415.522C220.585 415.108 221.152 414.518 221.565 413.752C221.979 412.987 222.186 412.098 222.186 411.087ZM229.075 407.043C229.427 406.262 229.963 405.657 230.683 405.228C231.418 404.799 232.315 404.584 233.372 404.584V406.262H232.935C231.771 406.262 230.836 406.576 230.132 407.204C229.427 407.832 229.075 408.881 229.075 410.352V417.36H227.466V404.814H229.075V407.043ZM235.056 411.064C235.056 409.777 235.316 408.651 235.837 407.686C236.358 406.706 237.07 405.955 237.974 405.435C238.893 404.898 239.927 404.63 241.076 404.63C242.179 404.63 243.175 404.898 244.063 405.435C244.952 405.971 245.603 406.668 246.016 407.526V400.356H247.625V417.36H246.016V414.557C245.633 415.43 245.005 416.15 244.132 416.717C243.259 417.268 242.233 417.544 241.053 417.544C239.904 417.544 238.87 417.276 237.951 416.74C237.047 416.203 236.335 415.445 235.814 414.465C235.309 413.484 235.056 412.351 235.056 411.064ZM246.016 411.087C246.016 410.076 245.809 409.188 245.396 408.422C244.982 407.656 244.415 407.066 243.696 406.652C242.991 406.239 242.21 406.032 241.352 406.032C240.463 406.032 239.667 406.231 238.962 406.629C238.257 407.028 237.698 407.61 237.285 408.376C236.886 409.126 236.687 410.022 236.687 411.064C236.687 412.09 236.886 412.994 237.285 413.775C237.698 414.541 238.257 415.131 238.962 415.545C239.667 415.943 240.463 416.142 241.352 416.142C242.21 416.142 242.991 415.935 243.696 415.522C244.415 415.108 244.982 414.518 245.396 413.752C245.809 412.987 246.016 412.098 246.016 411.087ZM267.841 404.814L263.911 417.36H262.303L258.833 406.836L255.364 417.36H253.732L249.803 404.814H251.435L254.559 415.729L258.075 404.814H259.684L263.153 415.752L266.255 404.814H267.841ZM269.298 411.064C269.298 409.777 269.551 408.651 270.056 407.686C270.577 406.706 271.289 405.955 272.193 405.435C273.112 404.898 274.146 404.63 275.295 404.63C276.49 404.63 277.516 404.906 278.374 405.458C279.247 406.009 279.875 406.714 280.258 407.571V404.814H281.867V417.36H280.258V414.58C279.86 415.438 279.224 416.15 278.351 416.717C277.493 417.268 276.467 417.544 275.272 417.544C274.139 417.544 273.112 417.276 272.193 416.74C271.289 416.203 270.577 415.445 270.056 414.465C269.551 413.484 269.298 412.351 269.298 411.064ZM280.258 411.087C280.258 410.076 280.052 409.188 279.638 408.422C279.224 407.656 278.658 407.066 277.938 406.652C277.233 406.239 276.452 406.032 275.594 406.032C274.706 406.032 273.909 406.231 273.204 406.629C272.5 407.028 271.941 407.61 271.527 408.376C271.129 409.126 270.93 410.022 270.93 411.064C270.93 412.09 271.129 412.994 271.527 413.775C271.941 414.541 272.5 415.131 273.204 415.545C273.909 415.943 274.706 416.142 275.594 416.142C276.452 416.142 277.233 415.935 277.938 415.522C278.658 415.108 279.224 414.518 279.638 413.752C280.052 412.987 280.258 412.098 280.258 411.087ZM287.147 407.043C287.5 406.262 288.036 405.657 288.756 405.228C289.491 404.799 290.387 404.584 291.444 404.584V406.262H291.008C289.843 406.262 288.909 406.576 288.204 407.204C287.5 407.832 287.147 408.881 287.147 410.352V417.36H285.539V404.814H287.147V407.043ZM305.215 410.444C305.215 410.995 305.199 411.416 305.169 411.707H294.76C294.806 412.657 295.036 413.469 295.449 414.143C295.863 414.817 296.407 415.33 297.081 415.683C297.755 416.02 298.49 416.188 299.287 416.188C300.328 416.188 301.201 415.935 301.906 415.43C302.626 414.924 303.101 414.243 303.331 413.385H305.031C304.725 414.61 304.066 415.614 303.055 416.395C302.059 417.161 300.803 417.544 299.287 417.544C298.107 417.544 297.05 417.283 296.116 416.763C295.181 416.226 294.446 415.476 293.91 414.511C293.389 413.53 293.128 412.389 293.128 411.087C293.128 409.785 293.389 408.644 293.91 407.663C294.431 406.683 295.158 405.932 296.093 405.412C297.027 404.891 298.092 404.63 299.287 404.63C300.481 404.63 301.523 404.891 302.411 405.412C303.315 405.932 304.005 406.637 304.479 407.526C304.97 408.399 305.215 409.371 305.215 410.444ZM303.583 410.398C303.599 409.463 303.407 408.667 303.009 408.008C302.626 407.349 302.097 406.852 301.423 406.515C300.749 406.177 300.014 406.009 299.218 406.009C298.023 406.009 297.004 406.392 296.162 407.158C295.319 407.924 294.852 409.004 294.76 410.398H303.583ZM139.333 434.444C139.333 434.995 139.318 435.416 139.287 435.707H128.878C128.924 436.657 129.154 437.469 129.568 438.143C129.981 438.817 130.525 439.33 131.199 439.683C131.873 440.02 132.608 440.188 133.405 440.188C134.447 440.188 135.32 439.935 136.024 439.43C136.744 438.924 137.219 438.243 137.449 437.385H139.149C138.843 438.61 138.184 439.614 137.173 440.395C136.178 441.161 134.921 441.544 133.405 441.544C132.225 441.544 131.168 441.283 130.234 440.763C129.3 440.226 128.564 439.476 128.028 438.511C127.507 437.53 127.247 436.389 127.247 435.087C127.247 433.785 127.507 432.644 128.028 431.663C128.549 430.683 129.277 429.932 130.211 429.412C131.145 428.891 132.21 428.63 133.405 428.63C134.6 428.63 135.641 428.891 136.53 429.412C137.434 429.932 138.123 430.637 138.598 431.526C139.088 432.399 139.333 433.371 139.333 434.444ZM137.702 434.398C137.717 433.463 137.526 432.667 137.127 432.008C136.744 431.349 136.216 430.852 135.542 430.515C134.868 430.177 134.133 430.009 133.336 430.009C132.141 430.009 131.122 430.392 130.28 431.158C129.437 431.924 128.97 433.004 128.878 434.398H137.702ZM148.158 428.584C149.659 428.584 150.885 429.052 151.835 429.986C152.784 430.905 153.259 432.245 153.259 434.007V441.36H151.674V434.191C151.674 432.828 151.329 431.786 150.64 431.066C149.966 430.346 149.039 429.986 147.86 429.986C146.649 429.986 145.684 430.369 144.964 431.135C144.244 431.901 143.884 433.027 143.884 434.513V441.36H142.276V428.814H143.884V430.951C144.283 430.185 144.857 429.603 145.608 429.205C146.358 428.791 147.208 428.584 148.158 428.584ZM158.907 430.17V437.959C158.907 438.725 159.053 439.254 159.344 439.545C159.635 439.836 160.148 439.981 160.884 439.981H162.354V441.36H160.631C159.497 441.36 158.655 441.1 158.103 440.579C157.552 440.043 157.276 439.169 157.276 437.959V430.17H155.53V428.814H157.276V425.666H158.907V428.814H162.354V430.17H158.907ZM170.981 428.584C171.931 428.584 172.781 428.784 173.532 429.182C174.297 429.58 174.895 430.193 175.324 431.02C175.768 431.832 175.99 432.828 175.99 434.007V441.36H174.405V434.191C174.405 432.828 174.06 431.786 173.371 431.066C172.697 430.346 171.77 429.986 170.59 429.986C169.38 429.986 168.415 430.369 167.695 431.135C166.975 431.901 166.615 433.027 166.615 434.513V441.36H165.007V424.356H166.615V430.951C167.014 430.2 167.596 429.618 168.362 429.205C169.143 428.791 170.016 428.584 170.981 428.584ZM190.416 428.814V441.36H188.807V439.154C188.44 439.935 187.873 440.533 187.107 440.946C186.341 441.36 185.483 441.567 184.534 441.567C183.032 441.567 181.807 441.107 180.857 440.188C179.907 439.254 179.432 437.906 179.432 436.144V428.814H181.018V435.96C181.018 437.324 181.355 438.365 182.029 439.085C182.718 439.805 183.653 440.165 184.832 440.165C186.042 440.165 187.007 439.782 187.727 439.016C188.447 438.25 188.807 437.124 188.807 435.639V428.814H190.416ZM198.408 441.544C196.968 441.544 195.788 441.214 194.869 440.556C193.965 439.882 193.46 438.97 193.353 437.821H195.007C195.084 438.526 195.413 439.101 195.995 439.545C196.593 439.974 197.389 440.188 198.385 440.188C199.258 440.188 199.94 439.981 200.43 439.568C200.935 439.154 201.188 438.641 201.188 438.028C201.188 437.599 201.05 437.247 200.774 436.971C200.499 436.696 200.146 436.481 199.718 436.328C199.304 436.159 198.737 435.983 198.017 435.799C197.083 435.554 196.324 435.309 195.742 435.064C195.16 434.819 194.662 434.459 194.249 433.984C193.851 433.494 193.651 432.843 193.651 432.031C193.651 431.418 193.835 430.852 194.203 430.331C194.571 429.81 195.091 429.396 195.765 429.09C196.439 428.784 197.205 428.63 198.063 428.63C199.411 428.63 200.499 428.975 201.326 429.664C202.153 430.338 202.597 431.273 202.659 432.468H201.05C201.004 431.732 200.713 431.143 200.177 430.698C199.656 430.239 198.936 430.009 198.017 430.009C197.205 430.009 196.547 430.2 196.041 430.583C195.536 430.966 195.283 431.441 195.283 432.008C195.283 432.498 195.428 432.904 195.719 433.226C196.026 433.532 196.401 433.777 196.845 433.961C197.29 434.13 197.887 434.321 198.638 434.536C199.541 434.781 200.261 435.018 200.797 435.248C201.334 435.478 201.793 435.815 202.176 436.259C202.559 436.703 202.758 437.293 202.774 438.028C202.774 438.702 202.59 439.307 202.222 439.843C201.854 440.364 201.341 440.778 200.683 441.084C200.024 441.391 199.266 441.544 198.408 441.544ZM206.605 426.447C206.284 426.447 206.008 426.333 205.778 426.103C205.548 425.873 205.434 425.59 205.434 425.253C205.434 424.916 205.548 424.64 205.778 424.425C206.008 424.196 206.284 424.081 206.605 424.081C206.927 424.081 207.203 424.196 207.433 424.425C207.662 424.64 207.777 424.916 207.777 425.253C207.777 425.59 207.662 425.873 207.433 426.103C207.203 426.333 206.927 426.447 206.605 426.447ZM207.41 428.814V441.36H205.801V428.814H207.41ZM210.317 435.064C210.317 433.777 210.569 432.651 211.075 431.686C211.596 430.706 212.308 429.955 213.212 429.435C214.131 428.898 215.165 428.63 216.314 428.63C217.509 428.63 218.535 428.906 219.393 429.458C220.266 430.009 220.894 430.714 221.277 431.571V428.814H222.886V441.36H221.277V438.58C220.879 439.438 220.243 440.15 219.37 440.717C218.512 441.268 217.486 441.544 216.291 441.544C215.157 441.544 214.131 441.276 213.212 440.74C212.308 440.203 211.596 439.445 211.075 438.465C210.569 437.484 210.317 436.351 210.317 435.064ZM221.277 435.087C221.277 434.076 221.07 433.188 220.657 432.422C220.243 431.656 219.676 431.066 218.956 430.652C218.252 430.239 217.47 430.032 216.613 430.032C215.724 430.032 214.928 430.231 214.223 430.629C213.518 431.028 212.959 431.61 212.546 432.376C212.147 433.126 211.948 434.022 211.948 435.064C211.948 436.09 212.147 436.994 212.546 437.775C212.959 438.541 213.518 439.131 214.223 439.545C214.928 439.943 215.724 440.142 216.613 440.142C217.47 440.142 218.252 439.935 218.956 439.522C219.676 439.108 220.243 438.518 220.657 437.752C221.07 436.987 221.277 436.098 221.277 435.087ZM230.877 441.544C229.437 441.544 228.258 441.214 227.339 440.556C226.435 439.882 225.929 438.97 225.822 437.821H227.477C227.553 438.526 227.883 439.101 228.465 439.545C229.062 439.974 229.859 440.188 230.854 440.188C231.727 440.188 232.409 439.981 232.899 439.568C233.405 439.154 233.658 438.641 233.658 438.028C233.658 437.599 233.52 437.247 233.244 436.971C232.968 436.696 232.616 436.481 232.187 436.328C231.773 436.159 231.207 435.983 230.487 435.799C229.552 435.554 228.794 435.309 228.212 435.064C227.63 434.819 227.132 434.459 226.718 433.984C226.32 433.494 226.121 432.843 226.121 432.031C226.121 431.418 226.305 430.852 226.672 430.331C227.04 429.81 227.561 429.396 228.235 429.09C228.909 428.784 229.675 428.63 230.533 428.63C231.881 428.63 232.968 428.975 233.795 429.664C234.623 430.338 235.067 431.273 235.128 432.468H233.52C233.474 431.732 233.183 431.143 232.647 430.698C232.126 430.239 231.406 430.009 230.487 430.009C229.675 430.009 229.016 430.2 228.511 430.583C228.005 430.966 227.752 431.441 227.752 432.008C227.752 432.498 227.898 432.904 228.189 433.226C228.495 433.532 228.871 433.777 229.315 433.961C229.759 434.13 230.356 434.321 231.107 434.536C232.011 434.781 232.731 435.018 233.267 435.248C233.803 435.478 234.263 435.815 234.646 436.259C235.029 436.703 235.228 437.293 235.243 438.028C235.243 438.702 235.059 439.307 234.692 439.843C234.324 440.364 233.811 440.778 233.152 441.084C232.493 441.391 231.735 441.544 230.877 441.544ZM240.362 430.17V437.959C240.362 438.725 240.507 439.254 240.798 439.545C241.089 439.836 241.602 439.981 242.338 439.981H243.808V441.36H242.085C240.951 441.36 240.109 441.1 239.557 440.579C239.006 440.043 238.73 439.169 238.73 437.959V430.17H236.984V428.814H238.73V425.666H240.362V428.814H243.808V430.17H240.362ZM250.781 441.544C249.341 441.544 248.161 441.214 247.242 440.556C246.338 439.882 245.833 438.97 245.726 437.821H247.38C247.457 438.526 247.786 439.101 248.368 439.545C248.966 439.974 249.762 440.188 250.758 440.188C251.631 440.188 252.313 439.981 252.803 439.568C253.308 439.154 253.561 438.641 253.561 438.028C253.561 437.599 253.423 437.247 253.148 436.971C252.872 436.696 252.519 436.481 252.091 436.328C251.677 436.159 251.11 435.983 250.39 435.799C249.456 435.554 248.698 435.309 248.115 435.064C247.533 434.819 247.035 434.459 246.622 433.984C246.224 433.494 246.024 432.843 246.024 432.031C246.024 431.418 246.208 430.852 246.576 430.331C246.944 429.81 247.464 429.396 248.138 429.09C248.812 428.784 249.578 428.63 250.436 428.63C251.784 428.63 252.872 428.975 253.699 429.664C254.526 430.338 254.97 431.273 255.032 432.468H253.423C253.377 431.732 253.086 431.143 252.55 430.698C252.029 430.239 251.309 430.009 250.39 430.009C249.578 430.009 248.92 430.2 248.414 430.583C247.909 430.966 247.656 431.441 247.656 432.008C247.656 432.498 247.801 432.904 248.092 433.226C248.399 433.532 248.774 433.777 249.218 433.961C249.663 434.13 250.26 434.321 251.011 434.536C251.914 434.781 252.634 435.018 253.171 435.248C253.707 435.478 254.166 435.815 254.549 436.259C254.932 436.703 255.131 437.293 255.147 438.028C255.147 438.702 254.963 439.307 254.595 439.843C254.227 440.364 253.714 440.778 253.056 441.084C252.397 441.391 251.639 441.544 250.781 441.544Z" fill="#111111"/>
<rect x="506.5" y="143" width="383" height="383" rx="59.9088" fill="white"/>
<path fill-rule="evenodd" clip-rule="evenodd" d="M736 242.5C736 272.444 697.5 298.111 697.5 298.111C697.5 298.111 659 272.444 659 242.5C659 232.289 663.056 222.497 670.276 215.276C677.497 208.056 687.289 204 697.5 204C707.711 204 717.503 208.056 724.724 215.276C731.944 222.497 736 232.289 736 242.5ZM697.5 270C712.688 270 725 257.688 725 242.5C725 227.312 712.688 215 697.5 215C682.312 215 670 227.312 670 242.5C670 257.688 682.312 270 697.5 270Z" fill="#CF2B57"/>
<path d="M697.5 298.111L696.945 298.943C697.281 299.167 697.719 299.167 698.055 298.943L697.5 298.111ZM670.276 215.276L670.983 215.983L670.983 215.983L670.276 215.276ZM724.724 215.276L725.431 214.569L725.431 214.569L724.724 215.276ZM697.5 298.111C698.055 298.943 698.055 298.943 698.056 298.943C698.056 298.942 698.057 298.942 698.057 298.941C698.059 298.94 698.061 298.939 698.063 298.937C698.069 298.934 698.076 298.929 698.086 298.922C698.106 298.909 698.135 298.889 698.172 298.864C698.248 298.813 698.358 298.737 698.502 298.638C698.789 298.439 699.208 298.145 699.74 297.76C700.804 296.992 702.32 295.863 704.139 294.415C707.774 291.52 712.623 287.345 717.476 282.222C727.141 272.021 737 257.874 737 242.5H735C735 257.07 725.609 270.729 716.024 280.847C711.252 285.884 706.476 289.997 702.893 292.851C701.102 294.277 699.61 295.387 698.569 296.139C698.048 296.515 697.64 296.802 697.363 296.993C697.225 297.089 697.119 297.162 697.049 297.209C697.013 297.233 696.987 297.251 696.97 297.263C696.961 297.269 696.955 297.273 696.951 297.276C696.949 297.277 696.947 297.278 696.946 297.278C696.946 297.279 696.946 297.279 696.945 297.279C696.945 297.279 696.945 297.279 697.5 298.111ZM658 242.5C658 257.874 667.859 272.021 677.524 282.222C682.377 287.345 687.226 291.52 690.861 294.415C692.68 295.863 694.196 296.992 695.26 297.76C695.792 298.145 696.211 298.439 696.498 298.638C696.642 298.737 696.752 298.813 696.828 298.864C696.865 298.889 696.894 298.909 696.914 298.922C696.924 298.929 696.931 298.934 696.937 298.937C696.939 298.939 696.941 298.94 696.943 298.941C696.943 298.942 696.944 298.942 696.944 298.943C696.945 298.943 696.945 298.943 697.5 298.111C698.055 297.279 698.055 297.279 698.055 297.279C698.054 297.279 698.054 297.279 698.054 297.278C698.053 297.278 698.051 297.277 698.049 297.276C698.045 297.273 698.039 297.269 698.03 297.263C698.013 297.251 697.987 297.233 697.951 297.209C697.881 297.162 697.775 297.089 697.637 296.993C697.36 296.802 696.952 296.515 696.431 296.139C695.39 295.387 693.898 294.277 692.107 292.851C688.524 289.997 683.748 285.884 678.976 280.847C669.391 270.729 660 257.07 660 242.5H658ZM669.569 214.569C662.162 221.977 658 232.024 658 242.5H660C660 232.554 663.951 223.016 670.983 215.983L669.569 214.569ZM697.5 203C687.024 203 676.977 207.162 669.569 214.569L670.983 215.983C678.016 208.951 687.554 205 697.5 205V203ZM725.431 214.569C718.023 207.162 707.976 203 697.5 203V205C707.446 205 716.984 208.951 724.017 215.983L725.431 214.569ZM737 242.5C737 232.024 732.838 221.977 725.431 214.569L724.017 215.983C731.049 223.016 735 232.554 735 242.5H737ZM724 242.5C724 257.136 712.136 269 697.5 269V271C713.24 271 726 258.24 726 242.5H724ZM697.5 216C712.136 216 724 227.864 724 242.5H726C726 226.76 713.24 214 697.5 214V216ZM671 242.5C671 227.864 682.864 216 697.5 216V214C681.76 214 669 226.76 669 242.5H671ZM697.5 269C682.864 269 671 257.136 671 242.5H669C669 258.24 681.76 271 697.5 271V269Z" fill="#CF2B57"/>
<path d="M613.892 347.987V352.868H607.264V373H601.171V352.868H594.544V347.987H613.892ZM623.043 356.431C623.755 355.339 624.646 354.484 625.715 353.866C626.784 353.225 627.972 352.904 629.278 352.904V359.353H627.603C626.083 359.353 624.943 359.686 624.183 360.351C623.423 360.992 623.043 362.132 623.043 363.771V373H616.95V353.118H623.043V356.431ZM630.979 363.023C630.979 360.98 631.359 359.187 632.119 357.643C632.903 356.099 633.96 354.911 635.29 354.08C636.621 353.248 638.105 352.833 639.744 352.833C641.146 352.833 642.369 353.118 643.414 353.688C644.483 354.258 645.303 355.006 645.873 355.933V353.118H651.966V373H645.873V370.185C645.279 371.112 644.448 371.86 643.379 372.43C642.334 373 641.11 373.285 639.709 373.285C638.093 373.285 636.621 372.869 635.29 372.038C633.96 371.183 632.903 369.983 632.119 368.439C631.359 366.871 630.979 365.066 630.979 363.023ZM645.873 363.059C645.873 361.539 645.445 360.339 644.59 359.46C643.759 358.581 642.737 358.142 641.526 358.142C640.314 358.142 639.281 358.581 638.426 359.46C637.595 360.315 637.179 361.503 637.179 363.023C637.179 364.543 637.595 365.755 638.426 366.658C639.281 367.537 640.314 367.976 641.526 367.976C642.737 367.976 643.759 367.537 644.59 366.658C645.445 365.779 645.873 364.579 645.873 363.059ZM655.162 363.059C655.162 360.992 655.578 359.187 656.41 357.643C657.265 356.099 658.441 354.911 659.937 354.08C661.457 353.248 663.191 352.833 665.139 352.833C667.633 352.833 669.712 353.486 671.375 354.792C673.061 356.099 674.166 357.94 674.688 360.315H668.204C667.657 358.795 666.6 358.035 665.032 358.035C663.916 358.035 663.025 358.474 662.36 359.353C661.695 360.208 661.362 361.444 661.362 363.059C661.362 364.674 661.695 365.921 662.36 366.8C663.025 367.655 663.916 368.083 665.032 368.083C666.6 368.083 667.657 367.323 668.204 365.802H674.688C674.166 368.13 673.061 369.959 671.375 371.29C669.688 372.62 667.61 373.285 665.139 373.285C663.191 373.285 661.457 372.869 659.937 372.038C658.441 371.207 657.265 370.019 656.41 368.475C655.578 366.931 655.162 365.125 655.162 363.059ZM690.098 373L684.041 364.662V373H677.948V346.633H684.041V361.206L690.062 353.118H697.581L689.314 363.094L697.652 373H690.098ZM726.587 356.039C726.587 357.488 726.255 358.819 725.59 360.03C724.924 361.218 723.903 362.18 722.525 362.916C721.148 363.653 719.437 364.021 717.394 364.021H713.617V373H707.524V347.987H717.394C719.39 347.987 721.076 348.331 722.454 349.02C723.832 349.709 724.865 350.659 725.554 351.871C726.243 353.082 726.587 354.472 726.587 356.039ZM716.931 359.175C718.095 359.175 718.962 358.902 719.532 358.355C720.102 357.809 720.387 357.037 720.387 356.039C720.387 355.042 720.102 354.27 719.532 353.723C718.962 353.177 718.095 352.904 716.931 352.904H713.617V359.175H716.931ZM728.548 363.023C728.548 360.98 728.928 359.187 729.688 357.643C730.472 356.099 731.529 354.911 732.859 354.08C734.189 353.248 735.674 352.833 737.313 352.833C738.715 352.833 739.938 353.118 740.983 353.688C742.052 354.258 742.872 355.006 743.442 355.933V353.118H749.535V373H743.442V370.185C742.848 371.112 742.017 371.86 740.948 372.43C739.902 373 738.679 373.285 737.278 373.285C735.662 373.285 734.189 372.869 732.859 372.038C731.529 371.183 730.472 369.983 729.688 368.439C728.928 366.871 728.548 365.066 728.548 363.023ZM743.442 363.059C743.442 361.539 743.014 360.339 742.159 359.46C741.328 358.581 740.306 358.142 739.095 358.142C737.883 358.142 736.85 358.581 735.995 359.46C735.163 360.315 734.748 361.503 734.748 363.023C734.748 364.543 735.163 365.755 735.995 366.658C736.85 367.537 737.883 367.976 739.095 367.976C740.306 367.976 741.328 367.537 742.159 366.658C743.014 365.779 743.442 364.579 743.442 363.059ZM760.036 356.431C760.748 355.339 761.639 354.484 762.708 353.866C763.777 353.225 764.965 352.904 766.271 352.904V359.353H764.597C763.076 359.353 761.936 359.686 761.176 360.351C760.416 360.992 760.036 362.132 760.036 363.771V373H753.943V353.118H760.036V356.431ZM780.265 367.833V373H777.165C774.956 373 773.234 372.466 771.998 371.397C770.763 370.304 770.146 368.534 770.146 366.088V358.177H767.723V353.118H770.146V348.272H776.239V353.118H780.229V358.177H776.239V366.159C776.239 366.753 776.381 367.18 776.666 367.441C776.951 367.703 777.426 367.833 778.091 367.833H780.265ZM791.747 373.285C790.013 373.285 788.469 372.988 787.115 372.394C785.761 371.8 784.692 370.993 783.908 369.971C783.124 368.926 782.685 367.762 782.59 366.479H788.612C788.683 367.168 789.004 367.727 789.574 368.154C790.144 368.582 790.844 368.795 791.676 368.795C792.436 368.795 793.018 368.653 793.422 368.368C793.849 368.059 794.063 367.667 794.063 367.192C794.063 366.622 793.766 366.206 793.172 365.945C792.579 365.66 791.617 365.351 790.286 365.019C788.861 364.686 787.673 364.342 786.723 363.985C785.773 363.605 784.953 363.023 784.265 362.239C783.576 361.432 783.231 360.351 783.231 358.997C783.231 357.857 783.54 356.823 784.158 355.897C784.799 354.947 785.725 354.198 786.937 353.652C788.172 353.106 789.633 352.833 791.32 352.833C793.814 352.833 795.774 353.45 797.199 354.685C798.648 355.921 799.479 357.56 799.693 359.603H794.063C793.968 358.914 793.659 358.367 793.137 357.964C792.638 357.56 791.973 357.358 791.141 357.358C790.429 357.358 789.882 357.5 789.502 357.785C789.122 358.047 788.932 358.415 788.932 358.89C788.932 359.46 789.229 359.888 789.823 360.173C790.441 360.458 791.391 360.743 792.674 361.028C794.146 361.408 795.346 361.788 796.272 362.168C797.199 362.524 798.006 363.118 798.695 363.95C799.408 364.757 799.776 365.85 799.8 367.228C799.8 368.392 799.467 369.437 798.802 370.363C798.161 371.266 797.223 371.979 795.987 372.501C794.776 373.024 793.362 373.285 791.747 373.285Z" fill="#111111"/>
<path d="M592.177 394.323V407.099H590.539V404.853C590.164 405.648 589.587 406.257 588.807 406.678C588.027 407.099 587.153 407.31 586.186 407.31C584.657 407.31 583.41 406.842 582.442 405.906C581.475 404.954 580.992 403.581 580.992 401.787V394.323H582.606V401.6C582.606 402.989 582.949 404.049 583.636 404.783C584.338 405.516 585.289 405.882 586.49 405.882C587.723 405.882 588.706 405.492 589.439 404.712C590.172 403.932 590.539 402.786 590.539 401.273V394.323H592.177ZM600.315 407.286C598.849 407.286 597.648 406.951 596.712 406.28C595.791 405.594 595.277 404.666 595.167 403.496H596.852C596.93 404.213 597.266 404.798 597.858 405.251C598.467 405.687 599.278 405.906 600.292 405.906C601.181 405.906 601.875 405.695 602.375 405.274C602.889 404.853 603.147 404.33 603.147 403.706C603.147 403.269 603.006 402.911 602.726 402.63C602.445 402.349 602.086 402.131 601.649 401.975C601.228 401.803 600.651 401.624 599.918 401.437C598.966 401.187 598.194 400.937 597.601 400.688C597.008 400.438 596.501 400.072 596.08 399.588C595.674 399.089 595.472 398.426 595.472 397.599C595.472 396.975 595.659 396.398 596.033 395.867C596.408 395.337 596.938 394.916 597.624 394.604C598.311 394.292 599.091 394.136 599.964 394.136C601.337 394.136 602.445 394.487 603.287 395.189C604.129 395.875 604.582 396.827 604.644 398.044H603.006C602.96 397.295 602.663 396.694 602.117 396.242C601.587 395.774 600.854 395.54 599.918 395.54C599.091 395.54 598.42 395.735 597.905 396.125C597.39 396.515 597.133 396.998 597.133 397.576C597.133 398.075 597.281 398.488 597.578 398.816C597.89 399.128 598.272 399.377 598.724 399.565C599.177 399.736 599.785 399.931 600.549 400.15C601.47 400.399 602.203 400.641 602.749 400.875C603.295 401.109 603.763 401.452 604.153 401.904C604.543 402.357 604.746 402.957 604.761 403.706C604.761 404.393 604.574 405.009 604.2 405.555C603.825 406.085 603.303 406.506 602.632 406.818C601.961 407.13 601.189 407.286 600.315 407.286ZM608.664 391.913C608.336 391.913 608.055 391.796 607.821 391.562C607.587 391.328 607.47 391.039 607.47 390.696C607.47 390.353 607.587 390.072 607.821 389.854C608.055 389.62 608.336 389.503 608.664 389.503C608.991 389.503 609.272 389.62 609.506 389.854C609.74 390.072 609.857 390.353 609.857 390.696C609.857 391.039 609.74 391.328 609.506 391.562C609.272 391.796 608.991 391.913 608.664 391.913ZM609.483 394.323V407.099H607.845V394.323H609.483ZM619.182 394.089C620.711 394.089 621.959 394.565 622.926 395.516C623.893 396.452 624.377 397.817 624.377 399.611V407.099H622.762V399.799C622.762 398.41 622.411 397.349 621.709 396.616C621.023 395.883 620.079 395.516 618.878 395.516C617.646 395.516 616.663 395.906 615.93 396.686C615.196 397.466 614.83 398.613 614.83 400.126V407.099H613.192V394.323H614.83V396.499C615.235 395.719 615.82 395.126 616.585 394.721C617.349 394.3 618.215 394.089 619.182 394.089ZM633.358 394.136C634.559 394.136 635.604 394.417 636.494 394.978C637.383 395.54 638.022 396.25 638.412 397.108V394.323H640.05V407.427C640.05 408.597 639.793 409.634 639.278 410.539C638.779 411.444 638.077 412.138 637.172 412.622C636.267 413.121 635.238 413.37 634.083 413.37C632.445 413.37 631.08 412.98 629.988 412.2C628.912 411.42 628.241 410.36 627.976 409.018H629.591C629.871 409.907 630.402 410.617 631.182 411.147C631.977 411.678 632.945 411.943 634.083 411.943C634.91 411.943 635.651 411.764 636.306 411.405C636.962 411.062 637.476 410.547 637.851 409.86C638.225 409.174 638.412 408.363 638.412 407.427V404.268C638.007 405.141 637.359 405.867 636.47 406.444C635.597 407.006 634.559 407.286 633.358 407.286C632.188 407.286 631.135 407.013 630.199 406.467C629.279 405.921 628.553 405.149 628.023 404.151C627.508 403.152 627.251 401.998 627.251 400.688C627.251 399.377 627.508 398.231 628.023 397.248C628.553 396.25 629.279 395.485 630.199 394.955C631.135 394.409 632.188 394.136 633.358 394.136ZM638.412 400.711C638.412 399.682 638.202 398.777 637.781 397.997C637.359 397.217 636.782 396.616 636.049 396.195C635.331 395.774 634.536 395.563 633.662 395.563C632.757 395.563 631.946 395.766 631.229 396.172C630.511 396.577 629.942 397.17 629.52 397.95C629.115 398.714 628.912 399.627 628.912 400.688C628.912 401.733 629.115 402.653 629.52 403.449C629.942 404.229 630.511 404.829 631.229 405.251C631.946 405.656 632.757 405.859 633.662 405.859C634.536 405.859 635.331 405.648 636.049 405.227C636.782 404.806 637.359 404.205 637.781 403.425C638.202 402.645 638.412 401.741 638.412 400.711ZM655.803 407.286C654.602 407.286 653.518 407.021 652.551 406.491C651.599 405.945 650.843 405.18 650.281 404.198C649.735 403.199 649.462 402.037 649.462 400.711C649.462 399.385 649.743 398.231 650.305 397.248C650.866 396.25 651.631 395.485 652.598 394.955C653.565 394.409 654.649 394.136 655.85 394.136C657.051 394.136 658.136 394.409 659.103 394.955C660.086 395.485 660.85 396.25 661.396 397.248C661.958 398.231 662.238 399.385 662.238 400.711C662.238 402.021 661.958 403.176 661.396 404.174C660.834 405.173 660.062 405.945 659.079 406.491C658.097 407.021 657.005 407.286 655.803 407.286ZM655.803 405.859C656.646 405.859 657.426 405.672 658.143 405.297C658.861 404.907 659.438 404.33 659.875 403.566C660.327 402.786 660.554 401.834 660.554 400.711C660.554 399.588 660.335 398.644 659.898 397.88C659.462 397.1 658.884 396.523 658.167 396.148C657.449 395.758 656.669 395.563 655.827 395.563C654.984 395.563 654.204 395.758 653.487 396.148C652.769 396.523 652.192 397.1 651.755 397.88C651.334 398.644 651.124 399.588 651.124 400.711C651.124 401.834 651.334 402.786 651.755 403.566C652.192 404.33 652.761 404.907 653.463 405.297C654.181 405.672 654.961 405.859 655.803 405.859ZM676.292 394.323V407.099H674.654V404.853C674.28 405.648 673.703 406.257 672.923 406.678C672.143 407.099 671.269 407.31 670.302 407.31C668.773 407.31 667.525 406.842 666.558 405.906C665.591 404.954 665.107 403.581 665.107 401.787V394.323H666.722V401.6C666.722 402.989 667.065 404.049 667.751 404.783C668.453 405.516 669.405 405.882 670.606 405.882C671.839 405.882 672.821 405.492 673.555 404.712C674.288 403.932 674.654 402.786 674.654 401.273V394.323H676.292ZM681.67 396.593C682.029 395.797 682.575 395.181 683.308 394.744C684.057 394.307 684.969 394.089 686.046 394.089V395.797H685.601C684.415 395.797 683.464 396.117 682.746 396.757C682.029 397.396 681.67 398.465 681.67 399.962V407.099H680.032V394.323H681.67V396.593ZM695.75 391.913C695.422 391.913 695.142 391.796 694.908 391.562C694.674 391.328 694.557 391.039 694.557 390.696C694.557 390.353 694.674 390.072 694.908 389.854C695.142 389.62 695.422 389.503 695.75 389.503C696.078 389.503 696.358 389.62 696.592 389.854C696.826 390.072 696.943 390.353 696.943 390.696C696.943 391.039 696.826 391.328 696.592 391.562C696.358 391.796 696.078 391.913 695.75 391.913ZM696.569 394.323V407.099H694.931V394.323H696.569ZM706.268 394.089C707.797 394.089 709.045 394.565 710.012 395.516C710.98 396.452 711.463 397.817 711.463 399.611V407.099H709.849V399.799C709.849 398.41 709.498 397.349 708.796 396.616C708.109 395.883 707.165 395.516 705.964 395.516C704.732 395.516 703.749 395.906 703.016 396.686C702.283 397.466 701.916 398.613 701.916 400.126V407.099H700.278V394.323H701.916V396.499C702.322 395.719 702.907 395.126 703.671 394.721C704.436 394.3 705.301 394.089 706.268 394.089ZM717.215 395.704V403.636C717.215 404.416 717.363 404.954 717.66 405.251C717.956 405.547 718.479 405.695 719.228 405.695H720.725V407.099H718.97C717.816 407.099 716.958 406.834 716.396 406.304C715.835 405.758 715.554 404.868 715.554 403.636V395.704H713.775V394.323H715.554V391.117H717.215V394.323H720.725V395.704H717.215ZM734.986 400.056C734.986 400.618 734.97 401.047 734.939 401.343H724.339C724.386 402.31 724.62 403.137 725.041 403.823C725.462 404.51 726.016 405.032 726.703 405.391C727.389 405.734 728.138 405.906 728.949 405.906C730.01 405.906 730.899 405.648 731.616 405.134C732.35 404.619 732.833 403.925 733.067 403.051H734.799C734.487 404.299 733.816 405.321 732.786 406.116C731.772 406.896 730.493 407.286 728.949 407.286C727.748 407.286 726.671 407.021 725.72 406.491C724.768 405.945 724.019 405.18 723.473 404.198C722.943 403.199 722.678 402.037 722.678 400.711C722.678 399.385 722.943 398.223 723.473 397.225C724.004 396.226 724.745 395.462 725.696 394.931C726.648 394.401 727.732 394.136 728.949 394.136C730.166 394.136 731.226 394.401 732.131 394.931C733.052 395.462 733.754 396.179 734.237 397.084C734.736 397.973 734.986 398.964 734.986 400.056ZM733.325 400.009C733.34 399.058 733.145 398.246 732.74 397.576C732.35 396.905 731.811 396.398 731.125 396.055C730.439 395.711 729.69 395.54 728.879 395.54C727.662 395.54 726.625 395.93 725.767 396.71C724.909 397.49 724.433 398.59 724.339 400.009H733.325ZM739.621 396.593C739.98 395.797 740.526 395.181 741.259 394.744C742.008 394.307 742.92 394.089 743.997 394.089V395.797H743.552C742.366 395.797 741.415 396.117 740.697 396.757C739.98 397.396 739.621 398.465 739.621 399.962V407.099H737.983V394.323H739.621V396.593ZM745.712 400.688C745.712 399.377 745.969 398.231 746.484 397.248C747.014 396.25 747.74 395.485 748.66 394.955C749.596 394.409 750.649 394.136 751.819 394.136C753.036 394.136 754.081 394.417 754.955 394.978C755.844 395.54 756.484 396.257 756.874 397.131V394.323H758.512V407.099H756.874V404.268C756.468 405.141 755.821 405.867 754.931 406.444C754.058 407.006 753.013 407.286 751.796 407.286C750.641 407.286 749.596 407.013 748.66 406.467C747.74 405.921 747.014 405.149 746.484 404.151C745.969 403.152 745.712 401.998 745.712 400.688ZM756.874 400.711C756.874 399.682 756.663 398.777 756.242 397.997C755.821 397.217 755.243 396.616 754.51 396.195C753.793 395.774 752.997 395.563 752.123 395.563C751.219 395.563 750.407 395.766 749.69 396.172C748.972 396.577 748.403 397.17 747.982 397.95C747.576 398.714 747.373 399.627 747.373 400.688C747.373 401.733 747.576 402.653 747.982 403.449C748.403 404.229 748.972 404.829 749.69 405.251C750.407 405.656 751.219 405.859 752.123 405.859C752.997 405.859 753.793 405.648 754.51 405.227C755.243 404.806 755.821 404.205 756.242 403.425C756.663 402.645 756.874 401.741 756.874 400.711ZM761.502 400.711C761.502 399.385 761.767 398.231 762.298 397.248C762.828 396.25 763.561 395.485 764.497 394.955C765.433 394.409 766.502 394.136 767.703 394.136C769.279 394.136 770.573 394.526 771.587 395.306C772.617 396.086 773.28 397.147 773.576 398.488H771.821C771.603 397.568 771.127 396.85 770.394 396.335C769.676 395.805 768.779 395.54 767.703 395.54C766.845 395.54 766.073 395.735 765.386 396.125C764.7 396.515 764.154 397.1 763.749 397.88C763.359 398.644 763.164 399.588 763.164 400.711C763.164 401.834 763.359 402.786 763.749 403.566C764.154 404.346 764.7 404.931 765.386 405.321C766.073 405.711 766.845 405.906 767.703 405.906C768.779 405.906 769.676 405.648 770.394 405.134C771.127 404.603 771.603 403.87 771.821 402.934H773.576C773.28 404.244 772.617 405.297 771.587 406.093C770.558 406.889 769.263 407.286 767.703 407.286C766.502 407.286 765.433 407.021 764.497 406.491C763.561 405.945 762.828 405.18 762.298 404.198C761.767 403.199 761.502 402.037 761.502 400.711ZM778.731 395.704V403.636C778.731 404.416 778.879 404.954 779.176 405.251C779.472 405.547 779.995 405.695 780.743 405.695H782.241V407.099H780.486C779.332 407.099 778.474 406.834 777.912 406.304C777.35 405.758 777.07 404.868 777.07 403.636V395.704H775.291V394.323H777.07V391.117H778.731V394.323H782.241V395.704H778.731ZM785.761 391.913C785.434 391.913 785.153 391.796 784.919 391.562C784.685 391.328 784.568 391.039 784.568 390.696C784.568 390.353 784.685 390.072 784.919 389.854C785.153 389.62 785.434 389.503 785.761 389.503C786.089 389.503 786.37 389.62 786.604 389.854C786.838 390.072 786.955 390.353 786.955 390.696C786.955 391.039 786.838 391.328 786.604 391.562C786.37 391.796 786.089 391.913 785.761 391.913ZM786.58 394.323V407.099H784.942V394.323H786.58ZM794.829 405.508L799.135 394.323H800.866L795.742 407.099H793.893L788.769 394.323H790.523L794.829 405.508ZM814.646 400.056C814.646 400.618 814.63 401.047 814.599 401.343H803.999C804.046 402.31 804.28 403.137 804.701 403.823C805.122 404.51 805.676 405.032 806.362 405.391C807.049 405.734 807.797 405.906 808.609 405.906C809.669 405.906 810.559 405.648 811.276 405.134C812.009 404.619 812.493 403.925 812.727 403.051H814.459C814.147 404.299 813.476 405.321 812.446 406.116C811.432 406.896 810.153 407.286 808.609 407.286C807.407 407.286 806.331 407.021 805.379 406.491C804.428 405.945 803.679 405.18 803.133 404.198C802.603 403.199 802.337 402.037 802.337 400.711C802.337 399.385 802.603 398.223 803.133 397.225C803.663 396.226 804.404 395.462 805.356 394.931C806.308 394.401 807.392 394.136 808.609 394.136C809.825 394.136 810.886 394.401 811.791 394.931C812.711 395.462 813.413 396.179 813.897 397.084C814.396 397.973 814.646 398.964 814.646 400.056ZM812.984 400.009C813 399.058 812.805 398.246 812.399 397.576C812.009 396.905 811.471 396.398 810.785 396.055C810.098 395.711 809.35 395.54 808.538 395.54C807.322 395.54 806.284 395.93 805.426 396.71C804.568 397.49 804.092 398.59 803.999 400.009H812.984ZM629.066 421.154C629.487 420.265 630.134 419.54 631.008 418.978C631.897 418.417 632.942 418.136 634.143 418.136C635.313 418.136 636.359 418.409 637.279 418.955C638.199 419.485 638.917 420.25 639.432 421.248C639.962 422.231 640.227 423.377 640.227 424.688C640.227 425.998 639.962 427.152 639.432 428.151C638.917 429.149 638.191 429.921 637.256 430.467C636.335 431.013 635.298 431.286 634.143 431.286C632.927 431.286 631.874 431.013 630.984 430.467C630.111 429.906 629.471 429.18 629.066 428.291V431.099H627.451V413.783H629.066V421.154ZM638.566 424.688C638.566 423.627 638.355 422.714 637.934 421.95C637.528 421.17 636.967 420.577 636.249 420.172C635.532 419.766 634.721 419.563 633.816 419.563C632.942 419.563 632.139 419.774 631.406 420.195C630.688 420.616 630.119 421.217 629.697 421.997C629.276 422.777 629.066 423.682 629.066 424.711C629.066 425.741 629.276 426.645 629.697 427.425C630.119 428.205 630.688 428.806 631.406 429.227C632.139 429.648 632.942 429.859 633.816 429.859C634.721 429.859 635.532 429.656 636.249 429.251C636.967 428.829 637.528 428.229 637.934 427.449C638.355 426.653 638.566 425.733 638.566 424.688ZM654.309 418.323V431.099H652.671V428.853C652.297 429.648 651.72 430.257 650.94 430.678C650.16 431.099 649.286 431.31 648.319 431.31C646.79 431.31 645.542 430.842 644.575 429.906C643.608 428.954 643.124 427.581 643.124 425.787V418.323H644.739V425.6C644.739 426.989 645.082 428.049 645.768 428.783C646.47 429.516 647.422 429.882 648.623 429.882C649.856 429.882 650.838 429.492 651.572 428.712C652.305 427.932 652.671 426.786 652.671 425.273V418.323H654.309ZM658.868 415.913C658.54 415.913 658.26 415.796 658.026 415.562C657.792 415.328 657.675 415.039 657.675 414.696C657.675 414.353 657.792 414.072 658.026 413.854C658.26 413.62 658.54 413.503 658.868 413.503C659.196 413.503 659.476 413.62 659.71 413.854C659.944 414.072 660.061 414.353 660.061 414.696C660.061 415.039 659.944 415.328 659.71 415.562C659.476 415.796 659.196 415.913 658.868 415.913ZM659.687 418.323V431.099H658.049V418.323H659.687ZM665.034 413.783V431.099H663.396V413.783H665.034ZM670.873 419.704V427.636C670.873 428.416 671.021 428.954 671.317 429.251C671.614 429.547 672.136 429.695 672.885 429.695H674.383V431.099H672.628C671.473 431.099 670.615 430.834 670.054 430.304C669.492 429.758 669.211 428.868 669.211 427.636V419.704H667.433V418.323H669.211V415.117H670.873V418.323H674.383V419.704H670.873ZM685.017 421.739V423.12H675.914V421.739H685.017ZM690.037 415.913C689.71 415.913 689.429 415.796 689.195 415.562C688.961 415.328 688.844 415.039 688.844 414.696C688.844 414.353 688.961 414.072 689.195 413.854C689.429 413.62 689.71 413.503 690.037 413.503C690.365 413.503 690.646 413.62 690.88 413.854C691.113 414.072 691.23 414.353 691.23 414.696C691.23 415.039 691.113 415.328 690.88 415.562C690.646 415.796 690.365 415.913 690.037 415.913ZM690.856 418.323V431.099H689.218V418.323H690.856ZM700.556 418.089C702.084 418.089 703.332 418.565 704.3 419.516C705.267 420.452 705.75 421.817 705.75 423.611V431.099H704.136V423.799C704.136 422.41 703.785 421.349 703.083 420.616C702.396 419.883 701.453 419.516 700.251 419.516C699.019 419.516 698.036 419.906 697.303 420.686C696.57 421.466 696.203 422.613 696.203 424.126V431.099H694.565V418.323H696.203V420.499C696.609 419.719 697.194 419.126 697.958 418.721C698.723 418.3 699.588 418.089 700.556 418.089ZM731.004 418.089C732.502 418.089 733.718 418.565 734.654 419.516C735.606 420.452 736.082 421.817 736.082 423.611V431.099H734.467V423.799C734.467 422.41 734.132 421.349 733.461 420.616C732.79 419.883 731.878 419.516 730.723 419.516C729.522 419.516 728.563 419.914 727.845 420.71C727.127 421.505 726.769 422.66 726.769 424.173V431.099H725.154V423.799C725.154 422.41 724.819 421.349 724.148 420.616C723.477 419.883 722.557 419.516 721.387 419.516C720.186 419.516 719.226 419.914 718.509 420.71C717.791 421.505 717.432 422.66 717.432 424.173V431.099H715.794V418.323H717.432V420.523C717.838 419.727 718.415 419.126 719.164 418.721C719.913 418.3 720.747 418.089 721.668 418.089C722.775 418.089 723.742 418.354 724.569 418.885C725.412 419.415 726.02 420.195 726.394 421.225C726.737 420.211 727.322 419.438 728.149 418.908C728.992 418.362 729.943 418.089 731.004 418.089ZM738.971 424.688C738.971 423.377 739.228 422.231 739.743 421.248C740.273 420.25 740.999 419.485 741.919 418.955C742.855 418.409 743.908 418.136 745.078 418.136C746.295 418.136 747.34 418.417 748.214 418.978C749.103 419.54 749.742 420.257 750.132 421.131V418.323H751.77V431.099H750.132V428.268C749.727 429.141 749.079 429.867 748.19 430.444C747.317 431.006 746.271 431.286 745.055 431.286C743.9 431.286 742.855 431.013 741.919 430.467C740.999 429.921 740.273 429.149 739.743 428.151C739.228 427.152 738.971 425.998 738.971 424.688ZM750.132 424.711C750.132 423.682 749.922 422.777 749.501 421.997C749.079 421.217 748.502 420.616 747.769 420.195C747.051 419.774 746.256 419.563 745.382 419.563C744.477 419.563 743.666 419.766 742.949 420.172C742.231 420.577 741.662 421.17 741.241 421.95C740.835 422.714 740.632 423.627 740.632 424.688C740.632 425.733 740.835 426.653 741.241 427.449C741.662 428.229 742.231 428.829 742.949 429.251C743.666 429.656 744.477 429.859 745.382 429.859C746.256 429.859 747.051 429.648 747.769 429.227C748.502 428.806 749.079 428.205 749.501 427.425C749.922 426.645 750.132 425.741 750.132 424.711ZM757.124 421.131C757.53 420.273 758.17 419.563 759.043 419.002C759.932 418.424 760.985 418.136 762.202 418.136C763.357 418.136 764.394 418.409 765.314 418.955C766.25 419.485 766.976 420.25 767.49 421.248C768.021 422.231 768.286 423.377 768.286 424.688C768.286 425.998 768.021 427.152 767.49 428.151C766.976 429.149 766.25 429.921 765.314 430.467C764.394 431.013 763.357 431.286 762.202 431.286C761.001 431.286 759.956 431.006 759.067 430.444C758.177 429.867 757.53 429.149 757.124 428.291V437.136H755.51V418.323H757.124V421.131ZM766.625 424.688C766.625 423.627 766.414 422.714 765.993 421.95C765.587 421.17 765.026 420.577 764.308 420.172C763.591 419.766 762.779 419.563 761.875 419.563C761.001 419.563 760.198 419.774 759.464 420.195C758.747 420.616 758.177 421.217 757.756 421.997C757.335 422.777 757.124 423.682 757.124 424.711C757.124 425.741 757.335 426.645 757.756 427.425C758.177 428.205 758.747 428.806 759.464 429.227C760.198 429.648 761.001 429.859 761.875 429.859C762.779 429.859 763.591 429.656 764.308 429.251C765.026 428.829 765.587 428.229 765.993 427.449C766.414 426.653 766.625 425.733 766.625 424.688Z" fill="#111111"/>
<rect x="1013" y="143" width="383" height="383" rx="59.9088" fill="white"/>
<path d="M1098.33 377.316C1096.55 377.316 1094.95 377.026 1093.53 376.447C1092.12 375.867 1090.98 375.009 1090.12 373.873C1089.29 372.737 1088.85 371.369 1088.8 369.769H1095.13C1095.23 370.673 1095.54 371.369 1096.07 371.856C1096.61 372.32 1097.3 372.552 1098.16 372.552C1099.04 372.552 1099.74 372.354 1100.25 371.96C1100.76 371.543 1101.01 370.975 1101.01 370.256C1101.01 369.653 1100.8 369.155 1100.38 368.761C1099.99 368.366 1099.49 368.042 1098.89 367.787C1098.31 367.532 1097.47 367.242 1096.39 366.917C1094.81 366.43 1093.52 365.944 1092.52 365.457C1091.53 364.97 1090.67 364.251 1089.95 363.3C1089.23 362.35 1088.87 361.109 1088.87 359.579C1088.87 357.307 1089.7 355.533 1091.34 354.258C1092.99 352.96 1095.13 352.31 1097.78 352.31C1100.47 352.31 1102.63 352.96 1104.28 354.258C1105.93 355.533 1106.81 357.318 1106.92 359.614H1100.49C1100.44 358.826 1100.15 358.211 1099.62 357.771C1099.09 357.307 1098.4 357.075 1097.57 357.075C1096.85 357.075 1096.27 357.272 1095.83 357.666C1095.39 358.037 1095.17 358.582 1095.17 359.301C1095.17 360.089 1095.54 360.704 1096.28 361.144C1097.02 361.585 1098.18 362.06 1099.76 362.57C1101.34 363.103 1102.61 363.613 1103.58 364.1C1104.58 364.587 1105.44 365.294 1106.16 366.222C1106.88 367.149 1107.24 368.343 1107.24 369.804C1107.24 371.195 1106.88 372.459 1106.16 373.595C1105.46 374.731 1104.44 375.635 1103.1 376.308C1101.75 376.98 1100.16 377.316 1098.33 377.316ZM1129.19 367.056C1129.19 367.613 1129.15 368.193 1129.09 368.795H1115.63C1115.72 370.001 1116.1 370.929 1116.77 371.578C1117.47 372.204 1118.32 372.517 1119.31 372.517C1120.8 372.517 1121.83 371.891 1122.41 370.639H1128.74C1128.41 371.914 1127.82 373.062 1126.96 374.082C1126.13 375.102 1125.07 375.902 1123.8 376.482C1122.52 377.061 1121.1 377.351 1119.52 377.351C1117.62 377.351 1115.93 376.945 1114.44 376.134C1112.96 375.322 1111.8 374.163 1110.97 372.656C1110.13 371.149 1109.71 369.387 1109.71 367.369C1109.71 365.352 1110.12 363.59 1110.93 362.083C1111.77 360.576 1112.92 359.417 1114.41 358.605C1115.89 357.794 1117.6 357.388 1119.52 357.388C1121.4 357.388 1123.07 357.782 1124.53 358.57C1125.99 359.359 1127.13 360.483 1127.94 361.944C1128.77 363.405 1129.19 365.109 1129.19 367.056ZM1123.1 365.491C1123.1 364.471 1122.76 363.66 1122.06 363.057C1121.36 362.454 1120.49 362.153 1119.45 362.153C1118.45 362.153 1117.61 362.443 1116.91 363.022C1116.24 363.602 1115.82 364.425 1115.66 365.491H1123.1ZM1150.62 367.056C1150.62 367.613 1150.59 368.193 1150.52 368.795H1137.06C1137.15 370.001 1137.53 370.929 1138.2 371.578C1138.9 372.204 1139.75 372.517 1140.74 372.517C1142.23 372.517 1143.26 371.891 1143.84 370.639H1150.17C1149.84 371.914 1149.25 373.062 1148.39 374.082C1147.56 375.102 1146.51 375.902 1145.23 376.482C1143.95 377.061 1142.53 377.351 1140.95 377.351C1139.05 377.351 1137.36 376.945 1135.87 376.134C1134.39 375.322 1133.23 374.163 1132.4 372.656C1131.56 371.149 1131.14 369.387 1131.14 367.369C1131.14 365.352 1131.55 363.59 1132.36 362.083C1133.2 360.576 1134.36 359.417 1135.84 358.605C1137.32 357.794 1139.03 357.388 1140.95 357.388C1142.83 357.388 1144.5 357.782 1145.96 358.57C1147.42 359.359 1148.56 360.483 1149.37 361.944C1150.2 363.405 1150.62 365.109 1150.62 367.056ZM1144.53 365.491C1144.53 364.471 1144.19 363.66 1143.49 363.057C1142.8 362.454 1141.93 362.153 1140.88 362.153C1139.89 362.153 1139.04 362.443 1138.34 363.022C1137.67 363.602 1137.25 364.425 1137.09 365.491H1144.53ZM1165.62 377.073L1159.71 368.935V377.073H1153.76V351.337H1159.71V365.561L1165.58 357.666H1172.92L1164.85 367.404L1172.99 377.073H1165.62ZM1190.52 377.351C1188.83 377.351 1187.32 377.061 1186 376.482C1184.68 375.902 1183.64 375.114 1182.87 374.117C1182.11 373.096 1181.68 371.96 1181.58 370.708H1187.46C1187.53 371.381 1187.84 371.926 1188.4 372.343C1188.96 372.76 1189.64 372.969 1190.45 372.969C1191.19 372.969 1191.76 372.83 1192.16 372.552C1192.57 372.25 1192.78 371.868 1192.78 371.404C1192.78 370.847 1192.49 370.442 1191.91 370.187C1191.33 369.908 1190.39 369.607 1189.1 369.282C1187.7 368.958 1186.55 368.622 1185.62 368.274C1184.69 367.903 1183.89 367.335 1183.22 366.57C1182.55 365.781 1182.21 364.726 1182.21 363.405C1182.21 362.292 1182.51 361.283 1183.11 360.379C1183.74 359.452 1184.64 358.721 1185.83 358.188C1187.03 357.655 1188.46 357.388 1190.1 357.388C1192.54 357.388 1194.45 357.991 1195.84 359.196C1197.26 360.402 1198.07 362.002 1198.28 363.996H1192.78C1192.69 363.324 1192.39 362.79 1191.88 362.396C1191.39 362.002 1190.74 361.805 1189.93 361.805C1189.24 361.805 1188.7 361.944 1188.33 362.222C1187.96 362.477 1187.77 362.837 1187.77 363.3C1187.77 363.857 1188.06 364.274 1188.64 364.552C1189.25 364.831 1190.17 365.109 1191.43 365.387C1192.86 365.758 1194.03 366.129 1194.94 366.5C1195.84 366.848 1196.63 367.427 1197.3 368.239C1198 369.027 1198.36 370.094 1198.38 371.439C1198.38 372.575 1198.06 373.595 1197.41 374.499C1196.78 375.38 1195.87 376.076 1194.66 376.586C1193.48 377.096 1192.1 377.351 1190.52 377.351ZM1221.18 357.666V377.073H1215.24V374.43C1214.63 375.287 1213.81 375.983 1212.77 376.516C1211.75 377.026 1210.61 377.281 1209.36 377.281C1207.87 377.281 1206.56 376.957 1205.43 376.308C1204.29 375.635 1203.41 374.673 1202.79 373.421C1202.16 372.169 1201.85 370.697 1201.85 369.004V357.666H1207.76V368.204C1207.76 369.503 1208.09 370.511 1208.77 371.23C1209.44 371.949 1210.34 372.308 1211.48 372.308C1212.64 372.308 1213.56 371.949 1214.23 371.23C1214.9 370.511 1215.24 369.503 1215.24 368.204V357.666H1221.18ZM1231.4 360.414C1231.98 359.51 1232.78 358.779 1233.8 358.223C1234.82 357.666 1236.02 357.388 1237.38 357.388C1238.98 357.388 1240.43 357.794 1241.73 358.605C1243.03 359.417 1244.05 360.576 1244.79 362.083C1245.56 363.59 1245.94 365.341 1245.94 367.335C1245.94 369.329 1245.56 371.091 1244.79 372.621C1244.05 374.128 1243.03 375.299 1241.73 376.134C1240.43 376.945 1238.98 377.351 1237.38 377.351C1236.04 377.351 1234.85 377.073 1233.8 376.516C1232.78 375.96 1231.98 375.241 1231.4 374.36V386.324H1225.46V357.666H1231.4V360.414ZM1239.89 367.335C1239.89 365.851 1239.47 364.692 1238.64 363.857C1237.82 362.999 1236.82 362.57 1235.61 362.57C1234.43 362.57 1233.42 362.999 1232.58 363.857C1231.77 364.715 1231.37 365.886 1231.37 367.369C1231.37 368.853 1231.77 370.024 1232.58 370.882C1233.42 371.74 1234.43 372.169 1235.61 372.169C1236.79 372.169 1237.8 371.74 1238.64 370.882C1239.47 370.001 1239.89 368.819 1239.89 367.335ZM1255.01 360.414C1255.59 359.51 1256.39 358.779 1257.41 358.223C1258.43 357.666 1259.62 357.388 1260.99 357.388C1262.59 357.388 1264.04 357.794 1265.34 358.605C1266.63 359.417 1267.65 360.576 1268.4 362.083C1269.16 363.59 1269.54 365.341 1269.54 367.335C1269.54 369.329 1269.16 371.091 1268.4 372.621C1267.65 374.128 1266.63 375.299 1265.34 376.134C1264.04 376.945 1262.59 377.351 1260.99 377.351C1259.64 377.351 1258.45 377.073 1257.41 376.516C1256.39 375.96 1255.59 375.241 1255.01 374.36V386.324H1249.06V357.666H1255.01V360.414ZM1263.49 367.335C1263.49 365.851 1263.08 364.692 1262.24 363.857C1261.43 362.999 1260.42 362.57 1259.22 362.57C1258.03 362.57 1257.02 362.999 1256.19 363.857C1255.38 364.715 1254.97 365.886 1254.97 367.369C1254.97 368.853 1255.38 370.024 1256.19 370.882C1257.02 371.74 1258.03 372.169 1259.22 372.169C1260.4 372.169 1261.41 371.74 1262.24 370.882C1263.08 370.001 1263.49 368.819 1263.49 367.335ZM1281.5 377.351C1279.6 377.351 1277.88 376.945 1276.35 376.134C1274.84 375.322 1273.65 374.163 1272.77 372.656C1271.91 371.149 1271.48 369.387 1271.48 367.369C1271.48 365.376 1271.92 363.625 1272.8 362.118C1273.68 360.588 1274.89 359.417 1276.42 358.605C1277.95 357.794 1279.67 357.388 1281.57 357.388C1283.47 357.388 1285.18 357.794 1286.72 358.605C1288.25 359.417 1289.45 360.588 1290.33 362.118C1291.21 363.625 1291.65 365.376 1291.65 367.369C1291.65 369.363 1291.2 371.126 1290.3 372.656C1289.42 374.163 1288.2 375.322 1286.65 376.134C1285.12 376.945 1283.4 377.351 1281.5 377.351ZM1281.5 372.204C1282.63 372.204 1283.6 371.786 1284.38 370.952C1285.2 370.117 1285.6 368.923 1285.6 367.369C1285.6 365.816 1285.21 364.622 1284.42 363.787C1283.65 362.953 1282.7 362.535 1281.57 362.535C1280.41 362.535 1279.45 362.953 1278.68 363.787C1277.92 364.599 1277.53 365.793 1277.53 367.369C1277.53 368.923 1277.9 370.117 1278.65 370.952C1279.41 371.786 1280.36 372.204 1281.5 372.204ZM1300.76 360.901C1301.45 359.834 1302.32 358.999 1303.36 358.397C1304.41 357.771 1305.57 357.458 1306.84 357.458V363.753H1305.21C1303.72 363.753 1302.61 364.077 1301.87 364.726C1301.13 365.352 1300.76 366.465 1300.76 368.065V377.073H1294.81V357.666H1300.76V360.901ZM1320.5 372.03V377.073H1317.48C1315.32 377.073 1313.64 376.551 1312.43 375.508C1311.23 374.441 1310.62 372.714 1310.62 370.326V362.605H1308.26V357.666H1310.62V352.936H1316.57V357.666H1320.47V362.605H1316.57V370.395C1316.57 370.975 1316.71 371.392 1316.99 371.647C1317.27 371.902 1317.73 372.03 1318.38 372.03H1320.5Z" fill="#111111"/>
<path d="M1113.49 400.042H1110.59V411.165H1108.99V400.042H1107.25V398.694H1108.99V397.826C1108.99 396.471 1109.33 395.474 1110.02 394.834C1110.72 394.195 1111.84 393.875 1113.4 393.875V395.245C1112.36 395.245 1111.63 395.443 1111.2 395.839C1110.79 396.235 1110.59 396.897 1110.59 397.826V398.694H1113.49V400.042ZM1117.6 400.91C1117.95 400.133 1118.49 399.532 1119.2 399.105C1119.93 398.679 1120.82 398.466 1121.88 398.466V400.133H1121.44C1120.28 400.133 1119.36 400.445 1118.65 401.069C1117.95 401.694 1117.6 402.737 1117.6 404.198V411.165H1116.01V398.694H1117.6V400.91ZM1129.74 411.347C1128.57 411.347 1127.51 411.088 1126.56 410.571C1125.64 410.038 1124.9 409.292 1124.35 408.332C1123.82 407.358 1123.55 406.224 1123.55 404.929C1123.55 403.635 1123.82 402.508 1124.37 401.549C1124.92 400.575 1125.67 399.828 1126.61 399.311C1127.55 398.778 1128.61 398.511 1129.78 398.511C1130.96 398.511 1132.02 398.778 1132.96 399.311C1133.92 399.828 1134.66 400.575 1135.2 401.549C1135.75 402.508 1136.02 403.635 1136.02 404.929C1136.02 406.208 1135.75 407.335 1135.2 408.31C1134.65 409.284 1133.9 410.038 1132.94 410.571C1131.98 411.088 1130.91 411.347 1129.74 411.347ZM1129.74 409.954C1130.56 409.954 1131.32 409.771 1132.02 409.406C1132.72 409.025 1133.29 408.462 1133.71 407.716C1134.15 406.954 1134.38 406.026 1134.38 404.929C1134.38 403.833 1134.16 402.912 1133.74 402.166C1133.31 401.404 1132.75 400.841 1132.05 400.476C1131.35 400.095 1130.58 399.905 1129.76 399.905C1128.94 399.905 1128.18 400.095 1127.48 400.476C1126.78 400.841 1126.21 401.404 1125.79 402.166C1125.38 402.912 1125.17 403.833 1125.17 404.929C1125.17 406.026 1125.38 406.954 1125.79 407.716C1126.21 408.462 1126.77 409.025 1127.46 409.406C1128.16 409.771 1128.92 409.954 1129.74 409.954ZM1153.78 398.466C1155.24 398.466 1156.43 398.93 1157.34 399.859C1158.27 400.772 1158.74 402.105 1158.74 403.856V411.165H1157.16V404.039C1157.16 402.683 1156.83 401.648 1156.18 400.932C1155.52 400.217 1154.63 399.859 1153.51 399.859C1152.33 399.859 1151.4 400.247 1150.7 401.024C1150 401.8 1149.65 402.927 1149.65 404.404V411.165H1148.07V404.039C1148.07 402.683 1147.74 401.648 1147.09 400.932C1146.43 400.217 1145.54 399.859 1144.39 399.859C1143.22 399.859 1142.28 400.247 1141.58 401.024C1140.88 401.8 1140.53 402.927 1140.53 404.404V411.165H1138.93V398.694H1140.53V400.841C1140.93 400.064 1141.49 399.478 1142.22 399.082C1142.95 398.671 1143.77 398.466 1144.67 398.466C1145.75 398.466 1146.69 398.725 1147.5 399.242C1148.32 399.76 1148.92 400.521 1149.28 401.526C1149.62 400.536 1150.19 399.783 1150.99 399.265C1151.82 398.732 1152.74 398.466 1153.78 398.466ZM1170.15 394.263V411.165H1168.55V394.263H1170.15ZM1174.57 396.342C1174.25 396.342 1173.98 396.227 1173.75 395.999C1173.52 395.771 1173.41 395.489 1173.41 395.154C1173.41 394.819 1173.52 394.545 1173.75 394.332C1173.98 394.103 1174.25 393.989 1174.57 393.989C1174.89 393.989 1175.17 394.103 1175.4 394.332C1175.62 394.545 1175.74 394.819 1175.74 395.154C1175.74 395.489 1175.62 395.771 1175.4 395.999C1175.17 396.227 1174.89 396.342 1174.57 396.342ZM1175.37 398.694V411.165H1173.77V398.694H1175.37ZM1185.73 411.165L1180.59 405.569V411.165H1178.99V394.263H1180.59V404.267L1185.62 398.694H1187.85L1181.94 404.906L1187.9 411.165H1185.73ZM1201.25 404.29C1201.25 404.838 1201.23 405.257 1201.2 405.546H1190.86C1190.9 406.49 1191.13 407.297 1191.54 407.967C1191.95 408.637 1192.49 409.147 1193.16 409.497C1193.83 409.832 1194.57 410 1195.36 410C1196.39 410 1197.26 409.748 1197.96 409.246C1198.68 408.744 1199.15 408.066 1199.38 407.213H1201.07C1200.76 408.431 1200.11 409.429 1199.1 410.205C1198.11 410.967 1196.86 411.347 1195.36 411.347C1194.18 411.347 1193.13 411.088 1192.21 410.571C1191.28 410.038 1190.55 409.292 1190.01 408.332C1189.49 407.358 1189.24 406.224 1189.24 404.929C1189.24 403.635 1189.49 402.501 1190.01 401.526C1190.53 400.552 1191.25 399.806 1192.18 399.288C1193.11 398.77 1194.17 398.511 1195.36 398.511C1196.54 398.511 1197.58 398.77 1198.46 399.288C1199.36 399.806 1200.05 400.506 1200.52 401.389C1201.01 402.257 1201.25 403.224 1201.25 404.29ZM1199.63 404.244C1199.64 403.315 1199.45 402.524 1199.06 401.869C1198.68 401.214 1198.15 400.719 1197.48 400.384C1196.81 400.049 1196.08 399.882 1195.29 399.882C1194.1 399.882 1193.09 400.262 1192.25 401.024C1191.41 401.785 1190.95 402.858 1190.86 404.244H1199.63ZM1211.92 402.029V403.376H1203.03V402.029H1211.92ZM1230.86 398.466C1232.33 398.466 1233.51 398.93 1234.43 399.859C1235.36 400.772 1235.82 402.105 1235.82 403.856V411.165H1234.24V404.039C1234.24 402.683 1233.92 401.648 1233.26 400.932C1232.61 400.217 1231.72 399.859 1230.59 399.859C1229.42 399.859 1228.48 400.247 1227.78 401.024C1227.08 401.8 1226.73 402.927 1226.73 404.404V411.165H1225.15V404.039C1225.15 402.683 1224.83 401.648 1224.17 400.932C1223.52 400.217 1222.62 399.859 1221.48 399.859C1220.3 399.859 1219.37 400.247 1218.67 401.024C1217.97 401.8 1217.62 402.927 1217.62 404.404V411.165H1216.02V398.694H1217.62V400.841C1218.01 400.064 1218.58 399.478 1219.31 399.082C1220.04 398.671 1220.85 398.466 1221.75 398.466C1222.83 398.466 1223.78 398.725 1224.58 399.242C1225.41 399.76 1226 400.521 1226.36 401.526C1226.7 400.536 1227.27 399.783 1228.08 399.265C1228.9 398.732 1229.83 398.466 1230.86 398.466ZM1240.17 396.342C1239.85 396.342 1239.58 396.227 1239.35 395.999C1239.12 395.771 1239.01 395.489 1239.01 395.154C1239.01 394.819 1239.12 394.545 1239.35 394.332C1239.58 394.103 1239.85 393.989 1240.17 393.989C1240.49 393.989 1240.76 394.103 1240.99 394.332C1241.22 394.545 1241.34 394.819 1241.34 395.154C1241.34 395.489 1241.22 395.771 1240.99 395.999C1240.76 396.227 1240.49 396.342 1240.17 396.342ZM1240.97 398.694V411.165H1239.37V398.694H1240.97ZM1250.44 398.466C1251.93 398.466 1253.15 398.93 1254.09 399.859C1255.04 400.772 1255.51 402.105 1255.51 403.856V411.165H1253.93V404.039C1253.93 402.683 1253.59 401.648 1252.9 400.932C1252.23 400.217 1251.31 399.859 1250.14 399.859C1248.94 399.859 1247.98 400.24 1247.26 401.001C1246.55 401.762 1246.19 402.881 1246.19 404.358V411.165H1244.59V398.694H1246.19V400.818C1246.59 400.057 1247.16 399.478 1247.9 399.082C1248.65 398.671 1249.49 398.466 1250.44 398.466ZM1258.31 404.906C1258.31 403.627 1258.57 402.508 1259.09 401.549C1259.61 400.575 1260.32 399.828 1261.21 399.311C1262.13 398.778 1263.15 398.511 1264.3 398.511C1265.39 398.511 1266.38 398.778 1267.27 399.311C1268.15 399.844 1268.8 400.536 1269.21 401.389V394.263H1270.81V411.165H1269.21V408.378C1268.83 409.246 1268.2 409.962 1267.33 410.525C1266.47 411.073 1265.45 411.347 1264.27 411.347C1263.13 411.347 1262.1 411.081 1261.19 410.548C1260.29 410.015 1259.58 409.261 1259.07 408.287C1258.56 407.312 1258.31 406.185 1258.31 404.906ZM1269.21 404.929C1269.21 403.924 1269 403.041 1268.59 402.28C1268.18 401.519 1267.62 400.932 1266.9 400.521C1266.2 400.11 1265.42 399.905 1264.57 399.905C1263.69 399.905 1262.9 400.102 1262.2 400.498C1261.5 400.894 1260.94 401.473 1260.53 402.234C1260.13 402.98 1259.93 403.871 1259.93 404.906C1259.93 405.927 1260.13 406.825 1260.53 407.602C1260.94 408.363 1261.5 408.949 1262.2 409.36C1262.9 409.756 1263.69 409.954 1264.57 409.954C1265.42 409.954 1266.2 409.748 1266.9 409.337C1267.62 408.926 1268.18 408.34 1268.59 407.579C1269 406.817 1269.21 405.934 1269.21 404.929ZM1285.74 404.29C1285.74 404.838 1285.72 405.257 1285.69 405.546H1275.35C1275.39 406.49 1275.62 407.297 1276.03 407.967C1276.44 408.637 1276.98 409.147 1277.65 409.497C1278.32 409.832 1279.05 410 1279.85 410C1280.88 410 1281.75 409.748 1282.45 409.246C1283.17 408.744 1283.64 408.066 1283.87 407.213H1285.56C1285.25 408.431 1284.6 409.429 1283.59 410.205C1282.6 410.967 1281.35 411.347 1279.85 411.347C1278.67 411.347 1277.62 411.088 1276.69 410.571C1275.77 410.038 1275.03 409.292 1274.5 408.332C1273.98 407.358 1273.73 406.224 1273.73 404.929C1273.73 403.635 1273.98 402.501 1274.5 401.526C1275.02 400.552 1275.74 399.806 1276.67 399.288C1277.6 398.77 1278.66 398.511 1279.85 398.511C1281.03 398.511 1282.07 398.77 1282.95 399.288C1283.85 399.806 1284.54 400.506 1285.01 401.389C1285.5 402.257 1285.74 403.224 1285.74 404.29ZM1284.12 404.244C1284.13 403.315 1283.94 402.524 1283.55 401.869C1283.17 401.214 1282.64 400.719 1281.97 400.384C1281.3 400.049 1280.57 399.882 1279.78 399.882C1278.59 399.882 1277.58 400.262 1276.74 401.024C1275.9 401.785 1275.44 402.858 1275.35 404.244H1284.12ZM1287.93 404.906C1287.93 403.627 1288.19 402.508 1288.71 401.549C1289.23 400.575 1289.94 399.828 1290.83 399.311C1291.75 398.778 1292.78 398.511 1293.92 398.511C1295.01 398.511 1296 398.778 1296.89 399.311C1297.77 399.844 1298.42 400.536 1298.83 401.389V394.263H1300.43V411.165H1298.83V408.378C1298.45 409.246 1297.82 409.962 1296.95 410.525C1296.09 411.073 1295.07 411.347 1293.89 411.347C1292.75 411.347 1291.72 411.081 1290.81 410.548C1289.91 410.015 1289.2 409.261 1288.69 408.287C1288.18 407.312 1287.93 406.185 1287.93 404.906ZM1298.83 404.929C1298.83 403.924 1298.62 403.041 1298.21 402.28C1297.8 401.519 1297.24 400.932 1296.52 400.521C1295.82 400.11 1295.04 399.905 1294.19 399.905C1293.31 399.905 1292.52 400.102 1291.82 400.498C1291.12 400.894 1290.56 401.473 1290.15 402.234C1289.75 402.98 1289.55 403.871 1289.55 404.906C1289.55 405.927 1289.75 406.825 1290.15 407.602C1290.56 408.363 1291.12 408.949 1291.82 409.36C1292.52 409.756 1293.31 409.954 1294.19 409.954C1295.04 409.954 1295.82 409.748 1296.52 409.337C1297.24 408.926 1297.8 408.34 1298.21 407.579C1298.62 406.817 1298.83 405.934 1298.83 404.929ZM1174.85 417.263V434.165H1173.25V417.263H1174.85ZM1183.93 434.347C1182.76 434.347 1181.7 434.088 1180.75 433.571C1179.82 433.038 1179.09 432.292 1178.54 431.332C1178 430.358 1177.74 429.224 1177.74 427.929C1177.74 426.635 1178.01 425.508 1178.56 424.549C1179.11 423.575 1179.85 422.828 1180.8 422.311C1181.74 421.778 1182.8 421.511 1183.97 421.511C1185.15 421.511 1186.2 421.778 1187.15 422.311C1188.11 422.828 1188.85 423.575 1189.39 424.549C1189.93 425.508 1190.21 426.635 1190.21 427.929C1190.21 429.208 1189.93 430.335 1189.39 431.31C1188.84 432.284 1188.08 433.038 1187.13 433.571C1186.17 434.088 1185.1 434.347 1183.93 434.347ZM1183.93 432.954C1184.75 432.954 1185.51 432.771 1186.21 432.406C1186.91 432.025 1187.48 431.462 1187.9 430.716C1188.34 429.954 1188.56 429.026 1188.56 427.929C1188.56 426.833 1188.35 425.912 1187.92 425.166C1187.5 424.404 1186.93 423.841 1186.23 423.476C1185.53 423.095 1184.77 422.905 1183.95 422.905C1183.13 422.905 1182.37 423.095 1181.67 423.476C1180.97 423.841 1180.4 424.404 1179.98 425.166C1179.57 425.912 1179.36 426.833 1179.36 427.929C1179.36 429.026 1179.57 429.954 1179.98 430.716C1180.4 431.462 1180.96 432.025 1181.64 432.406C1182.34 432.771 1183.11 432.954 1183.93 432.954ZM1192.39 427.929C1192.39 426.635 1192.65 425.508 1193.17 424.549C1193.69 423.575 1194.4 422.828 1195.32 422.311C1196.23 421.778 1197.27 421.511 1198.44 421.511C1199.98 421.511 1201.25 421.892 1202.24 422.653C1203.24 423.415 1203.89 424.45 1204.18 425.76H1202.46C1202.25 424.861 1201.79 424.161 1201.07 423.658C1200.37 423.141 1199.5 422.882 1198.44 422.882C1197.61 422.882 1196.85 423.072 1196.18 423.453C1195.51 423.833 1194.98 424.404 1194.58 425.166C1194.2 425.912 1194.01 426.833 1194.01 427.929C1194.01 429.026 1194.2 429.954 1194.58 430.716C1194.98 431.477 1195.51 432.048 1196.18 432.429C1196.85 432.809 1197.61 433 1198.44 433C1199.5 433 1200.37 432.748 1201.07 432.246C1201.79 431.728 1202.25 431.013 1202.46 430.099H1204.18C1203.89 431.378 1203.24 432.406 1202.24 433.182C1201.23 433.959 1199.97 434.347 1198.44 434.347C1197.27 434.347 1196.23 434.088 1195.32 433.571C1194.4 433.038 1193.69 432.292 1193.17 431.332C1192.65 430.358 1192.39 429.224 1192.39 427.929ZM1206.4 427.906C1206.4 426.627 1206.65 425.508 1207.15 424.549C1207.67 423.575 1208.38 422.828 1209.28 422.311C1210.19 421.778 1211.22 421.511 1212.36 421.511C1213.55 421.511 1214.57 421.785 1215.42 422.334C1216.29 422.882 1216.91 423.582 1217.29 424.435V421.694H1218.89V434.165H1217.29V431.401C1216.9 432.254 1216.27 432.962 1215.4 433.525C1214.55 434.073 1213.53 434.347 1212.34 434.347C1211.21 434.347 1210.19 434.081 1209.28 433.548C1208.38 433.015 1207.67 432.261 1207.15 431.287C1206.65 430.312 1206.4 429.185 1206.4 427.906ZM1217.29 427.929C1217.29 426.924 1217.09 426.041 1216.68 425.28C1216.27 424.519 1215.7 423.932 1214.99 423.521C1214.29 423.11 1213.51 422.905 1212.66 422.905C1211.77 422.905 1210.98 423.102 1210.28 423.498C1209.58 423.894 1209.03 424.473 1208.61 425.234C1208.22 425.98 1208.02 426.871 1208.02 427.906C1208.02 428.927 1208.22 429.825 1208.61 430.602C1209.03 431.363 1209.58 431.949 1210.28 432.36C1210.98 432.756 1211.77 432.954 1212.66 432.954C1213.51 432.954 1214.29 432.748 1214.99 432.337C1215.7 431.926 1216.27 431.34 1216.68 430.579C1217.09 429.817 1217.29 428.934 1217.29 427.929ZM1224.14 417.263V434.165H1222.54V417.263H1224.14ZM1232.06 434.347C1230.62 434.347 1229.45 434.02 1228.54 433.365C1227.64 432.695 1227.14 431.789 1227.03 430.647H1228.68C1228.75 431.348 1229.08 431.919 1229.66 432.36C1230.25 432.787 1231.04 433 1232.03 433C1232.9 433 1233.58 432.794 1234.07 432.383C1234.57 431.972 1234.82 431.462 1234.82 430.853C1234.82 430.426 1234.68 430.076 1234.41 429.802C1234.13 429.528 1233.78 429.315 1233.36 429.163C1232.95 428.995 1232.38 428.82 1231.67 428.637C1230.74 428.394 1229.98 428.15 1229.41 427.906C1228.83 427.663 1228.33 427.305 1227.92 426.833C1227.53 426.346 1227.33 425.699 1227.33 424.892C1227.33 424.283 1227.51 423.719 1227.88 423.201C1228.24 422.684 1228.76 422.273 1229.43 421.968C1230.1 421.664 1230.86 421.511 1231.71 421.511C1233.05 421.511 1234.13 421.854 1234.96 422.539C1235.78 423.209 1236.22 424.138 1236.28 425.326H1234.68C1234.64 424.595 1234.35 424.008 1233.81 423.567C1233.3 423.11 1232.58 422.882 1231.67 422.882C1230.86 422.882 1230.21 423.072 1229.7 423.453C1229.2 423.833 1228.95 424.305 1228.95 424.869C1228.95 425.356 1229.09 425.76 1229.38 426.079C1229.69 426.384 1230.06 426.627 1230.5 426.81C1230.94 426.978 1231.54 427.168 1232.28 427.381C1233.18 427.625 1233.9 427.861 1234.43 428.089C1234.96 428.318 1235.42 428.653 1235.8 429.094C1236.18 429.536 1236.38 430.122 1236.4 430.853C1236.4 431.523 1236.21 432.124 1235.85 432.657C1235.48 433.175 1234.97 433.586 1234.32 433.89C1233.66 434.195 1232.91 434.347 1232.06 434.347Z" fill="#111111"/>
<path d="M1258.44 300.453C1258.44 300.453 1266 300.453 1266 292.916C1266 285.378 1258.44 262.764 1228.19 262.764C1197.94 262.764 1190.38 285.378 1190.38 292.916C1190.38 300.453 1197.94 300.453 1197.94 300.453H1258.44ZM1198.1 292.916C1198.05 292.908 1197.99 292.898 1197.94 292.885C1197.95 290.895 1199.2 285.122 1203.69 279.92C1207.86 275.044 1215.2 270.302 1228.19 270.302C1241.17 270.302 1248.51 275.051 1252.69 279.92C1257.17 285.122 1258.42 290.903 1258.44 292.885L1258.38 292.901C1258.34 292.906 1258.31 292.911 1258.27 292.916H1198.1ZM1228.19 247.689C1232.2 247.689 1236.05 246.101 1238.88 243.273C1241.72 240.446 1243.31 236.612 1243.31 232.613C1243.31 228.615 1241.72 224.781 1238.88 221.953C1236.05 219.126 1232.2 217.538 1228.19 217.538C1224.18 217.538 1220.33 219.126 1217.49 221.953C1214.66 224.781 1213.06 228.615 1213.06 232.613C1213.06 236.612 1214.66 240.446 1217.49 243.273C1220.33 246.101 1224.18 247.689 1228.19 247.689ZM1250.88 232.613C1250.88 235.583 1250.29 238.524 1249.15 241.267C1248.01 244.011 1246.34 246.504 1244.23 248.603C1242.12 250.703 1239.62 252.369 1236.87 253.505C1234.12 254.642 1231.17 255.227 1228.19 255.227C1225.21 255.227 1222.26 254.642 1219.51 253.505C1216.75 252.369 1214.25 250.703 1212.15 248.603C1210.04 246.504 1208.37 244.011 1207.23 241.267C1206.09 238.524 1205.5 235.583 1205.5 232.613C1205.5 226.616 1207.89 220.864 1212.15 216.623C1216.4 212.382 1222.17 210 1228.19 210C1234.2 210 1239.98 212.382 1244.23 216.623C1248.48 220.864 1250.88 226.616 1250.88 232.613ZM1197.45 264.875C1194.43 263.926 1191.31 263.301 1188.15 263.013C1186.38 262.845 1184.6 262.762 1182.81 262.764C1152.56 262.764 1145 285.378 1145 292.916C1145 297.943 1147.52 300.453 1152.56 300.453H1184.45C1183.32 298.1 1182.77 295.52 1182.81 292.916C1182.81 285.302 1185.66 277.523 1191.06 271.026C1192.89 268.81 1195.03 266.737 1197.45 264.875ZM1182.21 270.302C1177.73 277.005 1175.31 284.864 1175.25 292.916H1152.56C1152.56 290.956 1153.8 285.152 1158.31 279.92C1162.43 275.126 1169.59 270.453 1182.21 270.31V270.302ZM1156.34 236.382C1156.34 230.385 1158.73 224.633 1162.99 220.392C1167.24 216.151 1173.01 213.769 1179.03 213.769C1185.05 213.769 1190.82 216.151 1195.07 220.392C1199.33 224.633 1201.72 230.385 1201.72 236.382C1201.72 242.38 1199.33 248.131 1195.07 252.372C1190.82 256.613 1185.05 258.996 1179.03 258.996C1173.01 258.996 1167.24 256.613 1162.99 252.372C1158.73 248.131 1156.34 242.38 1156.34 236.382ZM1179.03 221.307C1175.02 221.307 1171.17 222.895 1168.34 225.722C1165.5 228.549 1163.91 232.384 1163.91 236.382C1163.91 240.381 1165.5 244.215 1168.34 247.042C1171.17 249.869 1175.02 251.458 1179.03 251.458C1183.04 251.458 1186.89 249.869 1189.73 247.042C1192.56 244.215 1194.16 240.381 1194.16 236.382C1194.16 232.384 1192.56 228.549 1189.73 225.722C1186.89 222.895 1183.04 221.307 1179.03 221.307Z" fill="#CF2B57"/>
</svg>
