<svg width="2794" height="2882" viewBox="0 0 2794 2882" fill="none" xmlns="http://www.w3.org/2000/svg">
<g clip-path="url(#clip0)">
<rect width="2794" height="2882" fill="#111111"/>
<path d="M1524.35 491.535C1557.62 499.088 1592.3 487.243 1614 460.917L1706.85 348.281L1751.77 278.195L1767.43 258.321C1811.9 201.875 1891.37 187.239 1953.03 224.139C2006.75 256.285 2033.28 319.656 2018.5 380.486L1967.59 589.943C1950.53 660.138 1863.24 684.634 1812.15 633.566C1781.72 603.153 1734.35 597.701 1697.81 620.408L1624.6 665.903C1552.56 710.67 1457.59 682.475 1421.64 605.649L1418.46 598.859C1415.77 593.102 1413.78 587.042 1412.53 580.81C1401.23 524.394 1451.83 475.071 1507.94 487.809L1524.35 491.535Z" fill="url(#paint0_linear)"/>
<path d="M299.708 209.955C330.243 194.737 349.591 163.607 349.719 129.491L350.266 -16.4756L340.664 -99.168L340.2 -124.465C338.882 -196.311 391.129 -257.958 462.22 -268.437C524.152 -277.566 584.814 -245.316 611.884 -188.871L705.097 5.48864C736.335 70.6234 684.281 144.851 612.401 137.672C569.592 133.396 529.478 159.167 515.571 199.878L487.706 281.448C460.287 361.713 368.926 400.019 292.462 363.312L285.704 360.067C279.974 357.317 274.595 353.888 269.683 349.854C225.216 313.341 233.153 243.126 284.649 217.461L299.708 209.955Z" fill="url(#paint1_linear)"/>
<path d="M284.318 958.109C309.354 981.285 345.316 988.37 377.271 976.421L513.993 925.297L587.941 887.063L611.438 877.68C678.173 851.031 754.316 878.092 789.266 940.879C819.713 995.577 811.008 1063.72 767.789 1109.01L618.972 1264.95C569.1 1317.21 481.257 1294.78 462.544 1225.01C451.4 1183.46 413.105 1155.05 370.106 1156.45L283.954 1159.24C199.18 1161.99 131.03 1090.09 138.315 1005.58L138.959 998.113C139.504 991.78 140.809 985.537 142.844 979.515C161.266 925.007 229.748 907.592 271.971 946.679L284.318 958.109Z" fill="url(#paint2_linear)"/>
<path d="M1469.06 1001.26C1487.19 1018.04 1513.23 1023.17 1536.37 1014.52L1635.37 977.496L1688.92 949.81L1705.94 943.015C1754.26 923.718 1809.4 943.314 1834.71 988.78C1856.75 1028.39 1850.45 1077.74 1819.15 1110.53L1711.39 1223.45C1675.28 1261.3 1611.67 1245.05 1598.12 1194.53C1590.05 1164.44 1562.32 1143.87 1531.18 1144.88L1468.79 1146.9C1407.41 1148.89 1358.06 1096.83 1363.33 1035.63L1363.8 1030.22C1364.19 1025.64 1365.14 1021.12 1366.61 1016.76C1379.95 977.287 1429.54 964.676 1460.12 992.98L1469.06 1001.26Z" fill="url(#paint3_linear)"/>
<path fill-rule="evenodd" clip-rule="evenodd" d="M30.785 1270.43C347.677 1270.43 604.569 1029.01 604.569 731.205C604.569 433.396 347.677 191.975 30.785 191.975C-43.159 191.975 -113.836 205.12 -178.745 229.059C29.7844 236.214 217.612 290.246 356.311 374.048C505.425 464.143 597.963 588.801 597.963 726.751C597.963 864.702 505.425 989.359 356.311 1079.45C212.898 1166.1 16.9602 1220.93 -200.077 1225.01C-129.438 1254.22 -51.3415 1270.43 30.785 1270.43ZM354.868 376.436C215.143 292.015 25.2332 237.827 -185.592 231.633C-202.641 238.161 -219.28 245.437 -235.463 253.418C-99.3402 252.291 38.9655 272.59 165.288 316.57C539.15 446.735 667.588 735.435 451.029 961.629C450.496 962.185 449.474 962.431 448.747 962.178C448.019 961.925 447.861 961.268 448.394 960.711C663.487 736.049 536.38 448.458 163.358 318.586C36.1379 274.292 -103.127 254.11 -239.955 255.657C-250.059 260.748 -259.982 266.116 -269.712 271.748C-64.687 264.557 144.411 307.708 302.513 401.505C303.175 401.898 303.181 402.544 302.524 402.948C302.414 403.016 302.292 403.073 302.163 403.118C303.095 403.676 304.025 404.235 304.953 404.796C440.924 486.979 525.333 600.704 525.333 726.58C525.333 727.35 524.708 727.975 523.937 727.975C523.167 727.975 522.542 727.35 522.542 726.58C522.542 602.059 439.03 489.094 303.51 407.184C168.016 325.29 -19.2559 274.592 -226.185 274.592C-243.008 274.592 -259.7 274.928 -276.246 275.587C-291.081 284.435 -305.455 293.905 -319.325 303.959C-288.849 301.524 -257.759 300.267 -226.186 300.267C-31.8387 300.267 144.177 347.876 271.652 424.924C399.1 501.955 478.237 608.565 478.237 726.58C478.237 844.689 399.101 951.384 271.652 1028.48C144.177 1105.59 -31.8385 1153.24 -226.186 1153.24C-262.424 1153.24 -298.026 1151.58 -332.794 1148.38C-326.473 1153.25 -320.039 1158 -313.496 1162.62C-182.357 1172.32 -51.5493 1159.92 65.7502 1128.92C236.242 1083.86 378.049 999.557 451.084 886.811C451.503 886.164 452.45 885.784 453.2 885.961C453.95 886.139 454.218 886.807 453.799 887.454C380.134 1001.17 237.256 1085.96 66.0662 1131.2C-50.2325 1161.94 -179.666 1174.45 -309.528 1165.4C-300.567 1171.61 -291.406 1177.58 -282.057 1183.31C-20.1607 1194.92 244.336 1123.81 401.723 983.028C402.297 982.515 403.341 982.334 404.055 982.626C404.768 982.917 404.88 983.57 404.306 984.083C246.852 1124.93 -16.7903 1196.27 -278.239 1185.63C-261.713 1195.57 -244.607 1204.75 -226.982 1213.09C-142.784 1212.54 -59.4637 1203.86 19.848 1187.69C214.306 1148.04 384.575 1063.4 484.777 943.242C584.98 823.083 596.271 690.009 533.328 571.947C470.384 453.885 333.224 350.899 136.712 291.033C135.975 290.809 135.778 290.147 136.271 289.555C136.765 288.964 137.762 288.666 138.499 288.89C335.543 348.918 473.177 452.211 536.368 570.737C599.559 689.264 588.325 823.086 487.447 944.055C386.569 1065.02 215.272 1150.09 20.0467 1189.89C-57.8509 1205.77 -139.573 1214.45 -222.184 1215.33C-216.988 1217.74 -211.748 1220.07 -206.465 1222.32C12.6847 1219.21 210.547 1164.26 354.868 1077.07C503.531 987.243 595.172 863.346 595.172 726.751C595.172 590.156 503.531 466.259 354.868 376.436ZM475.447 726.58C475.447 843.335 397.205 949.27 270.208 1026.09C143.237 1102.9 -32.2613 1150.45 -226.186 1150.45C-263.856 1150.45 -300.831 1148.65 -336.891 1145.2C-348.19 1136.32 -359.121 1127.05 -369.658 1117.4C-95.2673 1154.19 198.647 1081.84 346.943 926.595C347.476 926.038 347.317 925.381 346.59 925.127C345.862 924.873 344.841 925.119 344.309 925.676C196.431 1080.49 -98.0651 1152.64 -372.629 1114.66C-377.288 1110.33 -381.869 1105.92 -386.369 1101.45C-227.48 1126.31 -52.9636 1114.47 99.3788 1060.16C100.105 1059.9 100.257 1059.24 99.7186 1058.69C99.1804 1058.14 98.1558 1057.9 97.43 1058.16C-55.3417 1112.63 -230.186 1124.18 -388.935 1098.88C-401.893 1085.82 -414.169 1072.16 -425.71 1057.94C-363.465 1071.67 -296.266 1079.16 -226.186 1079.16C-65.5269 1079.16 79.9899 1039.8 185.388 976.098C290.76 912.41 356.242 824.234 356.242 726.58C356.242 725.809 355.618 725.185 354.847 725.185C354.077 725.185 353.452 725.809 353.452 726.58C353.452 822.879 288.865 910.294 183.945 973.71C79.0504 1037.11 -65.9493 1076.37 -226.186 1076.37C-297.361 1076.37 -365.53 1068.62 -428.514 1054.45C-429.201 1053.59 -429.885 1052.73 -430.567 1051.87C-428.957 1052.24 -427.345 1052.6 -425.729 1052.96C-287.544 1083.88 -129.938 1082.91 14.3832 1042.81C15.1256 1042.6 15.3493 1041.94 14.8828 1041.32C14.4163 1040.71 13.4363 1040.38 12.694 1040.59C-131.117 1080.55 -288.06 1081.48 -425.505 1050.73C-427.927 1050.19 -430.343 1049.64 -432.752 1049.08C-436.033 1044.86 -439.25 1040.59 -442.402 1036.28C-375.942 1053.29 -302.873 1062.7 -226.185 1062.7C-225.415 1062.7 -224.79 1062.07 -224.79 1061.3C-224.79 1060.53 -225.415 1059.91 -226.185 1059.91C-303.92 1059.91 -377.891 1050.22 -444.974 1032.74C-453.766 1020.51 -462.038 1007.93 -469.761 995.011C-453.286 1000.48 -436.332 1005.4 -418.988 1009.73C-299.235 1039.64 -160.697 1041.92 -31.7091 1009.55C-30.9618 1009.37 -30.7096 1008.7 -31.1458 1008.06C-31.5821 1007.43 -32.5416 1007.07 -33.289 1007.25C-161.78 1039.5 -299.674 1037.19 -418.707 1007.46C-436.782 1002.95 -454.419 997.8 -471.52 992.047C-476.355 983.841 -480.969 975.504 -485.355 967.044C-410.914 996.502 -321.956 1013.62 -226.418 1013.63C-225.648 1013.63 -225.023 1013 -225.023 1012.23C-225.022 1011.46 -225.647 1010.84 -226.417 1010.84C-322.925 1010.83 -412.622 993.303 -487.294 963.265C-498.322 941.561 -507.851 919.054 -515.755 895.864C-513.83 897.077 -511.886 898.278 -509.921 899.466C-437.022 943.559 -336.401 970.785 -225.334 970.785C-114.266 970.785 -13.6458 943.559 59.2537 899.466C132.127 855.39 177.508 794.307 177.508 726.58C177.508 725.809 176.883 725.185 176.113 725.185C175.342 725.185 174.717 725.809 174.717 726.58C174.717 792.953 130.231 853.275 57.8096 897.079C-14.5859 940.866 -114.689 967.995 -225.334 967.995C-335.979 967.995 -436.082 940.866 -508.477 897.079C-511.421 895.298 -514.319 893.49 -517.169 891.656C-519.678 884.079 -522.015 876.43 -524.174 868.714C-402.481 961.558 -179.329 981.852 -13.7733 913.08C158.918 841.343 204.378 699.516 86.8708 596.178C86.2922 595.67 85.2463 595.497 84.5347 595.792C83.8231 596.088 83.7153 596.74 84.2939 597.249C200.303 699.269 155.858 839.901 -15.8687 911.237C-182.095 980.288 -405.871 958.778 -525.251 864.803C-526.75 859.276 -528.158 853.716 -529.474 848.123C-423.052 945.385 -208.395 975.904 -41.0727 916.248C-40.3469 915.989 -40.1948 915.333 -40.733 914.781C-41.2712 914.23 -42.2958 913.992 -43.0216 914.251C-211.375 974.275 -426.795 942.255 -530.47 843.804C-536.813 815.745 -540.833 786.879 -542.334 757.392C-537.791 774.315 -529.432 791.164 -516.991 807.52C-479.896 856.288 -413.677 891.256 -336.819 908.449C-259.958 925.642 -172.337 925.098 -92.1233 902.809C-91.3809 902.602 -91.1572 901.938 -91.6237 901.325C-92.0901 900.711 -93.0701 900.382 -93.8125 900.588C-173.517 922.735 -260.475 923.243 -336.594 906.216C-412.715 889.188 -477.877 854.661 -514.303 806.773C-531.956 783.564 -541.275 759.302 -542.983 735.221C-542.993 733.883 -542.999 732.545 -542.999 731.205C-542.999 726.308 -542.929 721.427 -542.791 716.562C-541.033 697.338 -534.474 678.437 -523.493 660.504C-495.321 614.496 -438.07 574.933 -358.366 552.785C-357.624 552.579 -357.4 551.914 -357.866 551.301C-358.333 550.688 -359.313 550.358 -360.055 550.564C-440.27 572.853 -497.997 612.697 -526.444 659.153C-533.137 670.084 -538.211 681.385 -541.574 692.913C-539.386 663.605 -534.706 634.942 -527.731 607.112C-498.386 580.06 -458.573 556.538 -409.287 538.967C-408.562 538.708 -408.41 538.051 -408.948 537.5C-409.486 536.948 -410.511 536.711 -411.236 536.97C-458.544 553.836 -497.243 576.191 -526.401 601.919C-519.699 576.322 -511.051 551.445 -500.615 527.432C-463.386 508.778 -421.329 494.165 -376.448 484.056C-273.589 460.89 -156.017 461.424 -48.1625 491.218C59.6924 521.012 137.301 574.395 175.63 636.564C213.959 698.734 212.977 769.609 163.9 834.51C163.435 835.124 163.66 835.789 164.403 835.994C165.146 836.199 166.125 835.867 166.589 835.253C216.334 769.468 217.179 697.82 178.575 635.205C139.97 572.59 61.8847 518.927 -46.4795 488.992C-154.844 459.057 -273.077 458.487 -376.675 481.821C-420.792 491.757 -462.277 506.035 -499.213 524.235C-497.028 519.3 -494.767 514.402 -492.432 509.542C-479.978 503.977 -466.924 498.747 -453.286 493.885C-240.15 417.894 33.9808 460.879 159.226 589.208C159.764 589.759 160.789 589.996 161.514 589.738C162.24 589.479 162.392 588.822 161.854 588.271C35.1404 458.437 -241.24 415.591 -455.235 491.888C-467.517 496.267 -479.33 500.944 -490.663 505.896C-487.642 499.73 -484.5 493.626 -481.241 487.588C-407.753 459 -320.23 442.401 -226.259 442.411C-225.489 442.411 -224.864 441.787 -224.864 441.016C-224.864 440.245 -225.488 439.621 -226.259 439.621C-319.224 439.611 -405.969 455.801 -479.176 483.801C-474.586 475.462 -469.771 467.249 -464.738 459.17C-449.96 454.368 -434.646 449.965 -418.819 445.994C-418.071 445.806 -417.819 445.139 -418.255 444.504C-418.692 443.869 -419.651 443.506 -420.398 443.694C-434.871 447.326 -448.918 451.317 -462.522 455.643C-458.829 449.818 -455.023 444.063 -451.106 438.382C-436.789 434.319 -422.179 430.647 -407.323 427.375C-280.673 399.486 -136.33 400.783 -4.36176 437.945C127.606 475.108 222.104 541.069 268.247 617.617C314.391 694.166 312.151 781.225 250.882 860.707C250.412 861.317 250.632 861.981 251.373 862.19C252.115 862.399 253.098 862.074 253.568 861.464C315.508 781.11 317.624 693.281 271.21 616.284C224.796 539.286 129.822 473.042 -2.6582 435.735C-3.31964 435.549 -3.98138 435.364 -4.64343 435.179C16.8693 440.931 37.7012 447.52 57.7117 454.895C174.088 497.789 262.467 567.166 295.76 652.722C296.039 653.44 296.884 653.934 297.647 653.826C298.41 653.717 298.802 653.047 298.522 652.329C264.761 565.57 175.293 495.596 58.3351 452.488C-58.6439 409.373 -203.34 393.034 -348.062 413.607C-348.607 413.685 -348.963 414.049 -349.019 414.513C-368.856 417.379 -388.397 420.931 -407.54 425.146C-421.629 428.249 -435.504 431.711 -449.123 435.525C-445.15 429.841 -441.066 424.232 -436.873 418.701C-371.955 402.525 -300.804 393.597 -226.185 393.597C-225.415 393.597 -224.79 392.972 -224.79 392.202C-224.79 391.431 -225.415 390.807 -226.185 390.807C-299.717 390.807 -369.923 399.451 -434.165 415.159C-402.819 374.501 -365.582 338.117 -323.632 307.111C-291.785 304.439 -259.253 303.057 -226.186 303.057C-32.261 303.057 143.237 350.569 270.208 427.312C397.205 504.07 475.447 609.92 475.447 726.58ZM-303.85 846.548C-358.938 833.512 -400.009 808.226 -421.918 777.943C-443.829 747.656 -446.524 712.47 -425.175 679.512C-424.756 678.866 -425.024 678.198 -425.774 678.02C-426.524 677.843 -427.471 678.223 -427.89 678.87C-449.869 712.8 -446.935 748.784 -424.718 779.492C-402.5 810.204 -360.944 835.738 -305.367 848.89C-304.617 849.068 -303.67 848.687 -303.251 848.04C-302.832 847.394 -303.1 846.726 -303.85 846.548ZM-502.482 607.921C-394.376 515.875 -182.945 494.029 -30.1359 559.592C122.673 625.155 158.295 753 50.19 845.046C49.6033 845.545 49.7018 846.196 50.4099 846.5C51.118 846.804 52.1676 846.645 52.7543 846.146C162.329 752.849 125.828 623.788 -28.0114 557.783C-181.851 491.778 -395.471 513.524 -505.046 606.82C-505.633 607.32 -505.534 607.971 -504.826 608.275C-504.118 608.579 -503.068 608.42 -502.482 607.921ZM-245.583 631.601C-223.571 629.943 -201.224 631.125 -180.02 635.07C-158.817 639.015 -139.222 645.637 -122.538 654.512C-105.858 663.386 -92.4373 674.329 -83.2156 686.647C-82.7538 687.264 -82.8795 688.139 -83.4964 688.6C-84.1132 689.062 -84.9876 688.936 -85.4494 688.32C-94.374 676.398 -107.447 665.702 -123.849 656.976C-140.248 648.251 -159.567 641.714 -180.53 637.813C-201.492 633.913 -223.597 632.743 -245.374 634.383C-246.142 634.441 -246.812 633.865 -246.87 633.097C-246.927 632.328 -246.352 631.659 -245.583 631.601ZM-225.492 676.836C-246.593 676.62 -267.057 681.296 -282.474 689.925C-283.146 690.302 -283.386 691.152 -283.01 691.824C-282.634 692.497 -281.783 692.737 -281.111 692.36C-266.197 684.012 -246.234 679.414 -225.52 679.626C-204.805 679.838 -185.132 684.841 -170.729 693.481C-170.069 693.878 -169.212 693.663 -168.815 693.003C-168.419 692.342 -168.633 691.485 -169.294 691.088C-184.207 682.142 -204.391 677.051 -225.492 676.836ZM-240.323 719.052C-243.905 721.159 -245.784 723.867 -245.784 726.579C-245.784 729.292 -243.905 732 -240.323 734.107C-236.773 736.195 -231.778 737.531 -226.185 737.531C-220.592 737.531 -215.597 736.195 -212.047 734.107C-208.465 732 -206.586 729.292 -206.586 726.579C-206.586 723.867 -208.465 721.159 -212.047 719.052C-215.597 716.964 -220.592 715.628 -226.185 715.628C-231.778 715.628 -236.773 716.964 -240.323 719.052ZM-241.738 716.647C-237.689 714.266 -232.187 712.838 -226.185 712.838C-220.183 712.838 -214.681 714.266 -210.633 716.647C-206.616 719.009 -203.796 722.474 -203.796 726.579C-203.796 730.685 -206.616 734.15 -210.633 736.512C-214.681 738.893 -220.183 740.321 -226.185 740.321C-232.187 740.321 -237.689 738.893 -241.738 736.512C-245.754 734.15 -248.575 730.685 -248.575 726.579C-248.575 722.474 -245.754 719.009 -241.738 716.647ZM-227.58 318.124C-227.58 317.353 -226.955 316.729 -226.185 316.729C-39.2025 316.729 130.146 362.495 252.794 436.564C375.417 510.616 451.569 613.11 451.569 726.58C451.569 727.011 451.373 727.397 451.066 727.653C450.523 840.657 374.513 942.694 252.394 1016.48C129.837 1090.53 -39.3704 1136.28 -226.183 1136.26C-226.953 1136.26 -227.578 1135.63 -227.577 1134.86C-227.577 1134.09 -226.952 1133.47 -226.182 1133.47C-39.792 1133.49 128.898 1087.84 250.952 1014.09C373.032 940.329 448.247 838.61 448.279 726.504C448.279 726.075 448.472 725.692 448.776 725.436C448.266 613.774 373.108 512.481 251.352 438.952C129.207 365.188 -39.6245 319.519 -226.185 319.519C-226.955 319.519 -227.58 318.894 -227.58 318.124ZM213.936 567.841C214.963 567.474 216.413 567.81 217.174 568.59C362.089 717.073 280.088 907.869 35.576 995.046C34.549 995.412 33.0991 995.076 32.3376 994.296C31.5761 993.516 31.7913 992.587 32.8183 992.22C276.115 905.477 356.292 716.27 213.455 569.916C212.694 569.136 212.909 568.207 213.936 567.841ZM-377.948 780.729C-378.486 780.177 -379.51 779.94 -380.236 780.199C-380.962 780.458 -381.114 781.114 -380.576 781.666C-329.961 833.527 -219.851 850.449 -134.862 820.148C-49.8735 789.847 -21.1161 723.413 -71.7308 671.552C-72.269 671.001 -73.2936 670.764 -74.0194 671.022C-74.7452 671.281 -74.8973 671.938 -74.3591 672.489C-25.213 722.846 -52.6813 788.156 -136.811 818.151C-220.941 848.146 -328.802 831.085 -377.948 780.729ZM-431.848 798.599C-431.122 798.34 -430.097 798.578 -429.559 799.129C-363.599 866.713 -219.003 889.502 -106.37 849.344C6.26288 809.187 43.2074 721.673 -22.7522 654.089C-23.2903 653.538 -23.1383 652.881 -22.4125 652.622C-21.6867 652.363 -20.662 652.6 -20.1239 653.152C47.3043 722.24 9.07068 810.877 -104.421 851.341C-217.913 891.805 -364.759 869.155 -432.187 800.066C-432.725 799.515 -432.573 798.858 -431.848 798.599ZM-470.565 813.749C-549.884 732.477 -505.41 627.321 -370.13 579.089C-369.404 578.83 -369.252 578.173 -369.79 577.622C-370.328 577.07 -371.353 576.833 -372.079 577.092C-508.218 625.63 -553.981 731.91 -473.193 814.687C-392.406 897.463 -216.37 924.664 -80.2309 876.126C-79.5051 875.867 -79.353 875.21 -79.8912 874.659C-80.4294 874.108 -81.454 873.87 -82.1798 874.129C-217.46 922.361 -391.246 895.022 -470.565 813.749ZM-373.35 1055.31C-373.038 1054.6 -372.168 1054.13 -371.407 1054.26C-221.358 1078.56 -69.2794 1063.78 55.2674 1020.32C179.83 976.856 276.659 904.778 316.672 814.52C356.686 724.263 332.456 632.579 260.539 557.292C188.632 482.015 69.1492 423.262 -80.9004 398.962C-81.661 398.838 -82.0244 398.168 -81.7122 397.463C-81.3999 396.759 -80.5301 396.288 -79.7695 396.411C70.7363 420.785 190.712 479.732 262.992 555.4C335.263 631.058 359.947 723.565 319.427 814.966C278.907 906.368 181.002 979.022 55.8258 1022.7C-69.3665 1066.39 -222.032 1081.18 -372.538 1056.81C-373.299 1056.68 -373.662 1056.01 -373.35 1055.31ZM-358.921 587.403C-359.649 587.657 -359.807 588.315 -359.275 588.872C-358.743 589.429 -357.722 589.675 -356.994 589.421C-230.866 545.408 -70.1777 571.685 2.15253 647.406C74.4828 723.126 31.7904 820.374 -94.338 864.388C-95.0656 864.642 -95.2238 865.299 -94.6916 865.856C-94.1594 866.414 -93.1382 866.659 -92.4107 866.406C34.5574 822.099 78.5822 723.74 4.78711 646.486C-69.008 569.232 -231.953 543.097 -358.921 587.403ZM-157.184 614.432C-204.776 603.786 -259.179 604.098 -309.062 617.959C-309.804 618.165 -310.784 617.835 -311.251 617.222C-311.717 616.609 -311.494 615.944 -310.751 615.738C-260.358 601.735 -205.293 601.387 -156.96 612.199C-108.628 623.01 -66.909 645.019 -43.524 675.763C-43.0575 676.376 -43.2812 677.041 -44.0236 677.247C-44.766 677.453 -45.746 677.123 -46.2125 676.51C-68.9283 646.646 -109.59 625.079 -157.184 614.432ZM-172.613 712.047C-173.079 711.433 -174.059 711.103 -174.802 711.31C-175.544 711.516 -175.768 712.18 -175.301 712.794C-169.055 721.006 -168.832 730.065 -173.764 738.119C-178.695 746.172 -188.749 753.14 -202.809 757.047C-203.551 757.253 -203.775 757.918 -203.308 758.531C-202.842 759.144 -201.862 759.474 -201.12 759.268C-186.549 755.219 -176.018 747.971 -170.813 739.47C-165.608 730.97 -165.697 721.139 -172.613 712.047ZM-225.185 794.595C-225.184 795.366 -225.809 795.991 -226.579 795.991C-257.987 796.001 -286.496 788.319 -307.203 775.817C-327.885 763.331 -340.993 745.884 -341.011 726.351C-341.012 725.581 -340.388 724.956 -339.617 724.956C-338.846 724.955 -338.221 725.58 -338.221 726.35C-338.204 744.528 -325.992 761.215 -305.762 773.429C-285.559 785.626 -257.567 793.211 -226.582 793.201C-225.811 793.201 -225.186 793.825 -225.185 794.595ZM-259.243 721.198C-257.002 716.143 -251.507 711.947 -244.078 709.355C-236.664 706.768 -227.518 705.861 -218.435 707.332C-217.675 707.456 -216.805 706.984 -216.493 706.28C-216.18 705.576 -216.544 704.905 -217.305 704.781C-226.843 703.237 -236.577 704.162 -244.636 706.975C-252.679 709.781 -259.249 714.553 -261.997 720.752C-264.746 726.951 -263.003 733.069 -258.359 737.93C-253.707 742.801 -246.042 746.544 -236.504 748.089C-235.743 748.212 -234.873 747.741 -234.561 747.037C-234.249 746.332 -234.612 745.661 -235.373 745.538C-244.455 744.067 -251.627 740.518 -255.907 736.038C-260.196 731.547 -261.484 726.253 -259.243 721.198ZM-59.5431 1076.79C-60.3022 1076.93 -60.6487 1077.6 -60.3171 1078.29C-59.9854 1078.99 -59.1012 1079.44 -58.3421 1079.31C102.455 1051.3 229.309 986.543 304.389 904.417C379.46 822.299 402.857 722.691 356.316 625.085C309.774 527.478 202.258 450.674 66.3947 405.3C-69.4832 359.921 -233.903 345.899 -394.7 373.909C-395.459 374.041 -395.806 374.712 -395.474 375.408C-395.142 376.103 -394.258 376.56 -393.499 376.428C-233.163 348.498 -69.3382 362.507 65.8834 407.666C201.119 452.831 307.557 529.074 353.567 625.564C399.576 722.053 376.597 820.84 301.873 902.578C227.156 984.307 100.793 1048.86 -59.5431 1076.79ZM-269.435 773.628C-249.538 780.273 -225.348 782.357 -201.622 778.224C-200.863 778.092 -199.978 778.549 -199.647 779.244C-199.315 779.94 -199.662 780.611 -200.421 780.743C-224.608 784.956 -249.393 782.858 -269.946 775.994C-290.484 769.135 -306.984 757.437 -314.155 742.399C-321.325 727.361 -317.657 712.15 -306.308 699.736C-294.952 687.314 -275.816 677.565 -251.628 673.352C-250.869 673.22 -249.985 673.677 -249.653 674.372C-249.322 675.068 -249.668 675.739 -250.427 675.871C-274.153 680.004 -292.798 689.549 -303.792 701.575C-314.793 713.609 -318.044 727.999 -311.406 741.92C-304.768 755.842 -289.345 766.979 -269.435 773.628ZM-36.0202 647.197C-36.5988 646.688 -37.6447 646.515 -38.3563 646.811C-39.0678 647.106 -39.1756 647.759 -38.597 648.267C31.4879 709.901 4.724 794.983 -99.2682 838.182C-99.9797 838.478 -100.088 839.13 -99.5089 839.639C-98.9303 840.148 -97.8844 840.32 -97.1728 840.025C7.78406 796.425 35.5625 710.148 -36.0202 647.197ZM-170.386 631.142C-202.787 624.218 -237.936 623.523 -271.013 629.15C-304.082 634.777 -333.523 646.458 -355.255 662.648C-355.873 663.109 -356 663.983 -355.54 664.601C-355.08 665.218 -354.206 665.346 -353.588 664.886C-332.285 649.016 -303.284 637.471 -270.545 631.901C-237.812 626.333 -203.02 627.022 -170.969 633.871C-138.911 640.722 -111.243 653.384 -91.7305 670.044C-72.224 686.7 -61.8954 706.461 -61.8954 726.58C-61.8954 727.35 -61.2708 727.975 -60.5002 727.975C-59.7297 727.975 -59.105 727.35 -59.105 726.58C-59.105 705.442 -69.9643 684.96 -89.9186 667.922C-109.867 650.89 -137.994 638.065 -170.386 631.142Z" fill="#444040"/>
<ellipse cx="30.9146" cy="731.205" rx="573.744" ry="539.23" fill="url(#paint4_linear)"/>
<path d="M577.825 568.073C848.456 495.524 339.137 974.384 -474.884 1001.73" stroke="url(#paint5_linear)" stroke-width="3.90646"/>
<circle cx="1718.2" cy="234.301" r="199.143" fill="#3DCBFC"/>
<path fill-rule="evenodd" clip-rule="evenodd" d="M1692.49 90.3875C1658.01 117.288 1601.82 114.552 1564.77 108.79C1551.31 125.234 1540.44 143.87 1532.76 164.08C1579.72 168.125 1634.39 165.374 1680.03 142.693C1729.47 118.122 1787.53 92.6932 1834.8 72.7897C1808.07 53.6444 1776.4 40.9512 1742.07 36.9868C1729.15 55.2956 1712.58 74.706 1692.49 90.3875ZM1909.16 175.576C1897.97 182.135 1884.76 185.643 1870.82 184.805C1797.34 180.384 1697.09 181.87 1646.38 215.604C1605.01 243.121 1560.03 263.906 1524.54 278.052C1527.86 293.043 1532.87 307.398 1539.36 320.909C1600.62 318.836 1674.68 306.941 1699.91 264.148C1732.9 208.185 1853.06 210.505 1917.25 216.111C1915.95 202.129 1913.21 188.567 1909.16 175.576ZM1704.8 433.451C1683.75 431.97 1663.61 427.22 1644.87 419.704C1651.71 413.666 1658.79 406.854 1666.13 399.203C1767.19 293.849 1866.21 269.917 1915.85 264.966C1912.43 287.5 1905.23 308.793 1894.92 328.18C1858.95 322.866 1811.78 321.991 1780.66 344.626C1744.27 371.095 1718.49 409.551 1704.8 433.451Z" fill="#2988DD"/>
<circle cx="1721.36" cy="232.993" r="202.299" fill="url(#paint6_linear)"/>
<circle r="5.58066" transform="matrix(-1 0 0 1 1367.26 353.814)" fill="white"/>
<circle r="3.62743" transform="matrix(-0.864031 0.503439 0.503439 0.864031 583.675 321.866)" fill="white"/>
<circle r="3.62743" transform="matrix(-1 0 0 1 1522.13 500.306)" fill="white"/>
<circle r="5.58066" transform="matrix(-0.864031 0.503439 0.503439 0.864031 703.434 260.806)" fill="white"/>
<circle r="2.79033" transform="matrix(-1 0 0 1 694.792 656.844)" fill="white"/>
<ellipse rx="7.21602" ry="10.4564" transform="matrix(-0.776667 -0.629911 -0.240008 0.970771 1838.28 261.33)" fill="white"/>
<circle r="5.58066" transform="matrix(-1 0 0 1 953.177 736.647)" fill="white"/>
<circle cx="735.083" cy="869.904" r="1.07829" transform="rotate(-30 735.083 869.904)" fill="white"/>
<circle cx="1446.22" cy="138.695" r="1.07829" transform="rotate(-5.87752 1446.22 138.695)" fill="white"/>
<circle cx="1359.69" cy="208.606" r="1.07829" transform="rotate(-5.87752 1359.69 208.606)" fill="white"/>
<circle cx="1394.74" cy="254.561" r="1.07829" transform="rotate(-5.87752 1394.74 254.561)" fill="white"/>
<circle r="0.808715" transform="matrix(-0.866025 0.5 0.5 0.866025 772.973 871.373)" fill="#161616"/>
<path d="M756.229 661.711C761.28 656.042 769.802 655.391 775.639 660.592C778.574 663.206 779.9 665.58 780.352 669.485C778.944 668.229 753.626 666.252 753.626 666.252C753.626 666.252 753.539 664.73 756.229 661.711Z" fill="#161616"/>
<circle r="2.29189" transform="matrix(-0.866025 0.5 0.5 0.866025 1025.99 220.777)" fill="#161616"/>
<rect width="0.815568" height="0.815568" rx="0.14794" transform="matrix(-0.995308 0.0967565 0.0967565 0.995308 717.739 678.822)" fill="white"/>
<rect width="1.63602" height="1.63602" rx="0.296767" transform="matrix(-0.995308 0.0967565 0.0967565 0.995308 826.668 877.573)" fill="white"/>
<rect width="1.41935" height="1.41935" rx="0.268986" transform="matrix(-0.417767 0.908554 0.908554 0.417767 799.26 648.391)" fill="#161616"/>
<rect width="1.68938" height="1.68938" rx="0.345501" transform="matrix(-0.493118 0.869962 0.869962 0.493118 1016.81 295.499)" fill="#161616"/>
<path d="M707.914 841.094C707.919 841.247 708.022 841.38 708.169 841.423L709.243 841.734C709.391 841.777 709.549 841.72 709.635 841.593L710.263 840.668C710.349 840.541 710.344 840.373 710.25 840.251L709.564 839.368C709.47 839.247 709.308 839.2 709.164 839.252L708.112 839.631C707.968 839.683 707.873 839.823 707.878 839.976L707.914 841.094Z" fill="white"/>
<path d="M817.178 156.14C817.259 156.27 817.415 156.333 817.564 156.296L818.649 156.024C818.798 155.987 818.906 155.858 818.916 155.704L818.993 154.589C819.004 154.436 818.915 154.293 818.772 154.236L817.735 153.818C817.593 153.761 817.429 153.802 817.331 153.919L816.613 154.777C816.514 154.894 816.503 155.062 816.584 155.192L817.178 156.14Z" fill="white"/>
<path d="M847.93 592.978C847.934 593.132 848.038 593.265 848.185 593.307L849.259 593.619C849.406 593.661 849.565 593.604 849.651 593.477L850.279 592.552C850.365 592.425 850.36 592.257 850.266 592.136L849.58 591.253C849.486 591.131 849.324 591.085 849.18 591.137L848.128 591.516C847.983 591.568 847.889 591.707 847.894 591.861L847.93 592.978Z" fill="white"/>
<path d="M861.057 130.573C861.138 130.703 861.294 130.766 861.443 130.729L862.528 130.457C862.677 130.42 862.785 130.291 862.795 130.138L862.872 129.022C862.883 128.869 862.793 128.727 862.651 128.669L861.614 128.251C861.471 128.194 861.308 128.235 861.21 128.353L860.492 129.21C860.393 129.328 860.382 129.495 860.463 129.625L861.057 130.573Z" fill="white"/>
<path d="M1281.55 467.413C1281.55 467.567 1281.66 467.7 1281.8 467.742L1282.88 468.054C1283.02 468.096 1283.18 468.039 1283.27 467.912L1283.9 466.987C1283.98 466.86 1283.98 466.692 1283.88 466.571L1283.2 465.688C1283.1 465.566 1282.94 465.52 1282.8 465.572L1281.75 465.951C1281.6 466.003 1281.51 466.142 1281.51 466.296L1281.55 467.413Z" fill="white"/>
<path d="M922.302 839.031C922.307 839.185 922.41 839.318 922.558 839.361L923.631 839.672C923.779 839.715 923.937 839.658 924.023 839.531L924.651 838.606C924.738 838.478 924.732 838.31 924.638 838.189L923.952 837.306C923.858 837.185 923.697 837.138 923.552 837.19L922.5 837.569C922.356 837.621 922.261 837.76 922.266 837.914L922.302 839.031Z" fill="white"/>
<path d="M922.302 839.031C922.307 839.185 922.41 839.318 922.558 839.361L923.631 839.672C923.779 839.715 923.937 839.658 924.023 839.531L924.651 838.606C924.738 838.478 924.732 838.31 924.638 838.189L923.952 837.306C923.858 837.185 923.697 837.138 923.552 837.19L922.5 837.569C922.356 837.621 922.261 837.76 922.266 837.914L922.302 839.031Z" fill="white"/>
<path d="M1556.18 595.21C1556.19 595.364 1556.29 595.497 1556.44 595.54L1557.51 595.851C1557.66 595.894 1557.82 595.837 1557.9 595.71L1558.53 594.784C1558.62 594.657 1558.61 594.489 1558.52 594.368L1557.83 593.485C1557.74 593.364 1557.58 593.317 1557.43 593.369L1556.38 593.748C1556.24 593.8 1556.14 593.939 1556.15 594.093L1556.18 595.21Z" fill="white"/>
<path d="M724.664 305.574C724.669 305.727 724.772 305.86 724.919 305.903L725.993 306.214C726.141 306.257 726.299 306.2 726.385 306.073L727.013 305.148C727.099 305.021 727.094 304.853 727 304.732L726.314 303.848C726.22 303.727 726.058 303.68 725.914 303.732L724.862 304.112C724.718 304.164 724.623 304.303 724.628 304.456L724.664 305.574Z" fill="white"/>
<path d="M1428.39 352.452C1428.39 352.605 1428.49 352.738 1428.64 352.781L1429.71 353.092C1429.86 353.135 1430.02 353.078 1430.11 352.951L1430.73 352.026C1430.82 351.899 1430.82 351.73 1430.72 351.609L1430.04 350.726C1429.94 350.605 1429.78 350.558 1429.64 350.61L1428.58 350.989C1428.44 351.041 1428.34 351.181 1428.35 351.334L1428.39 352.452Z" fill="white"/>
<path d="M1585.76 538.846C1585.76 538.999 1585.87 539.132 1586.02 539.175L1587.09 539.486C1587.24 539.529 1587.39 539.472 1587.48 539.345L1588.11 538.42C1588.2 538.293 1588.19 538.125 1588.1 538.003L1587.41 537.12C1587.32 536.999 1587.15 536.952 1587.01 537.004L1585.96 537.383C1585.81 537.436 1585.72 537.575 1585.72 537.728L1585.76 538.846Z" fill="white"/>
<circle r="11.1613" transform="matrix(-1 0 0 1 1732.8 507.84)" fill="white"/>
<path d="M1837.69 800.53C1837.7 800.683 1837.8 800.816 1837.95 800.859L1842.29 802.116C1842.43 802.159 1842.59 802.102 1842.68 801.975L1845.21 798.24C1845.3 798.113 1845.29 797.945 1845.2 797.824L1842.43 794.258C1842.34 794.137 1842.18 794.09 1842.03 794.142L1837.78 795.673C1837.64 795.725 1837.55 795.865 1837.55 796.018L1837.69 800.53Z" fill="white"/>
<path d="M1928.77 626.962C1928.78 627.116 1928.88 627.249 1929.03 627.291L1933.37 628.548C1933.51 628.591 1933.67 628.534 1933.76 628.407L1936.29 624.672C1936.38 624.545 1936.37 624.377 1936.28 624.256L1933.51 620.691C1933.42 620.569 1933.26 620.522 1933.11 620.575L1928.86 622.106C1928.72 622.158 1928.63 622.297 1928.63 622.451L1928.77 626.962Z" fill="white"/>
<circle r="11.1613" transform="matrix(-0.374823 0.927096 0.927096 0.374823 913.9 1050.42)" fill="white"/>
<path d="M1224.57 1062.88C1224.71 1062.93 1224.88 1062.89 1224.97 1062.77L1227.76 1059.22C1227.86 1059.1 1227.86 1058.93 1227.78 1058.8L1225.26 1055.05C1225.18 1054.92 1225.02 1054.87 1224.87 1054.91L1220.53 1056.14C1220.38 1056.18 1220.28 1056.31 1220.27 1056.47L1220.1 1060.98C1220.1 1061.13 1220.19 1061.27 1220.33 1061.32L1224.57 1062.88Z" fill="white"/>
<path d="M1097.79 913.383C1097.94 913.436 1098.1 913.39 1098.2 913.27L1100.99 909.722C1101.08 909.601 1101.09 909.433 1101 909.305L1098.49 905.555C1098.4 905.427 1098.25 905.369 1098.1 905.411L1093.76 906.641C1093.61 906.683 1093.5 906.816 1093.5 906.969L1093.33 911.48C1093.32 911.633 1093.41 911.773 1093.56 911.826L1097.79 913.383Z" fill="white"/>
<path d="M444.185 221.988C444.19 222.141 444.293 222.274 444.44 222.317L450.568 224.094C450.716 224.136 450.874 224.079 450.96 223.952L454.544 218.673C454.63 218.546 454.625 218.378 454.531 218.257L450.618 213.217C450.523 213.096 450.362 213.049 450.217 213.101L444.215 215.266C444.071 215.318 443.976 215.457 443.981 215.61L444.185 221.988Z" fill="white"/>
<path d="M841.857 392.632C841.862 392.786 841.966 392.919 842.113 392.961L843.187 393.273C843.334 393.316 843.493 393.259 843.579 393.132L844.207 392.206C844.293 392.079 844.288 391.911 844.194 391.79L843.508 390.907C843.414 390.786 843.252 390.739 843.108 390.791L842.056 391.17C841.911 391.222 841.817 391.361 841.822 391.515L841.857 392.632Z" fill="white"/>
<path d="M817.178 156.14C817.259 156.27 817.415 156.333 817.564 156.296L818.649 156.024C818.798 155.987 818.906 155.858 818.916 155.704L818.993 154.589C819.004 154.436 818.915 154.293 818.772 154.236L817.735 153.818C817.593 153.761 817.429 153.802 817.331 153.919L816.613 154.777C816.514 154.894 816.503 155.062 816.584 155.192L817.178 156.14Z" fill="white"/>
<circle r="3.62743" transform="matrix(-1 0 0 1 110.768 89.5697)" fill="white"/>
<circle r="5.58066" transform="matrix(-1 0 0 1 244.983 97.1035)" fill="white"/>
<path d="M395.955 63.9313C395.96 64.0848 396.063 64.2176 396.21 64.2604L397.284 64.5718C397.432 64.6146 397.59 64.5575 397.676 64.4305L398.304 63.5054C398.39 63.3783 398.385 63.2102 398.291 63.0889L397.605 62.2058C397.511 62.0845 397.349 62.0377 397.205 62.0898L396.153 62.469C396.009 62.5211 395.914 62.6603 395.919 62.8138L395.955 63.9313Z" fill="white"/>
<path d="M58.8829 73.9766C58.8878 74.1301 58.9909 74.2629 59.1384 74.3057L60.2123 74.6171C60.3598 74.6598 60.518 74.6028 60.6042 74.4758L61.2322 73.5506C61.3185 73.4236 61.3131 73.2555 61.2189 73.1342L60.5332 72.2511C60.439 72.1298 60.2775 72.083 60.133 72.135L59.0812 72.5143C58.9367 72.5664 58.8423 72.7056 58.8472 72.8591L58.8829 73.9766Z" fill="white"/>
<path d="M395.955 63.9313C395.96 64.0848 396.063 64.2176 396.21 64.2604L397.284 64.5718C397.432 64.6146 397.59 64.5575 397.676 64.4305L398.304 63.5054C398.39 63.3783 398.385 63.2102 398.291 63.0889L397.605 62.2058C397.511 62.0845 397.349 62.0377 397.205 62.0898L396.153 62.469C396.009 62.5211 395.914 62.6603 395.919 62.8138L395.955 63.9313Z" fill="white"/>
<circle r="3.62743" transform="matrix(-0.983046 0.183362 0.183362 0.983046 630.773 110.938)" fill="white"/>
<circle r="5.58066" transform="matrix(-0.983046 0.183362 0.183362 0.983046 764.094 93.7342)" fill="white"/>
<path d="M906.423 33.442C906.456 33.592 906.582 33.7037 906.735 33.7187L907.848 33.8279C908 33.8429 908.145 33.7578 908.207 33.6171L908.655 32.5925C908.716 32.4518 908.68 32.2875 908.565 32.1856L907.729 31.4432C907.614 31.3412 907.447 31.3248 907.314 31.4025L906.35 31.9682C906.218 32.0459 906.15 32.2 906.183 32.35L906.423 33.442Z" fill="white"/>
<path d="M576.908 105.123C576.941 105.273 577.067 105.385 577.219 105.4L578.332 105.509C578.485 105.524 578.63 105.439 578.692 105.298L579.139 104.274C579.201 104.133 579.165 103.969 579.05 103.867L578.214 103.124C578.099 103.022 577.932 103.006 577.799 103.084L576.835 103.649C576.702 103.727 576.635 103.881 576.668 104.031L576.908 105.123Z" fill="white"/>
<path d="M906.423 33.442C906.456 33.592 906.582 33.7037 906.735 33.7187L907.848 33.8279C908 33.8429 908.145 33.7578 908.207 33.6171L908.655 32.5925C908.716 32.4518 908.68 32.2875 908.565 32.1856L907.729 31.4432C907.614 31.3412 907.447 31.3248 907.314 31.4025L906.35 31.9682C906.218 32.0459 906.15 32.2 906.183 32.35L906.423 33.442Z" fill="white"/>
<path d="M707.914 841.094C707.919 841.247 708.022 841.38 708.169 841.423L709.243 841.734C709.391 841.777 709.549 841.72 709.635 841.593L710.263 840.668C710.349 840.541 710.344 840.373 710.25 840.251L709.564 839.368C709.47 839.247 709.308 839.2 709.164 839.252L708.112 839.631C707.968 839.683 707.873 839.823 707.878 839.976L707.914 841.094Z" fill="white"/>
<path d="M706.877 761.818C706.862 761.893 706.898 761.968 706.965 762.005L707.451 762.272C707.518 762.308 707.601 762.298 707.656 762.246L708.06 761.865C708.116 761.813 708.131 761.731 708.099 761.662L707.862 761.161C707.829 761.092 707.756 761.052 707.681 761.061L707.131 761.131C707.055 761.141 706.994 761.198 706.98 761.273L706.877 761.818Z" fill="white"/>
<path d="M1293.39 226.004C1293.24 226.019 1293.12 226.13 1293.08 226.28L1292.84 227.372C1292.81 227.522 1292.88 227.676 1293.01 227.754L1293.97 228.32C1294.11 228.398 1294.27 228.381 1294.39 228.279L1295.22 227.537C1295.34 227.435 1295.38 227.271 1295.31 227.13L1294.87 226.105C1294.81 225.965 1294.66 225.88 1294.51 225.895L1293.39 226.004Z" fill="white"/>
<path d="M767.302 791.11C767.198 791.169 767.144 791.289 767.169 791.406L767.346 792.26C767.37 792.377 767.467 792.465 767.586 792.478L768.453 792.574C768.572 792.587 768.686 792.522 768.735 792.413L769.094 791.618C769.143 791.509 769.116 791.38 769.028 791.3L768.383 790.713C768.294 790.633 768.164 790.618 768.06 790.678L767.302 791.11Z" fill="#161616"/>
<circle r="3.62743" transform="matrix(-1 0 0 1 1109.17 30.4147)" fill="white"/>
<circle r="5.58066" transform="matrix(-1 0 0 1 1243.38 37.9485)" fill="white"/>
<circle cx="1010.76" cy="92.5961" r="1.07829" transform="rotate(-30 1010.76 92.5961)" fill="white"/>
<circle cx="1011.13" cy="219.386" r="1.07829" transform="rotate(-30 1011.13 219.386)" fill="white"/>
<rect width="1.41935" height="1.41935" rx="0.268986" transform="matrix(0.0964381 0.995339 0.995339 -0.0964381 618.875 142.05)" fill="#161616"/>
<path d="M1063.35 215.167C1063.36 215.321 1063.46 215.454 1063.61 215.496L1064.68 215.808C1064.83 215.851 1064.99 215.793 1065.07 215.666L1065.7 214.741C1065.79 214.614 1065.78 214.446 1065.69 214.325L1065 213.442C1064.91 213.32 1064.75 213.274 1064.6 213.326L1063.55 213.705C1063.41 213.757 1063.31 213.896 1063.32 214.05L1063.35 215.167Z" fill="white"/>
<path d="M1057.28 14.8216C1057.29 14.975 1057.39 15.1079 1057.54 15.1507L1058.61 15.4621C1058.76 15.5048 1058.92 15.4478 1059 15.3207L1059.63 14.3956C1059.72 14.2686 1059.71 14.1005 1059.62 13.9792L1058.93 13.096C1058.84 12.9748 1058.68 12.9279 1058.53 12.98L1057.48 13.3593C1057.34 13.4114 1057.24 13.5506 1057.25 13.704L1057.28 14.8216Z" fill="white"/>
<path d="M690.312 105.487C690.252 105.59 690.266 105.721 690.346 105.81L690.929 106.458C691.009 106.547 691.137 106.575 691.247 106.526L692.044 106.172C692.153 106.124 692.219 106.01 692.206 105.891L692.116 105.024C692.104 104.905 692.016 104.807 691.899 104.782L691.046 104.6C690.929 104.575 690.809 104.628 690.749 104.732L690.312 105.487Z" fill="#161616"/>
<circle r="3.62743" transform="matrix(-1 0 0 1 578.446 969.64)" fill="white"/>
<circle r="5.58066" transform="matrix(-1 0 0 1 712.661 977.174)" fill="white"/>
<circle cx="480.041" cy="1031.82" r="1.07829" transform="rotate(-30 480.041 1031.82)" fill="white"/>
<circle cx="480.405" cy="1158.61" r="1.07829" transform="rotate(-30 480.405 1158.61)" fill="white"/>
<path d="M440.931 1223.13C445.982 1217.46 454.505 1216.81 460.342 1222.01C463.276 1224.62 464.603 1226.99 465.055 1230.9C463.646 1229.64 438.329 1227.67 438.329 1227.67C438.329 1227.67 438.241 1226.14 440.931 1223.13Z" fill="#161616"/>
<rect width="1.41935" height="1.41935" rx="0.268986" transform="matrix(-0.417767 0.908554 0.908554 0.417767 483.962 1209.81)" fill="#161616"/>
<path d="M532.632 1154.39C532.637 1154.55 532.74 1154.68 532.888 1154.72L533.962 1155.03C534.109 1155.08 534.267 1155.02 534.354 1154.89L534.982 1153.97C535.068 1153.84 535.062 1153.67 534.968 1153.55L534.282 1152.67C534.188 1152.55 534.027 1152.5 533.882 1152.55L532.83 1152.93C532.686 1152.98 532.592 1153.12 532.596 1153.28L532.632 1154.39Z" fill="white"/>
<path d="M526.56 954.047C526.565 954.201 526.668 954.333 526.816 954.376L527.89 954.688C528.037 954.73 528.195 954.673 528.281 954.546L528.909 953.621C528.996 953.494 528.99 953.326 528.896 953.205L528.21 952.322C528.116 952.2 527.955 952.153 527.81 952.206L526.758 952.585C526.614 952.637 526.52 952.776 526.524 952.93L526.56 954.047Z" fill="white"/>
<path d="M564.093 1214.18C563.989 1214.24 563.935 1214.36 563.96 1214.47L564.137 1215.33C564.161 1215.45 564.258 1215.53 564.377 1215.55L565.244 1215.64C565.363 1215.66 565.477 1215.59 565.526 1215.48L565.885 1214.69C565.934 1214.58 565.907 1214.45 565.819 1214.37L565.174 1213.78C565.085 1213.7 564.955 1213.69 564.851 1213.75L564.093 1214.18Z" fill="#161616"/>
<circle r="3.62743" transform="matrix(-1 0 0 1 1468.56 773.201)" fill="white"/>
<circle r="5.58066" transform="matrix(-1 0 0 1 1602.78 780.735)" fill="white"/>
<circle cx="1370.16" cy="835.382" r="1.07829" transform="rotate(-30 1370.16 835.382)" fill="white"/>
<circle cx="1370.52" cy="962.172" r="1.07829" transform="rotate(-30 1370.52 962.172)" fill="white"/>
<path d="M1331.05 1026.69C1336.1 1021.02 1344.62 1020.37 1350.46 1025.57C1353.39 1028.18 1354.72 1030.56 1355.17 1034.46C1353.76 1033.2 1328.44 1031.23 1328.44 1031.23C1328.44 1031.23 1328.36 1029.71 1331.05 1026.69Z" fill="#161616"/>
<rect width="1.41935" height="1.41935" rx="0.268986" transform="matrix(-0.417767 0.908554 0.908554 0.417767 1374.08 1013.37)" fill="#161616"/>
<path d="M1422.75 957.954C1422.75 958.107 1422.86 958.24 1423 958.283L1424.08 958.594C1424.22 958.637 1424.38 958.58 1424.47 958.453L1425.1 957.528C1425.18 957.401 1425.18 957.232 1425.08 957.111L1424.4 956.228C1424.3 956.107 1424.14 956.06 1424 956.112L1422.95 956.491C1422.8 956.543 1422.71 956.683 1422.71 956.836L1422.75 957.954Z" fill="white"/>
<path d="M1416.68 757.608C1416.68 757.761 1416.78 757.894 1416.93 757.937L1418.01 758.248C1418.15 758.291 1418.31 758.234 1418.4 758.107L1419.03 757.182C1419.11 757.055 1419.11 756.887 1419.01 756.765L1418.33 755.882C1418.23 755.761 1418.07 755.714 1417.93 755.766L1416.87 756.145C1416.73 756.198 1416.64 756.337 1416.64 756.49L1416.68 757.608Z" fill="white"/>
<path d="M1454.21 1017.74C1454.11 1017.8 1454.05 1017.92 1454.08 1018.03L1454.25 1018.89C1454.28 1019.01 1454.37 1019.09 1454.49 1019.11L1455.36 1019.2C1455.48 1019.22 1455.59 1019.15 1455.64 1019.04L1456 1018.25C1456.05 1018.14 1456.02 1018.01 1455.93 1017.93L1455.29 1017.34C1455.2 1017.26 1455.07 1017.25 1454.97 1017.31L1454.21 1017.74Z" fill="#161616"/>
<circle r="3.62743" transform="matrix(-1 0 0 1 1965.24 997.544)" fill="white"/>
<circle r="5.58066" transform="matrix(-1 0 0 1 2099.46 1005.08)" fill="white"/>
<circle cx="1866.84" cy="1059.72" r="1.07829" transform="rotate(-30 1866.84 1059.72)" fill="white"/>
<circle cx="1867.2" cy="1186.51" r="1.07829" transform="rotate(-30 1867.2 1186.51)" fill="white"/>
<path d="M1827.73 1251.03C1832.78 1245.36 1841.3 1244.71 1847.14 1249.91C1850.07 1252.52 1851.4 1254.9 1851.85 1258.8C1850.44 1257.55 1825.12 1255.57 1825.12 1255.57C1825.12 1255.57 1825.04 1254.05 1827.73 1251.03Z" fill="#161616"/>
<rect width="1.41935" height="1.41935" rx="0.268986" transform="matrix(-0.417767 0.908554 0.908554 0.417767 1870.76 1237.71)" fill="#161616"/>
<path d="M1919.43 1182.3C1919.43 1182.45 1919.53 1182.58 1919.68 1182.63L1920.76 1182.94C1920.9 1182.98 1921.06 1182.92 1921.15 1182.8L1921.78 1181.87C1921.86 1181.74 1921.86 1181.58 1921.76 1181.45L1921.08 1180.57C1920.98 1180.45 1920.82 1180.4 1920.68 1180.45L1919.63 1180.83C1919.48 1180.89 1919.39 1181.03 1919.39 1181.18L1919.43 1182.3Z" fill="white"/>
<path d="M1913.35 981.95C1913.36 982.104 1913.46 982.237 1913.61 982.279L1914.68 982.591C1914.83 982.634 1914.99 982.577 1915.08 982.45L1915.7 981.524C1915.79 981.397 1915.79 981.229 1915.69 981.108L1915.01 980.225C1914.91 980.104 1914.75 980.057 1914.6 980.109L1913.55 980.488C1913.41 980.54 1913.31 980.679 1913.32 980.833L1913.35 981.95Z" fill="white"/>
<path d="M1950.89 1242.08C1950.78 1242.14 1950.73 1242.26 1950.75 1242.38L1950.93 1243.23C1950.96 1243.35 1951.05 1243.44 1951.17 1243.45L1952.04 1243.55C1952.16 1243.56 1952.27 1243.49 1952.32 1243.38L1952.68 1242.59C1952.73 1242.48 1952.7 1242.35 1952.61 1242.27L1951.97 1241.68C1951.88 1241.6 1951.75 1241.59 1951.65 1241.65L1950.89 1242.08Z" fill="#161616"/>
<path d="M797.782 835.933C797.619 835.949 797.535 836.135 797.63 836.268L798.414 837.358C798.509 837.49 798.713 837.47 798.78 837.321L799.332 836.098C799.399 835.949 799.28 835.783 799.117 835.799L797.782 835.933Z" fill="#161616"/>
<circle r="85.125" transform="matrix(-0.707107 -0.707107 -0.707107 0.707107 1709.2 990.41)" fill="#EFF0F2"/>
<path fill-rule="evenodd" clip-rule="evenodd" d="M1625.73 1007.16C1629.9 1015.73 1635.54 1023.76 1642.65 1030.87C1677.01 1065.22 1732.7 1065.22 1767.05 1030.87C1782.95 1014.97 1791.49 994.495 1792.67 973.679C1798.05 1000.64 1790.29 1029.7 1769.39 1050.6C1736.15 1083.85 1682.25 1083.85 1649.01 1050.6C1636.67 1038.26 1628.91 1023.08 1625.73 1007.16Z" fill="#A3A3A3"/>
<g filter="url(#filter0_i)">
<circle r="10.8771" transform="matrix(-0.707107 -0.707107 -0.707107 0.707107 1750.67 964.326)" fill="#C4C4C4"/>
</g>
<g filter="url(#filter1_i)">
<circle r="16.0792" transform="matrix(-0.707107 -0.707107 -0.707107 0.707107 1714.55 932.893)" fill="#C4C4C4"/>
</g>
<g filter="url(#filter2_i)">
<circle r="6.62084" transform="matrix(-0.707107 -0.707107 -0.707107 0.707107 1661.38 999.439)" fill="#C4C4C4"/>
</g>
<g filter="url(#filter3_i)">
<circle r="10.4042" transform="matrix(-0.707107 -0.707107 -0.707107 0.707107 1722.24 1050.94)" fill="#C4C4C4"/>
</g>
<g filter="url(#filter4_i)">
<circle r="15.1333" transform="matrix(-0.707107 -0.707107 -0.707107 0.707107 1720.57 997.766)" fill="#C4C4C4"/>
</g>
<g filter="url(#filter5_i)">
<circle r="5.675" transform="matrix(-0.707107 -0.707107 -0.707107 0.707107 1695.49 990.076)" fill="#C4C4C4"/>
</g>
<g filter="url(#filter6_i)">
<circle r="5.675" transform="matrix(-0.707107 -0.707107 -0.707107 0.707107 1771.06 987.4)" fill="#C4C4C4"/>
</g>
<g filter="url(#filter7_i)">
<circle r="4.49751" transform="matrix(-0.5 -0.866025 -0.866025 0.5 1640.88 1028.87)" fill="#C4C4C4"/>
</g>
<g filter="url(#filter8_i)">
<circle r="10.0641" transform="matrix(-0.5 -0.866025 -0.866025 0.5 1655.32 949.947)" fill="#C4C4C4"/>
</g>
<path d="M858.891 411.852V515.372H830.111V458.252L810.582 515.372H786.501L766.824 457.812V515.372H738.044V411.852H772.845L798.835 479.103L824.238 411.852H858.891ZM870.575 474.111C870.575 465.594 872.092 458.155 875.127 451.792C878.26 445.429 882.469 440.534 887.755 437.108C893.139 433.682 899.11 431.969 905.669 431.969C911.347 431.969 916.241 433.094 920.353 435.346C924.464 437.597 927.646 440.632 929.897 444.45V432.996H958.677V515.372H929.897V503.919C927.646 507.737 924.415 510.771 920.206 513.023C916.095 515.274 911.249 516.4 905.669 516.4C899.11 516.4 893.139 514.687 887.755 511.261C882.469 507.834 878.26 502.94 875.127 496.577C872.092 490.116 870.575 482.627 870.575 474.111ZM929.897 474.111C929.897 468.825 928.429 464.664 925.492 461.63C922.653 458.595 919.129 457.078 914.92 457.078C910.613 457.078 907.04 458.595 904.201 461.63C901.362 464.566 899.943 468.727 899.943 474.111C899.943 479.397 901.362 483.606 904.201 486.739C907.04 489.773 910.613 491.291 914.92 491.291C919.129 491.291 922.653 489.773 925.492 486.739C928.429 483.704 929.897 479.495 929.897 474.111ZM1026.62 515.372L1003.86 481.6V515.372H975.077V406.713H1003.86V465.301L1026.62 432.996H1061.12L1028.67 474.404L1061.71 515.372H1026.62ZM1148.85 473.23C1148.85 475.481 1148.71 477.733 1148.41 479.984H1093.94C1094.23 484.487 1095.45 487.865 1097.61 490.116C1099.86 492.27 1102.7 493.346 1106.12 493.346C1110.92 493.346 1114.35 491.193 1116.4 486.886H1147.09C1145.82 492.563 1143.32 497.654 1139.6 502.157C1135.98 506.562 1131.38 510.037 1125.8 512.582C1120.22 515.127 1114.05 516.4 1107.3 516.4C1099.17 516.4 1091.93 514.687 1085.57 511.261C1079.3 507.834 1074.36 502.94 1070.74 496.577C1067.21 490.214 1065.45 482.725 1065.45 474.111C1065.45 465.496 1067.21 458.057 1070.74 451.792C1074.26 445.429 1079.15 440.534 1085.42 437.108C1091.78 433.682 1099.08 431.969 1107.3 431.969C1115.42 431.969 1122.62 433.633 1128.88 436.961C1135.15 440.289 1140.04 445.086 1143.57 451.351C1147.09 457.518 1148.85 464.811 1148.85 473.23ZM1119.49 466.035C1119.49 462.511 1118.31 459.77 1115.96 457.812C1113.61 455.756 1110.68 454.728 1107.15 454.728C1103.63 454.728 1100.74 455.707 1098.49 457.665C1096.24 459.525 1094.77 462.315 1094.08 466.035H1119.49ZM1189.41 447.533C1192.64 442.835 1196.56 439.115 1201.16 436.374C1205.76 433.633 1210.7 432.262 1215.99 432.262V462.951H1207.91C1201.65 462.951 1197 464.175 1193.96 466.622C1190.93 469.069 1189.41 473.328 1189.41 479.397V515.372H1160.63V432.996H1189.41V447.533ZM1261.4 516.4C1253.96 516.4 1247.3 515.176 1241.43 512.729C1235.66 510.184 1231.05 506.758 1227.63 502.45C1224.3 498.045 1222.44 493.102 1222.05 487.62H1249.95C1250.34 490.263 1251.56 492.319 1253.62 493.787C1255.67 495.255 1258.22 495.99 1261.25 495.99C1263.6 495.99 1265.46 495.5 1266.83 494.521C1268.2 493.542 1268.89 492.27 1268.89 490.703C1268.89 488.648 1267.76 487.13 1265.51 486.151C1263.26 485.173 1259.54 484.096 1254.35 482.921C1248.48 481.746 1243.58 480.425 1239.67 478.956C1235.75 477.488 1232.33 475.09 1229.39 471.761C1226.55 468.433 1225.13 463.93 1225.13 458.252C1225.13 453.358 1226.45 448.953 1229.1 445.037C1231.74 441.024 1235.61 437.842 1240.7 435.493C1245.88 433.143 1252.1 431.969 1259.34 431.969C1270.11 431.969 1278.58 434.612 1284.75 439.898C1290.91 445.184 1294.49 452.134 1295.47 460.749H1269.48C1268.99 458.106 1267.81 456.099 1265.95 454.728C1264.19 453.26 1261.79 452.526 1258.76 452.526C1256.41 452.526 1254.6 452.966 1253.32 453.847C1252.15 454.728 1251.56 455.952 1251.56 457.518C1251.56 459.476 1252.69 460.993 1254.94 462.07C1257.19 463.049 1260.81 464.077 1265.81 465.154C1271.78 466.426 1276.72 467.846 1280.64 469.412C1284.65 470.978 1288.12 473.523 1291.06 477.048C1294.1 480.474 1295.61 485.173 1295.61 491.144C1295.61 495.941 1294.19 500.248 1291.36 504.066C1288.61 507.883 1284.65 510.918 1279.46 513.17C1274.37 515.323 1268.35 516.4 1261.4 516.4Z" fill="white"/>
<path d="M967.476 599.308C962.113 599.308 957.303 598.362 953.045 596.47C948.787 594.498 945.396 591.857 942.873 588.545C940.428 585.233 939.088 581.566 938.851 577.544H955.529C955.845 580.068 957.067 582.157 959.196 583.813C961.404 585.469 964.124 586.297 967.357 586.297C970.512 586.297 972.956 585.666 974.691 584.405C976.504 583.143 977.411 581.527 977.411 579.555C977.411 577.426 976.307 575.849 974.099 574.824C971.97 573.72 968.54 572.537 963.809 571.275C958.92 570.093 954.898 568.87 951.744 567.609C948.669 566.347 945.988 564.415 943.701 561.813C941.493 559.211 940.389 555.702 940.389 551.286C940.389 547.658 941.414 544.347 943.464 541.35C945.593 538.354 948.59 535.988 952.454 534.253C956.397 532.518 961.01 531.651 966.293 531.651C974.099 531.651 980.329 533.622 984.981 537.565C989.634 541.429 992.197 546.673 992.67 553.297H976.82C976.583 550.694 975.479 548.644 973.508 547.146C971.615 545.569 969.053 544.78 965.82 544.78C962.823 544.78 960.497 545.332 958.841 546.436C957.264 547.54 956.475 549.078 956.475 551.049C956.475 553.257 957.579 554.953 959.787 556.135C961.995 557.239 965.425 558.383 970.078 559.566C974.809 560.748 978.712 561.971 981.788 563.232C984.863 564.494 987.505 566.465 989.713 569.146C991.999 571.749 993.182 575.218 993.261 579.555C993.261 583.34 992.197 586.731 990.067 589.727C988.017 592.724 985.021 595.09 981.078 596.824C977.214 598.48 972.68 599.308 967.476 599.308ZM1023.41 542.178C1025.54 539.182 1028.46 536.698 1032.17 534.726C1035.95 532.676 1040.25 531.651 1045.06 531.651C1050.66 531.651 1055.7 533.031 1060.2 535.791C1064.77 538.551 1068.36 542.493 1070.96 547.619C1073.64 552.666 1074.98 558.54 1074.98 565.243C1074.98 571.946 1073.64 577.899 1070.96 583.104C1068.36 588.229 1064.77 592.211 1060.2 595.05C1055.7 597.889 1050.66 599.308 1045.06 599.308C1040.25 599.308 1035.99 598.323 1032.28 596.351C1028.66 594.38 1025.7 591.896 1023.41 588.899V629.47H1006.85V532.716H1023.41V542.178ZM1058.07 565.243C1058.07 561.3 1057.24 557.91 1055.59 555.071C1054.01 552.153 1051.88 549.945 1049.2 548.447C1046.6 546.949 1043.76 546.2 1040.68 546.2C1037.69 546.2 1034.85 546.988 1032.17 548.565C1029.56 550.064 1027.44 552.271 1025.78 555.189C1024.2 558.107 1023.41 561.537 1023.41 565.48C1023.41 569.422 1024.2 572.853 1025.78 575.77C1027.44 578.688 1029.56 580.935 1032.17 582.512C1034.85 584.01 1037.69 584.76 1040.68 584.76C1043.76 584.76 1046.6 583.971 1049.2 582.394C1051.88 580.817 1054.01 578.57 1055.59 575.652C1057.24 572.734 1058.07 569.265 1058.07 565.243ZM1082.76 565.243C1082.76 558.619 1084.06 552.745 1086.66 547.619C1089.34 542.493 1092.93 538.551 1097.43 535.791C1102 533.031 1107.09 531.651 1112.69 531.651C1117.57 531.651 1121.83 532.637 1125.46 534.608C1129.17 536.579 1132.12 539.063 1134.33 542.06V532.716H1151.01V598.244H1134.33V588.663C1132.2 591.738 1129.24 594.301 1125.46 596.351C1121.75 598.323 1117.46 599.308 1112.57 599.308C1107.05 599.308 1102 597.889 1097.43 595.05C1092.93 592.211 1089.34 588.229 1086.66 583.104C1084.06 577.899 1082.76 571.946 1082.76 565.243ZM1134.33 565.48C1134.33 561.458 1133.54 558.028 1131.97 555.189C1130.39 552.271 1128.26 550.064 1125.58 548.565C1122.9 546.988 1120.02 546.2 1116.94 546.2C1113.87 546.2 1111.03 546.949 1108.43 548.447C1105.82 549.945 1103.7 552.153 1102.04 555.071C1100.46 557.91 1099.67 561.3 1099.67 565.243C1099.67 569.186 1100.46 572.655 1102.04 575.652C1103.7 578.57 1105.82 580.817 1108.43 582.394C1111.11 583.971 1113.95 584.76 1116.94 584.76C1120.02 584.76 1122.9 584.01 1125.58 582.512C1128.26 580.935 1130.39 578.727 1131.97 575.888C1133.54 572.971 1134.33 569.501 1134.33 565.48ZM1162.92 565.48C1162.92 558.698 1164.3 552.784 1167.06 547.737C1169.82 542.612 1173.65 538.669 1178.54 535.909C1183.43 533.07 1189.02 531.651 1195.33 531.651C1203.46 531.651 1210.16 533.701 1215.44 537.802C1220.8 541.823 1224.39 547.501 1226.2 554.834H1208.34C1207.4 551.995 1205.78 549.788 1203.49 548.21C1201.29 546.555 1198.53 545.727 1195.21 545.727C1190.48 545.727 1186.74 547.461 1183.98 550.931C1181.22 554.322 1179.84 559.171 1179.84 565.48C1179.84 571.709 1181.22 576.559 1183.98 580.028C1186.74 583.419 1190.48 585.114 1195.21 585.114C1201.92 585.114 1206.29 582.118 1208.34 576.125H1226.2C1224.39 583.222 1220.8 588.86 1215.44 593.039C1210.08 597.219 1203.38 599.308 1195.33 599.308C1189.02 599.308 1183.43 597.928 1178.54 595.168C1173.65 592.33 1169.82 588.387 1167.06 583.34C1164.3 578.215 1162.92 572.261 1162.92 565.48ZM1299.25 564.06C1299.25 566.426 1299.09 568.555 1298.78 570.447H1250.87C1251.27 575.179 1252.92 578.885 1255.84 581.566C1258.76 584.247 1262.35 585.588 1266.61 585.588C1272.76 585.588 1277.13 582.946 1279.73 577.663H1297.6C1295.7 583.971 1292.08 589.175 1286.71 593.276C1281.35 597.298 1274.77 599.308 1266.96 599.308C1260.65 599.308 1254.97 597.928 1249.93 595.168C1244.96 592.33 1241.06 588.348 1238.22 583.222C1235.46 578.096 1234.08 572.182 1234.08 565.48C1234.08 558.698 1235.46 552.745 1238.22 547.619C1240.98 542.493 1244.84 538.551 1249.81 535.791C1254.78 533.031 1260.49 531.651 1266.96 531.651C1273.19 531.651 1278.75 532.991 1283.64 535.673C1288.61 538.354 1292.43 542.178 1295.11 547.146C1297.87 552.035 1299.25 557.673 1299.25 564.06ZM1282.1 559.329C1282.02 555.071 1280.48 551.68 1277.49 549.157C1274.49 546.555 1270.82 545.253 1266.49 545.253C1262.39 545.253 1258.92 546.515 1256.08 549.038C1253.32 551.483 1251.62 554.913 1250.99 559.329H1282.1Z" fill="white"/>
</g>
<defs>
<filter id="filter0_i" x="1735.28" y="948.943" width="30.7651" height="30.7651" filterUnits="userSpaceOnUse" color-interpolation-filters="sRGB">
<feFlood flood-opacity="0" result="BackgroundImageFix"/>
<feBlend mode="normal" in="SourceGraphic" in2="BackgroundImageFix" result="shape"/>
<feColorMatrix in="SourceAlpha" type="matrix" values="0 0 0 0 0 0 0 0 0 0 0 0 0 0 0 0 0 0 127 0" result="hardAlpha"/>
<feOffset dx="-1.26929" dy="1.26929"/>
<feComposite in2="hardAlpha" operator="arithmetic" k2="-1" k3="1"/>
<feColorMatrix type="matrix" values="0 0 0 0 0 0 0 0 0 0 0 0 0 0 0 0 0 0 0.25 0"/>
<feBlend mode="normal" in2="shape" result="effect1_innerShadow"/>
</filter>
<filter id="filter1_i" x="1691.81" y="910.153" width="45.4788" height="45.4788" filterUnits="userSpaceOnUse" color-interpolation-filters="sRGB">
<feFlood flood-opacity="0" result="BackgroundImageFix"/>
<feBlend mode="normal" in="SourceGraphic" in2="BackgroundImageFix" result="shape"/>
<feColorMatrix in="SourceAlpha" type="matrix" values="0 0 0 0 0 0 0 0 0 0 0 0 0 0 0 0 0 0 127 0" result="hardAlpha"/>
<feOffset dx="-1.26929" dy="1.26929"/>
<feComposite in2="hardAlpha" operator="arithmetic" k2="-1" k3="1"/>
<feColorMatrix type="matrix" values="0 0 0 0 0 0 0 0 0 0 0 0 0 0 0 0 0 0 0.25 0"/>
<feBlend mode="normal" in2="shape" result="effect1_innerShadow"/>
</filter>
<filter id="filter2_i" x="1652.02" y="990.075" width="18.7266" height="18.7266" filterUnits="userSpaceOnUse" color-interpolation-filters="sRGB">
<feFlood flood-opacity="0" result="BackgroundImageFix"/>
<feBlend mode="normal" in="SourceGraphic" in2="BackgroundImageFix" result="shape"/>
<feColorMatrix in="SourceAlpha" type="matrix" values="0 0 0 0 0 0 0 0 0 0 0 0 0 0 0 0 0 0 127 0" result="hardAlpha"/>
<feOffset dx="-1.26929" dy="1.26929"/>
<feComposite in2="hardAlpha" operator="arithmetic" k2="-1" k3="1"/>
<feColorMatrix type="matrix" values="0 0 0 0 0 0 0 0 0 0 0 0 0 0 0 0 0 0 0.25 0"/>
<feBlend mode="normal" in2="shape" result="effect1_innerShadow"/>
</filter>
<filter id="filter3_i" x="1707.53" y="1036.22" width="29.4274" height="29.4274" filterUnits="userSpaceOnUse" color-interpolation-filters="sRGB">
<feFlood flood-opacity="0" result="BackgroundImageFix"/>
<feBlend mode="normal" in="SourceGraphic" in2="BackgroundImageFix" result="shape"/>
<feColorMatrix in="SourceAlpha" type="matrix" values="0 0 0 0 0 0 0 0 0 0 0 0 0 0 0 0 0 0 127 0" result="hardAlpha"/>
<feOffset dx="-1.26929" dy="1.26929"/>
<feComposite in2="hardAlpha" operator="arithmetic" k2="-1" k3="1"/>
<feColorMatrix type="matrix" values="0 0 0 0 0 0 0 0 0 0 0 0 0 0 0 0 0 0 0.25 0"/>
<feBlend mode="normal" in2="shape" result="effect1_innerShadow"/>
</filter>
<filter id="filter4_i" x="1699.17" y="976.365" width="42.8035" height="42.8035" filterUnits="userSpaceOnUse" color-interpolation-filters="sRGB">
<feFlood flood-opacity="0" result="BackgroundImageFix"/>
<feBlend mode="normal" in="SourceGraphic" in2="BackgroundImageFix" result="shape"/>
<feColorMatrix in="SourceAlpha" type="matrix" values="0 0 0 0 0 0 0 0 0 0 0 0 0 0 0 0 0 0 127 0" result="hardAlpha"/>
<feOffset dx="-1.26929" dy="1.26929"/>
<feComposite in2="hardAlpha" operator="arithmetic" k2="-1" k3="1"/>
<feColorMatrix type="matrix" values="0 0 0 0 0 0 0 0 0 0 0 0 0 0 0 0 0 0 0.25 0"/>
<feBlend mode="normal" in2="shape" result="effect1_innerShadow"/>
</filter>
<filter id="filter5_i" x="1687.46" y="982.05" width="16.0513" height="16.0513" filterUnits="userSpaceOnUse" color-interpolation-filters="sRGB">
<feFlood flood-opacity="0" result="BackgroundImageFix"/>
<feBlend mode="normal" in="SourceGraphic" in2="BackgroundImageFix" result="shape"/>
<feColorMatrix in="SourceAlpha" type="matrix" values="0 0 0 0 0 0 0 0 0 0 0 0 0 0 0 0 0 0 127 0" result="hardAlpha"/>
<feOffset dx="-1.26929" dy="1.26929"/>
<feComposite in2="hardAlpha" operator="arithmetic" k2="-1" k3="1"/>
<feColorMatrix type="matrix" values="0 0 0 0 0 0 0 0 0 0 0 0 0 0 0 0 0 0 0.25 0"/>
<feBlend mode="normal" in2="shape" result="effect1_innerShadow"/>
</filter>
<filter id="filter6_i" x="1763.04" y="979.375" width="16.0513" height="16.0513" filterUnits="userSpaceOnUse" color-interpolation-filters="sRGB">
<feFlood flood-opacity="0" result="BackgroundImageFix"/>
<feBlend mode="normal" in="SourceGraphic" in2="BackgroundImageFix" result="shape"/>
<feColorMatrix in="SourceAlpha" type="matrix" values="0 0 0 0 0 0 0 0 0 0 0 0 0 0 0 0 0 0 127 0" result="hardAlpha"/>
<feOffset dx="-1.26929" dy="1.26929"/>
<feComposite in2="hardAlpha" operator="arithmetic" k2="-1" k3="1"/>
<feColorMatrix type="matrix" values="0 0 0 0 0 0 0 0 0 0 0 0 0 0 0 0 0 0 0.25 0"/>
<feBlend mode="normal" in2="shape" result="effect1_innerShadow"/>
</filter>
<filter id="filter7_i" x="1634.74" y="1022.72" width="12.2874" height="12.2874" filterUnits="userSpaceOnUse" color-interpolation-filters="sRGB">
<feFlood flood-opacity="0" result="BackgroundImageFix"/>
<feBlend mode="normal" in="SourceGraphic" in2="BackgroundImageFix" result="shape"/>
<feColorMatrix in="SourceAlpha" type="matrix" values="0 0 0 0 0 0 0 0 0 0 0 0 0 0 0 0 0 0 127 0" result="hardAlpha"/>
<feOffset dx="-1.26929" dy="1.26929"/>
<feComposite in2="hardAlpha" operator="arithmetic" k2="-1" k3="1"/>
<feColorMatrix type="matrix" values="0 0 0 0 0 0 0 0 0 0 0 0 0 0 0 0 0 0 0.25 0"/>
<feBlend mode="normal" in2="shape" result="effect1_innerShadow"/>
</filter>
<filter id="filter8_i" x="1641.57" y="936.199" width="27.4956" height="27.4956" filterUnits="userSpaceOnUse" color-interpolation-filters="sRGB">
<feFlood flood-opacity="0" result="BackgroundImageFix"/>
<feBlend mode="normal" in="SourceGraphic" in2="BackgroundImageFix" result="shape"/>
<feColorMatrix in="SourceAlpha" type="matrix" values="0 0 0 0 0 0 0 0 0 0 0 0 0 0 0 0 0 0 127 0" result="hardAlpha"/>
<feOffset dx="-1.26929" dy="1.26929"/>
<feComposite in2="hardAlpha" operator="arithmetic" k2="-1" k3="1"/>
<feColorMatrix type="matrix" values="0 0 0 0 0 0 0 0 0 0 0 0 0 0 0 0 0 0 0.25 0"/>
<feBlend mode="normal" in2="shape" result="effect1_innerShadow"/>
</filter>
<linearGradient id="paint0_linear" x1="1896.59" y1="315.866" x2="1500.92" y2="720.743" gradientUnits="userSpaceOnUse">
<stop stop-color="#3765A9" stop-opacity="0.59"/>
<stop offset="1" stop-color="#272727" stop-opacity="0"/>
</linearGradient>
<linearGradient id="paint1_linear" x1="476.609" y1="-161.702" x2="426.697" y2="402.203" gradientUnits="userSpaceOnUse">
<stop stop-color="#4D6282" stop-opacity="0.59"/>
<stop offset="1" stop-color="#272727" stop-opacity="0"/>
</linearGradient>
<linearGradient id="paint2_linear" x1="694.522" y1="992.095" x2="149.424" y2="1144.89" gradientUnits="userSpaceOnUse">
<stop stop-color="#8A2323" stop-opacity="0.62"/>
<stop offset="1" stop-color="#272727" stop-opacity="0"/>
</linearGradient>
<linearGradient id="paint3_linear" x1="1766.1" y1="1025.87" x2="1371.38" y2="1136.51" gradientUnits="userSpaceOnUse">
<stop stop-color="#5C5C5C"/>
<stop offset="1" stop-color="#272727" stop-opacity="0"/>
</linearGradient>
<linearGradient id="paint4_linear" x1="413.128" y1="350.149" x2="-432.069" y2="1201.12" gradientUnits="userSpaceOnUse">
<stop offset="0.109375" stop-color="#E9275B" stop-opacity="0.84"/>
<stop offset="0.635417" stop-color="#111111"/>
</linearGradient>
<linearGradient id="paint5_linear" x1="655.686" y1="545.231" x2="-248.326" y2="994.636" gradientUnits="userSpaceOnUse">
<stop stop-color="white"/>
<stop offset="1" stop-color="#111111"/>
</linearGradient>
<linearGradient id="paint6_linear" x1="1880.37" y1="110.201" x2="1558.81" y2="357.642" gradientUnits="userSpaceOnUse">
<stop offset="0.0677083" stop-color="#111111"/>
<stop offset="1" stop-color="#076AFF" stop-opacity="0.72"/>
</linearGradient>
<clipPath id="clip0">
<rect width="2794" height="2882" fill="white"/>
</clipPath>
</defs>
</svg>
