<svg width="477" height="294" viewBox="0 0 477 294" fill="none" xmlns="http://www.w3.org/2000/svg">
<path d="M175.88 125.678V147.324H169.862V135.38L165.778 147.324H160.743L156.629 135.288V147.324H150.611V125.678H157.887L163.322 139.74L168.634 125.678H175.88ZM178.323 138.696C178.323 136.915 178.64 135.36 179.275 134.029C179.93 132.699 180.81 131.675 181.915 130.959C183.041 130.242 184.289 129.884 185.661 129.884C186.848 129.884 187.871 130.12 188.731 130.59C189.591 131.061 190.256 131.696 190.727 132.494V130.099H196.745V147.324H190.727V144.929C190.256 145.727 189.581 146.362 188.7 146.832C187.841 147.303 186.828 147.539 185.661 147.539C184.289 147.539 183.041 147.18 181.915 146.464C180.81 145.748 179.93 144.724 179.275 143.394C178.64 142.043 178.323 140.477 178.323 138.696ZM190.727 138.696C190.727 137.591 190.42 136.721 189.806 136.086C189.212 135.452 188.475 135.134 187.595 135.134C186.695 135.134 185.947 135.452 185.354 136.086C184.76 136.7 184.463 137.57 184.463 138.696C184.463 139.801 184.76 140.682 185.354 141.337C185.947 141.971 186.695 142.288 187.595 142.288C188.475 142.288 189.212 141.971 189.806 141.337C190.42 140.702 190.727 139.822 190.727 138.696ZM218.719 130.099L207.788 155.522H201.249L205.363 146.587L198.301 130.099H204.994L208.617 139.863L212.118 130.099H218.719ZM231.07 147.324L226.311 140.262V147.324H220.293V124.603H226.311V136.854L231.07 130.099H238.285L231.5 138.757L238.408 147.324H231.07ZM256.63 138.512C256.63 138.983 256.599 139.453 256.537 139.924H245.146C245.208 140.866 245.464 141.572 245.914 142.043C246.385 142.493 246.978 142.718 247.695 142.718C248.698 142.718 249.414 142.268 249.844 141.367H256.261C255.995 142.554 255.473 143.619 254.695 144.56C253.938 145.482 252.976 146.208 251.809 146.74C250.642 147.273 249.353 147.539 247.941 147.539C246.242 147.539 244.727 147.18 243.396 146.464C242.086 145.748 241.053 144.724 240.295 143.394C239.558 142.063 239.19 140.497 239.19 138.696C239.19 136.895 239.558 135.339 240.295 134.029C241.032 132.699 242.056 131.675 243.366 130.959C244.696 130.242 246.221 129.884 247.941 129.884C249.639 129.884 251.144 130.232 252.454 130.928C253.764 131.624 254.787 132.627 255.524 133.937C256.261 135.227 256.63 136.751 256.63 138.512ZM250.489 137.007C250.489 136.27 250.243 135.697 249.752 135.288C249.261 134.858 248.647 134.643 247.91 134.643C247.173 134.643 246.569 134.848 246.098 135.257C245.628 135.646 245.32 136.23 245.177 137.007H250.489ZM265.11 133.139C265.786 132.156 266.604 131.378 267.567 130.805C268.529 130.232 269.562 129.946 270.668 129.946V136.363H268.979C267.669 136.363 266.697 136.618 266.062 137.13C265.428 137.642 265.11 138.532 265.11 139.801V147.324H259.092V130.099H265.11V133.139Z" fill="white"/>
<path d="M220.283 165.216C219.193 165.216 218.216 165.024 217.351 164.639C216.486 164.239 215.797 163.702 215.284 163.029C214.787 162.356 214.515 161.611 214.467 160.794H217.856C217.92 161.307 218.168 161.731 218.601 162.068C219.049 162.404 219.602 162.573 220.259 162.573C220.9 162.573 221.397 162.444 221.749 162.188C222.118 161.932 222.302 161.603 222.302 161.203C222.302 160.77 222.078 160.45 221.629 160.241C221.196 160.017 220.499 159.777 219.538 159.52C218.545 159.28 217.727 159.032 217.087 158.775C216.462 158.519 215.917 158.126 215.452 157.598C215.004 157.069 214.779 156.356 214.779 155.459C214.779 154.722 214.988 154.049 215.404 153.44C215.837 152.831 216.446 152.35 217.231 151.998C218.032 151.645 218.969 151.469 220.043 151.469C221.629 151.469 222.895 151.87 223.84 152.671C224.785 153.456 225.306 154.521 225.402 155.867H222.182C222.134 155.338 221.909 154.922 221.509 154.617C221.124 154.297 220.603 154.137 219.947 154.137C219.338 154.137 218.865 154.249 218.529 154.473C218.208 154.698 218.048 155.01 218.048 155.411C218.048 155.859 218.272 156.204 218.721 156.444C219.169 156.668 219.866 156.901 220.812 157.141C221.773 157.381 222.566 157.63 223.191 157.886C223.816 158.142 224.353 158.543 224.801 159.088C225.266 159.616 225.506 160.321 225.522 161.203C225.522 161.972 225.306 162.661 224.873 163.27C224.457 163.878 223.848 164.359 223.047 164.712C222.262 165.048 221.34 165.216 220.283 165.216ZM231.649 153.608C232.082 152.999 232.675 152.494 233.428 152.094C234.197 151.677 235.07 151.469 236.047 151.469C237.185 151.469 238.21 151.749 239.124 152.31C240.053 152.871 240.782 153.672 241.311 154.714C241.855 155.739 242.128 156.933 242.128 158.295C242.128 159.656 241.855 160.866 241.311 161.924C240.782 162.965 240.053 163.774 239.124 164.351C238.21 164.928 237.185 165.216 236.047 165.216C235.07 165.216 234.205 165.016 233.452 164.615C232.715 164.215 232.114 163.71 231.649 163.101V171.345H228.284V151.685H231.649V153.608ZM238.691 158.295C238.691 157.493 238.523 156.804 238.186 156.228C237.866 155.635 237.433 155.186 236.888 154.882C236.36 154.577 235.783 154.425 235.158 154.425C234.549 154.425 233.972 154.585 233.428 154.906C232.899 155.21 232.466 155.659 232.13 156.252C231.809 156.845 231.649 157.542 231.649 158.343C231.649 159.144 231.809 159.841 232.13 160.434C232.466 161.026 232.899 161.483 233.428 161.804C233.972 162.108 234.549 162.26 235.158 162.26C235.783 162.26 236.36 162.1 236.888 161.779C237.433 161.459 237.866 161.002 238.186 160.41C238.523 159.817 238.691 159.112 238.691 158.295ZM243.708 158.295C243.708 156.949 243.972 155.755 244.501 154.714C245.046 153.672 245.775 152.871 246.688 152.31C247.617 151.749 248.651 151.469 249.788 151.469C250.782 151.469 251.647 151.669 252.384 152.07C253.137 152.47 253.738 152.975 254.186 153.584V151.685H257.575V165H254.186V163.053C253.754 163.678 253.153 164.199 252.384 164.615C251.631 165.016 250.758 165.216 249.764 165.216C248.643 165.216 247.617 164.928 246.688 164.351C245.775 163.774 245.046 162.965 244.501 161.924C243.972 160.866 243.708 159.656 243.708 158.295ZM254.186 158.343C254.186 157.526 254.026 156.829 253.706 156.252C253.385 155.659 252.953 155.21 252.408 154.906C251.863 154.585 251.278 154.425 250.653 154.425C250.029 154.425 249.452 154.577 248.923 154.882C248.394 155.186 247.962 155.635 247.625 156.228C247.305 156.804 247.144 157.493 247.144 158.295C247.144 159.096 247.305 159.801 247.625 160.41C247.962 161.002 248.394 161.459 248.923 161.779C249.468 162.1 250.045 162.26 250.653 162.26C251.278 162.26 251.863 162.108 252.408 161.804C252.953 161.483 253.385 161.034 253.706 160.458C254.026 159.865 254.186 159.16 254.186 158.343ZM259.996 158.343C259.996 156.965 260.277 155.763 260.837 154.738C261.398 153.696 262.175 152.895 263.169 152.334C264.162 151.757 265.3 151.469 266.581 151.469C268.232 151.469 269.594 151.886 270.667 152.719C271.757 153.536 272.486 154.69 272.854 156.18H269.225C269.033 155.603 268.704 155.154 268.24 154.834C267.791 154.497 267.23 154.329 266.557 154.329C265.596 154.329 264.835 154.682 264.274 155.387C263.713 156.075 263.433 157.061 263.433 158.343C263.433 159.608 263.713 160.594 264.274 161.299C264.835 161.988 265.596 162.332 266.557 162.332C267.919 162.332 268.809 161.723 269.225 160.506H272.854C272.486 161.948 271.757 163.093 270.667 163.943C269.578 164.792 268.216 165.216 266.581 165.216C265.3 165.216 264.162 164.936 263.169 164.375C262.175 163.798 261.398 162.997 260.837 161.972C260.277 160.93 259.996 159.721 259.996 158.343ZM287.697 158.054C287.697 158.535 287.664 158.968 287.6 159.352H277.867C277.947 160.313 278.283 161.066 278.876 161.611C279.469 162.156 280.198 162.428 281.063 162.428C282.313 162.428 283.202 161.892 283.731 160.818H287.36C286.976 162.1 286.238 163.157 285.149 163.991C284.059 164.808 282.722 165.216 281.135 165.216C279.854 165.216 278.7 164.936 277.674 164.375C276.665 163.798 275.872 162.989 275.295 161.948C274.734 160.906 274.454 159.705 274.454 158.343C274.454 156.965 274.734 155.755 275.295 154.714C275.856 153.672 276.641 152.871 277.65 152.31C278.66 151.749 279.821 151.469 281.135 151.469C282.401 151.469 283.531 151.741 284.524 152.286C285.534 152.831 286.311 153.608 286.855 154.617C287.416 155.611 287.697 156.756 287.697 158.054ZM284.212 157.093C284.196 156.228 283.883 155.539 283.274 155.026C282.665 154.497 281.92 154.233 281.039 154.233C280.206 154.233 279.501 154.489 278.924 155.002C278.363 155.499 278.019 156.196 277.891 157.093H284.212Z" fill="white"/>
<path d="M217.351 164.639L217.226 164.91L217.23 164.912L217.351 164.639ZM215.284 163.029L215.044 163.206L215.047 163.21L215.284 163.029ZM214.467 160.794V160.496H214.151L214.17 160.812L214.467 160.794ZM217.856 160.794L218.151 160.757L218.118 160.496H217.856V160.794ZM218.601 162.068L218.418 162.303L218.422 162.306L218.601 162.068ZM221.749 162.188L221.579 161.944L221.574 161.947L221.749 162.188ZM221.629 160.241L221.492 160.506L221.504 160.511L221.629 160.241ZM219.538 159.52L219.615 159.233L219.608 159.231L219.538 159.52ZM217.087 158.775L216.973 159.051L216.976 159.052L217.087 158.775ZM215.452 157.598L215.225 157.79L215.229 157.794L215.452 157.598ZM215.404 153.44L215.161 153.267L215.158 153.272L215.404 153.44ZM217.231 151.998L217.111 151.725L217.109 151.726L217.231 151.998ZM223.84 152.671L223.647 152.898L223.65 152.9L223.84 152.671ZM225.402 155.867V156.165H225.722L225.699 155.846L225.402 155.867ZM222.182 155.867L221.885 155.894L221.91 156.165H222.182V155.867ZM221.509 154.617L221.318 154.846L221.329 154.854L221.509 154.617ZM218.529 154.473L218.363 154.225L218.358 154.229L218.529 154.473ZM218.721 156.444L218.58 156.707L218.588 156.71L218.721 156.444ZM220.812 157.141L220.738 157.43L220.74 157.43L220.812 157.141ZM224.801 159.088L224.571 159.277L224.578 159.284L224.801 159.088ZM225.522 161.203H225.82L225.82 161.197L225.522 161.203ZM224.873 163.27L224.631 163.097L224.628 163.101L224.873 163.27ZM223.047 164.712L223.164 164.985L223.167 164.984L223.047 164.712ZM220.283 164.919C219.229 164.919 218.294 164.733 217.472 164.367L217.23 164.912C218.139 165.315 219.158 165.514 220.283 165.514V164.919ZM217.476 164.369C216.649 163.986 216.001 163.478 215.521 162.849L215.047 163.21C215.593 163.926 216.322 164.491 217.226 164.91L217.476 164.369ZM215.524 162.852C215.06 162.225 214.809 161.535 214.764 160.777L214.17 160.812C214.221 161.688 214.514 162.488 215.044 163.206L215.524 162.852ZM214.467 161.092H217.856V160.496H214.467V161.092ZM217.56 160.831C217.635 161.427 217.927 161.921 218.418 162.303L218.783 161.833C218.409 161.542 218.205 161.186 218.151 160.757L217.56 160.831ZM218.422 162.306C218.931 162.688 219.549 162.87 220.259 162.87V162.275C219.655 162.275 219.168 162.121 218.779 161.83L218.422 162.306ZM220.259 162.87C220.935 162.87 221.502 162.736 221.924 162.429L221.574 161.947C221.291 162.153 220.865 162.275 220.259 162.275V162.87ZM221.919 162.432C222.356 162.128 222.6 161.714 222.6 161.203H222.004C222.004 161.493 221.879 161.735 221.579 161.944L221.919 162.432ZM222.6 161.203C222.6 160.932 222.528 160.683 222.378 160.467C222.228 160.254 222.014 160.092 221.754 159.971L221.504 160.511C221.693 160.599 221.815 160.701 221.89 160.809C221.963 160.914 222.004 161.041 222.004 161.203H222.6ZM221.766 159.977C221.303 159.737 220.58 159.49 219.615 159.233L219.461 159.808C220.419 160.063 221.089 160.297 221.492 160.506L221.766 159.977ZM219.608 159.231C218.622 158.992 217.82 158.748 217.197 158.499L216.976 159.052C217.635 159.315 218.467 159.567 219.468 159.81L219.608 159.231ZM217.2 158.5C216.619 158.262 216.112 157.897 215.676 157.401L215.229 157.794C215.722 158.356 216.304 158.776 216.973 159.051L217.2 158.5ZM215.679 157.405C215.288 156.944 215.077 156.306 215.077 155.459H214.482C214.482 156.405 214.719 157.194 215.225 157.79L215.679 157.405ZM215.077 155.459C215.077 154.782 215.267 154.167 215.65 153.608L215.158 153.272C214.708 153.93 214.482 154.661 214.482 155.459H215.077ZM215.647 153.612C216.044 153.053 216.608 152.604 217.353 152.269L217.109 151.726C216.283 152.097 215.629 152.609 215.161 153.267L215.647 153.612ZM217.351 152.27C218.106 151.938 219.001 151.767 220.043 151.767V151.171C218.937 151.171 217.957 151.353 217.111 151.725L217.351 152.27ZM220.043 151.767C221.579 151.767 222.77 152.154 223.647 152.898L224.032 152.444C223.02 151.585 221.679 151.171 220.043 151.171V151.767ZM223.65 152.9C224.526 153.628 225.014 154.615 225.105 155.888L225.699 155.846C225.598 154.428 225.044 153.284 224.03 152.442L223.65 152.9ZM225.402 155.569H222.182V156.165H225.402V155.569ZM222.478 155.84C222.423 155.233 222.16 154.738 221.689 154.38L221.329 154.854C221.659 155.105 221.844 155.443 221.885 155.894L222.478 155.84ZM221.699 154.389C221.247 154.011 220.651 153.839 219.947 153.839V154.434C220.556 154.434 221.002 154.583 221.318 154.846L221.699 154.389ZM219.947 153.839C219.307 153.839 218.768 153.956 218.363 154.225L218.694 154.721C218.962 154.542 219.369 154.434 219.947 154.434V153.839ZM218.358 154.229C217.955 154.511 217.75 154.916 217.75 155.411H218.346C218.346 155.104 218.461 154.884 218.699 154.717L218.358 154.229ZM217.75 155.411C217.75 155.687 217.82 155.943 217.967 156.168C218.112 156.391 218.322 156.568 218.58 156.706L218.861 156.182C218.671 156.079 218.545 155.964 218.466 155.843C218.388 155.723 218.346 155.583 218.346 155.411H217.75ZM218.588 156.71C219.066 156.949 219.788 157.188 220.738 157.43L220.885 156.852C219.945 156.613 219.273 156.387 218.854 156.178L218.588 156.71ZM220.74 157.43C221.693 157.668 222.471 157.912 223.078 158.161L223.304 157.611C222.661 157.347 221.853 157.094 220.884 156.852L220.74 157.43ZM223.078 158.161C223.655 158.398 224.153 158.768 224.572 159.277L225.031 158.898C224.553 158.317 223.976 157.886 223.304 157.611L223.078 158.161ZM224.578 159.284C224.985 159.748 225.21 160.379 225.225 161.208L225.82 161.197C225.803 160.264 225.547 159.485 225.025 158.891L224.578 159.284ZM225.225 161.203C225.225 161.912 225.026 162.54 224.631 163.097L225.116 163.442C225.586 162.781 225.82 162.032 225.82 161.203H225.225ZM224.628 163.101C224.248 163.656 223.687 164.105 222.927 164.439L223.167 164.984C224.009 164.613 224.666 164.1 225.119 163.438L224.628 163.101ZM222.93 164.438C222.189 164.755 221.309 164.919 220.283 164.919V165.514C221.371 165.514 222.334 165.341 223.164 164.985L222.93 164.438ZM231.649 153.608H231.351V154.541L231.892 153.78L231.649 153.608ZM233.428 152.094L233.567 152.357L233.569 152.356L233.428 152.094ZM239.124 152.31L238.968 152.564L238.97 152.565L239.124 152.31ZM241.311 154.714L241.045 154.848L241.048 154.853L241.311 154.714ZM241.311 161.924L241.046 161.787L241.045 161.789L241.311 161.924ZM239.124 164.351L238.967 164.098L238.965 164.099L239.124 164.351ZM233.452 164.615L233.309 164.877L233.312 164.878L233.452 164.615ZM231.649 163.101L231.886 162.921L231.351 162.22V163.101H231.649ZM231.649 171.345V171.643H231.947V171.345H231.649ZM228.284 171.345H227.987V171.643H228.284V171.345ZM228.284 151.685V151.388H227.987V151.685H228.284ZM231.649 151.685H231.947V151.388H231.649V151.685ZM238.186 156.228L237.924 156.369L237.929 156.378L238.186 156.228ZM236.888 154.882L236.74 155.14L236.743 155.142L236.888 154.882ZM233.428 154.906L233.576 155.164L233.579 155.162L233.428 154.906ZM232.13 156.252L231.871 156.105L231.868 156.11L232.13 156.252ZM232.13 160.434L231.868 160.575L231.871 160.581L232.13 160.434ZM233.428 161.804L233.273 162.058L233.282 162.063L233.428 161.804ZM236.888 161.779L236.737 161.523L236.734 161.525L236.888 161.779ZM238.186 160.41L237.927 160.263L237.924 160.268L238.186 160.41ZM231.892 153.78C232.294 153.214 232.849 152.739 233.567 152.357L233.288 151.831C232.5 152.25 231.869 152.784 231.406 153.436L231.892 153.78ZM233.569 152.356C234.29 151.965 235.113 151.767 236.047 151.767V151.171C235.026 151.171 234.103 151.389 233.286 151.832L233.569 152.356ZM236.047 151.767C237.133 151.767 238.104 152.034 238.968 152.564L239.279 152.056C238.316 151.465 237.236 151.171 236.047 151.171V151.767ZM238.97 152.565C239.848 153.095 240.54 153.853 241.045 154.848L241.576 154.579C241.024 153.492 240.258 152.647 239.277 152.055L238.97 152.565ZM241.048 154.853C241.566 155.829 241.83 156.973 241.83 158.295H242.426C242.426 156.892 242.145 155.649 241.574 154.574L241.048 154.853ZM241.83 158.295C241.83 159.616 241.566 160.778 241.046 161.787L241.575 162.06C242.145 160.955 242.426 159.697 242.426 158.295H241.83ZM241.045 161.789C240.539 162.785 239.846 163.552 238.967 164.098L239.281 164.604C240.259 163.997 241.024 163.145 241.576 162.058L241.045 161.789ZM238.965 164.099C238.101 164.644 237.132 164.919 236.047 164.919V165.514C237.238 165.514 238.319 165.211 239.283 164.603L238.965 164.099ZM236.047 164.919C235.111 164.919 234.296 164.727 233.591 164.353L233.312 164.878C234.114 165.305 235.028 165.514 236.047 165.514V164.919ZM233.594 164.354C232.89 163.971 232.323 163.493 231.886 162.921L231.412 163.282C231.905 163.927 232.539 164.458 233.309 164.877L233.594 164.354ZM231.351 163.101V171.345H231.947V163.101H231.351ZM231.649 171.047H228.284V171.643H231.649V171.047ZM228.582 171.345V151.685H227.987V171.345H228.582ZM228.284 151.983H231.649V151.388H228.284V151.983ZM231.351 151.685V153.608H231.947V151.685H231.351ZM238.989 158.295C238.989 157.451 238.811 156.708 238.443 156.078L237.929 156.378C238.234 156.901 238.393 157.536 238.393 158.295H238.989ZM238.448 156.086C238.103 155.448 237.632 154.956 237.034 154.622L236.743 155.142C237.235 155.416 237.629 155.822 237.924 156.369L238.448 156.086ZM237.037 154.624C236.462 154.293 235.834 154.127 235.158 154.127V154.723C235.732 154.723 236.257 154.862 236.74 155.14L237.037 154.624ZM235.158 154.127C234.494 154.127 233.865 154.303 233.277 154.649L233.579 155.162C234.079 154.868 234.604 154.723 235.158 154.723V154.127ZM233.279 154.648C232.699 154.982 232.23 155.471 231.871 156.105L232.389 156.399C232.702 155.847 233.099 155.439 233.576 155.164L233.279 154.648ZM231.868 156.11C231.52 156.754 231.351 157.501 231.351 158.343H231.947C231.947 157.582 232.099 156.935 232.392 156.393L231.868 156.11ZM231.351 158.343C231.351 159.184 231.52 159.931 231.868 160.575L232.392 160.292C232.099 159.75 231.947 159.104 231.947 158.343H231.351ZM231.871 160.581C232.23 161.213 232.697 161.709 233.273 162.058L233.582 161.549C233.101 161.257 232.703 160.84 232.389 160.287L231.871 160.581ZM233.282 162.063C233.87 162.392 234.497 162.558 235.158 162.558V161.962C234.601 161.962 234.074 161.824 233.573 161.544L233.282 162.063ZM235.158 162.558C235.837 162.558 236.467 162.383 237.043 162.034L236.734 161.525C236.252 161.817 235.729 161.962 235.158 161.962V162.558ZM237.039 162.036C237.634 161.686 238.104 161.188 238.448 160.551L237.924 160.268C237.628 160.816 237.232 161.232 236.737 161.523L237.039 162.036ZM238.445 160.557C238.812 159.911 238.989 159.153 238.989 158.295H238.393C238.393 159.07 238.234 159.723 237.927 160.263L238.445 160.557ZM244.501 154.714L244.237 154.576L244.235 154.579L244.501 154.714ZM246.688 152.31L246.534 152.055L246.532 152.056L246.688 152.31ZM252.384 152.07L252.242 152.331L252.244 152.333L252.384 152.07ZM254.186 153.584L253.947 153.761L254.484 154.49V153.584H254.186ZM254.186 151.685V151.388H253.889V151.685H254.186ZM257.575 151.685H257.873V151.388H257.575V151.685ZM257.575 165V165.298H257.873V165H257.575ZM254.186 165H253.889V165.298H254.186V165ZM254.186 163.053H254.484V162.1L253.942 162.884L254.186 163.053ZM252.384 164.615L252.524 164.878L252.526 164.877L252.384 164.615ZM246.688 164.351L246.529 164.603L246.531 164.604L246.688 164.351ZM244.501 161.924L244.234 162.057L244.237 162.062L244.501 161.924ZM253.706 156.252L253.444 156.393L253.445 156.396L253.706 156.252ZM252.408 154.906L252.257 155.163L252.263 155.166L252.408 154.906ZM248.923 154.882L248.774 154.624L248.774 154.624L248.923 154.882ZM247.625 156.228L247.366 156.081L247.365 156.083L247.625 156.228ZM247.625 160.41L247.362 160.548L247.366 160.557L247.625 160.41ZM248.923 161.779L248.769 162.034L248.772 162.036L248.923 161.779ZM252.408 161.804L252.553 162.063L252.559 162.06L252.408 161.804ZM253.706 160.458L253.966 160.602L253.968 160.599L253.706 160.458ZM244.005 158.295C244.005 156.988 244.262 155.842 244.766 154.848L244.235 154.579C243.682 155.668 243.41 156.909 243.41 158.295H244.005ZM244.765 154.852C245.287 153.853 245.981 153.094 246.844 152.564L246.532 152.056C245.569 152.648 244.804 153.491 244.237 154.576L244.765 154.852ZM246.842 152.565C247.722 152.034 248.702 151.767 249.788 151.767V151.171C248.599 151.171 247.512 151.465 246.534 152.055L246.842 152.565ZM249.788 151.767C250.741 151.767 251.556 151.959 252.242 152.331L252.526 151.808C251.738 151.38 250.822 151.171 249.788 151.171V151.767ZM252.244 152.333C252.963 152.715 253.528 153.192 253.947 153.761L254.426 153.407C253.948 152.758 253.311 152.226 252.524 151.807L252.244 152.333ZM254.484 153.584V151.685H253.889V153.584H254.484ZM254.186 151.983H257.575V151.388H254.186V151.983ZM257.277 151.685V165H257.873V151.685H257.277ZM257.575 164.702H254.186V165.298H257.575V164.702ZM254.484 165V163.053H253.889V165H254.484ZM253.942 162.884C253.539 163.465 252.976 163.956 252.242 164.354L252.526 164.877C253.33 164.442 253.968 163.891 254.431 163.223L253.942 162.884ZM252.244 164.353C251.541 164.727 250.717 164.919 249.764 164.919V165.514C250.798 165.514 251.721 165.305 252.524 164.878L252.244 164.353ZM249.764 164.919C248.697 164.919 247.726 164.645 246.845 164.098L246.531 164.604C247.509 165.211 248.589 165.514 249.764 165.514V164.919ZM246.847 164.099C245.982 163.553 245.287 162.785 244.765 161.786L244.237 162.062C244.804 163.145 245.567 163.996 246.529 164.603L246.847 164.099ZM244.767 161.791C244.262 160.78 244.005 159.617 244.005 158.295H243.41C243.41 159.696 243.682 160.952 244.234 162.057L244.767 161.791ZM254.484 158.343C254.484 157.487 254.316 156.738 253.966 156.107L253.445 156.396C253.736 156.92 253.889 157.564 253.889 158.343H254.484ZM253.968 156.11C253.623 155.472 253.151 154.98 252.553 154.646L252.263 155.166C252.754 155.44 253.148 155.846 253.444 156.393L253.968 156.11ZM252.559 154.649C251.969 154.302 251.332 154.127 250.653 154.127V154.723C251.225 154.723 251.757 154.869 252.257 155.162L252.559 154.649ZM250.653 154.127C249.978 154.127 249.349 154.293 248.774 154.624L249.072 155.14C249.554 154.862 250.079 154.723 250.653 154.723V154.127ZM248.774 154.624C248.194 154.958 247.726 155.447 247.366 156.081L247.884 156.375C248.197 155.822 248.594 155.415 249.072 155.14L248.774 154.624ZM247.365 156.083C247.015 156.713 246.847 157.454 246.847 158.295H247.442C247.442 157.533 247.594 156.896 247.885 156.372L247.365 156.083ZM246.847 158.295C246.847 159.136 247.015 159.89 247.362 160.548L247.889 160.271C247.594 159.711 247.442 159.055 247.442 158.295H246.847ZM247.366 160.557C247.725 161.189 248.192 161.685 248.769 162.034L249.077 161.525C248.596 161.233 248.198 160.816 247.884 160.263L247.366 160.557ZM248.772 162.036C249.361 162.382 249.989 162.558 250.653 162.558V161.962C250.1 161.962 249.575 161.817 249.074 161.523L248.772 162.036ZM250.653 162.558C251.329 162.558 251.964 162.393 252.553 162.063L252.263 161.544C251.762 161.823 251.227 161.962 250.653 161.962V162.558ZM252.559 162.06C253.151 161.712 253.621 161.223 253.966 160.602L253.445 160.313C253.15 160.846 252.754 161.255 252.257 161.547L252.559 162.06ZM253.968 160.599C254.316 159.955 254.484 159.199 254.484 158.343H253.889C253.889 159.121 253.736 159.775 253.444 160.316L253.968 160.599ZM260.837 154.738L261.099 154.88L261.099 154.879L260.837 154.738ZM263.169 152.334L263.315 152.594L263.318 152.592L263.169 152.334ZM270.667 152.719L270.485 152.954L270.488 152.957L270.667 152.719ZM272.854 156.18V156.477H273.235L273.143 156.108L272.854 156.18ZM269.225 156.18L268.943 156.274L269.01 156.477H269.225V156.18ZM268.24 154.834L268.061 155.072L268.071 155.079L268.24 154.834ZM264.274 155.387L264.505 155.574L264.507 155.572L264.274 155.387ZM264.274 161.299L264.041 161.484L264.043 161.487L264.274 161.299ZM269.225 160.506V160.208H269.012L268.943 160.409L269.225 160.506ZM272.854 160.506L273.143 160.579L273.238 160.208H272.854V160.506ZM270.667 163.943L270.85 164.177L270.85 164.177L270.667 163.943ZM263.169 164.375L263.019 164.633L263.022 164.634L263.169 164.375ZM260.837 161.972L260.575 162.113L260.576 162.115L260.837 161.972ZM260.294 158.343C260.294 157.006 260.566 155.855 261.099 154.88L260.576 154.595C259.987 155.671 259.698 156.924 259.698 158.343H260.294ZM261.099 154.879C261.635 153.885 262.372 153.126 263.315 152.594L263.022 152.075C261.978 152.664 261.162 153.507 260.575 154.596L261.099 154.879ZM263.318 152.592C264.261 152.044 265.346 151.767 266.581 151.767V151.171C265.253 151.171 264.063 151.471 263.019 152.077L263.318 152.592ZM266.581 151.767C268.18 151.767 269.474 152.169 270.485 152.954L270.85 152.484C269.713 151.602 268.283 151.171 266.581 151.171V151.767ZM270.488 152.957C271.516 153.728 272.211 154.819 272.565 156.251L273.143 156.108C272.76 154.56 271.997 153.344 270.846 152.481L270.488 152.957ZM272.854 155.882H269.225V156.477H272.854V155.882ZM269.508 156.085C269.297 155.452 268.931 154.949 268.409 154.589L268.071 155.079C268.478 155.36 268.769 155.753 268.943 156.274L269.508 156.085ZM268.418 154.596C267.909 154.213 267.281 154.031 266.557 154.031V154.627C267.179 154.627 267.674 154.781 268.061 155.072L268.418 154.596ZM266.557 154.031C265.512 154.031 264.663 154.42 264.041 155.201L264.507 155.572C265.007 154.943 265.68 154.627 266.557 154.627V154.031ZM264.043 155.199C263.424 155.96 263.135 157.022 263.135 158.343H263.731C263.731 157.1 264.003 156.191 264.505 155.574L264.043 155.199ZM263.135 158.343C263.135 159.649 263.424 160.709 264.041 161.484L264.507 161.113C264.002 160.479 263.731 159.568 263.731 158.343H263.135ZM264.043 161.487C264.666 162.251 265.515 162.63 266.557 162.63V162.035C265.677 162.035 265.004 161.724 264.505 161.111L264.043 161.487ZM266.557 162.63C267.283 162.63 267.908 162.468 268.414 162.121C268.921 161.774 269.282 161.259 269.507 160.602L268.943 160.409C268.752 160.97 268.46 161.368 268.078 161.63C267.694 161.892 267.194 162.035 266.557 162.035V162.63ZM269.225 160.803H272.854V160.208H269.225V160.803ZM272.566 160.432C272.212 161.815 271.517 162.902 270.484 163.708L270.85 164.177C271.996 163.284 272.759 162.08 273.143 160.579L272.566 160.432ZM270.484 163.708C269.456 164.509 268.162 164.919 266.581 164.919V165.514C268.269 165.514 269.699 165.074 270.85 164.177L270.484 163.708ZM266.581 164.919C265.344 164.919 264.258 164.648 263.315 164.116L263.022 164.634C264.066 165.223 265.255 165.514 266.581 165.514V164.919ZM263.318 164.118C262.373 163.569 261.634 162.808 261.099 161.829L260.576 162.115C261.162 163.187 261.978 164.028 263.019 164.633L263.318 164.118ZM261.099 161.831C260.566 160.839 260.294 159.679 260.294 158.343H259.698C259.698 159.762 259.987 161.021 260.575 162.113L261.099 161.831ZM287.6 159.352V159.65H287.853L287.894 159.401L287.6 159.352ZM277.867 159.352V159.054H277.543L277.57 159.377L277.867 159.352ZM278.876 161.611L278.675 161.83L278.675 161.83L278.876 161.611ZM283.731 160.818V160.52H283.546L283.464 160.687L283.731 160.818ZM287.36 160.818L287.645 160.904L287.76 160.52H287.36V160.818ZM285.149 163.991L285.328 164.229L285.33 164.227L285.149 163.991ZM277.674 164.375L277.527 164.634L277.532 164.636L277.674 164.375ZM275.295 161.948L275.033 162.089L275.035 162.092L275.295 161.948ZM275.295 154.714L275.033 154.572L275.033 154.572L275.295 154.714ZM277.65 152.31L277.795 152.57L277.795 152.57L277.65 152.31ZM284.524 152.286L284.381 152.547L284.383 152.548L284.524 152.286ZM286.855 154.617L286.593 154.759L286.596 154.764L286.855 154.617ZM284.212 157.093V157.391H284.515L284.509 157.087L284.212 157.093ZM283.274 155.026L283.079 155.251L283.083 155.254L283.274 155.026ZM278.924 155.002L279.122 155.225L279.122 155.225L278.924 155.002ZM277.891 157.093L277.596 157.051L277.547 157.391H277.891V157.093ZM287.399 158.054C287.399 158.522 287.368 158.938 287.307 159.303L287.894 159.401C287.961 158.997 287.994 158.548 287.994 158.054H287.399ZM287.6 159.054H277.867V159.65H287.6V159.054ZM277.57 159.377C277.655 160.397 278.016 161.225 278.675 161.83L279.078 161.392C278.55 160.908 278.239 160.23 278.163 159.327L277.57 159.377ZM278.675 161.83C279.327 162.43 280.129 162.726 281.063 162.726V162.131C280.267 162.131 279.611 161.882 279.078 161.392L278.675 161.83ZM281.063 162.726C281.731 162.726 282.322 162.582 282.821 162.281C283.322 161.979 283.712 161.53 283.998 160.95L283.464 160.687C283.221 161.18 282.902 161.536 282.514 161.771C282.124 162.006 281.645 162.131 281.063 162.131V162.726ZM283.731 161.116H287.36V160.52H283.731V161.116ZM287.075 160.733C286.709 161.953 286.009 162.958 284.968 163.754L285.33 164.227C286.468 163.357 287.242 162.247 287.645 160.904L287.075 160.733ZM284.97 163.752C283.94 164.525 282.668 164.919 281.135 164.919V165.514C282.775 165.514 284.178 165.091 285.328 164.229L284.97 163.752ZM281.135 164.919C279.899 164.919 278.795 164.648 277.817 164.114L277.532 164.636C278.605 165.223 279.809 165.514 281.135 165.514V164.919ZM277.822 164.117C276.861 163.568 276.107 162.798 275.556 161.803L275.035 162.092C275.637 163.18 276.469 164.029 277.527 164.634L277.822 164.117ZM275.557 161.807C275.023 160.815 274.752 159.663 274.752 158.343H274.156C274.156 159.746 274.445 160.998 275.033 162.089L275.557 161.807ZM274.752 158.343C274.752 157.006 275.023 155.846 275.557 154.855L275.033 154.572C274.445 155.664 274.156 156.924 274.156 158.343H274.752ZM275.557 154.855C276.092 153.862 276.837 153.103 277.795 152.57L277.506 152.05C276.445 152.639 275.62 153.482 275.033 154.572L275.557 154.855ZM277.795 152.57C278.754 152.037 279.865 151.767 281.135 151.767V151.171C279.778 151.171 278.565 151.461 277.506 152.05L277.795 152.57ZM281.135 151.767C282.357 151.767 283.436 152.029 284.381 152.547L284.667 152.025C283.625 151.454 282.445 151.171 281.135 151.171V151.767ZM284.383 152.548C285.341 153.065 286.076 153.801 286.593 154.759L287.117 154.476C286.545 153.415 285.726 152.596 284.665 152.024L284.383 152.548ZM286.596 154.764C287.128 155.707 287.399 156.801 287.399 158.054H287.994C287.994 156.712 287.704 155.515 287.115 154.471L286.596 154.764ZM284.509 157.087C284.492 156.145 284.147 155.372 283.466 154.798L283.083 155.254C283.619 155.706 283.899 156.311 283.914 157.098L284.509 157.087ZM283.47 154.801C282.801 154.221 281.985 153.935 281.039 153.935V154.531C281.856 154.531 282.53 154.774 283.079 155.251L283.47 154.801ZM281.039 153.935C280.139 153.935 279.362 154.214 278.726 154.779L279.122 155.225C279.64 154.764 280.273 154.531 281.039 154.531V153.935ZM278.727 154.779C278.103 155.332 277.732 156.099 277.596 157.051L278.186 157.135C278.306 156.292 278.624 155.665 279.122 155.225L278.727 154.779ZM277.891 157.391H284.212V156.795H277.891V157.391Z" fill="white"/>
<path d="M241.246 120.517C242.645 119.684 241.176 124.887 243.252 124.537C243.359 124.234 245.491 123.731 243.915 124.711C248.059 117.599 267.074 122.591 288.409 135.023C295.095 138.919 300.14 141.502 305.044 145.694C310.781 149.465 316.662 155.016 320.625 158.814C314.561 150.761 303.415 141.366 289.49 133.253C265.281 119.147 244.416 111.578 239.714 119.647C238.803 121.212 240.704 118.308 241.246 120.517Z" fill="url(#paint0_linear)"/>
<circle cx="242.628" cy="121.287" r="3.61515" transform="rotate(-133.029 242.628 121.287)" fill="#AB3152"/>
<circle r="3.41993" transform="matrix(-0.864031 0.503439 0.503439 0.864031 275.658 145.577)" fill="white"/>
<defs>
<linearGradient id="paint0_linear" x1="235.545" y1="123.563" x2="314.545" y2="148.523" gradientUnits="userSpaceOnUse">
<stop stop-color="#CF2B57"/>
<stop offset="1" stop-color="#7E1B36"/>
</linearGradient>
</defs>
</svg>
