<svg width="477" height="294" viewBox="0 0 477 294" fill="none" xmlns="http://www.w3.org/2000/svg">
<path d="M196.653 111.483V129H191.783V119.335L188.479 129H184.404L181.075 119.26V129H176.205V111.483H182.093L186.491 122.863L190.79 111.483H196.653ZM198.63 122.018C198.63 120.577 198.887 119.318 199.401 118.242C199.931 117.165 200.643 116.337 201.537 115.757C202.448 115.177 203.459 114.887 204.569 114.887C205.529 114.887 206.357 115.078 207.053 115.459C207.749 115.84 208.287 116.353 208.668 116.999V115.061H213.538V129H208.668V127.062C208.287 127.708 207.741 128.221 207.028 128.602C206.333 128.983 205.513 129.174 204.569 129.174C203.459 129.174 202.448 128.884 201.537 128.304C200.643 127.725 199.931 126.896 199.401 125.82C198.887 124.726 198.63 123.459 198.63 122.018ZM208.668 122.018C208.668 121.124 208.42 120.42 207.923 119.906C207.442 119.393 206.846 119.136 206.134 119.136C205.405 119.136 204.8 119.393 204.32 119.906C203.84 120.403 203.6 121.107 203.6 122.018C203.6 122.913 203.84 123.625 204.32 124.155C204.8 124.668 205.405 124.925 206.134 124.925C206.846 124.925 207.442 124.668 207.923 124.155C208.42 123.642 208.668 122.929 208.668 122.018ZM231.32 115.061L222.475 135.634H217.183L220.512 128.404L214.797 115.061H220.214L223.146 122.962L225.978 115.061H231.32ZM241.315 129L237.464 123.285V129H232.594V110.614H237.464V120.527L241.315 115.061H247.154L241.663 122.068L247.253 129H241.315ZM261.999 121.869C261.999 122.25 261.974 122.631 261.924 123.012H252.706C252.756 123.774 252.963 124.345 253.327 124.726C253.708 125.091 254.189 125.273 254.768 125.273C255.58 125.273 256.16 124.909 256.508 124.18H261.7C261.485 125.141 261.063 126.002 260.433 126.764C259.82 127.509 259.042 128.097 258.098 128.528C257.154 128.959 256.11 129.174 254.967 129.174C253.592 129.174 252.367 128.884 251.29 128.304C250.23 127.725 249.393 126.896 248.78 125.82C248.184 124.743 247.886 123.476 247.886 122.018C247.886 120.561 248.184 119.302 248.78 118.242C249.377 117.165 250.205 116.337 251.265 115.757C252.342 115.177 253.576 114.887 254.967 114.887C256.342 114.887 257.559 115.169 258.619 115.732C259.68 116.295 260.508 117.107 261.104 118.167C261.7 119.211 261.999 120.445 261.999 121.869ZM257.029 120.652C257.029 120.055 256.831 119.592 256.433 119.26C256.035 118.912 255.539 118.739 254.942 118.739C254.346 118.739 253.857 118.904 253.476 119.235C253.095 119.55 252.847 120.022 252.731 120.652H257.029ZM268.861 117.521C269.408 116.726 270.071 116.097 270.849 115.633C271.628 115.169 272.464 114.937 273.359 114.937V120.13H271.992C270.932 120.13 270.145 120.337 269.632 120.751C269.118 121.165 268.861 121.886 268.861 122.913V129H263.992V115.061H268.861V117.521Z" fill="white"/>
<path d="M232.586 143.953C231.704 143.953 230.913 143.798 230.213 143.486C229.513 143.162 228.955 142.728 228.54 142.183C228.139 141.639 227.918 141.036 227.879 140.375H230.621C230.673 140.789 230.874 141.133 231.224 141.405C231.587 141.678 232.035 141.814 232.566 141.814C233.085 141.814 233.487 141.71 233.772 141.503C234.07 141.295 234.22 141.029 234.22 140.705C234.22 140.355 234.038 140.096 233.675 139.927C233.325 139.746 232.761 139.551 231.983 139.344C231.179 139.149 230.518 138.948 229.999 138.741C229.493 138.533 229.053 138.216 228.677 137.788C228.314 137.36 228.132 136.783 228.132 136.057C228.132 135.46 228.301 134.916 228.638 134.423C228.988 133.93 229.48 133.542 230.116 133.256C230.764 132.971 231.523 132.828 232.391 132.828C233.675 132.828 234.699 133.153 235.464 133.801C236.229 134.436 236.651 135.298 236.728 136.388H234.122C234.083 135.96 233.902 135.623 233.578 135.376C233.267 135.117 232.845 134.987 232.314 134.987C231.821 134.987 231.438 135.078 231.166 135.259C230.907 135.441 230.777 135.694 230.777 136.018C230.777 136.381 230.959 136.66 231.322 136.854C231.685 137.036 232.249 137.224 233.014 137.418C233.792 137.613 234.433 137.814 234.939 138.021C235.445 138.229 235.879 138.553 236.242 138.994C236.618 139.422 236.813 139.992 236.826 140.705C236.826 141.328 236.651 141.885 236.301 142.378C235.963 142.87 235.471 143.259 234.822 143.545C234.187 143.817 233.442 143.953 232.586 143.953ZM241.784 134.559C242.134 134.067 242.613 133.658 243.223 133.334C243.845 132.997 244.552 132.828 245.343 132.828C246.263 132.828 247.093 133.055 247.832 133.509C248.584 133.963 249.174 134.611 249.602 135.454C250.043 136.284 250.263 137.25 250.263 138.352C250.263 139.454 250.043 140.433 249.602 141.289C249.174 142.131 248.584 142.786 247.832 143.253C247.093 143.72 246.263 143.953 245.343 143.953C244.552 143.953 243.852 143.791 243.242 143.467C242.646 143.143 242.16 142.734 241.784 142.242V148.913H239.061V133.003H241.784V134.559ZM247.482 138.352C247.482 137.704 247.346 137.146 247.074 136.679C246.814 136.2 246.464 135.836 246.023 135.59C245.596 135.344 245.129 135.221 244.623 135.221C244.13 135.221 243.664 135.35 243.223 135.61C242.795 135.856 242.445 136.219 242.173 136.699C241.913 137.178 241.784 137.742 241.784 138.391C241.784 139.039 241.913 139.603 242.173 140.083C242.445 140.563 242.795 140.932 243.223 141.191C243.664 141.438 244.13 141.561 244.623 141.561C245.129 141.561 245.596 141.431 246.023 141.172C246.464 140.913 246.814 140.543 247.074 140.063C247.346 139.584 247.482 139.013 247.482 138.352ZM251.542 138.352C251.542 137.263 251.756 136.297 252.184 135.454C252.624 134.611 253.214 133.963 253.953 133.509C254.705 133.055 255.542 132.828 256.462 132.828C257.266 132.828 257.966 132.99 258.563 133.315C259.172 133.639 259.658 134.047 260.021 134.54V133.003H262.764V143.778H260.021V142.203C259.671 142.708 259.185 143.13 258.563 143.467C257.953 143.791 257.247 143.953 256.443 143.953C255.535 143.953 254.705 143.72 253.953 143.253C253.214 142.786 252.624 142.131 252.184 141.289C251.756 140.433 251.542 139.454 251.542 138.352ZM260.021 138.391C260.021 137.729 259.892 137.165 259.632 136.699C259.373 136.219 259.023 135.856 258.582 135.61C258.141 135.35 257.668 135.221 257.162 135.221C256.657 135.221 256.19 135.344 255.762 135.59C255.334 135.836 254.984 136.2 254.712 136.679C254.453 137.146 254.323 137.704 254.323 138.352C254.323 139 254.453 139.571 254.712 140.063C254.984 140.543 255.334 140.913 255.762 141.172C256.203 141.431 256.67 141.561 257.162 141.561C257.668 141.561 258.141 141.438 258.582 141.191C259.023 140.932 259.373 140.569 259.632 140.102C259.892 139.623 260.021 139.052 260.021 138.391ZM264.723 138.391C264.723 137.276 264.95 136.303 265.404 135.473C265.857 134.631 266.486 133.982 267.29 133.529C268.094 133.062 269.015 132.828 270.052 132.828C271.387 132.828 272.489 133.166 273.358 133.84C274.24 134.501 274.83 135.435 275.128 136.64H272.191C272.036 136.174 271.77 135.811 271.394 135.551C271.031 135.279 270.577 135.143 270.032 135.143C269.254 135.143 268.639 135.428 268.185 135.999C267.731 136.556 267.504 137.353 267.504 138.391C267.504 139.415 267.731 140.212 268.185 140.783C268.639 141.34 269.254 141.619 270.032 141.619C271.134 141.619 271.854 141.127 272.191 140.141H275.128C274.83 141.308 274.24 142.235 273.358 142.922C272.476 143.61 271.374 143.953 270.052 143.953C269.015 143.953 268.094 143.726 267.29 143.272C266.486 142.806 265.857 142.157 265.404 141.328C264.95 140.485 264.723 139.506 264.723 138.391ZM287.139 138.157C287.139 138.546 287.113 138.896 287.061 139.208H279.184C279.249 139.986 279.521 140.595 280.001 141.036C280.481 141.477 281.071 141.697 281.771 141.697C282.782 141.697 283.502 141.263 283.93 140.394H286.867C286.555 141.431 285.959 142.287 285.077 142.961C284.196 143.622 283.113 143.953 281.829 143.953C280.792 143.953 279.859 143.726 279.029 143.272C278.212 142.806 277.57 142.151 277.103 141.308C276.649 140.465 276.423 139.493 276.423 138.391C276.423 137.276 276.649 136.297 277.103 135.454C277.557 134.611 278.192 133.963 279.009 133.509C279.826 133.055 280.766 132.828 281.829 132.828C282.854 132.828 283.768 133.049 284.572 133.49C285.388 133.93 286.017 134.559 286.458 135.376C286.912 136.18 287.139 137.107 287.139 138.157ZM284.319 137.379C284.306 136.679 284.053 136.122 283.56 135.707C283.068 135.279 282.465 135.065 281.752 135.065C281.077 135.065 280.507 135.272 280.04 135.687C279.586 136.089 279.307 136.653 279.204 137.379H284.319Z" fill="white"/>
<path d="M230.213 143.486L230.112 143.705L230.115 143.707L230.213 143.486ZM228.54 142.183L228.347 142.326L228.349 142.329L228.54 142.183ZM227.879 140.375V140.134H227.624L227.639 140.389L227.879 140.375ZM230.621 140.375L230.861 140.345L230.834 140.134H230.621V140.375ZM231.224 141.405L231.076 141.596L231.08 141.598L231.224 141.405ZM233.772 141.503L233.635 141.305L233.63 141.308L233.772 141.503ZM233.675 139.927L233.564 140.141L233.573 140.146L233.675 139.927ZM231.983 139.344L232.045 139.111L232.04 139.11L231.983 139.344ZM229.999 138.741L229.908 138.964L229.91 138.965L229.999 138.741ZM228.677 137.788L228.493 137.944L228.496 137.947L228.677 137.788ZM228.638 134.423L228.441 134.284L228.439 134.287L228.638 134.423ZM230.116 133.256L230.019 133.036L230.017 133.036L230.116 133.256ZM235.464 133.801L235.308 133.985L235.31 133.986L235.464 133.801ZM236.728 136.388V136.628H236.987L236.969 136.37L236.728 136.388ZM234.122 136.388L233.882 136.409L233.902 136.628H234.122V136.388ZM233.578 135.376L233.423 135.561L233.432 135.568L233.578 135.376ZM231.166 135.259L231.032 135.059L231.028 135.062L231.166 135.259ZM231.322 136.854L231.208 137.067L231.214 137.07L231.322 136.854ZM233.014 137.418L232.954 137.652L232.955 137.652L233.014 137.418ZM234.939 138.021L234.848 138.244L234.939 138.021ZM236.242 138.994L236.056 139.147L236.061 139.153L236.242 138.994ZM236.826 140.705H237.067L237.067 140.701L236.826 140.705ZM236.301 142.378L236.104 142.238L236.102 142.242L236.301 142.378ZM234.822 143.545L234.917 143.766L234.919 143.765L234.822 143.545ZM232.586 143.712C231.733 143.712 230.976 143.562 230.311 143.266L230.115 143.707C230.85 144.033 231.675 144.194 232.586 144.194V143.712ZM230.314 143.268C229.645 142.958 229.12 142.547 228.732 142.037L228.349 142.329C228.79 142.909 229.381 143.366 230.112 143.705L230.314 143.268ZM228.734 142.04C228.359 141.532 228.156 140.974 228.12 140.36L227.639 140.389C227.68 141.098 227.918 141.745 228.347 142.326L228.734 142.04ZM227.879 140.615H230.621V140.134H227.879V140.615ZM230.382 140.404C230.443 140.887 230.679 141.287 231.076 141.596L231.372 141.215C231.069 140.979 230.904 140.692 230.861 140.345L230.382 140.404ZM231.08 141.598C231.491 141.907 231.992 142.055 232.566 142.055V141.573C232.078 141.573 231.683 141.448 231.369 141.213L231.08 141.598ZM232.566 142.055C233.113 142.055 233.572 141.946 233.914 141.697L233.63 141.308C233.402 141.474 233.057 141.573 232.566 141.573V142.055ZM233.91 141.7C234.264 141.454 234.46 141.119 234.46 140.705H233.979C233.979 140.94 233.877 141.136 233.635 141.305L233.91 141.7ZM234.46 140.705C234.46 140.486 234.403 140.284 234.281 140.11C234.16 139.937 233.986 139.806 233.776 139.709L233.573 140.146C233.727 140.217 233.825 140.299 233.886 140.386C233.945 140.471 233.979 140.574 233.979 140.705H234.46ZM233.786 139.713C233.411 139.519 232.826 139.319 232.045 139.111L231.921 139.577C232.696 139.783 233.238 139.972 233.564 140.141L233.786 139.713ZM232.04 139.11C231.242 138.917 230.593 138.719 230.089 138.517L229.91 138.965C230.443 139.178 231.116 139.382 231.926 139.578L232.04 139.11ZM230.091 138.518C229.621 138.325 229.21 138.03 228.858 137.629L228.496 137.947C228.895 138.401 229.366 138.742 229.908 138.964L230.091 138.518ZM228.86 137.632C228.544 137.259 228.373 136.743 228.373 136.057H227.891C227.891 136.823 228.083 137.461 228.493 137.944L228.86 137.632ZM228.373 136.057C228.373 135.509 228.527 135.012 228.837 134.559L228.439 134.287C228.074 134.82 227.891 135.412 227.891 136.057H228.373ZM228.834 134.563C229.156 134.11 229.612 133.746 230.215 133.476L230.017 133.036C229.349 133.337 228.82 133.751 228.441 134.284L228.834 134.563ZM230.213 133.477C230.824 133.208 231.549 133.069 232.391 133.069V132.587C231.497 132.587 230.704 132.734 230.019 133.036L230.213 133.477ZM232.391 133.069C233.634 133.069 234.598 133.383 235.308 133.985L235.62 133.617C234.8 132.922 233.716 132.587 232.391 132.587V133.069ZM235.31 133.986C236.02 134.575 236.414 135.374 236.488 136.405L236.969 136.37C236.887 135.223 236.439 134.297 235.618 133.615L235.31 133.986ZM236.728 136.147H234.122V136.628H236.728V136.147ZM234.362 136.366C234.318 135.875 234.105 135.474 233.724 135.184L233.432 135.568C233.699 135.771 233.849 136.045 233.882 136.409L234.362 136.366ZM233.732 135.191C233.366 134.886 232.884 134.746 232.314 134.746V135.228C232.807 135.228 233.168 135.348 233.423 135.561L233.732 135.191ZM232.314 134.746C231.796 134.746 231.36 134.841 231.032 135.059L231.3 135.46C231.517 135.315 231.846 135.228 232.314 135.228V134.746ZM231.028 135.062C230.702 135.29 230.536 135.617 230.536 136.018H231.018C231.018 135.77 231.111 135.592 231.304 135.457L231.028 135.062ZM230.536 136.018C230.536 136.242 230.593 136.449 230.711 136.631C230.829 136.811 230.999 136.955 231.208 137.067L231.435 136.642C231.281 136.559 231.179 136.466 231.115 136.368C231.052 136.271 231.018 136.157 231.018 136.018H230.536ZM231.214 137.07C231.601 137.263 232.185 137.456 232.954 137.652L233.073 137.185C232.312 136.991 231.769 136.808 231.429 136.639L231.214 137.07ZM232.955 137.652C233.727 137.845 234.356 138.043 234.848 138.244L235.031 137.798C234.51 137.585 233.857 137.381 233.072 137.185L232.955 137.652ZM234.848 138.244C235.315 138.436 235.717 138.735 236.056 139.147L236.428 138.84C236.041 138.37 235.575 138.022 235.031 137.798L234.848 138.244ZM236.061 139.153C236.391 139.528 236.573 140.039 236.585 140.71L237.067 140.701C237.053 139.945 236.846 139.315 236.423 138.835L236.061 139.153ZM236.585 140.705C236.585 141.279 236.424 141.788 236.104 142.238L236.497 142.517C236.877 141.983 237.067 141.376 237.067 140.705H236.585ZM236.102 142.242C235.794 142.691 235.34 143.054 234.725 143.324L234.919 143.765C235.601 143.465 236.132 143.05 236.499 142.514L236.102 142.242ZM234.728 143.323C234.128 143.58 233.416 143.712 232.586 143.712V144.194C233.467 144.194 234.246 144.054 234.917 143.766L234.728 143.323ZM241.784 134.559H241.543V135.314L241.98 134.699L241.784 134.559ZM243.223 133.334L243.336 133.547L243.338 133.546L243.223 133.334ZM247.832 133.509L247.706 133.714L247.708 133.715L247.832 133.509ZM249.602 135.454L249.387 135.563L249.389 135.567L249.602 135.454ZM249.602 141.289L249.388 141.178L249.387 141.18L249.602 141.289ZM247.832 143.253L247.705 143.048L247.704 143.049L247.832 143.253ZM243.242 143.467L243.127 143.679L243.129 143.68L243.242 143.467ZM241.784 142.242L241.975 142.095L241.543 141.529V142.242H241.784ZM241.784 148.913V149.154H242.025V148.913H241.784ZM239.061 148.913H238.82V149.154H239.061V148.913ZM239.061 133.003V132.762H238.82V133.003H239.061ZM241.784 133.003H242.025V132.762H241.784V133.003ZM247.074 136.679L246.862 136.794L246.866 136.801L247.074 136.679ZM246.023 135.59L245.903 135.799L245.906 135.8L246.023 135.59ZM243.223 135.61L243.343 135.818L243.345 135.817L243.223 135.61ZM242.173 136.699L241.963 136.58L241.961 136.584L242.173 136.699ZM242.173 140.083L241.961 140.197L241.963 140.202L242.173 140.083ZM243.223 141.191L243.098 141.398L243.105 141.402L243.223 141.191ZM246.023 141.172L245.901 140.964L245.899 140.966L246.023 141.172ZM247.074 140.063L246.864 139.944L246.862 139.949L247.074 140.063ZM241.98 134.699C242.305 134.241 242.755 133.856 243.336 133.547L243.11 133.121C242.472 133.461 241.962 133.892 241.587 134.42L241.98 134.699ZM243.338 133.546C243.921 133.23 244.587 133.069 245.343 133.069V132.587C244.517 132.587 243.77 132.764 243.108 133.122L243.338 133.546ZM245.343 133.069C246.222 133.069 247.007 133.285 247.706 133.714L247.958 133.304C247.179 132.825 246.305 132.587 245.343 132.587V133.069ZM247.708 133.715C248.418 134.144 248.978 134.757 249.387 135.563L249.817 135.345C249.37 134.465 248.75 133.782 247.957 133.303L247.708 133.715ZM249.389 135.567C249.809 136.356 250.022 137.282 250.022 138.352H250.504C250.504 137.217 250.277 136.211 249.815 135.341L249.389 135.567ZM250.022 138.352C250.022 139.421 249.809 140.361 249.388 141.178L249.816 141.399C250.277 140.504 250.504 139.487 250.504 138.352H250.022ZM249.387 141.18C248.978 141.986 248.417 142.606 247.705 143.048L247.959 143.458C248.751 142.966 249.37 142.277 249.817 141.398L249.387 141.18ZM247.704 143.049C247.005 143.49 246.22 143.712 245.343 143.712V144.194C246.306 144.194 247.181 143.949 247.961 143.457L247.704 143.049ZM245.343 143.712C244.585 143.712 243.925 143.557 243.355 143.254L243.129 143.68C243.778 144.025 244.518 144.194 245.343 144.194V143.712ZM243.357 143.255C242.788 142.946 242.329 142.559 241.975 142.095L241.592 142.388C241.991 142.91 242.504 143.34 243.127 143.679L243.357 143.255ZM241.543 142.242V148.913H242.025V142.242H241.543ZM241.784 148.672H239.061V149.154H241.784V148.672ZM239.302 148.913V133.003H238.82V148.913H239.302ZM239.061 133.244H241.784V132.762H239.061V133.244ZM241.543 133.003V134.559H242.025V133.003H241.543ZM247.723 138.352C247.723 137.669 247.58 137.068 247.282 136.558L246.866 136.801C247.112 137.224 247.241 137.738 247.241 138.352H247.723ZM247.286 136.565C247.006 136.048 246.625 135.65 246.141 135.38L245.906 135.8C246.304 136.023 246.622 136.351 246.862 136.794L247.286 136.565ZM246.144 135.381C245.678 135.113 245.17 134.98 244.623 134.98V135.462C245.088 135.462 245.513 135.574 245.903 135.799L246.144 135.381ZM244.623 134.98C244.086 134.98 243.577 135.122 243.101 135.402L243.345 135.817C243.75 135.579 244.175 135.462 244.623 135.462V134.98ZM243.103 135.401C242.633 135.671 242.254 136.067 241.963 136.58L242.382 136.818C242.636 136.371 242.957 136.041 243.343 135.818L243.103 135.401ZM241.961 136.584C241.679 137.105 241.543 137.71 241.543 138.391H242.025C242.025 137.775 242.148 137.252 242.385 136.813L241.961 136.584ZM241.543 138.391C241.543 139.072 241.679 139.676 241.961 140.197L242.385 139.968C242.148 139.53 242.025 139.007 242.025 138.391H241.543ZM241.963 140.202C242.253 140.714 242.631 141.115 243.098 141.397L243.348 140.985C242.959 140.749 242.636 140.412 242.382 139.964L241.963 140.202ZM243.105 141.402C243.581 141.668 244.088 141.802 244.623 141.802V141.32C244.173 141.32 243.746 141.208 243.34 140.981L243.105 141.402ZM244.623 141.802C245.172 141.802 245.682 141.66 246.148 141.378L245.899 140.966C245.509 141.202 245.085 141.32 244.623 141.32V141.802ZM246.146 141.38C246.627 141.097 247.007 140.694 247.286 140.178L246.862 139.949C246.622 140.393 246.302 140.729 245.901 140.964L246.146 141.38ZM247.283 140.182C247.58 139.66 247.723 139.047 247.723 138.352H247.241C247.241 138.98 247.112 139.508 246.864 139.944L247.283 140.182ZM252.184 135.454L251.97 135.342L251.969 135.345L252.184 135.454ZM253.953 133.509L253.829 133.303L253.827 133.304L253.953 133.509ZM258.563 133.315L258.448 133.526L258.45 133.527L258.563 133.315ZM260.021 134.54L259.827 134.683L260.262 135.273V134.54H260.021ZM260.021 133.003V132.762H259.78V133.003H260.021ZM262.764 133.003H263.005V132.762H262.764V133.003ZM262.764 143.778V144.019H263.005V143.778H262.764ZM260.021 143.778H259.78V144.019H260.021V143.778ZM260.021 142.203H260.262V141.431L259.823 142.066L260.021 142.203ZM258.563 143.467L258.676 143.68L258.678 143.679L258.563 143.467ZM253.953 143.253L253.825 143.457L253.826 143.458L253.953 143.253ZM252.184 141.289L251.968 141.396L251.97 141.4L252.184 141.289ZM259.632 136.699L259.42 136.813L259.422 136.816L259.632 136.699ZM258.582 135.61L258.46 135.817L258.465 135.82L258.582 135.61ZM255.762 135.59L255.642 135.381L255.642 135.381L255.762 135.59ZM254.712 136.679L254.502 136.56L254.501 136.562L254.712 136.679ZM254.712 140.063L254.499 140.176L254.502 140.182L254.712 140.063ZM255.762 141.172L255.637 141.378L255.64 141.38L255.762 141.172ZM258.582 141.191L258.7 141.402L258.704 141.399L258.582 141.191ZM259.632 140.102L259.843 140.219L259.844 140.217L259.632 140.102ZM251.783 138.352C251.783 137.295 251.99 136.367 252.398 135.563L251.969 135.345C251.521 136.226 251.301 137.231 251.301 138.352H251.783ZM252.397 135.566C252.82 134.758 253.381 134.143 254.079 133.714L253.827 133.304C253.048 133.782 252.429 134.465 251.97 135.342L252.397 135.566ZM254.078 133.715C254.79 133.285 255.583 133.069 256.462 133.069V132.587C255.5 132.587 254.62 132.825 253.829 133.303L254.078 133.715ZM256.462 133.069C257.233 133.069 257.893 133.225 258.448 133.526L258.678 133.103C258.04 132.756 257.299 132.587 256.462 132.587V133.069ZM258.45 133.527C259.031 133.837 259.488 134.223 259.827 134.683L260.215 134.397C259.828 133.872 259.313 133.441 258.676 133.102L258.45 133.527ZM260.262 134.54V133.003H259.78V134.54H260.262ZM260.021 133.244H262.764V132.762H260.021V133.244ZM262.523 133.003V143.778H263.005V133.003H262.523ZM262.764 143.537H260.021V144.019H262.764V143.537ZM260.262 143.778V142.203H259.78V143.778H260.262ZM259.823 142.066C259.498 142.536 259.042 142.933 258.448 143.255L258.678 143.679C259.328 143.326 259.845 142.881 260.22 142.34L259.823 142.066ZM258.45 143.254C257.88 143.557 257.214 143.712 256.443 143.712V144.194C257.28 144.194 258.026 144.025 258.676 143.68L258.45 143.254ZM256.443 143.712C255.579 143.712 254.793 143.491 254.08 143.048L253.826 143.458C254.618 143.949 255.492 144.194 256.443 144.194V143.712ZM254.082 143.049C253.382 142.607 252.82 141.986 252.397 141.177L251.97 141.4C252.429 142.277 253.047 142.965 253.825 143.457L254.082 143.049ZM252.399 141.181C251.99 140.363 251.783 139.422 251.783 138.352H251.301C251.301 139.486 251.521 140.502 251.968 141.396L252.399 141.181ZM260.262 138.391C260.262 137.698 260.126 137.092 259.843 136.582L259.422 136.816C259.657 137.239 259.78 137.761 259.78 138.391H260.262ZM259.844 136.584C259.565 136.068 259.184 135.67 258.7 135.399L258.465 135.82C258.862 136.042 259.181 136.37 259.42 136.813L259.844 136.584ZM258.704 135.402C258.227 135.121 257.712 134.98 257.162 134.98V135.462C257.625 135.462 258.056 135.579 258.46 135.817L258.704 135.402ZM257.162 134.98C256.616 134.98 256.107 135.113 255.642 135.381L255.882 135.799C256.273 135.574 256.698 135.462 257.162 135.462V134.98ZM255.642 135.381C255.173 135.652 254.793 136.048 254.502 136.56L254.921 136.798C255.175 136.351 255.496 136.021 255.882 135.799L255.642 135.381ZM254.501 136.562C254.218 137.072 254.082 137.671 254.082 138.352H254.564C254.564 137.736 254.687 137.22 254.923 136.796L254.501 136.562ZM254.082 138.352C254.082 139.033 254.218 139.643 254.499 140.176L254.925 139.951C254.687 139.498 254.564 138.967 254.564 138.352H254.082ZM254.502 140.182C254.793 140.694 255.171 141.095 255.637 141.378L255.887 140.966C255.498 140.73 255.176 140.392 254.921 139.944L254.502 140.182ZM255.64 141.38C256.116 141.66 256.625 141.802 257.162 141.802V141.32C256.714 141.32 256.29 141.203 255.884 140.964L255.64 141.38ZM257.162 141.802C257.709 141.802 258.223 141.668 258.7 141.402L258.465 140.981C258.06 141.207 257.627 141.32 257.162 141.32V141.802ZM258.704 141.399C259.184 141.117 259.564 140.722 259.843 140.219L259.422 139.985C259.182 140.416 258.862 140.747 258.46 140.984L258.704 141.399ZM259.844 140.217C260.126 139.695 260.262 139.084 260.262 138.391H259.78C259.78 139.02 259.657 139.55 259.42 139.988L259.844 140.217ZM265.404 135.473L265.615 135.589L265.616 135.588L265.404 135.473ZM267.29 133.529L267.409 133.738L267.411 133.737L267.29 133.529ZM273.358 133.84L273.21 134.03L273.214 134.032L273.358 133.84ZM275.128 136.64V136.881H275.436L275.362 136.583L275.128 136.64ZM272.191 136.64L271.963 136.717L272.018 136.881H272.191V136.64ZM271.394 135.551L271.249 135.744L271.257 135.75L271.394 135.551ZM268.185 135.999L268.372 136.151L268.373 136.149L268.185 135.999ZM268.185 140.783L267.996 140.933L267.998 140.935L268.185 140.783ZM272.191 140.141V139.9H272.019L271.963 140.063L272.191 140.141ZM275.128 140.141L275.361 140.201L275.438 139.9H275.128V140.141ZM273.358 142.922L273.506 143.112L273.506 143.112L273.358 142.922ZM267.29 143.272L267.169 143.481L267.172 143.482L267.29 143.272ZM265.404 141.328L265.191 141.442L265.192 141.443L265.404 141.328ZM264.964 138.391C264.964 137.309 265.184 136.378 265.615 135.589L265.192 135.358C264.716 136.229 264.482 137.243 264.482 138.391H264.964ZM265.616 135.588C266.049 134.783 266.646 134.169 267.409 133.738L267.172 133.319C266.327 133.796 265.666 134.478 265.191 135.359L265.616 135.588ZM267.411 133.737C268.174 133.294 269.052 133.069 270.052 133.069V132.587C268.977 132.587 268.014 132.83 267.169 133.32L267.411 133.737ZM270.052 133.069C271.346 133.069 272.392 133.395 273.21 134.03L273.506 133.649C272.586 132.936 271.429 132.587 270.052 132.587V133.069ZM273.214 134.032C274.045 134.656 274.607 135.539 274.894 136.698L275.362 136.583C275.052 135.33 274.434 134.346 273.503 133.647L273.214 134.032ZM275.128 136.399H272.191V136.881H275.128V136.399ZM272.42 136.564C272.249 136.052 271.953 135.644 271.531 135.353L271.257 135.75C271.587 135.977 271.822 136.295 271.963 136.717L272.42 136.564ZM271.538 135.358C271.126 135.049 270.618 134.902 270.032 134.902V135.384C270.536 135.384 270.936 135.509 271.249 135.744L271.538 135.358ZM270.032 134.902C269.187 134.902 268.499 135.216 267.996 135.849L268.373 136.149C268.778 135.64 269.322 135.384 270.032 135.384V134.902ZM267.998 135.846C267.497 136.462 267.263 137.322 267.263 138.391H267.745C267.745 137.385 267.965 136.65 268.372 136.151L267.998 135.846ZM267.263 138.391C267.263 139.448 267.497 140.305 267.996 140.933L268.373 140.633C267.965 140.119 267.745 139.382 267.745 138.391H267.263ZM267.998 140.935C268.502 141.554 269.189 141.86 270.032 141.86V141.378C269.32 141.378 268.776 141.127 268.372 140.631L267.998 140.935ZM270.032 141.86C270.619 141.86 271.125 141.729 271.535 141.449C271.945 141.167 272.237 140.751 272.419 140.219L271.963 140.063C271.808 140.517 271.572 140.839 271.263 141.051C270.952 141.263 270.548 141.378 270.032 141.378V141.86ZM272.191 140.382H275.128V139.9H272.191V140.382ZM274.895 140.081C274.608 141.201 274.046 142.081 273.21 142.732L273.506 143.112C274.433 142.39 275.051 141.415 275.361 140.201L274.895 140.081ZM273.21 142.732C272.378 143.381 271.331 143.712 270.052 143.712V144.194C271.418 144.194 272.575 143.838 273.506 143.112L273.21 142.732ZM270.052 143.712C269.051 143.712 268.172 143.494 267.409 143.063L267.172 143.482C268.016 143.959 268.978 144.194 270.052 144.194V143.712ZM267.411 143.064C266.646 142.62 266.048 142.004 265.615 141.212L265.192 141.443C265.667 142.311 266.327 142.992 267.169 143.481L267.411 143.064ZM265.616 141.213C265.184 140.411 264.964 139.473 264.964 138.391H264.482C264.482 139.539 264.716 140.558 265.191 141.442L265.616 141.213ZM287.061 139.208V139.449H287.265L287.299 139.247L287.061 139.208ZM279.184 139.208V138.967H278.922L278.944 139.228L279.184 139.208ZM280.001 141.036L279.838 141.213L279.838 141.213L280.001 141.036ZM283.93 140.394V140.153H283.78L283.714 140.288L283.93 140.394ZM286.867 140.394L287.097 140.463L287.19 140.153H286.867V140.394ZM285.077 142.961L285.222 143.154L285.224 143.153L285.077 142.961ZM279.029 143.272L278.909 143.482L278.913 143.484L279.029 143.272ZM277.103 141.308L276.891 141.422L276.892 141.425L277.103 141.308ZM277.103 135.454L276.891 135.34L276.891 135.34L277.103 135.454ZM279.009 133.509L279.126 133.72L279.126 133.72L279.009 133.509ZM284.572 133.49L284.456 133.701L284.457 133.702L284.572 133.49ZM286.458 135.376L286.246 135.491L286.248 135.495L286.458 135.376ZM284.319 137.379V137.62H284.564L284.56 137.375L284.319 137.379ZM283.56 135.707L283.402 135.889L283.405 135.891L283.56 135.707ZM280.04 135.687L280.2 135.868L280.2 135.867L280.04 135.687ZM279.204 137.379L278.965 137.345L278.926 137.62H279.204V137.379ZM286.898 138.157C286.898 138.536 286.873 138.873 286.823 139.168L287.299 139.247C287.353 138.92 287.38 138.557 287.38 138.157H286.898ZM287.061 138.967H279.184V139.449H287.061V138.967ZM278.944 139.228C279.013 140.053 279.305 140.724 279.838 141.213L280.164 140.858C279.738 140.466 279.485 139.918 279.424 139.188L278.944 139.228ZM279.838 141.213C280.366 141.698 281.015 141.938 281.771 141.938V141.456C281.126 141.456 280.596 141.255 280.164 140.858L279.838 141.213ZM281.771 141.938C282.312 141.938 282.789 141.822 283.194 141.578C283.599 141.333 283.915 140.97 284.146 140.5L283.714 140.288C283.517 140.687 283.259 140.975 282.945 141.165C282.629 141.355 282.242 141.456 281.771 141.456V141.938ZM283.93 140.635H286.867V140.153H283.93V140.635ZM286.636 140.325C286.34 141.312 285.773 142.126 284.931 142.77L285.224 143.153C286.145 142.448 286.771 141.55 287.097 140.463L286.636 140.325ZM284.933 142.768C284.099 143.393 283.07 143.712 281.829 143.712V144.194C283.156 144.194 284.292 143.851 285.222 143.154L284.933 142.768ZM281.829 143.712C280.828 143.712 279.935 143.494 279.144 143.061L278.913 143.484C279.782 143.959 280.756 144.194 281.829 144.194V143.712ZM279.148 143.063C278.371 142.619 277.76 141.997 277.314 141.191L276.892 141.425C277.38 142.305 278.053 142.992 278.909 143.482L279.148 143.063ZM277.315 141.194C276.883 140.391 276.663 139.459 276.663 138.391H276.182C276.182 139.527 276.416 140.539 276.891 141.422L277.315 141.194ZM276.663 138.391C276.663 137.309 276.883 136.37 277.315 135.568L276.891 135.34C276.415 136.223 276.182 137.242 276.182 138.391H276.663ZM277.315 135.568C277.748 134.765 278.351 134.151 279.126 133.72L278.892 133.298C278.034 133.775 277.366 134.457 276.891 135.34L277.315 135.568ZM279.126 133.72C279.903 133.288 280.801 133.069 281.829 133.069V132.587C280.731 132.587 279.75 132.822 278.892 133.298L279.126 133.72ZM281.829 133.069C282.818 133.069 283.691 133.282 284.456 133.701L284.687 133.278C283.844 132.816 282.889 132.587 281.829 132.587V133.069ZM284.457 133.702C285.233 134.12 285.828 134.715 286.246 135.491L286.67 135.262C286.207 134.404 285.544 133.741 284.686 133.278L284.457 133.702ZM286.248 135.495C286.679 136.258 286.898 137.143 286.898 138.157H287.38C287.38 137.071 287.145 136.103 286.668 135.258L286.248 135.495ZM284.56 137.375C284.546 136.612 284.266 135.986 283.715 135.523L283.405 135.891C283.84 136.257 284.066 136.746 284.078 137.384L284.56 137.375ZM283.718 135.525C283.178 135.055 282.517 134.824 281.752 134.824V135.306C282.412 135.306 282.958 135.503 283.402 135.889L283.718 135.525ZM281.752 134.824C281.023 134.824 280.394 135.05 279.88 135.507L280.2 135.867C280.619 135.495 281.131 135.306 281.752 135.306V134.824ZM279.88 135.507C279.375 135.954 279.075 136.575 278.965 137.345L279.442 137.413C279.54 136.732 279.797 136.224 280.2 135.868L279.88 135.507ZM279.204 137.62H284.319V137.138H279.204V137.62Z" fill="white"/>
<circle r="2.76751" transform="matrix(-0.864031 0.503439 0.503439 0.864031 277.397 128.101)" fill="white"/>
</svg>
