<svg width="892" height="851" viewBox="0 0 892 851" fill="none" xmlns="http://www.w3.org/2000/svg">
<path d="M514.363 278.158C525.715 280.735 537.55 276.693 544.954 267.711L576.633 229.278L591.962 205.364L597.304 198.583C612.478 179.323 639.594 174.329 660.634 186.92V186.92C678.962 197.888 688.016 219.511 682.972 240.267L665.601 311.736C659.78 335.687 629.996 344.045 612.563 326.62V326.62C602.181 316.243 586.019 314.383 573.551 322.13L548.57 337.654C523.988 352.929 491.583 343.308 479.319 317.095L478.235 314.778C477.316 312.813 476.636 310.746 476.21 308.619V308.619C472.354 289.37 489.619 272.54 508.764 276.887L514.363 278.158Z" fill="url(#paint0_linear)"/>
<path d="M262.443 118.958C273.861 121.224 285.581 116.86 292.737 107.678L323.353 68.3941L338.022 44.0699L343.177 37.145C357.818 17.4774 384.788 11.7437 406.164 23.7543V23.7543C424.786 34.2176 434.428 55.5845 429.952 76.4705L414.543 148.388C409.378 172.489 379.835 181.659 361.931 164.717V164.717C351.269 154.627 335.063 153.21 322.811 161.296L298.264 177.496C274.109 193.438 241.453 184.707 228.477 158.839L227.33 156.552C226.357 154.614 225.621 152.566 225.137 150.452V150.452C220.756 131.315 237.555 114.019 256.812 117.841L262.443 118.958Z" fill="url(#paint1_linear)"/>
<path d="M220.254 685.166C228.797 693.074 241.067 695.491 251.971 691.414L298.621 673.97L323.853 660.924L331.871 657.723C354.641 648.63 380.622 657.863 392.547 679.287V679.287C402.936 697.95 399.966 721.203 385.219 736.655L334.441 789.864C317.424 807.696 287.452 800.042 281.067 776.235V776.235C277.264 762.057 264.197 752.365 249.526 752.841L220.13 753.794C191.204 754.732 167.951 730.198 170.436 701.364L170.656 698.815C170.842 696.655 171.288 694.524 171.982 692.47V692.47C178.268 673.871 201.634 667.929 216.041 681.266L220.254 685.166Z" fill="url(#paint2_linear)"/>
<path d="M554.864 778.492C563.487 779.814 572.394 776.202 578.021 769.1L602.025 738.803L613.59 720.179L617.889 714.512C629.313 699.451 649.509 694.384 665.515 702.561V702.561C680.028 709.977 687.365 726.43 683.502 742.896L671.252 795.114C666.865 813.814 644.196 821.83 630.448 809.544V809.544C622.349 802.307 610.11 801.723 600.629 808.121L580.642 821.608C562.144 834.092 537.816 828.471 528.128 809.475L527.204 807.662C526.466 806.217 525.914 804.675 525.56 803.073V803.073C522.433 788.934 535.049 775.452 549.353 777.646L554.864 778.492Z" fill="url(#paint3_linear)"/>
<path fill-rule="evenodd" clip-rule="evenodd" d="M195.78 734.881C303.907 734.881 391.561 652.506 391.561 550.891C391.561 449.276 303.907 366.901 195.78 366.901C170.55 366.901 146.434 371.386 124.287 379.554C195.439 381.996 259.527 400.432 306.853 429.026C357.732 459.767 389.307 502.302 389.307 549.372C389.307 596.442 357.732 638.976 306.853 669.717C257.919 699.283 191.063 717.989 117.008 719.382C141.111 729.349 167.758 734.881 195.78 734.881ZM306.36 429.841C258.685 401.035 193.886 382.546 121.95 380.432C116.133 382.66 110.456 385.143 104.934 387.866C151.38 387.481 198.572 394.407 241.674 409.414C369.239 453.827 413.064 552.335 339.171 629.514C338.99 629.704 338.641 629.788 338.393 629.701C338.144 629.615 338.09 629.391 338.272 629.201C411.664 552.544 368.294 454.415 241.016 410.102C197.607 394.988 150.088 388.102 103.401 388.63C99.9538 390.367 96.5679 392.198 93.2477 394.12C163.204 391.667 234.551 406.39 288.496 438.394C288.722 438.529 288.724 438.749 288.5 438.887C288.463 438.91 288.421 438.929 288.377 438.945C288.695 439.135 289.012 439.326 289.329 439.517C335.724 467.559 364.525 506.363 364.525 549.313C364.525 549.576 364.311 549.789 364.048 549.789C363.786 549.789 363.572 549.576 363.572 549.313C363.572 506.826 335.077 468.281 288.837 440.332C242.605 412.389 178.706 395.091 108.1 395.091C102.36 395.091 96.664 395.205 91.0185 395.43C85.9566 398.449 81.0521 401.681 76.3193 405.111C86.7182 404.28 97.3263 403.851 108.1 403.851C174.413 403.851 234.471 420.096 277.966 446.385C321.453 472.669 348.455 509.045 348.455 549.313C348.455 589.613 321.453 626.019 277.966 652.324C234.471 678.634 174.413 694.892 108.1 694.892C95.7346 694.892 83.587 694.327 71.7238 693.236C73.8807 694.899 76.0761 696.518 78.3084 698.094C123.054 701.404 167.687 697.172 207.711 686.594C265.884 671.219 314.27 642.456 339.19 603.986C339.333 603.765 339.656 603.635 339.912 603.696C340.168 603.756 340.26 603.984 340.117 604.205C314.981 643.007 266.23 671.937 207.818 687.374C168.136 697.862 123.972 702.131 79.6624 699.041C82.7201 701.162 85.8457 703.2 89.0357 705.154C178.397 709.116 268.646 684.853 322.348 636.816C322.544 636.641 322.9 636.579 323.143 636.678C323.387 636.778 323.425 637 323.229 637.176C269.505 685.233 179.547 709.575 90.3384 705.945C95.9775 709.338 101.814 712.468 107.828 715.315C136.557 715.128 164.987 712.166 192.049 706.648C258.399 693.121 316.497 664.24 350.687 623.24C384.877 582.241 388.729 536.835 367.253 496.551C345.776 456.267 298.975 421.127 231.924 400.701C231.672 400.624 231.605 400.398 231.773 400.196C231.941 399.994 232.282 399.893 232.533 399.969C299.767 420.451 346.729 455.696 368.29 496.138C389.851 536.581 386.018 582.242 351.598 623.518C317.177 664.794 258.729 693.817 192.116 707.398C165.537 712.817 137.653 715.779 109.465 716.081C111.238 716.9 113.026 717.696 114.829 718.466C189.604 717.402 257.117 698.655 306.36 668.902C357.086 638.254 388.355 595.979 388.355 549.372C388.355 502.764 357.086 460.489 306.36 429.841ZM347.503 549.313C347.503 589.151 320.806 625.297 277.474 651.509C234.15 677.715 174.268 693.94 108.1 693.94C95.246 693.94 82.6297 693.328 70.3259 692.149C66.4704 689.122 62.7407 685.957 59.1454 682.664C152.77 695.218 253.056 670.532 303.657 617.56C303.838 617.37 303.784 617.146 303.536 617.059C303.288 616.973 302.939 617.057 302.758 617.247C252.3 670.069 151.815 694.689 58.1316 681.729C56.5418 680.252 54.9789 678.749 53.4435 677.222C107.658 685.705 167.205 681.666 219.185 663.133C219.433 663.045 219.485 662.821 219.301 662.633C219.117 662.445 218.768 662.364 218.52 662.452C166.393 681.037 106.735 684.978 52.5679 676.345C48.1466 671.89 43.9579 667.227 40.02 662.376C61.2585 667.061 84.1874 669.616 108.099 669.616C162.918 669.616 212.569 656.187 248.532 634.451C284.486 612.72 306.829 582.634 306.829 549.313C306.829 549.05 306.616 548.837 306.353 548.837C306.09 548.837 305.877 549.05 305.877 549.313C305.877 582.171 283.84 611.998 248.04 633.636C212.249 655.269 162.774 668.664 108.099 668.664C83.8137 668.664 60.5538 666.021 39.0634 661.187C38.8289 660.893 38.5954 660.599 38.3628 660.304C38.912 660.43 39.4622 660.555 40.0133 660.678C87.1636 671.226 140.94 670.896 190.184 657.212C190.437 657.142 190.513 656.915 190.354 656.706C190.195 656.497 189.861 656.384 189.607 656.455C140.538 670.09 86.9874 670.407 40.0898 659.916C39.2634 659.731 38.4392 659.543 37.617 659.352C36.4976 657.912 35.4 656.457 34.3244 654.987C57.0013 660.791 81.9332 663.999 108.1 663.999C108.363 663.999 108.576 663.786 108.576 663.523C108.576 663.26 108.363 663.047 108.1 663.047C81.5759 663.047 56.3361 659.741 33.447 653.777C30.4471 649.605 27.6245 645.311 24.9894 640.904C30.6109 642.772 36.3955 644.448 42.3136 645.926C83.1745 656.132 130.445 656.911 174.457 645.867C174.712 645.803 174.798 645.575 174.649 645.358C174.5 645.142 174.173 645.018 173.918 645.082C130.075 656.083 83.0247 655.297 42.4095 645.152C36.2421 643.612 30.2242 641.856 24.3891 639.893C22.7393 637.093 21.1649 634.249 19.6685 631.362C45.0686 641.413 75.4218 647.253 108.02 647.257C108.283 647.257 108.496 647.044 108.496 646.781C108.496 646.518 108.283 646.305 108.02 646.304C75.0912 646.301 44.4855 640.321 19.0069 630.072C15.2442 622.667 11.9928 614.987 9.29583 607.075C9.95243 607.488 10.616 607.898 11.2863 608.304C36.1603 623.348 70.4929 632.638 108.39 632.638C146.288 632.638 180.62 623.348 205.494 608.304C230.359 593.264 245.843 572.422 245.843 549.313C245.843 549.05 245.63 548.837 245.367 548.837C245.104 548.837 244.891 549.05 244.891 549.313C244.891 571.96 229.712 592.543 205.001 607.489C180.299 622.43 146.143 631.686 108.39 631.686C70.6371 631.686 36.4811 622.43 11.779 607.489C10.7746 606.881 9.78589 606.265 8.81331 605.639C7.95707 603.053 7.15986 600.444 6.42318 597.811C47.946 629.49 124.087 636.414 180.577 612.949C239.501 588.471 255.012 540.079 214.917 504.819C214.72 504.645 214.363 504.586 214.12 504.687C213.877 504.788 213.841 505.011 214.038 505.184C253.622 539.994 238.457 587.979 179.862 612.32C123.144 635.881 46.7891 628.541 6.05547 596.476C5.54403 594.59 5.06359 592.693 4.61468 590.785C40.9269 623.972 114.17 634.385 171.262 614.03C171.509 613.941 171.561 613.717 171.378 613.529C171.194 613.341 170.844 613.26 170.597 613.348C113.153 633.829 39.6497 622.904 4.27479 589.311C2.11061 579.737 0.738773 569.888 0.226835 559.827C1.77676 565.601 4.62891 571.35 8.87392 576.931C21.5311 593.571 44.1256 605.502 70.3505 611.369C96.5759 617.235 126.473 617.049 153.843 609.444C154.096 609.374 154.172 609.147 154.013 608.938C153.854 608.728 153.52 608.616 153.266 608.686C126.071 616.243 96.3997 616.417 70.427 610.607C44.4538 604.796 22.2201 593.016 9.79125 576.676C3.76774 568.757 0.588341 560.478 0.00532111 552.262C0.00177575 551.805 0 551.348 0 550.891C0 549.22 0.023697 547.555 0.0707922 545.895C0.670706 539.335 2.90854 532.886 6.65542 526.767C16.2681 511.069 35.8025 497.57 62.9983 490.013C63.2516 489.942 63.3279 489.716 63.1688 489.506C63.0096 489.297 62.6752 489.185 62.4219 489.255C35.0521 496.86 15.3548 510.455 5.64857 526.306C3.36469 530.036 1.6334 533.892 0.486011 537.826C1.23258 527.825 2.82951 518.045 5.20929 508.55C15.2222 499.319 28.8069 491.293 45.6235 485.298C45.8711 485.209 45.923 484.985 45.7394 484.797C45.5557 484.609 45.2061 484.528 44.9585 484.616C28.8168 490.371 15.6122 497.999 5.6633 506.778C7.95016 498.044 10.9007 489.555 14.4617 481.362C27.1646 474.997 41.5148 470.011 56.8287 466.562C91.9249 458.657 132.042 458.839 168.843 469.005C205.644 479.172 232.124 497.386 245.203 518.599C258.281 539.812 257.946 563.995 241.2 586.14C241.042 586.349 241.119 586.576 241.372 586.646C241.625 586.716 241.959 586.603 242.118 586.393C259.091 563.947 259.38 539.5 246.208 518.135C233.035 496.77 206.392 478.46 169.417 468.246C132.442 458.032 92.0997 457.837 56.7512 465.799C41.698 469.189 27.5429 474.061 14.9401 480.271C15.6856 478.587 16.4569 476.916 17.2536 475.258C21.5033 473.359 25.9572 471.574 30.6106 469.915C103.335 443.987 196.871 458.653 239.606 502.44C239.789 502.629 240.139 502.71 240.386 502.621C240.634 502.533 240.686 502.309 240.502 502.121C197.266 457.82 102.963 443.201 29.9456 469.234C25.755 470.728 21.7243 472.324 17.8572 474.014C18.8882 471.91 19.9603 469.827 21.0724 467.767C46.1471 458.012 76.0108 452.349 108.074 452.352C108.337 452.352 108.55 452.139 108.551 451.876C108.551 451.613 108.338 451.4 108.075 451.4C76.3538 451.397 46.7559 456.921 21.7767 466.475C23.343 463.629 24.986 460.827 26.7031 458.07C31.7457 456.432 36.9709 454.93 42.3714 453.575C42.6264 453.511 42.7124 453.283 42.5636 453.066C42.4147 452.85 42.0873 452.726 41.8323 452.79C36.894 454.029 32.1011 455.391 27.4593 456.867C28.7193 454.879 30.018 452.916 31.3544 450.977C36.2396 449.591 41.2249 448.338 46.2937 447.222C89.5078 437.706 138.759 438.148 183.788 450.828C228.817 463.508 261.06 486.015 276.805 512.134C292.549 538.253 291.785 567.959 270.879 595.079C270.719 595.287 270.794 595.513 271.047 595.585C271.3 595.656 271.635 595.545 271.796 595.337C292.931 567.919 293.653 537.951 277.816 511.679C261.979 485.407 229.573 462.804 184.369 450.074C184.216 450.031 184.062 449.988 183.909 449.945C183.837 449.925 183.765 449.905 183.693 449.885C191.033 451.847 198.14 454.095 204.968 456.612C244.677 471.247 274.832 494.919 286.192 524.112C286.287 524.357 286.576 524.526 286.836 524.489C287.096 524.452 287.23 524.223 287.135 523.978C275.615 494.375 245.088 470.499 205.181 455.791C165.266 441.079 115.895 435.504 66.5143 442.524C66.3282 442.55 66.2068 442.675 66.1875 442.833C59.4191 443.811 52.7515 445.023 46.2196 446.461C41.4124 447.52 36.6782 448.701 32.0312 450.002C33.3868 448.063 34.7803 446.149 36.2109 444.262C58.3617 438.743 82.6391 435.696 108.1 435.696C108.363 435.696 108.576 435.483 108.576 435.22C108.576 434.957 108.363 434.744 108.1 434.744C83.0098 434.744 59.055 437.694 37.1349 443.053C47.8305 429.181 60.536 416.766 74.8497 406.187C85.7163 405.275 96.8165 404.803 108.1 404.803C174.268 404.803 234.15 421.015 277.474 447.2C320.806 473.391 347.503 509.508 347.503 549.313ZM81.5997 590.247C62.8032 585.799 48.7894 577.172 41.3139 566.839C33.8375 556.504 32.918 544.499 40.2025 533.253C40.3454 533.033 40.2539 532.805 39.9981 532.744C39.7422 532.684 39.4189 532.813 39.276 533.034C31.7765 544.611 32.7778 556.889 40.3582 567.367C47.9395 577.846 62.1186 586.559 81.0821 591.047C81.3379 591.107 81.6612 590.977 81.8041 590.757C81.9471 590.536 81.8556 590.308 81.5997 590.247ZM13.8247 508.826C50.7112 477.419 122.854 469.965 174.993 492.335C227.133 514.706 239.288 558.328 202.401 589.735C202.201 589.905 202.235 590.127 202.476 590.231C202.718 590.335 203.076 590.281 203.276 590.11C240.664 558.277 228.21 514.24 175.718 491.718C123.227 469.197 50.3377 476.617 12.9498 508.45C12.7496 508.621 12.7832 508.843 13.0248 508.946C13.2664 509.05 13.6245 508.996 13.8247 508.826ZM101.481 516.905C108.992 516.34 116.617 516.743 123.852 518.089C131.086 519.435 137.772 521.695 143.465 524.723C149.156 527.751 153.736 531.484 156.882 535.688C157.04 535.898 156.997 536.197 156.786 536.354C156.576 536.512 156.278 536.469 156.12 536.258C153.075 532.19 148.614 528.541 143.018 525.564C137.422 522.587 130.83 520.356 123.678 519.025C116.525 517.694 108.983 517.295 101.552 517.855C101.29 517.875 101.062 517.678 101.042 517.416C101.022 517.154 101.219 516.925 101.481 516.905ZM108.336 532.34C101.136 532.266 94.1539 533.862 88.8934 536.806C88.664 536.935 88.5821 537.225 88.7105 537.454C88.8389 537.684 89.129 537.765 89.3584 537.637C94.4471 534.789 101.259 533.22 108.327 533.292C115.395 533.364 122.108 535.071 127.022 538.02C127.247 538.155 127.54 538.082 127.675 537.856C127.81 537.631 127.737 537.338 127.511 537.203C122.423 534.15 115.536 532.414 108.336 532.34ZM103.276 546.745C102.053 547.463 101.412 548.387 101.412 549.313C101.412 550.239 102.053 551.163 103.276 551.881C104.487 552.594 106.191 553.05 108.1 553.05C110.008 553.05 111.712 552.594 112.924 551.881C114.146 551.163 114.787 550.239 114.787 549.313C114.787 548.387 114.146 547.463 112.924 546.745C111.712 546.032 110.008 545.576 108.1 545.576C106.191 545.576 104.487 546.032 103.276 546.745ZM102.793 545.924C104.174 545.111 106.052 544.624 108.1 544.624C110.148 544.624 112.025 545.111 113.406 545.924C114.777 546.73 115.739 547.912 115.739 549.313C115.739 550.714 114.777 551.896 113.406 552.702C112.025 553.515 110.148 554.002 108.1 554.002C106.052 554.002 104.174 553.515 102.793 552.702C101.423 551.896 100.46 550.714 100.46 549.313C100.46 547.912 101.423 546.73 102.793 545.924ZM107.624 409.944C107.624 409.681 107.837 409.468 108.1 409.468C171.9 409.468 229.683 425.084 271.532 450.357C313.372 475.624 339.356 510.596 339.356 549.313C339.356 549.46 339.289 549.592 339.184 549.679C338.999 588.237 313.063 623.053 271.395 648.229C229.578 673.496 171.843 689.105 108.101 689.099C107.838 689.099 107.625 688.886 107.625 688.623C107.625 688.36 107.838 688.147 108.101 688.147C171.699 688.153 229.257 672.577 270.903 647.415C312.558 622.246 338.222 587.539 338.233 549.287C338.233 549.141 338.299 549.01 338.403 548.923C338.229 510.823 312.584 476.261 271.04 451.172C229.363 426.003 171.756 410.42 108.1 410.42C107.837 410.42 107.624 410.207 107.624 409.944ZM258.273 495.15C258.624 495.025 259.118 495.139 259.378 495.406C308.824 546.069 280.845 611.171 197.415 640.916C197.065 641.041 196.57 640.927 196.31 640.66C196.05 640.394 196.124 640.077 196.474 639.952C279.489 610.354 306.846 545.795 258.109 495.858C257.849 495.592 257.923 495.275 258.273 495.15ZM56.3169 567.789C56.1333 567.601 55.7836 567.52 55.536 567.608C55.2884 567.697 55.2365 567.921 55.4201 568.109C72.6903 585.804 110.261 591.579 139.26 581.239C168.259 570.9 178.071 548.233 160.801 530.537C160.617 530.349 160.268 530.268 160.02 530.356C159.772 530.445 159.721 530.669 159.904 530.857C176.673 548.039 167.301 570.323 138.595 580.558C109.889 590.793 73.086 584.971 56.3169 567.789ZM37.9257 573.887C38.1734 573.799 38.523 573.879 38.7066 574.068C61.2127 597.128 110.55 604.904 148.982 591.201C187.413 577.499 200.019 547.639 177.513 524.579C177.329 524.39 177.381 524.166 177.629 524.078C177.876 523.99 178.226 524.071 178.41 524.259C201.417 547.832 188.371 578.076 149.647 591.883C110.922 605.689 60.817 597.961 37.8098 574.387C37.6262 574.199 37.6781 573.975 37.9257 573.887ZM24.715 579.056C-2.34939 551.325 12.8256 515.445 58.9845 498.988C59.2321 498.9 59.284 498.675 59.1004 498.487C58.9167 498.299 58.5671 498.218 58.3195 498.307C11.8675 514.868 -3.74728 551.132 23.8182 579.376C51.3837 607.62 111.449 616.901 157.901 600.34C158.148 600.251 158.2 600.027 158.017 599.839C157.833 599.651 157.483 599.57 157.236 599.658C111.077 616.116 51.7794 606.787 24.715 579.056ZM57.8856 661.478C57.9922 661.238 58.2889 661.077 58.5485 661.119C109.747 669.411 161.637 664.37 204.134 649.541C246.636 634.71 279.675 610.116 293.328 579.319C306.981 548.523 298.713 517.239 274.175 491.551C249.639 465.865 208.87 445.818 157.672 437.527C157.413 437.485 157.289 437.256 157.395 437.015C157.502 436.775 157.799 436.614 158.058 436.656C209.412 444.973 250.349 465.086 275.011 490.905C299.671 516.72 308.093 548.284 294.268 579.471C280.442 610.659 247.036 635.449 204.324 650.353C161.608 665.259 109.517 670.307 58.1626 661.99C57.9031 661.948 57.7791 661.719 57.8856 661.478ZM62.8088 501.825C62.5606 501.911 62.5065 502.136 62.6881 502.326C62.8697 502.516 63.2182 502.6 63.4664 502.513C106.503 487.495 161.331 496.462 186.011 522.298C210.69 548.135 196.123 581.317 153.087 596.334C152.839 596.421 152.785 596.645 152.966 596.836C153.148 597.026 153.496 597.11 153.745 597.023C197.067 581.905 212.089 548.344 186.91 521.984C161.73 495.625 106.131 486.707 62.8088 501.825ZM131.643 511.047C115.405 507.415 96.8418 507.521 79.8213 512.251C79.568 512.321 79.2336 512.208 79.0744 511.999C78.9153 511.79 78.9916 511.563 79.2449 511.493C96.4394 506.715 115.228 506.596 131.72 510.285C148.211 513.974 162.446 521.484 170.425 531.974C170.584 532.183 170.508 532.41 170.255 532.48C170.002 532.551 169.667 532.438 169.508 532.229C161.757 522.039 147.883 514.68 131.643 511.047ZM126.379 544.354C126.22 544.145 125.886 544.032 125.632 544.103C125.379 544.173 125.303 544.4 125.462 544.609C127.593 547.411 127.669 550.502 125.986 553.25C124.304 555.998 120.873 558.376 116.076 559.709C115.823 559.779 115.746 560.006 115.905 560.215C116.065 560.424 116.399 560.537 116.652 560.467C121.624 559.085 125.217 556.612 126.993 553.711C128.769 550.811 128.739 547.457 126.379 544.354ZM108.441 572.521C108.441 572.784 108.228 572.997 107.965 572.997C97.2486 573 87.5211 570.379 80.4555 566.113C73.3989 561.853 68.9261 555.9 68.9201 549.235C68.9199 548.972 69.1328 548.759 69.3957 548.759C69.6586 548.759 69.8719 548.972 69.8722 549.235C69.8778 555.437 74.0448 561.131 80.9473 565.298C87.8408 569.46 97.3919 572.048 107.964 572.045C108.227 572.045 108.441 572.258 108.441 572.521ZM96.82 547.477C97.5847 545.752 99.4596 544.32 101.995 543.436C104.524 542.553 107.645 542.244 110.744 542.746C111.003 542.788 111.3 542.627 111.407 542.387C111.513 542.146 111.389 541.917 111.13 541.875C107.875 541.348 104.554 541.664 101.804 542.624C99.0596 543.581 96.8179 545.209 95.8802 547.325C94.9424 549.44 95.537 551.527 97.1215 553.186C98.7091 554.848 101.324 556.125 104.579 556.652C104.838 556.694 105.135 556.534 105.242 556.293C105.348 556.053 105.224 555.824 104.965 555.782C101.866 555.28 99.4188 554.069 97.9583 552.54C96.4948 551.008 96.0553 549.202 96.82 547.477ZM164.959 668.809C164.7 668.854 164.582 669.083 164.695 669.321C164.809 669.558 165.11 669.714 165.369 669.669C220.235 660.111 263.519 638.015 289.136 609.993C314.752 581.974 322.735 547.986 306.854 514.682C290.974 481.378 254.289 455.172 207.931 439.69C161.568 424.206 105.466 419.421 50.6009 428.979C50.3419 429.024 50.2236 429.253 50.3368 429.49C50.4499 429.727 50.7516 429.883 51.0106 429.838C105.719 420.308 161.617 425.088 207.756 440.497C253.9 455.907 290.218 481.922 305.916 514.845C321.615 547.769 313.775 581.476 288.278 609.365C262.784 637.252 219.668 659.28 164.959 668.809ZM93.3426 565.367C100.131 567.634 108.385 568.345 116.481 566.935C116.74 566.89 117.042 567.045 117.155 567.283C117.268 567.52 117.15 567.749 116.891 567.794C108.638 569.232 100.181 568.516 93.1682 566.174C86.1603 563.833 80.5304 559.842 78.0837 554.711C75.637 549.58 76.8888 544.389 80.761 540.154C84.6359 535.915 91.1653 532.589 99.4183 531.151C99.6773 531.106 99.979 531.262 100.092 531.499C100.205 531.737 100.087 531.966 99.8281 532.011C91.7325 533.421 85.3707 536.678 81.6196 540.781C77.8657 544.887 76.7566 549.797 79.0216 554.547C81.2866 559.298 86.549 563.098 93.3426 565.367ZM172.986 522.227C172.788 522.053 172.431 521.994 172.189 522.095C171.946 522.196 171.909 522.419 172.106 522.592C196.02 543.622 186.888 572.653 151.405 587.393C151.162 587.494 151.125 587.716 151.323 587.89C151.52 588.063 151.877 588.122 152.12 588.022C187.932 573.145 197.41 543.706 172.986 522.227ZM127.139 516.749C116.083 514.386 104.09 514.149 92.8041 516.069C81.5204 517.989 71.4751 521.975 64.0599 527.499C63.8491 527.656 63.8055 527.954 63.9626 528.165C64.1197 528.376 64.4179 528.42 64.6287 528.263C71.8974 522.848 81.7929 518.908 92.9638 517.008C104.132 515.108 116.004 515.343 126.94 517.68C137.879 520.018 147.319 524.338 153.977 530.023C160.633 535.706 164.157 542.448 164.157 549.313C164.157 549.576 164.37 549.789 164.633 549.789C164.896 549.789 165.109 549.576 165.109 549.313C165.109 542.101 161.404 535.112 154.595 529.299C147.789 523.487 138.191 519.111 127.139 516.749Z" fill="#444040"/>
<ellipse cx="195.824" cy="550.891" rx="195.767" ry="183.99" fill="url(#paint4_linear)"/>
<path d="M382.435 495.229C474.777 470.475 300.993 633.866 23.2411 643.197" stroke="url(#paint5_linear)" stroke-width="3"/>
<circle cx="616.852" cy="193.374" r="67.9494" fill="#3DCBFC"/>
<path fill-rule="evenodd" clip-rule="evenodd" d="M608.079 144.269C596.316 153.448 577.141 152.514 564.499 150.548C559.909 156.159 556.198 162.518 553.578 169.414C569.601 170.794 588.255 169.855 603.827 162.116C620.696 153.732 640.507 145.056 656.637 138.265C647.516 131.732 636.71 127.401 624.998 126.048C620.588 132.295 614.936 138.918 608.079 144.269ZM682.011 173.336C678.193 175.574 673.685 176.771 668.929 176.485C643.856 174.977 609.648 175.484 592.346 186.994C578.232 196.383 562.884 203.475 550.774 208.302C551.907 213.417 553.616 218.315 555.83 222.925C576.732 222.218 602.003 218.159 610.611 203.558C621.867 184.463 662.866 185.254 684.771 187.167C684.327 182.396 683.39 177.769 682.011 173.336ZM612.279 261.325C605.098 260.82 598.225 259.199 591.832 256.635C594.164 254.575 596.58 252.251 599.085 249.64C633.568 213.692 667.355 205.526 684.292 203.837C683.124 211.526 680.667 218.791 677.149 225.406C664.876 223.593 648.784 223.294 638.164 231.018C625.746 240.049 616.95 253.171 612.279 261.325Z" fill="#2988DD"/>
<circle cx="617.929" cy="192.927" r="69.0263" fill="url(#paint6_linear)"/>
<circle r="1.90417" transform="matrix(-1 0 0 1 595.799 334.776)" fill="white"/>
<circle r="1.23771" transform="matrix(-0.864031 0.503439 0.503439 0.864031 330.692 283.328)" fill="white"/>
<circle r="3" transform="matrix(-1 0 0 1 560 364.901)" fill="white"/>
<circle r="1.90417" transform="matrix(-0.864031 0.503439 0.503439 0.864031 341.508 196.128)" fill="white"/>
<circle r="0.952087" transform="matrix(-1 0 0 1 366.346 438.173)" fill="white"/>
<ellipse rx="2.819" ry="2.29242" transform="matrix(-0.950649 -0.310267 -0.523477 0.85204 887.415 230.409)" fill="white"/>
<circle r="1.90417" transform="matrix(-1 0 0 1 454.509 465.403)" fill="white"/>
<circle cx="440.093" cy="602.403" r="0.367921" transform="rotate(-30 440.093 602.403)" fill="white"/>
<circle cx="524.051" cy="160.752" r="0.367921" transform="rotate(-5.87752 524.051 160.752)" fill="white"/>
<circle cx="589.56" cy="217.23" r="0.367921" transform="rotate(-5.87752 589.56 217.23)" fill="white"/>
<circle cx="601.518" cy="232.91" r="0.367921" transform="rotate(-5.87752 601.518 232.91)" fill="white"/>
<circle r="0.275941" transform="matrix(-0.866025 0.5 0.5 0.866025 386.988 655.571)" fill="#161616"/>
<path d="M387.308 439.834C389.032 437.899 391.94 437.677 393.931 439.452C394.933 440.344 395.385 441.154 395.539 442.486C395.059 442.058 386.42 441.383 386.42 441.383C386.42 441.383 386.39 440.864 387.308 439.834Z" fill="#161616"/>
<circle r="0.782014" transform="matrix(-0.866025 0.5 0.5 0.866025 475.698 221.383)" fill="#161616"/>
<rect width="0.278279" height="0.278279" rx="0.0504786" transform="matrix(-0.995308 0.0967565 0.0967565 0.995308 374.176 445.672)" fill="white"/>
<rect width="0.558225" height="0.558225" rx="0.10126" transform="matrix(-0.995308 0.0967565 0.0967565 0.995308 405.309 657.686)" fill="white"/>
<rect width="0.484294" height="0.484294" rx="0.0917806" transform="matrix(-0.417767 0.908554 0.908554 0.417767 401.991 435.289)" fill="#161616"/>
<rect width="0.576434" height="0.576434" rx="0.117888" transform="matrix(-0.493118 0.869962 0.869962 0.493118 472.567 246.879)" fill="#161616"/>
<path d="M426.823 588.386C426.825 588.439 426.86 588.484 426.91 588.499L427.277 588.605C427.327 588.619 427.381 588.6 427.41 588.557L427.625 588.241C427.654 588.198 427.652 588.14 427.62 588.099L427.386 587.798C427.354 587.756 427.299 587.74 427.25 587.758L426.891 587.887C426.841 587.905 426.809 587.953 426.811 588.005L426.823 588.386Z" fill="white"/>
<path d="M380.318 160.415C380.346 160.46 380.399 160.481 380.45 160.468L380.82 160.376C380.871 160.363 380.907 160.319 380.911 160.267L380.937 159.886C380.941 159.834 380.91 159.785 380.862 159.766L380.508 159.623C380.459 159.604 380.404 159.617 380.37 159.658L380.125 159.95C380.091 159.99 380.088 160.048 380.115 160.092L380.318 160.415Z" fill="white"/>
<path d="M418.597 416.381C418.599 416.434 418.634 416.479 418.685 416.494L419.051 416.6C419.101 416.615 419.155 416.595 419.185 416.552L419.399 416.236C419.429 416.193 419.427 416.135 419.395 416.094L419.161 415.793C419.128 415.751 419.073 415.735 419.024 415.753L418.665 415.882C418.616 415.9 418.584 415.948 418.585 416L418.597 416.381Z" fill="white"/>
<path d="M395.29 151.692C395.318 151.736 395.371 151.758 395.422 151.745L395.792 151.652C395.843 151.639 395.88 151.595 395.883 151.543L395.909 151.163C395.913 151.11 395.883 151.062 395.834 151.042L395.48 150.9C395.432 150.88 395.376 150.894 395.342 150.934L395.097 151.227C395.064 151.267 395.06 151.324 395.088 151.368L395.29 151.692Z" fill="white"/>
<path d="M566.552 373.538C566.553 373.59 566.588 373.635 566.639 373.65L567.005 373.756C567.056 373.771 567.11 373.751 567.139 373.708L567.353 373.392C567.383 373.349 567.381 373.292 567.349 373.25L567.115 372.949C567.083 372.907 567.027 372.891 566.978 372.909L566.619 373.039C566.57 373.056 566.538 373.104 566.539 373.156L566.552 373.538Z" fill="white"/>
<path d="M441.94 648.722C441.942 648.775 441.977 648.82 442.027 648.835L442.394 648.941C442.444 648.955 442.498 648.936 442.528 648.893L442.742 648.577C442.771 648.534 442.769 648.476 442.737 648.435L442.503 648.134C442.471 648.092 442.416 648.076 442.367 648.094L442.008 648.223C441.959 648.241 441.926 648.289 441.928 648.341L441.94 648.722Z" fill="white"/>
<path d="M441.94 648.722C441.942 648.775 441.977 648.82 442.027 648.835L442.394 648.941C442.444 648.955 442.498 648.936 442.528 648.893L442.742 648.577C442.771 648.534 442.769 648.476 442.737 648.435L442.503 648.134C442.471 648.092 442.416 648.076 442.367 648.094L442.008 648.223C441.959 648.241 441.926 648.289 441.928 648.341L441.94 648.722Z" fill="white"/>
<path d="M660.26 417.143C660.262 417.196 660.297 417.241 660.347 417.255L660.714 417.362C660.764 417.376 660.818 417.357 660.847 417.313L661.062 416.998C661.091 416.954 661.089 416.897 661.057 416.856L660.823 416.554C660.791 416.513 660.736 416.497 660.687 416.515L660.328 416.644C660.278 416.662 660.246 416.709 660.248 416.762L660.26 417.143Z" fill="white"/>
<path d="M378.799 277.769C378.801 277.821 378.836 277.867 378.886 277.881L379.253 277.987C379.303 278.002 379.357 277.983 379.386 277.939L379.601 277.624C379.63 277.58 379.628 277.523 379.596 277.481L379.362 277.18C379.33 277.139 379.275 277.123 379.226 277.141L378.867 277.27C378.818 277.288 378.785 277.335 378.787 277.388L378.799 277.769Z" fill="white"/>
<circle r="1.23771" transform="matrix(-0.864031 0.503439 0.503439 0.864031 538.692 86.3277)" fill="white"/>
<path d="M586.799 80.7689C586.801 80.8212 586.836 80.8666 586.886 80.8812L587.253 80.9874C587.303 81.002 587.357 80.9825 587.386 80.9392L587.601 80.6235C587.63 80.5802 587.628 80.5228 587.596 80.4814L587.362 80.1801C587.33 80.1387 587.275 80.1227 587.226 80.1405L586.867 80.2699C586.818 80.2877 586.785 80.3352 586.787 80.3876L586.799 80.7689Z" fill="white"/>
<path d="M517.965 233.688C517.966 233.74 518.002 233.786 518.052 233.8L518.418 233.906C518.469 233.921 518.523 233.901 518.552 233.858L518.766 233.542C518.796 233.499 518.794 233.442 518.762 233.4L518.528 233.099C518.496 233.058 518.441 233.042 518.391 233.059L518.032 233.189C517.983 233.207 517.951 233.254 517.952 233.307L517.965 233.688Z" fill="white"/>
<path d="M670.352 397.911C670.354 397.963 670.389 398.009 670.44 398.023L670.806 398.13C670.856 398.144 670.91 398.125 670.94 398.081L671.154 397.766C671.183 397.722 671.182 397.665 671.149 397.624L670.915 397.322C670.883 397.281 670.828 397.265 670.779 397.283L670.42 397.412C670.371 397.43 670.339 397.477 670.34 397.53L670.352 397.911Z" fill="white"/>
<path d="M455.084 626.769C455.133 626.787 455.188 626.772 455.22 626.73L456.173 625.52C456.205 625.479 456.207 625.421 456.178 625.378L455.321 624.098C455.292 624.054 455.238 624.035 455.187 624.049L453.705 624.469C453.655 624.483 453.62 624.528 453.618 624.58L453.559 626.12C453.557 626.172 453.589 626.22 453.638 626.238L455.084 626.769Z" fill="white"/>
<path d="M279.225 257.849C279.226 257.901 279.262 257.946 279.312 257.961L281.403 258.567C281.453 258.582 281.507 258.563 281.537 258.519L282.759 256.718C282.789 256.675 282.787 256.617 282.755 256.576L281.42 254.856C281.387 254.815 281.332 254.799 281.283 254.817L279.235 255.555C279.186 255.573 279.154 255.62 279.155 255.673L279.225 257.849Z" fill="white"/>
<path d="M416.526 348.022C416.527 348.074 416.563 348.119 416.613 348.134L416.979 348.24C417.03 348.255 417.084 348.235 417.113 348.192L417.327 347.876C417.357 347.833 417.355 347.776 417.323 347.734L417.089 347.433C417.057 347.391 417.002 347.375 416.952 347.393L416.593 347.523C416.544 347.54 416.512 347.588 416.514 347.64L416.526 348.022Z" fill="white"/>
<path d="M380.318 160.415C380.346 160.46 380.399 160.481 380.45 160.468L380.82 160.376C380.871 160.363 380.907 160.319 380.911 160.267L380.937 159.886C380.941 159.834 380.91 159.785 380.862 159.766L380.508 159.623C380.459 159.604 380.404 159.617 380.37 159.658L380.125 159.95C380.091 159.99 380.088 160.048 380.115 160.092L380.318 160.415Z" fill="white"/>
<circle r="1.90417" transform="matrix(-1 0 0 1 212.867 247.184)" fill="white"/>
<path d="M264.38 235.866C264.381 235.918 264.417 235.963 264.467 235.978L264.833 236.084C264.884 236.099 264.938 236.079 264.967 236.036L265.181 235.72C265.211 235.677 265.209 235.62 265.177 235.578L264.943 235.277C264.911 235.236 264.856 235.22 264.806 235.237L264.447 235.367C264.398 235.385 264.366 235.432 264.368 235.484L264.38 235.866Z" fill="white"/>
<path d="M264.38 235.866C264.381 235.918 264.417 235.963 264.467 235.978L264.833 236.084C264.884 236.099 264.938 236.079 264.967 236.036L265.181 235.72C265.211 235.677 265.209 235.62 265.177 235.578L264.943 235.277C264.911 235.236 264.856 235.22 264.806 235.237L264.447 235.367C264.398 235.385 264.366 235.432 264.368 235.484L264.38 235.866Z" fill="white"/>
<circle r="1.23771" transform="matrix(-0.983046 0.183362 0.183362 0.983046 316.715 144.992)" fill="white"/>
<circle r="1.90417" transform="matrix(-0.983046 0.183362 0.183362 0.983046 362.205 139.122)" fill="white"/>
<path d="M448.336 121.172C448.347 121.223 448.39 121.261 448.442 121.266L448.822 121.303C448.874 121.308 448.923 121.279 448.944 121.231L449.097 120.882C449.118 120.834 449.106 120.778 449.066 120.743L448.781 120.49C448.742 120.455 448.685 120.449 448.64 120.476L448.311 120.669C448.265 120.695 448.242 120.748 448.254 120.799L448.336 121.172Z" fill="white"/>
<path d="M298.336 143.008C298.347 143.059 298.39 143.097 298.442 143.102L298.822 143.14C298.874 143.145 298.923 143.116 298.944 143.068L299.097 142.718C299.118 142.67 299.106 142.614 299.066 142.579L298.781 142.326C298.742 142.291 298.685 142.285 298.64 142.312L298.311 142.505C298.265 142.532 298.242 142.584 298.254 142.635L298.336 143.008Z" fill="white"/>
<path d="M448.336 121.172C448.347 121.223 448.39 121.261 448.442 121.266L448.822 121.303C448.874 121.308 448.923 121.279 448.944 121.231L449.097 120.882C449.118 120.834 449.106 120.778 449.066 120.743L448.781 120.49C448.742 120.455 448.685 120.449 448.64 120.476L448.311 120.669C448.265 120.695 448.242 120.748 448.254 120.799L448.336 121.172Z" fill="white"/>
<path d="M426.823 588.386C426.825 588.439 426.86 588.484 426.91 588.499L427.277 588.605C427.327 588.619 427.381 588.6 427.41 588.557L427.625 588.241C427.654 588.198 427.652 588.14 427.62 588.099L427.386 587.798C427.354 587.756 427.299 587.74 427.25 587.758L426.891 587.887C426.841 587.905 426.809 587.953 426.811 588.005L426.823 588.386Z" fill="white"/>
<path d="M426.469 561.337C426.464 561.362 426.476 561.388 426.499 561.4L426.665 561.492C426.688 561.504 426.716 561.5 426.735 561.483L426.873 561.353C426.892 561.335 426.897 561.307 426.886 561.284L426.805 561.113C426.794 561.089 426.769 561.075 426.743 561.079L426.555 561.102C426.53 561.106 426.509 561.125 426.504 561.151L426.469 561.337Z" fill="white"/>
<path d="M566.94 223.166C566.887 223.171 566.844 223.21 566.833 223.261L566.751 223.633C566.74 223.685 566.763 223.737 566.808 223.764L567.137 223.957C567.182 223.983 567.24 223.978 567.279 223.943L567.564 223.69C567.603 223.655 567.616 223.599 567.595 223.551L567.442 223.201C567.421 223.153 567.371 223.124 567.319 223.129L566.94 223.166Z" fill="white"/>
<path d="M385.053 628.184C385.018 628.204 384.999 628.245 385.007 628.285L385.068 628.576C385.076 628.616 385.109 628.647 385.15 628.651L385.446 628.684C385.486 628.688 385.525 628.666 385.542 628.629L385.664 628.357C385.681 628.32 385.672 628.276 385.642 628.249L385.422 628.049C385.391 628.021 385.347 628.016 385.311 628.037L385.053 628.184Z" fill="#161616"/>
<circle r="1.23771" transform="matrix(-1 0 0 1 517.514 120.139)" fill="white"/>
<circle r="1.90417" transform="matrix(-1 0 0 1 549.875 159)" fill="white"/>
<circle cx="470.503" cy="177.646" r="0.367921" transform="rotate(-30 470.503 177.646)" fill="white"/>
<path d="M563.393 557.359C563.421 557.403 563.474 557.425 563.525 557.412L563.895 557.319C563.946 557.307 563.983 557.263 563.986 557.21L564.013 556.83C564.016 556.777 563.986 556.729 563.937 556.709L563.583 556.567C563.535 556.547 563.479 556.561 563.445 556.601L563.2 556.894C563.167 556.934 563.163 556.991 563.191 557.036L563.393 557.359Z" fill="white"/>
<path d="M616.439 526.839C616.45 526.89 616.493 526.928 616.545 526.933L616.925 526.97C616.977 526.975 617.026 526.946 617.047 526.898L617.2 526.549C617.221 526.501 617.209 526.445 617.169 526.41L616.884 526.157C616.845 526.122 616.788 526.116 616.743 526.143L616.414 526.336C616.368 526.362 616.345 526.415 616.357 526.466L616.439 526.839Z" fill="white"/>
<path d="M616.439 526.839C616.45 526.89 616.493 526.928 616.545 526.933L616.925 526.97C616.977 526.975 617.026 526.946 617.047 526.898L617.2 526.549C617.221 526.501 617.209 526.445 617.169 526.41L616.884 526.157C616.845 526.122 616.788 526.116 616.743 526.143L616.414 526.336C616.368 526.362 616.345 526.415 616.357 526.466L616.439 526.839Z" fill="white"/>
<circle cx="638.606" cy="583.313" r="0.367921" transform="rotate(-30 638.606 583.313)" fill="white"/>
<path d="M446.393 528.359C446.421 528.403 446.474 528.425 446.525 528.412L446.895 528.319C446.946 528.307 446.983 528.263 446.986 528.21L447.013 527.83C447.016 527.777 446.986 527.729 446.937 527.709L446.583 527.567C446.535 527.547 446.479 527.561 446.445 527.601L446.2 527.894C446.167 527.934 446.163 527.991 446.191 528.036L446.393 528.359Z" fill="white"/>
<path d="M499.439 497.839C499.45 497.89 499.493 497.928 499.545 497.933L499.925 497.97C499.977 497.975 500.026 497.946 500.047 497.898L500.2 497.549C500.221 497.501 500.209 497.445 500.169 497.41L499.884 497.157C499.845 497.122 499.788 497.116 499.743 497.143L499.414 497.336C499.368 497.362 499.345 497.415 499.357 497.466L499.439 497.839Z" fill="white"/>
<path d="M499.439 497.839C499.45 497.89 499.493 497.928 499.545 497.933L499.925 497.97C499.977 497.975 500.026 497.946 500.047 497.898L500.2 497.549C500.221 497.501 500.209 497.445 500.169 497.41L499.884 497.157C499.845 497.122 499.788 497.116 499.743 497.143L499.414 497.336C499.368 497.362 499.345 497.415 499.357 497.466L499.439 497.839Z" fill="white"/>
<circle cx="521.606" cy="554.313" r="0.367921" transform="rotate(-30 521.606 554.313)" fill="white"/>
<circle cx="470.627" cy="220.908" r="0.367921" transform="rotate(-30 470.627 220.908)" fill="white"/>
<rect width="0.484294" height="0.484294" rx="0.0917806" transform="matrix(0.0964381 0.995339 0.995339 -0.0964381 312.655 155.608)" fill="#161616"/>
<path d="M488.447 219.469C488.449 219.521 488.484 219.567 488.534 219.581L488.901 219.687C488.951 219.702 489.005 219.682 489.034 219.639L489.249 219.323C489.278 219.28 489.276 219.223 489.244 219.181L489.01 218.88C488.978 218.839 488.923 218.823 488.874 218.84L488.515 218.97C488.465 218.988 488.433 219.035 488.435 219.088L488.447 219.469Z" fill="white"/>
<path d="M337.031 143.132C337.01 143.167 337.015 143.212 337.042 143.242L337.241 143.464C337.268 143.494 337.312 143.503 337.349 143.487L337.621 143.366C337.659 143.349 337.681 143.311 337.677 143.27L337.646 142.974C337.642 142.933 337.612 142.9 337.572 142.892L337.281 142.829C337.241 142.821 337.2 142.839 337.18 142.874L337.031 143.132Z" fill="#161616"/>
<circle r="1.23771" transform="matrix(-1 0 0 1 382.647 632.248)" fill="white"/>
<circle cx="349.071" cy="653.464" r="0.367921" transform="rotate(-30 349.071 653.464)" fill="white"/>
<path d="M364.943 626.927C364.945 626.979 364.98 627.025 365.03 627.039L365.397 627.146C365.447 627.16 365.501 627.141 365.531 627.097L365.745 626.782C365.774 626.738 365.772 626.681 365.74 626.64L365.506 626.338C365.474 626.297 365.419 626.281 365.37 626.299L365.011 626.428C364.962 626.446 364.929 626.493 364.931 626.546L364.943 626.927Z" fill="white"/>
<circle r="1.23771" transform="matrix(-1 0 0 1 546.842 522.898)" fill="white"/>
<circle r="1.90417" transform="matrix(-1 0 0 1 676.158 480.446)" fill="white"/>
<ellipse rx="0.391205" ry="0.379042" transform="matrix(0.879179 -0.476492 0.523882 0.851791 507.431 675.716)" fill="white"/>
<ellipse rx="0.391205" ry="0.379042" transform="matrix(0.879179 -0.476492 0.523882 0.851791 503.565 715.366)" fill="white"/>
<path d="M492.026 733.672C493.886 731.712 497.025 731.487 499.175 733.285C500.256 734.189 500.745 735.01 500.911 736.36C500.392 735.926 491.068 735.242 491.068 735.242C491.068 735.242 491.035 734.716 492.026 733.672Z" fill="#161616"/>
<rect width="0.496471" height="0.517316" rx="0.0917806" transform="matrix(-0.439891 0.898051 0.918122 0.396298 507.875 729.067)" fill="#161616"/>
<path d="M532.201 774.902C532.23 774.945 532.286 774.963 532.338 774.947L532.737 774.825C532.788 774.809 532.825 774.764 532.828 774.714L532.853 774.31C532.857 774.258 532.825 774.212 532.775 774.196L532.393 774.071C532.343 774.054 532.286 774.071 532.252 774.113L531.988 774.439C531.955 774.48 531.952 774.535 531.98 774.577L532.201 774.902Z" fill="white"/>
<path d="M529.138 517.577C529.14 517.63 529.175 517.675 529.225 517.69L529.592 517.796C529.642 517.81 529.696 517.791 529.725 517.748L529.94 517.432C529.969 517.389 529.967 517.331 529.935 517.29L529.701 516.988C529.669 516.947 529.614 516.931 529.565 516.949L529.206 517.078C529.156 517.096 529.124 517.144 529.126 517.196L529.138 517.577Z" fill="white"/>
<path d="M271.336 337.839C271.347 337.89 271.39 337.928 271.442 337.933L271.822 337.97C271.874 337.975 271.923 337.946 271.944 337.898L272.097 337.549C272.118 337.501 272.106 337.445 272.066 337.41L271.781 337.157C271.742 337.122 271.685 337.116 271.64 337.143L271.311 337.336C271.265 337.362 271.242 337.415 271.254 337.466L271.336 337.839Z" fill="white"/>
<path d="M271.336 337.839C271.347 337.89 271.39 337.928 271.442 337.933L271.822 337.97C271.874 337.975 271.923 337.946 271.944 337.898L272.097 337.549C272.118 337.501 272.106 337.445 272.066 337.41L271.781 337.157C271.742 337.122 271.685 337.116 271.64 337.143L271.311 337.336C271.265 337.362 271.242 337.415 271.254 337.466L271.336 337.839Z" fill="white"/>
<path d="M301.035 357.577C301.037 357.63 301.072 357.675 301.122 357.69L301.489 357.796C301.539 357.81 301.593 357.791 301.622 357.748L301.837 357.432C301.866 357.389 301.864 357.331 301.832 357.29L301.598 356.988C301.566 356.947 301.511 356.931 301.462 356.949L301.103 357.078C301.053 357.096 301.021 357.144 301.023 357.196L301.035 357.577Z" fill="white"/>
<path d="M360.336 769.839C360.347 769.89 360.39 769.928 360.442 769.933L360.822 769.97C360.874 769.975 360.923 769.946 360.944 769.898L361.097 769.549C361.118 769.501 361.106 769.445 361.066 769.41L360.781 769.157C360.742 769.122 360.685 769.116 360.64 769.143L360.311 769.336C360.265 769.362 360.242 769.415 360.254 769.466L360.336 769.839Z" fill="white"/>
<path d="M360.336 769.839C360.347 769.89 360.39 769.928 360.442 769.933L360.822 769.97C360.874 769.975 360.923 769.946 360.944 769.898L361.097 769.549C361.118 769.501 361.106 769.445 361.066 769.41L360.781 769.157C360.742 769.122 360.685 769.116 360.64 769.143L360.311 769.336C360.265 769.362 360.242 769.415 360.254 769.466L360.336 769.839Z" fill="white"/>
<path d="M390.035 789.577C390.037 789.63 390.072 789.675 390.122 789.69L390.489 789.796C390.539 789.81 390.593 789.791 390.622 789.748L390.837 789.432C390.866 789.389 390.864 789.331 390.832 789.29L390.598 788.988C390.566 788.947 390.511 788.931 390.462 788.949L390.103 789.078C390.053 789.096 390.021 789.144 390.023 789.196L390.035 789.577Z" fill="white"/>
<path d="M553.034 786.192C553.013 786.229 553.018 786.275 553.047 786.305L553.263 786.523C553.291 786.55 553.333 786.557 553.369 786.539L553.666 786.392C553.703 786.373 553.726 786.333 553.721 786.292L553.686 785.987C553.681 785.946 553.65 785.914 553.61 785.908L553.291 785.862C553.252 785.857 553.213 785.877 553.193 785.912L553.034 786.192Z" fill="#161616"/>
<path d="M395.453 643.478C395.397 643.484 395.368 643.547 395.401 643.593L395.668 643.964C395.701 644.01 395.77 644.003 395.793 643.952L395.982 643.534C396.005 643.484 395.964 643.427 395.908 643.433L395.453 643.478Z" fill="#161616"/>
<path d="M402.812 331.579V366.901H392.992V347.411L386.329 366.901H378.112L371.398 347.261V366.901H361.578V331.579H373.452L382.32 354.526L390.988 331.579H402.812ZM406.799 352.822C406.799 349.916 407.317 347.378 408.352 345.207C409.421 343.036 410.857 341.365 412.661 340.196C414.498 339.027 416.535 338.443 418.773 338.443C420.711 338.443 422.381 338.827 423.784 339.595C425.186 340.363 426.272 341.399 427.04 342.702V338.794H436.86V366.901H427.04V362.993C426.272 364.296 425.17 365.331 423.733 366.099C422.331 366.867 420.677 367.252 418.773 367.252C416.535 367.252 414.498 366.667 412.661 365.498C410.857 364.329 409.421 362.659 408.352 360.488C407.317 358.283 406.799 355.728 406.799 352.822ZM427.04 352.822C427.04 351.018 426.539 349.599 425.537 348.563C424.568 347.528 423.366 347.01 421.93 347.01C420.46 347.01 419.241 347.528 418.272 348.563C417.304 349.566 416.819 350.985 416.819 352.822C416.819 354.626 417.304 356.062 418.272 357.131C419.241 358.166 420.46 358.684 421.93 358.684C423.366 358.684 424.568 358.166 425.537 357.131C426.539 356.096 427.04 354.659 427.04 352.822ZM472.718 338.794L454.881 380.278H444.21L450.923 365.698L439.4 338.794H450.322L456.234 354.726L461.946 338.794H472.718ZM492.873 366.901L485.107 355.377V366.901H475.287V329.825H485.107V349.816L492.873 338.794H504.647L493.574 352.922L504.847 366.901H492.873ZM534.581 352.522C534.581 353.29 534.531 354.058 534.43 354.826H515.842C515.943 356.363 516.36 357.515 517.095 358.283C517.863 359.018 518.832 359.386 520.001 359.386C521.638 359.386 522.807 358.651 523.508 357.181H533.979C533.545 359.118 532.693 360.855 531.424 362.392C530.188 363.895 528.619 365.08 526.715 365.949C524.811 366.817 522.706 367.252 520.402 367.252C517.629 367.252 515.158 366.667 512.987 365.498C510.849 364.329 509.162 362.659 507.926 360.488C506.724 358.317 506.123 355.761 506.123 352.822C506.123 349.883 506.724 347.344 507.926 345.207C509.129 343.036 510.799 341.365 512.937 340.196C515.108 339.027 517.596 338.443 520.402 338.443C523.174 338.443 525.629 339.011 527.767 340.146C529.904 341.282 531.575 342.919 532.777 345.056C533.979 347.161 534.581 349.649 534.581 352.522ZM524.56 350.067C524.56 348.864 524.159 347.929 523.358 347.261C522.556 346.559 521.554 346.209 520.352 346.209C519.149 346.209 518.164 346.543 517.396 347.211C516.627 347.845 516.126 348.797 515.893 350.067H524.56ZM548.419 343.754C549.522 342.15 550.858 340.881 552.428 339.946C553.998 339.011 555.684 338.543 557.488 338.543V349.014H554.732C552.595 349.014 551.008 349.432 549.973 350.267C548.937 351.102 548.419 352.555 548.419 354.626V366.901H538.599V338.794H548.419V343.754Z" fill="white"/>
<path d="M465.595 390.437L465.434 390.785L465.439 390.787L465.595 390.437ZM462.937 388.367L462.629 388.594L462.632 388.599L462.937 388.367ZM461.886 385.493V385.11H461.48L461.504 385.515L461.886 385.493ZM466.244 385.493L466.624 385.445L466.582 385.11H466.244V385.493ZM467.202 387.131L466.967 387.433L466.972 387.437L467.202 387.131ZM471.25 387.285L471.031 386.971L471.025 386.975L471.25 387.285ZM471.096 384.782L470.919 385.122L470.927 385.126L470.934 385.129L471.096 384.782ZM468.407 383.855L468.506 383.485L468.497 383.483L468.407 383.855ZM465.255 382.897L465.109 383.251L465.113 383.252L465.255 382.897ZM463.153 381.382L462.861 381.63L462.866 381.635L463.153 381.382ZM463.091 376.036L462.779 375.814L462.775 375.82L463.091 376.036ZM465.44 374.182L465.286 373.831L465.283 373.832L465.44 374.182ZM473.939 375.047L473.691 375.339L473.694 375.342L473.939 375.047ZM475.948 379.157V379.54H476.359L476.329 379.13L475.948 379.157ZM471.806 379.157L471.425 379.192L471.457 379.54H471.806V379.157ZM470.941 377.55L470.696 377.844L470.703 377.85L470.709 377.855L470.941 377.55ZM467.109 377.365L466.897 377.046L466.889 377.051L467.109 377.365ZM467.356 379.899L467.175 380.237L467.185 380.241L467.356 379.899ZM470.045 380.795L469.951 381.166L469.952 381.167L470.045 380.795ZM475.175 383.298L474.879 383.542L474.887 383.551L475.175 383.298ZM476.102 386.018H476.485L476.485 386.011L476.102 386.018ZM475.268 388.676L474.956 388.454L474.952 388.46L475.268 388.676ZM472.919 390.53L473.07 390.882L473.073 390.88L472.919 390.53ZM469.365 390.796C468.01 390.796 466.807 390.557 465.75 390.087L465.439 390.787C466.608 391.306 467.918 391.562 469.365 391.562V390.796ZM465.756 390.09C464.692 389.598 463.858 388.944 463.241 388.135L462.632 388.599C463.334 389.52 464.272 390.247 465.434 390.785L465.756 390.09ZM463.245 388.139C462.649 387.332 462.326 386.445 462.268 385.47L461.504 385.515C461.57 386.642 461.947 387.67 462.629 388.594L463.245 388.139ZM461.886 385.876H466.244V385.11H461.886V385.876ZM465.864 385.54C465.96 386.307 466.336 386.942 466.967 387.433L467.437 386.828C466.955 386.454 466.693 385.997 466.624 385.445L465.864 385.54ZM466.972 387.437C467.626 387.927 468.421 388.162 469.334 388.162V387.397C468.558 387.397 467.931 387.199 467.431 386.824L466.972 387.437ZM469.334 388.162C470.203 388.162 470.932 387.99 471.475 387.595L471.025 386.975C470.661 387.24 470.114 387.397 469.334 387.397V388.162ZM471.469 387.599C472.031 387.208 472.344 386.675 472.344 386.018H471.578C471.578 386.391 471.417 386.703 471.032 386.971L471.469 387.599ZM472.344 386.018C472.344 385.67 472.252 385.349 472.058 385.072C471.866 384.798 471.591 384.589 471.257 384.435L470.934 385.129C471.178 385.242 471.334 385.373 471.431 385.511C471.525 385.646 471.578 385.81 471.578 386.018H472.344ZM471.272 384.442C470.677 384.133 469.747 383.816 468.506 383.485L468.308 384.225C469.539 384.553 470.402 384.853 470.919 385.122L471.272 384.442ZM468.497 383.483C467.23 383.176 466.198 382.862 465.397 382.541L465.113 383.252C465.96 383.591 467.029 383.915 468.317 384.227L468.497 383.483ZM465.4 382.542C464.653 382.236 464.001 381.767 463.441 381.13L462.866 381.635C463.5 382.357 464.249 382.898 465.109 383.251L465.4 382.542ZM463.445 381.135C462.942 380.542 462.671 379.722 462.671 378.632H461.905C461.905 379.849 462.21 380.863 462.861 381.63L463.445 381.135ZM462.671 378.632C462.671 377.761 462.915 376.971 463.407 376.252L462.775 375.82C462.196 376.666 461.905 377.607 461.905 378.632H462.671ZM463.404 376.258C463.915 375.538 464.64 374.961 465.597 374.531L465.283 373.832C464.221 374.309 463.381 374.968 462.779 375.814L463.404 376.258ZM465.594 374.532C466.566 374.105 467.717 373.885 469.056 373.885V373.119C467.634 373.119 466.374 373.352 465.286 373.831L465.594 374.532ZM469.056 373.885C471.031 373.885 472.562 374.382 473.691 375.339L474.186 374.755C472.884 373.651 471.16 373.119 469.056 373.119V373.885ZM473.694 375.342C474.821 376.278 475.449 377.547 475.566 379.185L476.329 379.13C476.199 377.307 475.488 375.836 474.183 374.752L473.694 375.342ZM475.948 378.774H471.806V379.54H475.948V378.774ZM472.188 379.123C472.117 378.342 471.779 377.706 471.173 377.245L470.709 377.855C471.134 378.178 471.372 378.612 471.425 379.192L472.188 379.123ZM471.186 377.256C470.604 376.771 469.838 376.549 468.932 376.549V377.315C469.716 377.315 470.289 377.505 470.696 377.844L471.186 377.256ZM468.932 376.549C468.11 376.549 467.416 376.7 466.897 377.046L467.321 377.683C467.667 377.453 468.189 377.315 468.932 377.315V376.549ZM466.889 377.051C466.372 377.413 466.108 377.934 466.108 378.57H466.874C466.874 378.176 467.022 377.893 467.329 377.678L466.889 377.051ZM466.108 378.57C466.108 378.926 466.198 379.255 466.386 379.544C466.573 379.831 466.844 380.059 467.175 380.236L467.537 379.561C467.292 379.43 467.13 379.282 467.028 379.126C466.928 378.972 466.874 378.791 466.874 378.57H466.108ZM467.185 380.241C467.8 380.549 468.728 380.856 469.951 381.166L470.139 380.424C468.93 380.117 468.066 379.826 467.527 379.557L467.185 380.241ZM469.952 381.167C471.178 381.473 472.178 381.787 472.959 382.107L473.25 381.399C472.423 381.06 471.384 380.735 470.138 380.424L469.952 381.167ZM472.959 382.107C473.701 382.412 474.341 382.888 474.879 383.542L475.471 383.055C474.855 382.308 474.114 381.754 473.25 381.399L472.959 382.107ZM474.887 383.551C475.411 384.147 475.7 384.959 475.719 386.025L476.485 386.011C476.463 384.811 476.134 383.809 475.463 383.046L474.887 383.551ZM475.719 386.018C475.719 386.93 475.464 387.738 474.956 388.454L475.58 388.898C476.184 388.048 476.485 387.084 476.485 386.018H475.719ZM474.952 388.46C474.463 389.173 473.742 389.75 472.765 390.18L473.073 390.88C474.156 390.404 475.001 389.744 475.584 388.892L474.952 388.46ZM472.768 390.178C471.816 390.586 470.685 390.796 469.365 390.796V391.562C470.765 391.562 472.003 391.339 473.07 390.882L472.768 390.178ZM483.98 376.252H483.597V377.452L484.292 376.474L483.98 376.252ZM486.267 374.305L486.447 374.643L486.45 374.642L486.267 374.305ZM493.592 374.583L493.391 374.91L493.394 374.911L493.592 374.583ZM496.404 377.674L496.062 377.847L496.066 377.853L496.404 377.674ZM496.404 386.945L496.063 386.77L496.062 386.772L496.404 386.945ZM493.592 390.066L493.39 389.741L493.387 389.743L493.592 390.066ZM486.298 390.406L486.115 390.743L486.118 390.744L486.298 390.406ZM483.98 388.459L484.285 388.227L483.597 387.327V388.459H483.98ZM483.98 399.06V399.442H484.363V399.06H483.98ZM479.654 399.06H479.271V399.442H479.654V399.06ZM479.654 373.78V373.397H479.271V373.78H479.654ZM483.98 373.78H484.363V373.397H483.98V373.78ZM492.386 379.621L492.049 379.803L492.056 379.814L492.386 379.621ZM490.717 377.89L490.526 378.222L490.531 378.224L490.717 377.89ZM486.267 377.921L486.458 378.253L486.461 378.251L486.267 377.921ZM484.598 379.652L484.265 379.463L484.262 379.47L484.598 379.652ZM484.598 385.029L484.261 385.211L484.265 385.218L484.598 385.029ZM486.267 386.791L486.069 387.118L486.08 387.125L486.267 386.791ZM490.717 386.76L490.523 386.43L490.519 386.432L490.717 386.76ZM492.386 384.998L492.053 384.809L492.049 384.816L492.386 384.998ZM484.292 376.474C484.81 375.746 485.524 375.134 486.447 374.643L486.087 373.967C485.074 374.506 484.264 375.193 483.668 376.031L484.292 376.474ZM486.45 374.642C487.376 374.14 488.435 373.885 489.636 373.885V373.119C488.323 373.119 487.136 373.399 486.085 373.969L486.45 374.642ZM489.636 373.885C491.032 373.885 492.281 374.228 493.391 374.91L493.792 374.257C492.553 373.497 491.165 373.119 489.636 373.119V373.885ZM493.394 374.911C494.523 375.592 495.412 376.567 496.062 377.847L496.745 377.501C496.035 376.102 495.05 375.017 493.789 374.256L493.394 374.911ZM496.066 377.853C496.732 379.108 497.072 380.579 497.072 382.279H497.837C497.837 380.476 497.477 378.877 496.742 377.494L496.066 377.853ZM497.072 382.279C497.072 383.978 496.732 385.472 496.063 386.77L496.744 387.12C497.476 385.699 497.837 384.082 497.837 382.279H497.072ZM496.062 386.772C495.412 388.053 494.521 389.039 493.39 389.741L493.793 390.392C495.052 389.611 496.036 388.516 496.745 387.118L496.062 386.772ZM493.387 389.743C492.277 390.444 491.03 390.796 489.636 390.796V391.562C491.167 391.562 492.557 391.173 493.796 390.39L493.387 389.743ZM489.636 390.796C488.432 390.796 487.383 390.55 486.478 390.068L486.118 390.744C487.15 391.293 488.326 391.562 489.636 391.562V390.796ZM486.481 390.07C485.576 389.578 484.846 388.963 484.285 388.227L483.676 388.692C484.309 389.521 485.125 390.204 486.115 390.743L486.481 390.07ZM483.597 388.459V399.06H484.363V388.459H483.597ZM483.98 398.677H479.654V399.442H483.98V398.677ZM480.037 399.06V373.78H479.271V399.06H480.037ZM479.654 374.163H483.98V373.397H479.654V374.163ZM483.597 373.78V376.252H484.363V373.78H483.597ZM493.418 382.279C493.418 381.194 493.19 380.239 492.717 379.428L492.056 379.814C492.448 380.486 492.652 381.303 492.652 382.279H493.418ZM492.723 379.439C492.279 378.618 491.673 377.986 490.904 377.556L490.531 378.224C491.163 378.578 491.669 379.099 492.049 379.803L492.723 379.439ZM490.908 377.558C490.169 377.133 489.361 376.92 488.492 376.92V377.686C489.23 377.686 489.906 377.865 490.526 378.222L490.908 377.558ZM488.492 376.92C487.638 376.92 486.83 377.146 486.073 377.591L486.461 378.251C487.105 377.872 487.78 377.686 488.492 377.686V376.92ZM486.076 377.589C485.33 378.019 484.728 378.648 484.265 379.463L484.931 379.841C485.334 379.131 485.844 378.606 486.458 378.253L486.076 377.589ZM484.262 379.47C483.814 380.298 483.597 381.259 483.597 382.34H484.363C484.363 381.362 484.559 380.531 484.935 379.834L484.262 379.47ZM483.597 382.34C483.597 383.422 483.814 384.383 484.262 385.211L484.935 384.847C484.559 384.15 484.363 383.319 484.363 382.34H483.597ZM484.265 385.218C484.727 386.031 485.327 386.669 486.069 387.118L486.466 386.463C485.847 386.088 485.335 385.551 484.931 384.84L484.265 385.218ZM486.08 387.125C486.837 387.547 487.642 387.761 488.492 387.761V386.995C487.776 386.995 487.099 386.817 486.454 386.456L486.08 387.125ZM488.492 387.761C489.365 387.761 490.175 387.536 490.916 387.087L490.519 386.432C489.9 386.808 489.227 386.995 488.492 386.995V387.761ZM490.912 387.09C491.676 386.64 492.28 386 492.723 385.18L492.049 384.816C491.668 385.521 491.16 386.055 490.523 386.43L490.912 387.09ZM492.719 385.187C493.191 384.357 493.418 383.382 493.418 382.279H492.652C492.652 383.276 492.447 384.115 492.053 384.809L492.719 385.187ZM500.506 377.674L500.167 377.496L500.164 377.501L500.506 377.674ZM503.318 374.583L503.12 374.256L503.118 374.257L503.318 374.583ZM510.642 374.274L510.46 374.611L510.463 374.612L510.642 374.274ZM512.96 376.221L512.652 376.448L513.343 377.386V376.221H512.96ZM512.96 373.78V373.397H512.577V373.78H512.96ZM517.318 373.78H517.701V373.397H517.318V373.78ZM517.318 390.901V391.284H517.701V390.901H517.318ZM512.96 390.901H512.577V391.284H512.96V390.901ZM512.96 388.398H513.343V387.172L512.645 388.18L512.96 388.398ZM510.642 390.406L510.822 390.744L510.825 390.743L510.642 390.406ZM503.318 390.066L503.114 390.39L503.116 390.392L503.318 390.066ZM500.506 386.945L500.163 387.116L500.167 387.123L500.506 386.945ZM512.342 379.652L512.005 379.834L512.008 379.838L512.342 379.652ZM510.673 377.921L510.479 378.251L510.487 378.255L510.673 377.921ZM506.192 377.89L506.001 377.558L506.001 377.558L506.192 377.89ZM504.523 379.621L504.19 379.432L504.189 379.435L504.523 379.621ZM504.523 384.998L504.184 385.177L504.19 385.187L504.523 384.998ZM506.192 386.76L505.994 387.087L505.998 387.09L506.192 386.76ZM510.673 386.791L510.86 387.125L510.867 387.121L510.673 386.791ZM512.342 385.06L512.677 385.246L512.679 385.242L512.342 385.06ZM499.869 382.279C499.869 380.599 500.199 379.125 500.847 377.847L500.164 377.501C499.453 378.901 499.103 380.497 499.103 382.279H499.869ZM500.845 377.851C501.517 376.567 502.409 375.591 503.518 374.91L503.118 374.257C501.879 375.018 500.896 376.102 500.167 377.496L500.845 377.851ZM503.516 374.911C504.648 374.228 505.908 373.885 507.305 373.885V373.119C505.776 373.119 504.378 373.497 503.12 374.256L503.516 374.911ZM507.305 373.885C508.53 373.885 509.578 374.131 510.46 374.611L510.825 373.938C509.812 373.387 508.634 373.119 507.305 373.119V373.885ZM510.463 374.612C511.387 375.104 512.113 375.717 512.652 376.448L513.269 375.994C512.654 375.16 511.835 374.475 510.822 373.936L510.463 374.612ZM513.343 376.221V373.78H512.577V376.221H513.343ZM512.96 374.163H517.318V373.397H512.96V374.163ZM516.935 373.78V390.901H517.701V373.78H516.935ZM517.318 390.518H512.96V391.284H517.318V390.518ZM513.343 390.901V388.398H512.577V390.901H513.343ZM512.645 388.18C512.128 388.927 511.404 389.558 510.46 390.07L510.825 390.743C511.859 390.183 512.68 389.475 513.275 388.616L512.645 388.18ZM510.463 390.068C509.558 390.55 508.499 390.796 507.274 390.796V391.562C508.604 391.562 509.79 391.293 510.822 390.744L510.463 390.068ZM507.274 390.796C505.901 390.796 504.653 390.444 503.52 389.741L503.116 390.392C504.373 391.172 505.762 391.562 507.274 391.562V390.796ZM503.523 389.743C502.41 389.04 501.517 388.053 500.845 386.768L500.167 387.123C500.896 388.516 501.877 389.609 503.114 390.39L503.523 389.743ZM500.848 386.774C500.199 385.475 499.869 383.979 499.869 382.279H499.103C499.103 384.08 499.453 385.696 500.163 387.116L500.848 386.774ZM513.343 382.34C513.343 381.24 513.127 380.276 512.677 379.466L512.008 379.838C512.381 380.51 512.577 381.339 512.577 382.34H513.343ZM512.679 379.47C512.235 378.649 511.629 378.017 510.86 377.587L510.487 378.255C511.119 378.608 511.625 379.13 512.005 379.834L512.679 379.47ZM510.867 377.591C510.109 377.145 509.29 376.92 508.417 376.92V377.686C509.152 377.686 509.837 377.873 510.479 378.251L510.867 377.591ZM508.417 376.92C507.548 376.92 506.741 377.133 506.001 377.558L506.383 378.222C507.004 377.865 507.679 377.686 508.417 377.686V376.92ZM506.001 377.558C505.255 377.988 504.653 378.617 504.19 379.432L504.856 379.81C505.259 379.1 505.769 378.575 506.383 378.222L506.001 377.558ZM504.189 379.435C503.739 380.244 503.522 381.197 503.522 382.279H504.288C504.288 381.3 504.484 380.481 504.858 379.807L504.189 379.435ZM503.522 382.279C503.522 383.361 503.739 384.33 504.185 385.176L504.862 384.82C504.484 384.1 504.288 383.257 504.288 382.279H503.522ZM504.19 385.187C504.652 386 505.252 386.638 505.994 387.087L506.391 386.432C505.772 386.058 505.26 385.521 504.856 384.809L504.19 385.187ZM505.998 387.09C506.755 387.535 507.564 387.761 508.417 387.761V386.995C507.705 386.995 507.03 386.809 506.386 386.43L505.998 387.09ZM508.417 387.761C509.286 387.761 510.102 387.548 510.86 387.125L510.487 386.456C509.843 386.816 509.156 386.995 508.417 386.995V387.761ZM510.867 387.121C511.629 386.672 512.233 386.045 512.677 385.246L512.008 384.874C511.627 385.559 511.118 386.085 510.479 386.461L510.867 387.121ZM512.679 385.242C513.127 384.413 513.343 383.441 513.343 382.34H512.577C512.577 383.341 512.381 384.182 512.005 384.878L512.679 385.242ZM521.513 377.705L521.848 377.888L521.85 377.886L521.513 377.705ZM524.51 374.614L524.698 374.948L524.703 374.945L524.51 374.614ZM534.152 375.109L533.918 375.411L533.923 375.415L534.152 375.109ZM536.965 379.559V379.942H537.454L537.336 379.467L536.965 379.559ZM532.298 379.559L531.935 379.68L532.022 379.942H532.298V379.559ZM531.031 377.828L530.801 378.135L530.807 378.139L530.814 378.144L531.031 377.828ZM525.932 378.539L526.229 378.781L526.231 378.778L525.932 378.539ZM525.932 386.142L525.632 386.38L525.635 386.383L525.932 386.142ZM532.298 385.122V384.739H532.024L531.936 384.998L532.298 385.122ZM536.965 385.122L537.336 385.217L537.458 384.739H536.965V385.122ZM534.152 389.541L534.388 389.843L534.388 389.843L534.152 389.541ZM524.51 390.097L524.318 390.428L524.322 390.431L524.51 390.097ZM521.513 387.007L521.175 387.188L521.177 387.191L521.513 387.007ZM520.814 382.34C520.814 380.621 521.163 379.141 521.848 377.888L521.177 377.521C520.42 378.905 520.048 380.516 520.048 382.34H520.814ZM521.85 377.886C522.538 376.608 523.486 375.632 524.698 374.948L524.322 374.281C522.979 375.039 521.929 376.123 521.175 377.523L521.85 377.886ZM524.703 374.945C525.915 374.241 527.31 373.885 528.899 373.885V373.119C527.191 373.119 525.66 373.504 524.318 374.283L524.703 374.945ZM528.899 373.885C530.955 373.885 532.618 374.402 533.918 375.411L534.387 374.806C532.926 373.672 531.087 373.119 528.899 373.119V373.885ZM533.923 375.415C535.244 376.406 536.137 377.809 536.593 379.651L537.336 379.467C536.844 377.477 535.863 375.913 534.382 374.803L533.923 375.415ZM536.965 379.176H532.298V379.942H536.965V379.176ZM532.661 379.438C532.39 378.624 531.92 377.976 531.248 377.513L530.814 378.144C531.337 378.505 531.712 379.011 531.935 379.68L532.661 379.438ZM531.261 377.522C530.605 377.03 529.799 376.797 528.868 376.797V377.562C529.667 377.562 530.303 377.761 530.801 378.135L531.261 377.522ZM528.868 376.797C527.524 376.797 526.431 377.296 525.632 378.301L526.231 378.778C526.875 377.969 527.739 377.562 528.868 377.562V376.797ZM525.635 378.297C524.838 379.276 524.467 380.642 524.467 382.34H525.233C525.233 380.742 525.583 379.574 526.229 378.781L525.635 378.297ZM524.467 382.34C524.467 384.02 524.839 385.383 525.632 386.38L526.231 385.903C525.582 385.087 525.233 383.916 525.233 382.34H524.467ZM525.635 386.383C526.435 387.367 527.527 387.853 528.868 387.853V387.088C527.736 387.088 526.871 386.688 526.229 385.9L525.635 386.383ZM528.868 387.853C529.8 387.853 530.605 387.645 531.255 387.199C531.907 386.753 532.371 386.091 532.66 385.246L531.936 384.998C531.689 385.718 531.314 386.231 530.822 386.567C530.329 386.905 529.687 387.088 528.868 387.088V387.853ZM532.298 385.505H536.965V384.739H532.298V385.505ZM536.594 385.027C536.139 386.806 535.246 388.203 533.917 389.239L534.388 389.843C535.861 388.695 536.842 387.146 537.336 385.217L536.594 385.027ZM533.917 389.239C532.595 390.269 530.931 390.796 528.899 390.796V391.562C531.069 391.562 532.908 390.997 534.388 389.843L533.917 389.239ZM528.899 390.796C527.308 390.796 525.912 390.449 524.698 389.764L524.322 390.431C525.664 391.188 527.193 391.562 528.899 391.562V390.796ZM524.703 389.766C523.487 389.06 522.537 388.082 521.848 386.823L521.177 387.191C521.931 388.569 522.979 389.651 524.318 390.428L524.703 389.766ZM521.85 386.825C521.163 385.551 520.814 384.059 520.814 382.34H520.048C520.048 384.165 520.42 385.785 521.175 387.188L521.85 386.825ZM555.926 383.638V384.021H556.251L556.304 383.701L555.926 383.638ZM543.41 383.638V383.256H542.994L543.029 383.67L543.41 383.638ZM544.708 386.543L544.449 386.825L544.449 386.825L544.708 386.543ZM550.951 385.524V385.141H550.713L550.607 385.354L550.951 385.524ZM555.617 385.524L555.984 385.634L556.132 385.141H555.617V385.524ZM552.774 389.603L553.004 389.909L553.007 389.907L552.774 389.603ZM543.163 390.097L542.973 390.43L542.979 390.433L543.163 390.097ZM540.103 386.976L539.766 387.158L539.768 387.162L540.103 386.976ZM540.103 377.674L539.766 377.492L539.766 377.492L540.103 377.674ZM543.132 374.583L543.318 374.918L543.318 374.918L543.132 374.583ZM551.971 374.553L551.787 374.888L551.789 374.889L551.971 374.553ZM554.968 377.55L554.631 377.732L554.635 377.738L554.968 377.55ZM551.569 380.733V381.116H551.959L551.952 380.726L551.569 380.733ZM550.364 378.076L550.113 378.365L550.117 378.368L550.364 378.076ZM544.77 378.045L545.024 378.331L545.024 378.331L544.77 378.045ZM543.441 380.733L543.062 380.679L543 381.116H543.441V380.733ZM555.667 381.97C555.667 382.571 555.627 383.106 555.549 383.575L556.304 383.701C556.391 383.182 556.433 382.604 556.433 381.97H555.667ZM555.926 383.256H543.41V384.021H555.926V383.256ZM543.029 383.67C543.138 384.982 543.602 386.047 544.449 386.825L544.967 386.261C544.289 385.638 543.888 384.767 543.792 383.607L543.029 383.67ZM544.449 386.825C545.288 387.596 546.32 387.977 547.52 387.977V387.211C546.496 387.211 545.653 386.892 544.967 386.261L544.449 386.825ZM547.52 387.977C548.379 387.977 549.139 387.792 549.781 387.404C550.425 387.016 550.927 386.438 551.294 385.693L550.607 385.354C550.295 385.989 549.885 386.447 549.385 386.749C548.885 387.051 548.268 387.211 547.52 387.211V387.977ZM550.951 385.906H555.617V385.141H550.951V385.906ZM555.251 385.414C554.78 386.982 553.88 388.275 552.542 389.299L553.007 389.907C554.47 388.788 555.466 387.361 555.984 385.634L555.251 385.414ZM552.544 389.297C551.22 390.29 549.584 390.796 547.613 390.796V391.562C549.721 391.562 551.526 391.018 553.004 389.909L552.544 389.297ZM547.613 390.796C546.023 390.796 544.604 390.449 543.347 389.761L542.979 390.433C544.359 391.188 545.907 391.562 547.613 391.562V390.796ZM543.353 389.765C542.117 389.059 541.147 388.07 540.438 386.791L539.768 387.162C540.543 388.56 541.613 389.652 542.973 390.43L543.353 389.765ZM540.44 386.795C539.754 385.519 539.405 384.038 539.405 382.34H538.639C538.639 384.145 539.011 385.755 539.766 387.158L540.44 386.795ZM539.405 382.34C539.405 380.621 539.754 379.13 540.44 377.855L539.766 377.492C539.011 378.896 538.639 380.516 538.639 382.34H539.405ZM540.44 377.855C541.128 376.579 542.086 375.603 543.318 374.918L542.946 374.249C541.582 375.006 540.521 376.09 539.766 377.492L540.44 377.855ZM543.318 374.918C544.552 374.233 545.98 373.885 547.613 373.885V373.119C545.868 373.119 544.308 373.492 542.946 374.249L543.318 374.918ZM547.613 373.885C549.184 373.885 550.572 374.222 551.787 374.888L552.155 374.217C550.815 373.482 549.297 373.119 547.613 373.119V373.885ZM551.789 374.889C553.021 375.554 553.966 376.5 554.631 377.732L555.305 377.368C554.569 376.005 553.516 374.952 552.152 374.216L551.789 374.889ZM554.635 377.738C555.319 378.951 555.667 380.357 555.667 381.97H556.433C556.433 380.244 556.06 378.704 555.302 377.362L554.635 377.738ZM551.952 380.726C551.929 379.514 551.486 378.52 550.61 377.783L550.117 378.368C550.807 378.95 551.167 379.728 551.186 380.74L551.952 380.726ZM550.615 377.787C549.755 377.04 548.706 376.673 547.49 376.673V377.439C548.54 377.439 549.406 377.751 550.113 378.365L550.615 377.787ZM547.49 376.673C546.332 376.673 545.333 377.032 544.516 377.759L545.024 378.331C545.69 377.739 546.504 377.439 547.49 377.439V376.673ZM544.516 377.758C543.713 378.469 543.237 379.455 543.062 380.679L543.82 380.788C543.975 379.704 544.384 378.898 545.024 378.331L544.516 377.758ZM543.441 381.116H551.569V380.351H543.441V381.116Z" fill="white"/>
<path d="M527.17 311.469C529.762 310.892 524.832 318.208 528.228 318.724C528.549 318.308 532.11 318.616 529.167 319.331C539.217 310.42 566.147 327.857 592.878 358.007C601.255 367.456 608.334 377.054 613.798 386.053C620.767 394.824 626.475 403.406 630.681 411.314C625.389 395.739 612.902 375.492 595.455 355.814C565.124 321.603 536.642 299.23 525.238 309.34C523.027 311.3 527.456 307.769 527.17 311.469Z" fill="url(#paint7_linear)"/>
<circle cx="528.918" cy="313.366" r="5.89923" transform="rotate(-114.817 528.918 313.366)" fill="#AB3152"/>
<defs>
<linearGradient id="paint0_linear" x1="641.375" y1="218.218" x2="506.369" y2="356.366" gradientUnits="userSpaceOnUse">
<stop stop-color="#3765A9" stop-opacity="0.59"/>
<stop offset="1" stop-color="#272727" stop-opacity="0"/>
</linearGradient>
<linearGradient id="paint1_linear" x1="387.768" y1="55.5673" x2="256.591" y2="197.355" gradientUnits="userSpaceOnUse">
<stop stop-color="#4D6282" stop-opacity="0.59"/>
<stop offset="1" stop-color="#272727" stop-opacity="0"/>
</linearGradient>
<linearGradient id="paint2_linear" x1="360.22" y1="696.762" x2="174.227" y2="748.899" gradientUnits="userSpaceOnUse">
<stop stop-color="#8A2323" stop-opacity="0.62"/>
<stop offset="1" stop-color="#272727" stop-opacity="0"/>
</linearGradient>
<linearGradient id="paint3_linear" x1="651.665" y1="727.237" x2="552.886" y2="840.452" gradientUnits="userSpaceOnUse">
<stop stop-color="#5C5C5C"/>
<stop offset="1" stop-color="#272727" stop-opacity="0"/>
</linearGradient>
<linearGradient id="paint4_linear" x1="326.239" y1="420.871" x2="37.85" y2="711.231" gradientUnits="userSpaceOnUse">
<stop offset="0.109375" stop-color="#E9275B" stop-opacity="0.84"/>
<stop offset="0.635417" stop-color="#111111"/>
</linearGradient>
<linearGradient id="paint5_linear" x1="409.002" y1="487.435" x2="100.545" y2="640.776" gradientUnits="userSpaceOnUse">
<stop stop-color="white"/>
<stop offset="1" stop-color="#111111"/>
</linearGradient>
<linearGradient id="paint6_linear" x1="672.186" y1="151.03" x2="562.467" y2="235.459" gradientUnits="userSpaceOnUse">
<stop offset="0.0677083" stop-color="#111111"/>
<stop offset="1" stop-color="#076AFF" stop-opacity="0.72"/>
</linearGradient>
<linearGradient id="paint7_linear" x1="516.779" y1="313.284" x2="626.505" y2="392.261" gradientUnits="userSpaceOnUse">
<stop stop-color="#CF2B57"/>
<stop offset="1" stop-color="#7E1B36"/>
</linearGradient>
</defs>
</svg>
