<svg width="1570" height="1252" viewBox="0 0 1570 1252" fill="none" xmlns="http://www.w3.org/2000/svg">
<g clip-path="url(#clip0)" filter="url(#filter0_d)">
<rect width="1562" height="1244" transform="translate(4)" fill="#111111"/>
<path d="M129.64 938.786C138.676 947.15 151.655 949.707 163.188 945.395L212.534 926.943L239.224 913.143L247.704 909.757C271.79 900.139 299.272 909.906 311.886 932.567V932.567C322.875 952.308 319.733 976.904 304.134 993.25L250.423 1049.53C232.423 1068.39 200.719 1060.3 193.965 1035.12V1035.12C189.943 1020.12 176.121 1009.87 160.602 1010.37L129.508 1011.38C98.9115 1012.37 74.315 986.419 76.9442 955.92L77.1766 953.224C77.3736 950.938 77.8444 948.685 78.5788 946.511V946.511C85.2276 926.838 109.944 920.553 125.183 934.66L129.64 938.786Z" fill="url(#paint0_linear)"/>
<circle r="2.74454" transform="matrix(-1 0 0 1 375.24 225.14)" fill="white"/>
<circle r="4.22237" transform="matrix(-1 0 0 1 143.115 330.28)" fill="white"/>
<circle r="2.74454" transform="matrix(-1 0 0 1 327.313 452.122)" fill="white"/>
<circle r="4.22237" transform="matrix(-1 0 0 1 428.862 457.823)" fill="white"/>
<circle r="2.74454" transform="matrix(-1 0 0 1 327.313 452.122)" fill="white"/>
<circle r="4.22237" transform="matrix(-1 0 0 1 428.862 457.823)" fill="white"/>
<path d="M364.424 410.135C364.32 410.195 364.266 410.314 364.291 410.432L364.405 410.982C364.429 411.099 364.526 411.187 364.645 411.2L365.204 411.262C365.323 411.275 365.437 411.21 365.486 411.101L365.717 410.589C365.766 410.479 365.74 410.351 365.651 410.27L365.235 409.892C365.147 409.812 365.016 409.797 364.912 409.857L364.424 410.135Z" fill="#161616"/>
<circle r="2.74454" transform="matrix(-1 0 0 1 41.4762 197.638)" fill="white"/>
<circle r="4.22237" transform="matrix(-1 0 0 1 663.536 262.582)" fill="white"/>
<circle r="4.22237" transform="matrix(-1 0 0 1 95.097 430.321)" fill="white"/>
<circle r="4.22237" transform="matrix(-1 0 0 1 207.638 540.776)" fill="white"/>
<path d="M30.6596 382.633C30.5556 382.693 30.5017 382.812 30.526 382.93L30.6401 383.48C30.6645 383.597 30.7615 383.685 30.8805 383.699L31.4391 383.76C31.5582 383.773 31.6721 383.708 31.7213 383.599L31.9524 383.087C32.0017 382.978 31.975 382.849 31.8864 382.769L31.4706 382.39C31.382 382.31 31.2517 382.296 31.1477 382.355L30.6596 382.633Z" fill="#161616"/>
<circle r="2.74454" transform="matrix(-1 0 0 1 80.6139 884.13)" fill="white"/>
<circle r="4.22237" transform="matrix(-1 0 0 1 182.162 889.83)" fill="white"/>
<circle r="2.74454" transform="matrix(-1 0 0 1 32.6861 1111.11)" fill="white"/>
<circle r="4.22237" transform="matrix(-1 0 0 1 134.234 1116.81)" fill="white"/>
<circle r="2.74454" transform="matrix(-1 0 0 1 32.6861 1111.11)" fill="white"/>
<circle r="4.22237" transform="matrix(-1 0 0 1 134.234 1116.81)" fill="white"/>
<path d="M69.7963 1069.12C69.6923 1069.18 69.6384 1069.3 69.6627 1069.42L69.7769 1069.97C69.8012 1070.09 69.8982 1070.18 70.0172 1070.19L70.5759 1070.25C70.6949 1070.26 70.8088 1070.2 70.858 1070.09L71.0891 1069.58C71.1384 1069.47 71.1117 1069.34 71.0231 1069.26L70.6074 1068.88C70.5188 1068.8 70.3884 1068.79 70.2844 1068.85L69.7963 1069.12Z" fill="#161616"/>
<circle r="2.74454" transform="matrix(-0.6339 -0.773415 -0.773415 0.6339 812.738 852.798)" fill="white"/>
<circle r="4.22237" transform="matrix(-0.6339 -0.773415 -0.773415 0.6339 1034.42 684.236)" fill="white"/>
<circle r="2.74454" transform="matrix(-0.6339 -0.773415 -0.773415 0.6339 606.807 959.614)" fill="white"/>
<circle r="4.22237" transform="matrix(-0.6339 -0.773415 -0.773415 0.6339 666.77 1041.77)" fill="white"/>
<circle r="2.74454" transform="matrix(-0.6339 -0.773415 -0.773415 0.6339 606.807 959.614)" fill="white"/>
<circle r="4.22237" transform="matrix(-0.6339 -0.773415 -0.773415 0.6339 666.77 1041.77)" fill="white"/>
<path d="M662.803 961.7C662.691 961.657 662.565 961.691 662.489 961.785L662.136 962.222C662.061 962.315 662.054 962.446 662.12 962.546L662.426 963.017C662.491 963.118 662.614 963.164 662.73 963.133L663.272 962.987C663.388 962.956 663.47 962.854 663.476 962.735L663.505 962.173C663.511 962.054 663.44 961.944 663.328 961.901L662.803 961.7Z" fill="#161616"/>
<circle r="2.74454" transform="matrix(-0.6339 -0.773415 -0.773415 0.6339 1387.41 126.828)" fill="white"/>
<circle r="4.22237" transform="matrix(-0.6339 -0.773415 -0.773415 0.6339 1447.38 208.98)" fill="white"/>
<circle r="2.74454" transform="matrix(-0.6339 -0.773415 -0.773415 0.6339 1181.48 233.644)" fill="white"/>
<circle r="4.22237" transform="matrix(-0.6339 -0.773415 -0.773415 0.6339 1241.45 315.797)" fill="white"/>
<circle r="2.74454" transform="matrix(-0.6339 -0.773415 -0.773415 0.6339 1181.48 233.644)" fill="white"/>
<circle r="4.22237" transform="matrix(-0.6339 -0.773415 -0.773415 0.6339 1190.97 589.037)" fill="white"/>
<path d="M1237.48 235.73C1237.37 235.687 1237.24 235.722 1237.17 235.815L1236.81 236.252C1236.74 236.345 1236.73 236.476 1236.8 236.576L1237.1 237.047C1237.17 237.148 1237.29 237.195 1237.41 237.163L1237.95 237.017C1238.06 236.986 1238.15 236.884 1238.15 236.765L1238.18 236.203C1238.19 236.084 1238.12 235.974 1238 235.931L1237.48 235.73Z" fill="#161616"/>
<circle r="2.74454" transform="matrix(-0.6339 -0.773415 -0.773415 0.6339 1244.62 852.457)" fill="white"/>
<circle r="4.22237" transform="matrix(-0.6339 -0.773415 -0.773415 0.6339 867.289 959.256)" fill="white"/>
<circle r="2.74454" transform="matrix(-0.6339 -0.773415 -0.773415 0.6339 1038.68 959.273)" fill="white"/>
<circle r="4.22237" transform="matrix(-0.6339 -0.773415 -0.773415 0.6339 1098.65 1041.43)" fill="white"/>
<circle r="2.74454" transform="matrix(-0.6339 -0.773415 -0.773415 0.6339 1038.68 959.273)" fill="white"/>
<circle r="4.22237" transform="matrix(-0.6339 -0.773415 -0.773415 0.6339 1098.65 1041.43)" fill="white"/>
<path d="M1094.68 961.359C1094.57 961.317 1094.44 961.351 1094.37 961.444L1094.01 961.881C1093.94 961.974 1093.93 962.105 1094 962.205L1094.3 962.676C1094.37 962.777 1094.49 962.824 1094.61 962.792L1095.15 962.646C1095.27 962.615 1095.35 962.513 1095.35 962.394L1095.38 961.833C1095.39 961.713 1095.32 961.603 1095.21 961.56L1094.68 961.359Z" fill="#161616"/>
<circle r="2.74454" transform="matrix(-0.6339 -0.773415 -0.773415 0.6339 1513.29 662.059)" fill="white"/>
<circle r="2.74454" transform="matrix(-0.6339 -0.773415 -0.773415 0.6339 1307.36 768.875)" fill="white"/>
<circle r="4.22237" transform="matrix(-0.6339 -0.773415 -0.773415 0.6339 1367.32 851.027)" fill="white"/>
<circle r="2.74454" transform="matrix(-0.6339 -0.773415 -0.773415 0.6339 1307.36 768.875)" fill="white"/>
<circle r="4.22237" transform="matrix(-0.6339 -0.773415 -0.773415 0.6339 1367.32 851.027)" fill="white"/>
<path d="M1363.35 770.961C1363.24 770.918 1363.12 770.952 1363.04 771.045L1362.69 771.483C1362.61 771.576 1362.61 771.707 1362.67 771.807L1362.98 772.278C1363.04 772.378 1363.17 772.425 1363.28 772.394L1363.82 772.248C1363.94 772.217 1364.02 772.115 1364.03 771.995L1364.06 771.434C1364.06 771.315 1363.99 771.205 1363.88 771.162L1363.35 770.961Z" fill="#161616"/>
<path d="M831.762 317.771C840.401 319.486 849.268 316.184 854.682 309.237L877.846 279.514L888.945 261.11L892.845 255.871C903.923 240.99 924.329 236.652 940.502 245.74V245.74C954.591 253.656 961.886 269.822 958.5 285.625L946.841 340.038C942.934 358.273 920.581 365.211 907.035 352.393V352.393C898.968 344.759 886.706 343.687 877.436 349.804L858.864 362.062C840.588 374.123 815.88 367.518 806.062 347.945L805.194 346.215C804.459 344.749 803.902 343.199 803.536 341.6V341.6C800.221 327.12 812.931 314.035 827.501 316.926L831.762 317.771Z" fill="url(#paint1_linear)"/>
<circle r="1.44071" transform="matrix(-1 0 0 1 853.973 400.861)" fill="white"/>
<circle r="0.936462" transform="matrix(-0.864031 0.503439 0.503439 0.864031 653.392 361.934)" fill="white"/>
<circle r="2.26982" transform="matrix(-1 0 0 1 826.887 423.653)" fill="white"/>
<circle cx="736.165" cy="603.349" r="0.278372" transform="rotate(-30 736.165 603.349)" fill="white"/>
<circle cx="799.687" cy="269.193" r="0.278372" transform="rotate(-5.87752 799.687 269.193)" fill="white"/>
<circle cx="849.252" cy="311.925" r="0.278372" transform="rotate(-5.87752 849.252 311.925)" fill="white"/>
<circle cx="858.3" cy="323.788" r="0.278372" transform="rotate(-5.87752 858.3 323.788)" fill="white"/>
<rect width="0.422357" height="0.422357" rx="0.10126" transform="matrix(-0.995308 0.0967565 0.0967565 0.995308 709.847 645.177)" fill="white"/>
<rect width="0.36642" height="0.36642" rx="0.0917806" transform="matrix(-0.417767 0.908554 0.908554 0.417767 707.337 476.909)" fill="#161616"/>
<rect width="0.436134" height="0.436134" rx="0.117888" transform="matrix(-0.493118 0.869962 0.869962 0.493118 760.736 334.357)" fill="#161616"/>
<path d="M726.124 592.723C726.126 592.775 726.161 592.82 726.212 592.835L726.448 592.903C726.498 592.918 726.552 592.898 726.581 592.855L726.72 592.652C726.749 592.608 726.747 592.551 726.715 592.51L726.564 592.315C726.532 592.274 726.477 592.258 726.428 592.276L726.196 592.359C726.147 592.377 726.115 592.424 726.117 592.477L726.124 592.723Z" fill="white"/>
<path d="M719.9 462.583C719.901 462.635 719.937 462.68 719.987 462.695L720.223 462.763C720.273 462.778 720.327 462.759 720.357 462.715L720.495 462.512C720.524 462.468 720.523 462.411 720.49 462.37L720.34 462.175C720.307 462.134 720.252 462.118 720.203 462.136L719.972 462.219C719.922 462.237 719.89 462.285 719.892 462.337L719.9 462.583Z" fill="white"/>
<path d="M831.844 430.166C831.846 430.219 831.881 430.264 831.931 430.279L832.167 430.347C832.218 430.362 832.272 430.342 832.301 430.299L832.439 430.096C832.469 430.052 832.467 429.995 832.435 429.953L832.284 429.759C832.252 429.718 832.197 429.702 832.147 429.72L831.916 429.803C831.867 429.821 831.835 429.868 831.836 429.921L831.844 430.166Z" fill="white"/>
<path d="M737.562 638.373C737.564 638.425 737.599 638.471 737.649 638.485L737.885 638.554C737.936 638.568 737.99 638.549 738.019 638.505L738.157 638.302C738.186 638.259 738.185 638.201 738.153 638.16L738.002 637.966C737.97 637.924 737.914 637.908 737.865 637.926L737.634 638.01C737.585 638.027 737.552 638.075 737.554 638.127L737.562 638.373Z" fill="white"/>
<path d="M737.562 638.373C737.564 638.425 737.599 638.471 737.649 638.485L737.885 638.554C737.936 638.568 737.99 638.549 738.019 638.505L738.157 638.302C738.186 638.259 738.185 638.201 738.153 638.16L738.002 637.966C737.97 637.924 737.914 637.908 737.865 637.926L737.634 638.01C737.585 638.027 737.552 638.075 737.554 638.127L737.562 638.373Z" fill="white"/>
<path d="M902.744 463.159C902.746 463.211 902.781 463.256 902.832 463.271L903.068 463.339C903.118 463.354 903.172 463.334 903.202 463.291L903.34 463.088C903.369 463.044 903.367 462.987 903.335 462.946L903.184 462.751C903.152 462.71 903.097 462.694 903.048 462.712L902.816 462.795C902.767 462.813 902.735 462.86 902.737 462.913L902.744 463.159Z" fill="white"/>
<path d="M795.082 324.355C795.084 324.407 795.119 324.453 795.17 324.467L795.406 324.536C795.456 324.55 795.51 324.531 795.539 324.487L795.678 324.284C795.707 324.241 795.705 324.183 795.673 324.142L795.522 323.948C795.49 323.906 795.435 323.89 795.386 323.908L795.154 323.991C795.105 324.009 795.073 324.057 795.075 324.109L795.082 324.355Z" fill="white"/>
<path d="M747.486 621.777C747.535 621.795 747.59 621.78 747.623 621.738L748.317 620.856C748.349 620.815 748.351 620.757 748.322 620.714L747.697 619.781C747.668 619.738 747.614 619.718 747.564 619.732L746.484 620.038C746.433 620.052 746.398 620.098 746.396 620.15L746.353 621.272C746.351 621.324 746.383 621.372 746.432 621.39L747.486 621.777Z" fill="white"/>
<path d="M718.333 410.861C718.335 410.913 718.37 410.958 718.421 410.973L718.657 411.042C718.707 411.056 718.761 411.037 718.79 410.993L718.929 410.79C718.958 410.746 718.956 410.689 718.924 410.648L718.773 410.454C718.741 410.412 718.686 410.396 718.637 410.414L718.405 410.497C718.356 410.515 718.324 410.563 718.326 410.615L718.333 410.861Z" fill="white"/>
<path d="M603.218 326.003C603.22 326.055 603.255 326.1 603.305 326.115L603.541 326.183C603.592 326.198 603.646 326.178 603.675 326.135L603.813 325.932C603.843 325.888 603.841 325.831 603.809 325.79L603.658 325.595C603.626 325.554 603.571 325.538 603.521 325.556L603.29 325.639C603.241 325.657 603.209 325.704 603.21 325.757L603.218 326.003Z" fill="white"/>
<path d="M603.218 326.003C603.22 326.055 603.255 326.1 603.305 326.115L603.541 326.183C603.592 326.198 603.646 326.178 603.675 326.135L603.813 325.932C603.843 325.888 603.841 325.831 603.809 325.79L603.658 325.595C603.626 325.554 603.571 325.538 603.521 325.556L603.29 325.639C603.241 325.657 603.209 325.704 603.21 325.757L603.218 326.003Z" fill="white"/>
<path d="M742.396 239.225C742.407 239.276 742.45 239.314 742.502 239.319L742.747 239.343C742.799 239.349 742.848 239.32 742.869 239.272L742.968 239.046C742.989 238.998 742.977 238.942 742.937 238.907L742.754 238.744C742.714 238.709 742.657 238.704 742.612 238.73L742.4 238.855C742.355 238.881 742.332 238.934 742.343 238.985L742.396 239.225Z" fill="white"/>
<path d="M742.396 239.225C742.407 239.276 742.45 239.314 742.502 239.319L742.747 239.343C742.799 239.349 742.848 239.32 742.869 239.272L742.968 239.046C742.989 238.998 742.977 238.942 742.937 238.907L742.754 238.744C742.714 238.709 742.657 238.704 742.612 238.73L742.4 238.855C742.355 238.881 742.332 238.934 742.343 238.985L742.396 239.225Z" fill="white"/>
<path d="M726.124 592.723C726.126 592.775 726.161 592.82 726.212 592.835L726.448 592.903C726.498 592.918 726.552 592.898 726.581 592.855L726.72 592.652C726.749 592.608 726.747 592.551 726.715 592.51L726.564 592.315C726.532 592.274 726.477 592.258 726.428 592.276L726.196 592.359C726.147 592.377 726.115 592.424 726.117 592.477L726.124 592.723Z" fill="white"/>
<path d="M725.86 572.267C725.856 572.293 725.868 572.319 725.89 572.331L725.997 572.39C726.02 572.402 726.048 572.399 726.067 572.381L726.156 572.297C726.175 572.28 726.18 572.252 726.169 572.228L726.117 572.118C726.106 572.094 726.081 572.081 726.055 572.084L725.934 572.099C725.909 572.103 725.888 572.122 725.883 572.148L725.86 572.267Z" fill="white"/>
<circle r="0.936462" transform="matrix(-1 0 0 1 794.743 238.465)" fill="white"/>
<circle r="1.44071" transform="matrix(-1 0 0 1 819.227 267.867)" fill="white"/>
<path d="M829.443 569.25C829.471 569.294 829.524 569.316 829.575 569.303L829.814 569.243C829.864 569.231 829.901 569.187 829.905 569.134L829.922 568.889C829.925 568.837 829.895 568.788 829.846 568.769L829.618 568.677C829.57 568.657 829.514 568.671 829.48 568.711L829.323 568.9C829.289 568.94 829.285 568.997 829.313 569.042L829.443 569.25Z" fill="white"/>
<circle cx="886.362" cy="588.906" r="0.278372" transform="rotate(-30 886.362 588.906)" fill="white"/>
<circle cx="797.837" cy="566.964" r="0.278372" transform="rotate(-30 797.837 566.964)" fill="white"/>
<path d="M772.749 313.597C772.751 313.649 772.786 313.695 772.837 313.709L773.073 313.778C773.123 313.792 773.177 313.773 773.206 313.729L773.345 313.526C773.374 313.483 773.372 313.425 773.34 313.384L773.189 313.19C773.157 313.148 773.102 313.132 773.053 313.15L772.821 313.233C772.772 313.251 772.74 313.299 772.742 313.351L772.749 313.597Z" fill="white"/>
<path d="M608.477 403.157C608.488 403.208 608.531 403.246 608.583 403.251L608.828 403.275C608.88 403.28 608.93 403.251 608.95 403.203L609.049 402.978C609.07 402.93 609.058 402.874 609.018 402.839L608.835 402.676C608.795 402.641 608.738 402.635 608.693 402.662L608.481 402.786C608.436 402.813 608.413 402.865 608.424 402.917L608.477 403.157Z" fill="white"/>
<path d="M608.477 403.157C608.488 403.208 608.531 403.246 608.583 403.251L608.828 403.275C608.88 403.28 608.93 403.251 608.95 403.203L609.049 402.978C609.07 402.93 609.058 402.874 609.018 402.839L608.835 402.676C608.795 402.641 608.738 402.635 608.693 402.662L608.481 402.786C608.436 402.813 608.413 402.865 608.424 402.917L608.477 403.157Z" fill="white"/>
<path d="M630.952 418.091C630.953 418.143 630.988 418.188 631.039 418.203L631.275 418.271C631.325 418.286 631.379 418.267 631.409 418.223L631.547 418.02C631.576 417.976 631.574 417.919 631.542 417.878L631.391 417.684C631.359 417.642 631.304 417.626 631.255 417.644L631.024 417.727C630.974 417.745 630.942 417.793 630.944 417.845L630.952 418.091Z" fill="white"/>
<path d="M702.419 634.424C702.364 634.429 702.335 634.493 702.368 634.538L702.534 634.77C702.567 634.815 702.636 634.808 702.659 634.757L702.777 634.497C702.8 634.446 702.759 634.39 702.703 634.395L702.419 634.424Z" fill="#161616"/>
<path fill-rule="evenodd" clip-rule="evenodd" d="M359.963 881.385C441.772 881.385 508.091 819.06 508.091 742.177C508.091 665.294 441.772 602.969 359.963 602.969C340.983 602.969 322.836 606.323 306.158 612.436C359.896 614.323 408.298 628.266 444.061 649.874C482.576 673.144 506.503 705.357 506.503 741.027C506.503 776.697 482.576 808.91 444.061 832.181C407.076 854.527 356.574 868.675 300.631 869.769C318.797 877.24 338.865 881.385 359.963 881.385ZM443.569 650.689C407.456 628.869 358.343 614.874 303.822 613.315C299.585 614.947 295.446 616.758 291.416 618.738C326.528 618.465 362.193 623.71 394.768 635.051C491.319 668.666 524.532 743.244 468.564 801.702C468.382 801.892 468.034 801.976 467.785 801.889C467.537 801.803 467.483 801.579 467.665 801.389C523.133 743.453 490.374 669.254 394.109 635.739C361.228 624.291 325.236 619.085 289.883 619.502C287.392 620.762 284.944 622.086 282.542 623.473C335.458 621.644 389.409 632.793 430.212 657.001C430.429 657.129 430.44 657.337 430.244 657.475C430.352 657.541 430.461 657.606 430.57 657.671L430.803 657.812C465.924 679.04 487.753 708.431 487.753 740.983C487.753 741.246 487.539 741.459 487.276 741.459C487.014 741.459 486.8 741.246 486.8 740.983C486.8 708.893 465.278 679.762 430.311 658.627C395.352 637.498 347.027 624.414 293.624 624.414C289.21 624.414 284.83 624.503 280.49 624.679C276.799 626.889 273.218 629.248 269.758 631.748C277.569 631.129 285.535 630.81 293.623 630.81C343.814 630.81 389.276 643.105 422.206 663.008C455.127 682.906 475.594 710.46 475.594 740.983C475.594 771.531 455.127 799.107 422.206 819.021C389.276 838.94 343.814 851.245 293.623 851.245C284.328 851.245 275.194 850.823 266.273 850.009C267.796 851.179 269.346 852.322 270.919 853.436C304.827 855.968 338.654 852.77 368.978 844.756C412.964 833.131 449.528 811.388 468.357 782.322C468.5 782.101 468.823 781.972 469.079 782.032C469.335 782.093 469.426 782.321 469.283 782.541C450.239 811.94 413.309 833.849 369.086 845.536C339.103 853.46 305.746 856.695 272.273 854.384C274.483 855.912 276.74 857.383 279.042 858.797C346.672 861.835 414.99 843.487 455.618 807.145C455.814 806.969 456.17 806.908 456.414 807.007C456.657 807.107 456.695 807.329 456.5 807.505C415.848 843.868 347.822 862.294 280.344 859.587C284.5 862.081 288.796 864.386 293.22 866.487C315.022 866.36 336.598 864.119 357.132 859.933C407.301 849.704 451.215 827.87 477.056 796.883C502.896 765.897 505.813 731.573 489.574 701.113C473.335 670.654 437.945 644.079 387.235 628.631C386.984 628.554 386.917 628.329 387.085 628.127C387.253 627.925 387.594 627.823 387.845 627.9C438.736 643.403 474.288 670.082 490.611 700.7C506.935 731.319 504.037 765.898 477.967 797.161C451.896 828.424 407.631 850.401 357.199 860.683C337.148 864.771 316.118 867.011 294.857 867.253C296.047 867.801 297.245 868.334 298.452 868.853C355.115 868.088 406.274 853.9 443.569 831.366C481.929 808.188 505.551 776.235 505.551 741.027C505.551 705.82 481.929 673.866 443.569 650.689ZM474.642 740.983C474.642 771.069 454.48 798.386 421.713 818.206C388.955 838.022 343.67 850.293 293.623 850.293C283.839 850.293 274.237 849.824 264.875 848.921C262.061 846.706 259.337 844.394 256.708 841.991C327.538 851.441 403.392 832.755 441.693 792.658C441.875 792.468 441.821 792.243 441.573 792.157C441.324 792.07 440.976 792.154 440.794 792.344C402.635 832.292 326.583 850.911 255.694 841.056C254.57 840.009 253.465 838.946 252.377 837.866C293.402 844.267 338.442 841.199 377.753 827.183C378.001 827.095 378.053 826.871 377.869 826.683C377.686 826.495 377.336 826.414 377.088 826.502C337.63 840.57 292.478 843.54 251.501 836.99C248.239 833.695 245.144 830.252 242.231 826.671C258.269 830.198 275.577 832.121 293.624 832.121C335.118 832.121 372.706 821.957 399.937 805.498C427.158 789.045 444.1 766.25 444.1 740.983C444.1 740.72 443.887 740.507 443.624 740.507C443.362 740.507 443.148 740.72 443.148 740.983C443.148 765.788 426.512 788.323 399.444 804.683C372.385 821.038 334.974 831.169 293.624 831.169C275.204 831.169 257.565 829.158 241.274 825.483C241.166 825.347 241.058 825.211 240.951 825.075C241.334 825.163 241.717 825.25 242.101 825.336C277.806 833.323 318.521 833.072 355.8 822.713C356.054 822.642 356.13 822.416 355.971 822.206C355.812 821.997 355.477 821.885 355.224 821.955C318.118 832.266 277.63 832.504 242.177 824.574C241.518 824.426 240.861 824.276 240.205 824.123C239.427 823.12 238.662 822.107 237.912 821.084C255.043 825.456 273.87 827.871 293.624 827.871C293.887 827.871 294.1 827.658 294.1 827.395C294.1 827.132 293.887 826.919 293.624 826.919C273.512 826.919 254.378 824.406 237.034 819.874C234.832 816.802 232.756 813.643 230.815 810.404C235.042 811.806 239.39 813.065 243.838 814.175C274.784 821.905 310.575 822.493 343.896 814.132C344.151 814.068 344.237 813.84 344.088 813.623C343.939 813.407 343.612 813.283 343.357 813.347C310.206 821.666 274.634 821.07 243.934 813.402C239.237 812.228 234.655 810.89 230.214 809.393C229.022 807.365 227.882 805.306 226.797 803.218C246.005 810.799 268.939 815.201 293.563 815.204C293.826 815.204 294.04 814.991 294.04 814.728C294.04 814.465 293.827 814.252 293.564 814.252C268.609 814.249 245.421 809.708 226.135 801.929C223.349 796.429 220.936 790.729 218.927 784.86C219.385 785.148 219.847 785.433 220.314 785.715C239.155 797.111 265.152 804.143 293.843 804.143C322.534 804.143 348.532 797.111 367.373 785.715C386.205 774.325 397.957 758.524 397.957 740.983C397.957 740.72 397.744 740.507 397.481 740.507C397.218 740.507 397.005 740.72 397.005 740.983C397.005 758.062 385.558 773.603 366.88 784.9C348.211 796.192 322.39 803.191 293.843 803.191C265.297 803.191 239.475 796.192 220.807 784.9C220.006 784.416 219.218 783.924 218.444 783.424C217.836 781.578 217.267 779.715 216.739 777.837C248.249 801.76 305.833 806.95 348.547 789.207C393.169 770.67 404.947 734.007 374.549 707.274C374.352 707.101 373.995 707.042 373.752 707.142C373.51 707.243 373.473 707.466 373.67 707.639C403.557 733.922 392.125 770.178 347.832 788.578C304.89 806.416 247.091 800.811 216.371 776.502C216.016 775.187 215.681 773.865 215.367 772.535C242.95 797.598 298.338 805.418 341.495 790.031C341.742 789.943 341.794 789.719 341.611 789.531C341.427 789.342 341.077 789.261 340.83 789.35C297.322 804.862 241.673 796.53 215.027 771.062C213.454 764.055 212.441 756.854 212.036 749.502C213.242 753.691 215.356 757.858 218.438 761.91C228.042 774.536 245.181 783.582 265.054 788.027C284.927 792.473 307.574 792.331 328.304 786.571C328.557 786.5 328.633 786.274 328.474 786.064C328.315 785.855 327.981 785.743 327.727 785.813C307.172 791.525 284.75 791.654 265.13 787.265C245.509 782.876 228.731 773.981 219.355 761.655C209.979 749.328 209.731 735.84 216.993 723.981C224.255 712.122 239.015 701.92 259.57 696.208C259.824 696.138 259.9 695.911 259.741 695.702C259.582 695.493 259.247 695.38 258.994 695.45C238.265 701.211 223.342 711.508 215.986 723.52C214.369 726.162 213.117 728.888 212.25 731.667C212.827 724.396 213.999 717.28 215.72 710.363C223.302 703.321 233.627 697.198 246.436 692.632C246.683 692.543 246.735 692.319 246.552 692.131C246.368 691.943 246.018 691.862 245.771 691.95C233.637 696.276 223.692 702.001 216.174 708.59C217.884 702.104 220.078 695.797 222.717 689.705C232.341 684.87 243.223 681.083 254.842 678.466C281.366 672.492 311.691 672.628 339.513 680.314C367.336 688 387.352 701.77 397.235 717.801C407.119 733.832 406.86 752.097 394.218 768.816C394.059 769.025 394.136 769.252 394.39 769.322C394.643 769.392 394.977 769.279 395.136 769.069C408.006 752.05 408.218 733.521 398.24 717.337C388.263 701.154 368.084 687.289 340.088 679.555C312.091 671.821 281.54 671.672 254.765 677.703C243.406 680.261 232.719 683.934 223.196 688.614C223.719 687.436 224.259 686.266 224.815 685.105C228.077 683.642 231.498 682.269 235.075 680.993C290.063 661.388 360.74 672.491 393.012 705.558C393.196 705.746 393.545 705.827 393.793 705.739C394.041 705.65 394.093 705.426 393.909 705.238C361.135 671.658 289.691 660.602 234.41 680.312C231.296 681.422 228.298 682.607 225.419 683.861C226.15 682.374 226.908 680.901 227.692 679.443C246.675 672.037 269.303 667.735 293.604 667.738C293.867 667.738 294.081 667.525 294.081 667.262C294.081 666.999 293.868 666.786 293.605 666.786C269.646 666.783 247.284 670.946 228.397 678.151C229.528 676.102 230.711 674.083 231.946 672.096C235.81 670.836 239.816 669.682 243.959 668.642C244.214 668.578 244.3 668.351 244.151 668.134C244.002 667.917 243.675 667.794 243.42 667.858C239.739 668.781 236.165 669.795 232.702 670.892C233.601 669.479 234.525 668.081 235.475 666.701C239.2 665.641 243.003 664.684 246.87 663.833C279.536 656.639 316.772 656.973 350.82 666.561C384.867 676.149 409.243 693.165 421.145 712.909C433.046 732.652 432.462 755.095 416.673 775.578C416.513 775.786 416.588 776.013 416.841 776.084C417.094 776.156 417.429 776.045 417.59 775.836C433.608 755.056 434.149 732.35 422.156 712.454C412.312 696.123 394.017 681.668 368.854 671.682C397.901 682.796 419.868 700.378 428.255 721.932C428.351 722.177 428.639 722.346 428.899 722.309C429.16 722.272 429.293 722.043 429.198 721.798C420.463 699.35 397.32 681.261 367.102 670.123C336.877 658.983 299.498 654.764 262.118 660.078C261.951 660.102 261.835 660.205 261.8 660.342C256.715 661.079 251.705 661.991 246.796 663.072C243.191 663.866 239.639 664.751 236.152 665.726C237.116 664.35 238.105 662.99 239.119 661.649C255.907 657.453 274.315 655.136 293.624 655.136C293.887 655.136 294.1 654.923 294.1 654.66C294.1 654.397 293.887 654.184 293.624 654.184C274.686 654.184 256.6 656.404 240.043 660.44C248.068 650.06 257.581 640.762 268.288 632.824C276.567 632.124 285.025 631.762 293.623 631.762C343.67 631.762 388.955 644.024 421.713 663.823C454.48 683.628 474.642 710.922 474.642 740.983ZM273.637 771.857C259.436 768.496 248.853 761.979 243.21 754.179C237.566 746.377 236.88 737.327 242.365 728.859C242.508 728.638 242.417 728.41 242.161 728.35C241.905 728.289 241.582 728.419 241.439 728.64C235.739 737.439 236.506 746.762 242.254 754.707C248.003 762.654 258.751 769.256 273.119 772.656C273.375 772.717 273.698 772.587 273.841 772.366C273.984 772.146 273.893 771.918 273.637 771.857ZM222.402 710.396C250.249 686.685 304.742 681.041 344.149 697.949C383.555 714.856 392.715 747.81 364.867 771.521C364.667 771.691 364.701 771.913 364.942 772.017C365.184 772.121 365.542 772.067 365.742 771.896C394.091 747.759 384.632 714.39 344.873 697.331C305.115 680.273 249.876 685.883 221.527 710.02C221.327 710.191 221.36 710.413 221.602 710.517C221.844 710.62 222.202 710.566 222.402 710.396ZM288.607 716.348C294.299 715.919 300.079 716.225 305.563 717.245C311.046 718.265 316.117 719.978 320.436 722.276C324.753 724.573 328.232 727.408 330.625 730.605C330.783 730.815 330.74 731.114 330.53 731.271C330.319 731.429 330.021 731.386 329.863 731.175C327.572 728.114 324.211 725.363 319.988 723.116C315.767 720.87 310.79 719.186 305.389 718.181C299.987 717.176 294.291 716.875 288.678 717.297C288.416 717.317 288.188 717.12 288.168 716.858C288.148 716.596 288.345 716.367 288.607 716.348ZM293.804 728.025C288.341 727.97 283.037 729.18 279.036 731.419C278.806 731.548 278.725 731.838 278.853 732.067C278.981 732.297 279.271 732.379 279.501 732.25C283.33 730.107 288.463 728.923 293.795 728.977C299.126 729.032 304.184 730.32 307.881 732.538C308.106 732.673 308.399 732.6 308.534 732.375C308.669 732.149 308.596 731.857 308.371 731.721C304.5 729.399 299.268 728.081 293.804 728.025ZM290.033 739.14C289.127 739.673 288.681 740.341 288.681 740.983C288.681 741.626 289.127 742.293 290.033 742.827C290.929 743.353 292.198 743.694 293.625 743.694C295.052 743.694 296.32 743.353 297.216 742.827C298.123 742.293 298.569 741.626 298.569 740.983C298.569 740.341 298.123 739.673 297.216 739.14C296.32 738.613 295.052 738.272 293.625 738.272C292.198 738.272 290.929 738.613 290.033 739.14ZM289.551 738.319C290.617 737.692 292.058 737.32 293.625 737.32C295.191 737.32 296.632 737.692 297.698 738.319C298.753 738.939 299.521 739.865 299.521 740.983C299.521 742.101 298.753 743.027 297.698 743.647C296.632 744.274 295.191 744.646 293.625 744.646C292.058 744.646 290.617 744.274 289.551 743.647C288.496 743.027 287.729 742.101 287.729 740.983C287.729 739.865 288.496 738.939 289.551 738.319ZM293.148 635.536C293.148 635.273 293.361 635.06 293.624 635.06C341.913 635.06 385.654 646.879 417.338 666.013C449.013 685.142 468.71 711.633 468.71 740.983C468.71 741.11 468.66 741.225 468.58 741.311C468.417 770.52 448.762 796.874 417.235 815.923C385.574 835.053 341.87 846.867 293.625 846.862C293.362 846.862 293.149 846.649 293.149 846.386C293.149 846.123 293.362 845.91 293.625 845.91C341.726 845.915 385.254 834.134 416.742 815.108C448.24 796.077 467.62 769.849 467.628 740.964C467.629 740.838 467.677 740.724 467.757 740.639C467.603 711.888 448.241 685.788 416.846 666.828C385.333 647.798 341.769 636.012 293.624 636.012C293.361 636.012 293.148 635.799 293.148 635.536ZM407.132 699.886C407.483 699.761 407.978 699.875 408.237 700.141C445.735 738.562 424.49 787.885 361.316 810.408C360.965 810.533 360.471 810.419 360.211 810.152C359.951 809.886 360.024 809.569 360.375 809.444C423.134 787.068 443.757 738.288 406.968 700.594C406.709 700.328 406.782 700.011 407.132 699.886ZM254.553 754.924C254.37 754.735 254.02 754.654 253.773 754.743C253.525 754.831 253.473 755.055 253.657 755.243C266.784 768.694 295.304 773.057 317.28 765.222C339.257 757.386 346.735 740.189 333.607 726.738C333.423 726.55 333.074 726.469 332.826 726.558C332.578 726.646 332.526 726.87 332.71 727.058C345.337 739.996 338.299 756.81 316.615 764.54C294.932 772.271 267.18 767.861 254.553 754.924ZM240.448 759.493C240.696 759.405 241.046 759.486 241.229 759.674C258.197 777.059 295.432 782.948 324.474 772.593C353.516 762.239 363 739.693 346.033 722.308C345.849 722.12 345.901 721.896 346.149 721.807C346.396 721.719 346.746 721.8 346.93 721.988C364.398 739.887 354.474 762.816 325.139 773.275C295.804 783.734 257.801 777.892 240.332 759.994C240.149 759.805 240.201 759.581 240.448 759.493ZM230.644 763.448C210.228 742.529 221.656 715.429 256.544 702.99C256.792 702.901 256.844 702.677 256.66 702.489C256.476 702.301 256.127 702.22 255.879 702.308C220.698 714.852 208.83 742.336 229.747 763.768C250.664 785.2 296.203 792.217 331.385 779.673C331.632 779.585 331.684 779.361 331.501 779.173C331.317 778.984 330.967 778.904 330.72 778.992C295.831 791.431 251.06 784.367 230.644 763.448ZM255.518 825.83C255.625 825.589 255.921 825.429 256.181 825.471C294.899 831.741 334.135 827.928 366.262 816.718C398.393 805.505 423.346 786.921 433.655 763.668C443.964 740.414 437.728 716.779 419.176 697.358C400.628 677.941 369.803 662.781 331.085 656.511C330.825 656.469 330.701 656.24 330.808 656C330.914 655.759 331.211 655.598 331.471 655.64C370.344 661.936 401.338 677.162 420.013 696.713C438.685 716.26 445.077 740.176 434.595 763.82C424.113 787.464 398.793 806.244 366.452 817.53C334.106 828.817 294.669 832.637 255.795 826.341C255.536 826.299 255.412 826.07 255.518 825.83ZM259.276 704.969C259.028 705.056 258.974 705.28 259.155 705.471C259.337 705.661 259.685 705.745 259.934 705.658C292.46 694.308 333.85 701.097 352.462 720.582C371.074 740.066 360.108 765.126 327.581 776.476C327.333 776.563 327.279 776.787 327.46 776.977C327.642 777.167 327.991 777.251 328.239 777.165C361.052 765.714 372.473 740.276 353.361 720.268C334.249 700.26 292.089 693.519 259.276 704.969ZM311.428 712.124C299.172 709.382 285.155 709.461 272.298 713.034C272.045 713.104 271.711 712.992 271.551 712.782C271.392 712.573 271.469 712.346 271.722 712.276C284.753 708.655 298.996 708.564 311.504 711.362C324.012 714.16 334.827 719.86 340.891 727.833C341.051 728.043 340.974 728.269 340.721 728.34C340.468 728.41 340.133 728.298 339.974 728.088C334.137 720.415 323.684 714.866 311.428 712.124ZM307.565 737.2C307.406 736.991 307.071 736.878 306.818 736.949C306.565 737.019 306.489 737.246 306.648 737.455C308.233 739.539 308.296 741.845 307.034 743.906C305.772 745.966 303.196 747.754 299.588 748.756C299.335 748.827 299.258 749.053 299.417 749.263C299.577 749.472 299.911 749.585 300.164 749.514C303.947 748.463 306.685 746.58 308.041 744.367C309.396 742.154 309.378 739.584 307.565 737.2ZM293.997 758.542C293.997 758.805 293.784 759.018 293.521 759.018C285.395 759.021 278.014 757.034 272.647 753.794C267.289 750.559 263.868 746.023 263.863 740.924C263.863 740.661 264.076 740.448 264.339 740.448C264.602 740.448 264.815 740.661 264.815 740.924C264.82 745.561 267.935 749.837 273.139 752.979C278.334 756.115 285.539 758.069 293.52 758.066C293.783 758.066 293.997 758.279 293.997 758.542ZM285.205 739.612C285.762 738.355 287.136 737.295 289.028 736.635C290.916 735.976 293.252 735.743 295.578 736.12C295.838 736.162 296.134 736.001 296.241 735.761C296.348 735.521 296.224 735.292 295.964 735.25C293.483 734.848 290.945 735.088 288.838 735.823C286.736 736.556 284.995 737.812 284.265 739.46C283.534 741.108 284.003 742.721 285.216 743.992C286.433 745.266 288.432 746.24 290.914 746.642C291.173 746.684 291.47 746.523 291.576 746.283C291.683 746.042 291.559 745.813 291.299 745.771C288.974 745.395 287.143 744.487 286.053 743.346C284.961 742.202 284.647 740.87 285.205 739.612ZM336.595 831.29C336.336 831.335 336.218 831.564 336.331 831.802C336.444 832.039 336.746 832.195 337.005 832.15C378.536 824.915 411.305 808.188 430.703 786.97C450.098 765.755 456.155 740.006 444.118 714.761C432.08 689.517 404.279 669.666 369.178 657.943C334.073 646.219 291.601 642.598 250.071 649.833C249.812 649.878 249.693 650.107 249.807 650.344C249.92 650.581 250.221 650.737 250.48 650.692C291.854 643.485 334.122 647.101 369.004 658.75C403.891 670.401 431.324 690.061 443.18 714.925C455.036 739.788 449.121 765.257 429.844 786.343C410.57 807.426 377.968 824.083 336.595 831.29ZM282.48 753.031C287.589 754.737 293.81 755.275 299.916 754.211C300.175 754.166 300.476 754.322 300.59 754.559C300.703 754.797 300.585 755.026 300.326 755.071C294.062 756.162 287.639 755.62 282.306 753.838C276.978 752.059 272.673 749.016 270.8 745.087C268.927 741.158 269.891 737.197 272.835 733.977C275.782 730.754 280.743 728.228 287.006 727.137C287.265 727.092 287.567 727.248 287.68 727.485C287.793 727.723 287.675 727.952 287.416 727.997C281.31 729.06 276.517 731.516 273.694 734.604C270.868 737.695 270.046 741.376 271.738 744.924C273.429 748.471 277.366 751.323 282.48 753.031ZM342.824 720.445C342.627 720.272 342.27 720.213 342.027 720.313C341.784 720.414 341.748 720.637 341.945 720.81C359.976 736.667 353.109 758.582 326.302 769.718C326.059 769.819 326.023 770.041 326.22 770.215C326.417 770.389 326.774 770.448 327.017 770.347C354.153 759.074 361.366 736.751 342.824 720.445ZM308.053 716.232C299.674 714.441 290.585 714.261 282.032 715.717C273.481 717.171 265.862 720.193 260.234 724.386C260.023 724.543 259.98 724.841 260.137 725.052C260.294 725.263 260.592 725.306 260.803 725.149C266.284 721.065 273.753 718.091 282.191 716.655C290.627 715.22 299.595 715.398 307.854 717.163C316.117 718.929 323.24 722.19 328.26 726.476C333.277 730.76 335.921 735.832 335.921 740.983C335.921 741.246 336.134 741.459 336.397 741.459C336.66 741.459 336.873 741.246 336.873 740.983C336.873 735.484 334.048 730.166 328.878 725.752C323.71 721.34 316.43 718.022 308.053 716.232Z" fill="#444040"/>
<ellipse cx="359.996" cy="742.177" rx="148.118" ry="139.208" fill="url(#paint2_linear)"/>
<path d="M501.187 700.063C571.053 681.334 439.567 804.957 229.418 812.016" stroke="url(#paint3_linear)" stroke-width="3"/>
<path d="M1229.6 614.748C1231.56 614.311 1227.83 619.846 1230.4 620.237C1230.64 619.922 1233.34 620.155 1231.11 620.696C1238.71 613.954 1259.09 627.146 1279.31 649.959C1285.65 657.108 1291.01 664.369 1295.14 671.178C1300.42 677.815 1304.73 684.308 1307.92 690.291C1303.91 678.507 1294.46 663.188 1281.26 648.3C1258.32 622.415 1236.77 605.487 1228.14 613.137C1226.47 614.62 1229.82 611.948 1229.6 614.748Z" fill="url(#paint4_linear)"/>
<circle cx="1230.92" cy="616.183" r="4.4634" transform="rotate(-114.817 1230.92 616.183)" fill="#AB3152"/>
</g>
<defs>
<filter id="filter0_d" x="0" y="0" width="1570" height="1252" filterUnits="userSpaceOnUse" color-interpolation-filters="sRGB">
<feFlood flood-opacity="0" result="BackgroundImageFix"/>
<feColorMatrix in="SourceAlpha" type="matrix" values="0 0 0 0 0 0 0 0 0 0 0 0 0 0 0 0 0 0 127 0"/>
<feOffset dy="4"/>
<feGaussianBlur stdDeviation="2"/>
<feColorMatrix type="matrix" values="0 0 0 0 0 0 0 0 0 0 0 0 0 0 0 0 0 0 0.25 0"/>
<feBlend mode="normal" in2="BackgroundImageFix" result="effect1_dropShadow"/>
<feBlend mode="normal" in="SourceGraphic" in2="effect1_dropShadow" result="shape"/>
</filter>
<linearGradient id="paint0_linear" x1="277.691" y1="951.052" x2="80.9539" y2="1006.2" gradientUnits="userSpaceOnUse">
<stop stop-color="#8A2323" stop-opacity="0.62"/>
<stop offset="1" stop-color="#272727" stop-opacity="0"/>
</linearGradient>
<linearGradient id="paint1_linear" x1="926.583" y1="269.809" x2="827.333" y2="377.087" gradientUnits="userSpaceOnUse">
<stop stop-color="#4D6282" stop-opacity="0.59"/>
<stop offset="1" stop-color="#272727" stop-opacity="0"/>
</linearGradient>
<linearGradient id="paint2_linear" x1="458.669" y1="643.804" x2="240.472" y2="863.492" gradientUnits="userSpaceOnUse">
<stop offset="0.109375" stop-color="#E9275B" stop-opacity="0.84"/>
<stop offset="0.635417" stop-color="#111111"/>
</linearGradient>
<linearGradient id="paint3_linear" x1="521.287" y1="694.166" x2="287.906" y2="810.185" gradientUnits="userSpaceOnUse">
<stop stop-color="white"/>
<stop offset="1" stop-color="#111111"/>
</linearGradient>
<linearGradient id="paint4_linear" x1="1221.74" y1="616.121" x2="1304.76" y2="675.876" gradientUnits="userSpaceOnUse">
<stop stop-color="#CF2B57"/>
<stop offset="1" stop-color="#7E1B36"/>
</linearGradient>
<clipPath id="clip0">
<rect width="1562" height="1244" fill="white" transform="translate(4)"/>
</clipPath>
</defs>
</svg>
