<svg width="1446" height="988" viewBox="0 0 1446 988" fill="none" xmlns="http://www.w3.org/2000/svg">
<path d="M448.267 22.4593H457.338C462.395 22.4593 465.821 22.6656 467.617 23.0784C470.321 23.6976 472.519 25.0289 474.211 27.0722C475.904 29.0948 476.75 31.5922 476.75 34.5642C476.75 37.041 476.162 39.2184 474.985 41.0966C473.829 42.9748 472.168 44.3989 470.001 45.3689C467.834 46.3184 464.841 46.8034 461.023 46.824L477.4 68H471.765L455.419 46.824H452.818V68H448.267V22.4593ZM452.818 26.9174V42.3969L460.651 42.4588C463.685 42.4588 465.924 42.1698 467.369 41.5919C468.835 41.014 469.97 40.0956 470.775 38.8366C471.6 37.5569 472.013 36.1328 472.013 34.5642C472.013 33.0369 471.6 31.6541 470.775 30.4157C469.949 29.1567 468.865 28.2589 467.524 27.7223C466.182 27.1857 463.953 26.9174 460.837 26.9174H452.818ZM514.179 56.8238L517.832 58.7432C516.635 61.0961 515.252 62.995 513.684 64.4397C512.115 65.8845 510.351 66.9887 508.39 67.7523C506.429 68.4953 504.21 68.8669 501.734 68.8669C496.244 68.8669 491.951 67.0712 488.855 63.48C485.759 59.8681 484.211 55.7918 484.211 51.2512C484.211 46.9788 485.521 43.1709 488.143 39.8273C491.466 35.5756 495.913 33.4497 501.486 33.4497C507.224 33.4497 511.806 35.6272 515.232 39.9821C517.667 43.0573 518.906 46.8963 518.947 51.4988H488.669C488.752 55.4203 490 58.6401 492.415 61.1581C494.83 63.6554 497.812 64.9041 501.362 64.9041C503.075 64.9041 504.737 64.6048 506.347 64.0063C507.977 63.4077 509.36 62.6131 510.495 61.6224C511.63 60.6317 512.858 59.0322 514.179 56.8238ZM514.179 47.7528C513.601 45.4412 512.755 43.594 511.641 42.2111C510.547 40.8283 509.092 39.7138 507.275 38.8675C505.459 38.0213 503.55 37.5982 501.548 37.5982C498.246 37.5982 495.408 38.6612 493.034 40.787C491.3 42.335 489.99 44.6569 489.102 47.7528H514.179ZM560.618 34.3166V68H556.345V62.2107C554.529 64.4191 552.486 66.0805 550.216 67.1951C547.966 68.3096 545.499 68.8669 542.816 68.8669C538.049 68.8669 533.972 67.1435 530.587 63.6967C527.223 60.2293 525.541 56.0189 525.541 51.0654C525.541 46.2152 527.244 42.0666 530.649 38.6199C534.055 35.1731 538.152 33.4497 542.94 33.4497C545.706 33.4497 548.203 34.0379 550.432 35.2144C552.682 36.3908 554.653 38.1555 556.345 40.5084V34.3166H560.618ZM543.281 37.6292C540.866 37.6292 538.637 38.2277 536.594 39.4248C534.55 40.6013 532.92 42.2627 531.702 44.4092C530.505 46.5557 529.906 48.826 529.906 51.2202C529.906 53.5937 530.515 55.8641 531.733 58.0312C532.951 60.1983 534.581 61.8907 536.624 63.1085C538.688 64.3056 540.897 64.9041 543.25 64.9041C545.623 64.9041 547.873 64.3056 549.999 63.1085C552.125 61.9114 553.755 60.2912 554.89 58.2479C556.046 56.2046 556.624 53.9033 556.624 51.344C556.624 47.4432 555.334 44.1822 552.754 41.561C550.195 38.9398 547.037 37.6292 543.281 37.6292ZM604.022 21.3138V68H599.75V62.2107C597.934 64.4191 595.89 66.0805 593.62 67.1951C591.37 68.3096 588.904 68.8669 586.221 68.8669C581.453 68.8669 577.377 67.1435 573.992 63.6967C570.628 60.2293 568.946 56.0189 568.946 51.0654C568.946 46.2152 570.648 42.0666 574.054 38.6199C577.459 35.1731 581.556 33.4497 586.345 33.4497C589.11 33.4497 591.608 34.0379 593.837 35.2144C596.087 36.3908 598.058 38.1555 599.75 40.5084V21.3138H604.022ZM586.685 37.6292C584.27 37.6292 582.041 38.2277 579.998 39.4248C577.955 40.6013 576.324 42.2627 575.107 44.4092C573.91 46.5557 573.311 48.826 573.311 51.2202C573.311 53.5937 573.92 55.8641 575.138 58.0312C576.355 60.1983 577.986 61.8907 580.029 63.1085C582.093 64.3056 584.301 64.9041 586.654 64.9041C589.028 64.9041 591.278 64.3056 593.403 63.1085C595.529 61.9114 597.16 60.2912 598.295 58.2479C599.451 56.2046 600.029 53.9033 600.029 51.344C600.029 47.4432 598.739 44.1822 596.159 41.561C593.599 38.9398 590.442 37.6292 586.685 37.6292ZM610.245 34.3166H614.827L626.406 60.2602L637.644 34.3166H642.257L622.164 80.3217H617.582L624.084 65.4614L610.245 34.3166ZM669.222 21.8091H673.587V34.3166H680.46V38.0317H673.587V68H669.222V38.0317H663.309V34.3166H669.222V21.8091ZM702.875 33.4497C708.055 33.4497 712.348 35.3279 715.753 39.0843C718.849 42.5104 720.397 46.566 720.397 51.2512C720.397 55.9569 718.757 60.0745 715.475 63.6038C712.214 67.1125 708.014 68.8669 702.875 68.8669C697.715 68.8669 693.494 67.1125 690.212 63.6038C686.951 60.0745 685.321 55.9569 685.321 51.2512C685.321 46.5867 686.869 42.5414 689.965 39.1152C693.37 35.3382 697.673 33.4497 702.875 33.4497ZM702.875 37.6911C699.283 37.6911 696.198 39.0223 693.618 41.6848C691.038 44.3473 689.748 47.567 689.748 51.344C689.748 53.7795 690.336 56.0498 691.513 58.155C692.689 60.2602 694.278 61.8907 696.28 63.0466C698.282 64.1817 700.48 64.7493 702.875 64.7493C705.269 64.7493 707.467 64.1817 709.469 63.0466C711.471 61.8907 713.06 60.2602 714.236 58.155C715.413 56.0498 716.001 53.7795 716.001 51.344C716.001 47.567 714.701 44.3473 712.1 41.6848C709.52 39.0223 706.445 37.6911 702.875 37.6911ZM762.997 38.0007L760.211 40.8799C757.899 38.6302 755.639 37.5053 753.431 37.5053C752.027 37.5053 750.82 37.9697 749.808 38.8985C748.818 39.8273 748.322 40.9108 748.322 42.1492C748.322 43.2431 748.735 44.2854 749.561 45.2761C750.386 46.2874 752.12 47.4742 754.762 48.8364C757.982 50.5081 760.169 52.118 761.325 53.666C762.46 55.2346 763.028 56.9992 763.028 58.96C763.028 61.7256 762.058 64.0682 760.118 65.9877C758.178 67.9071 755.753 68.8669 752.842 68.8669C750.902 68.8669 749.045 68.4437 747.27 67.5975C745.515 66.7513 744.06 65.5852 742.905 64.0992L745.629 61.0033C747.837 63.5006 750.18 64.7493 752.657 64.7493C754.39 64.7493 755.866 64.192 757.084 63.0775C758.302 61.963 758.91 60.6524 758.91 59.1457C758.91 57.9074 758.508 56.8031 757.703 55.8331C756.898 54.8837 755.082 53.6866 752.254 52.2418C749.22 50.6733 747.156 49.1253 746.062 47.598C744.969 46.0707 744.422 44.3267 744.422 42.3659C744.422 39.8066 745.288 37.6808 747.022 35.9884C748.776 34.2959 750.985 33.4497 753.647 33.4497C756.743 33.4497 759.86 34.9667 762.997 38.0007ZM770.706 21.3138H775.04V40.3536C776.794 38.042 778.724 36.3186 780.829 35.1834C782.935 34.0276 785.215 33.4497 787.671 33.4497C790.189 33.4497 792.418 34.0895 794.358 35.3692C796.319 36.6488 797.764 38.3722 798.693 40.5393C799.622 42.6858 800.086 46.0604 800.086 50.6629V68H795.752V51.9323C795.752 48.0521 795.597 45.4618 795.287 44.1615C794.751 41.9325 793.77 40.2607 792.346 39.1462C790.943 38.011 789.095 37.4434 786.804 37.4434C784.183 37.4434 781.83 38.3103 779.746 40.044C777.682 41.7777 776.32 43.9242 775.659 46.4835C775.246 48.1346 775.04 51.1892 775.04 55.6473V68H770.706V21.3138ZM842.964 34.3166V68H838.692V62.2107C836.876 64.4191 834.832 66.0805 832.562 67.1951C830.312 68.3096 827.846 68.8669 825.163 68.8669C820.395 68.8669 816.319 67.1435 812.934 63.6967C809.57 60.2293 807.888 56.0189 807.888 51.0654C807.888 46.2152 809.59 42.0666 812.996 38.6199C816.401 35.1731 820.498 33.4497 825.287 33.4497C828.052 33.4497 830.55 34.0379 832.779 35.2144C835.028 36.3908 836.999 38.1555 838.692 40.5084V34.3166H842.964ZM825.627 37.6292C823.212 37.6292 820.983 38.2277 818.94 39.4248C816.897 40.6013 815.266 42.2627 814.048 44.4092C812.851 46.5557 812.253 48.826 812.253 51.2202C812.253 53.5937 812.862 55.8641 814.079 58.0312C815.297 60.1983 816.928 61.8907 818.971 63.1085C821.035 64.3056 823.243 64.9041 825.596 64.9041C827.97 64.9041 830.219 64.3056 832.345 63.1085C834.471 61.9114 836.102 60.2912 837.237 58.2479C838.393 56.2046 838.971 53.9033 838.971 51.344C838.971 47.4432 837.681 44.1822 835.101 41.561C832.541 38.9398 829.384 37.6292 825.627 37.6292ZM851.106 34.3166H855.534V39.2391C856.855 37.299 858.248 35.8542 859.713 34.9048C861.178 33.9347 862.706 33.4497 864.295 33.4497C865.492 33.4497 866.772 33.8315 868.134 34.5952L865.874 38.2484C864.966 37.8562 864.202 37.6601 863.583 37.6601C862.138 37.6601 860.745 38.2587 859.403 39.4558C858.062 40.6322 857.04 42.4691 856.339 44.9665C855.802 46.8859 855.534 50.7661 855.534 56.6071V68H851.106V34.3166ZM900.176 56.8238L903.83 58.7432C902.633 61.0961 901.25 62.995 899.681 64.4397C898.113 65.8845 896.348 66.9887 894.387 67.7523C892.426 68.4953 890.208 68.8669 887.731 68.8669C882.241 68.8669 877.948 67.0712 874.852 63.48C871.756 59.8681 870.208 55.7918 870.208 51.2512C870.208 46.9788 871.519 43.1709 874.14 39.8273C877.463 35.5756 881.911 33.4497 887.483 33.4497C893.221 33.4497 897.803 35.6272 901.229 39.9821C903.665 43.0573 904.903 46.8963 904.944 51.4988H874.666C874.749 55.4203 875.997 58.6401 878.412 61.1581C880.827 63.6554 883.809 64.9041 887.359 64.9041C889.073 64.9041 890.734 64.6048 892.344 64.0063C893.974 63.4077 895.357 62.6131 896.492 61.6224C897.628 60.6317 898.856 59.0322 900.176 56.8238ZM900.176 47.7528C899.599 45.4412 898.752 43.594 897.638 42.2111C896.544 40.8283 895.089 39.7138 893.273 38.8675C891.456 38.0213 889.547 37.5982 887.545 37.5982C884.243 37.5982 881.405 38.6612 879.031 40.787C877.298 42.335 875.987 44.6569 875.1 47.7528H900.176ZM917.978 34.8429H913.489C913.53 30.6737 914.769 27.3817 917.204 24.9669C919.66 22.5315 922.942 21.3138 927.049 21.3138C931.094 21.3138 934.273 22.3354 936.584 24.3787C938.896 26.422 940.052 28.9607 940.052 31.9946C940.052 33.4394 939.732 34.781 939.092 36.0193C938.473 37.237 937.523 38.3412 936.244 39.3319C934.964 40.302 932.725 41.4165 929.526 42.6755C925.501 44.2854 923.066 45.4825 922.219 46.2668C921.352 47.0717 920.919 48.0417 920.919 49.1769C920.919 50.374 921.497 51.4472 922.653 52.3966C923.829 53.3461 925.346 53.8208 927.204 53.8208C929.247 53.8208 930.816 53.3048 931.909 52.2728C933.003 51.2202 933.674 49.5484 933.922 47.2574H938.442C938.297 50.7042 937.224 53.3873 935.222 55.3068C933.241 57.2056 930.568 58.155 927.204 58.155C923.86 58.155 921.198 57.2882 919.216 55.5545C917.235 53.8208 916.244 51.6846 916.244 49.1459C916.244 47.9076 916.513 46.7415 917.049 45.6476C917.606 44.533 918.38 43.6043 919.371 42.8613C920.382 42.1182 922.271 41.1792 925.037 40.044C929.495 38.2277 932.353 36.8655 933.612 35.9574C934.851 35.0493 935.47 33.749 935.47 32.0566C935.47 30.2609 934.706 28.7439 933.179 27.5056C931.672 26.2672 929.649 25.648 927.111 25.648C924.015 25.648 921.61 26.6697 919.897 28.713C918.7 30.1371 918.06 32.1804 917.978 34.8429ZM927.018 61.189C928.071 61.189 928.968 61.5605 929.711 62.3035C930.454 63.0466 930.826 63.9547 930.826 65.0279C930.826 66.0805 930.454 66.9887 929.711 67.7523C928.968 68.4953 928.071 68.8669 927.018 68.8669C925.965 68.8669 925.068 68.4953 924.325 67.7523C923.582 66.9887 923.21 66.0805 923.21 65.0279C923.21 63.9547 923.582 63.0466 924.325 62.3035C925.068 61.5605 925.965 61.189 927.018 61.189Z" fill="white"/>
<path d="M590.042 395.911L586.45 398.666C584.469 396.087 582.085 394.136 579.299 392.815C576.533 391.474 573.489 390.803 570.166 390.803C566.533 390.803 563.169 391.68 560.073 393.434C556.977 395.168 554.573 397.511 552.86 400.462C551.167 403.393 550.321 406.695 550.321 410.369C550.321 415.921 552.22 420.554 556.018 424.27C559.836 427.985 564.645 429.842 570.445 429.842C576.822 429.842 582.157 427.345 586.45 422.35L590.042 425.074C587.771 427.964 584.933 430.203 581.528 431.793C578.143 433.361 574.356 434.145 570.166 434.145C562.199 434.145 555.914 431.493 551.312 426.189C547.452 421.71 545.523 416.303 545.523 409.966C545.523 403.3 547.855 397.696 552.519 393.156C557.204 388.594 563.066 386.314 570.104 386.314C574.356 386.314 578.195 387.16 581.621 388.852C585.047 390.524 587.854 392.877 590.042 395.911ZM614.437 398.45C619.618 398.45 623.911 400.328 627.316 404.084C630.412 407.51 631.96 411.566 631.96 416.251C631.96 420.957 630.319 425.074 627.038 428.604C623.777 432.113 619.577 433.867 614.437 433.867C609.278 433.867 605.057 432.113 601.775 428.604C598.514 425.074 596.884 420.957 596.884 416.251C596.884 411.587 598.432 407.541 601.527 404.115C604.933 400.338 609.236 398.45 614.437 398.45ZM614.437 402.691C610.846 402.691 607.761 404.022 605.181 406.685C602.601 409.347 601.311 412.567 601.311 416.344C601.311 418.779 601.899 421.05 603.075 423.155C604.252 425.26 605.841 426.891 607.843 428.047C609.845 429.182 612.043 429.749 614.437 429.749C616.832 429.749 619.03 429.182 621.032 428.047C623.034 426.891 624.623 425.26 625.799 423.155C626.976 421.05 627.564 418.779 627.564 416.344C627.564 412.567 626.264 409.347 623.663 406.685C621.083 404.022 618.008 402.691 614.437 402.691ZM640.04 399.317H644.375V405.354C646.108 403.042 648.028 401.319 650.133 400.183C652.238 399.028 654.529 398.45 657.006 398.45C659.524 398.45 661.753 399.09 663.693 400.369C665.654 401.649 667.099 403.372 668.027 405.539C668.956 407.706 669.421 411.081 669.421 415.663V433H665.117V416.932C665.117 413.052 664.952 410.462 664.622 409.162C664.106 406.932 663.136 405.261 661.712 404.146C660.288 403.011 658.43 402.443 656.139 402.443C653.518 402.443 651.165 403.31 649.081 405.044C647.017 406.778 645.654 408.924 644.994 411.483C644.581 413.155 644.375 416.21 644.375 420.647V433H640.04V399.317ZM682.516 386.809H686.882V399.317H693.754V403.032H686.882V433H682.516V403.032H676.603V399.317H682.516V386.809ZM733.784 399.317V433H729.512V427.211C727.696 429.419 725.653 431.081 723.382 432.195C721.133 433.31 718.666 433.867 715.983 433.867C711.215 433.867 707.139 432.143 703.754 428.697C700.39 425.229 698.708 421.019 698.708 416.065C698.708 411.215 700.411 407.067 703.816 403.62C707.222 400.173 711.319 398.45 716.107 398.45C718.873 398.45 721.37 399.038 723.599 400.214C725.849 401.391 727.82 403.155 729.512 405.508V399.317H733.784ZM716.447 402.629C714.033 402.629 711.804 403.228 709.76 404.425C707.717 405.601 706.086 407.263 704.869 409.409C703.672 411.556 703.073 413.826 703.073 416.22C703.073 418.594 703.682 420.864 704.9 423.031C706.117 425.198 707.748 426.891 709.791 428.108C711.855 429.306 714.064 429.904 716.416 429.904C718.79 429.904 721.04 429.306 723.166 428.108C725.291 426.911 726.922 425.291 728.057 423.248C729.213 421.205 729.791 418.903 729.791 416.344C729.791 412.443 728.501 409.182 725.921 406.561C723.362 403.94 720.204 402.629 716.447 402.629ZM776.26 406.313L772.824 408.449C769.852 404.507 765.796 402.536 760.657 402.536C756.55 402.536 753.134 403.857 750.409 406.499C747.706 409.141 746.354 412.35 746.354 416.127C746.354 418.583 746.973 420.895 748.211 423.062C749.47 425.229 751.183 426.911 753.351 428.108C755.538 429.306 757.984 429.904 760.688 429.904C765.641 429.904 769.687 427.933 772.824 423.991L776.26 426.251C774.65 428.666 772.483 430.544 769.759 431.885C767.055 433.206 763.97 433.867 760.502 433.867C755.177 433.867 750.76 432.174 747.252 428.79C743.743 425.405 741.989 421.287 741.989 416.437C741.989 413.176 742.804 410.152 744.434 407.366C746.086 404.559 748.346 402.371 751.214 400.803C754.083 399.234 757.293 398.45 760.843 398.45C763.072 398.45 765.218 398.79 767.282 399.471C769.367 400.152 771.131 401.04 772.576 402.134C774.021 403.228 775.249 404.621 776.26 406.313ZM788.396 386.809H792.761V399.317H799.634V403.032H792.761V433H788.396V403.032H782.483V399.317H788.396V386.809ZM823.132 399.317H827.497V415.044C827.497 418.883 827.704 421.525 828.117 422.969C828.736 425.033 829.912 426.664 831.646 427.861C833.4 429.058 835.485 429.656 837.9 429.656C840.315 429.656 842.358 429.079 844.03 427.923C845.722 426.746 846.888 425.209 847.528 423.31C847.961 422.01 848.178 419.254 848.178 415.044V399.317H852.605V415.849C852.605 420.493 852.058 423.991 850.964 426.344C849.891 428.697 848.261 430.544 846.073 431.885C843.906 433.206 841.181 433.867 837.9 433.867C834.618 433.867 831.873 433.206 829.665 431.885C827.477 430.544 825.836 428.686 824.742 426.313C823.669 423.919 823.132 420.327 823.132 415.539V399.317ZM879.199 403.001L876.413 405.88C874.101 403.63 871.841 402.505 869.633 402.505C868.229 402.505 867.022 402.97 866.011 403.899C865.02 404.827 864.524 405.911 864.524 407.149C864.524 408.243 864.937 409.285 865.763 410.276C866.588 411.287 868.322 412.474 870.964 413.836C874.184 415.508 876.371 417.118 877.527 418.666C878.662 420.235 879.23 421.999 879.23 423.96C879.23 426.726 878.26 429.068 876.32 430.988C874.38 432.907 871.955 433.867 869.045 433.867C867.104 433.867 865.247 433.444 863.472 432.598C861.718 431.751 860.262 430.585 859.107 429.099L861.831 426.003C864.039 428.501 866.382 429.749 868.859 429.749C870.592 429.749 872.068 429.192 873.286 428.078C874.504 426.963 875.112 425.652 875.112 424.146C875.112 422.907 874.71 421.803 873.905 420.833C873.1 419.884 871.284 418.687 868.456 417.242C865.422 415.673 863.358 414.125 862.264 412.598C861.171 411.071 860.624 409.327 860.624 407.366C860.624 404.807 861.491 402.681 863.224 400.988C864.979 399.296 867.187 398.45 869.849 398.45C872.945 398.45 876.062 399.967 879.199 403.001Z" fill="white"/>
<rect x="507" y="122" width="374.887" height="98.7158" rx="49.3579" fill="#CF2B57"/>
<path d="M607.931 191.613C605.025 191.613 602.398 191.116 600.05 190.121C597.741 189.126 595.91 187.693 594.557 185.822C593.204 183.952 592.507 181.742 592.467 179.195H601.423C601.542 180.907 602.139 182.26 603.214 183.255C604.328 184.25 605.841 184.748 607.751 184.748C609.702 184.748 611.234 184.29 612.349 183.374C613.463 182.419 614.02 181.185 614.02 179.673C614.02 178.439 613.642 177.424 612.886 176.628C612.13 175.832 611.174 175.215 610.02 174.777C608.906 174.299 607.353 173.782 605.363 173.225C602.657 172.429 600.448 171.653 598.736 170.896C597.065 170.1 595.612 168.926 594.378 167.374C593.184 165.782 592.587 163.672 592.587 161.045C592.587 158.578 593.204 156.428 594.438 154.597C595.671 152.766 597.403 151.373 599.632 150.418C601.861 149.423 604.408 148.925 607.274 148.925C611.573 148.925 615.055 149.98 617.722 152.09C620.429 154.159 621.921 157.065 622.2 160.806H613.005C612.926 159.374 612.309 158.199 611.155 157.284C610.04 156.329 608.548 155.851 606.677 155.851C605.045 155.851 603.731 156.269 602.736 157.105C601.781 157.941 601.304 159.155 601.304 160.747C601.304 161.861 601.662 162.797 602.378 163.553C603.134 164.269 604.05 164.866 605.125 165.344C606.239 165.782 607.791 166.299 609.781 166.896C612.488 167.692 614.697 168.488 616.409 169.284C618.12 170.08 619.593 171.274 620.827 172.867C622.06 174.459 622.677 176.548 622.677 179.135C622.677 181.364 622.1 183.434 620.946 185.345C619.792 187.255 618.1 188.788 615.871 189.942C613.642 191.056 610.995 191.613 607.931 191.613ZM632.073 154.179C630.601 154.179 629.367 153.722 628.372 152.806C627.416 151.851 626.939 150.677 626.939 149.284C626.939 147.891 627.416 146.736 628.372 145.821C629.367 144.866 630.601 144.388 632.073 144.388C633.546 144.388 634.76 144.866 635.715 145.821C636.71 146.736 637.208 147.891 637.208 149.284C637.208 150.677 636.71 151.851 635.715 152.806C634.76 153.722 633.546 154.179 632.073 154.179ZM636.193 158.12V191.196H627.834V158.12H636.193ZM655.317 157.582C657.785 157.582 659.954 158.08 661.825 159.075C663.695 160.03 665.168 161.284 666.243 162.836V158.12H674.661V191.434C674.661 194.499 674.044 197.226 672.81 199.614C671.576 202.042 669.725 203.952 667.258 205.345C664.79 206.778 661.805 207.495 658.302 207.495C653.606 207.495 649.745 206.4 646.72 204.211C643.735 202.022 642.043 199.037 641.645 195.255H649.944C650.382 196.768 651.317 197.962 652.75 198.838C654.222 199.753 655.994 200.211 658.063 200.211C660.491 200.211 662.462 199.474 663.974 198.002C665.487 196.569 666.243 194.38 666.243 191.434V186.3C665.168 187.852 663.676 189.146 661.765 190.181C659.894 191.215 657.745 191.733 655.317 191.733C652.531 191.733 649.983 191.016 647.675 189.584C645.366 188.151 643.536 186.141 642.182 183.554C640.869 180.927 640.212 177.921 640.212 174.538C640.212 171.195 640.869 168.23 642.182 165.642C643.536 163.055 645.347 161.065 647.615 159.672C649.924 158.279 652.491 157.582 655.317 157.582ZM666.243 174.658C666.243 172.628 665.845 170.896 665.049 169.463C664.253 167.991 663.178 166.876 661.825 166.12C660.471 165.324 659.019 164.926 657.466 164.926C655.914 164.926 654.481 165.304 653.168 166.06C651.854 166.817 650.78 167.931 649.944 169.404C649.148 170.837 648.75 172.548 648.75 174.538C648.75 176.528 649.148 178.28 649.944 179.792C650.78 181.265 651.854 182.399 653.168 183.195C654.521 183.991 655.954 184.389 657.466 184.389C659.019 184.389 660.471 184.011 661.825 183.255C663.178 182.459 664.253 181.344 665.049 179.912C665.845 178.439 666.243 176.688 666.243 174.658ZM699.064 157.642C703.004 157.642 706.188 158.896 708.616 161.403C711.044 163.871 712.258 167.334 712.258 171.792V191.196H703.9V172.926C703.9 170.299 703.243 168.289 701.93 166.896C700.616 165.463 698.825 164.747 696.556 164.747C694.248 164.747 692.417 165.463 691.064 166.896C689.75 168.289 689.093 170.299 689.093 172.926V191.196H680.735V158.12H689.093V162.239C690.208 160.806 691.621 159.692 693.332 158.896C695.084 158.06 696.994 157.642 699.064 157.642ZM738.493 149.522V175.314C738.493 178.14 739.229 180.31 740.702 181.822C742.175 183.295 744.244 184.031 746.911 184.031C749.618 184.031 751.707 183.295 753.18 181.822C754.653 180.31 755.389 178.14 755.389 175.314V149.522H763.807V175.255C763.807 178.797 763.031 181.802 761.479 184.27C759.966 186.698 757.916 188.529 755.329 189.763C752.782 190.997 749.936 191.613 746.792 191.613C743.687 191.613 740.861 190.997 738.314 189.763C735.806 188.529 733.816 186.698 732.343 184.27C730.871 181.802 730.134 178.797 730.134 175.255V149.522H738.493ZM778.152 162.896C779.227 161.384 780.699 160.13 782.57 159.135C784.48 158.1 786.65 157.582 789.078 157.582C791.904 157.582 794.451 158.279 796.72 159.672C799.028 161.065 800.839 163.055 802.153 165.642C803.506 168.19 804.183 171.155 804.183 174.538C804.183 177.921 803.506 180.927 802.153 183.554C800.839 186.141 799.028 188.151 796.72 189.584C794.451 191.016 791.904 191.733 789.078 191.733C786.65 191.733 784.5 191.235 782.63 190.24C780.799 189.245 779.306 187.991 778.152 186.479V206.957H769.793V158.12H778.152V162.896ZM795.645 174.538C795.645 172.548 795.227 170.837 794.391 169.404C793.595 167.931 792.521 166.817 791.167 166.06C789.854 165.304 788.421 164.926 786.869 164.926C785.356 164.926 783.923 165.324 782.57 166.12C781.256 166.876 780.182 167.991 779.346 169.463C778.55 170.936 778.152 172.668 778.152 174.658C778.152 176.648 778.55 178.379 779.346 179.852C780.182 181.325 781.256 182.459 782.57 183.255C783.923 184.011 785.356 184.389 786.869 184.389C788.421 184.389 789.854 183.991 791.167 183.195C792.521 182.399 793.595 181.265 794.391 179.792C795.227 178.319 795.645 176.568 795.645 174.538Z" fill="white"/>
<rect y="515" width="1446" height="473" rx="108" fill="white"/>
<rect x="92.6497" y="821.171" width="581.166" height="88.6125" rx="24.2742" fill="white" stroke="#E1E1E1" stroke-width="3.2994" stroke-linejoin="bevel"/>
<rect x="92.6497" y="821.171" width="581.166" height="88.6125" rx="24.2742" fill="white" stroke="#E1E1E1" stroke-width="3.2994" stroke-linejoin="bevel"/>
<path d="M143.064 877.158H133.444V859.007H142.659V860.931H135.57V866.969H142.127V868.88H135.57V875.234H143.064V877.158ZM157.039 877.158H154.963V869.766C154.963 867.015 153.959 865.64 151.95 865.64C150.912 865.64 150.051 866.032 149.368 866.817C148.693 867.593 148.355 868.576 148.355 869.766V877.158H146.279V864.197H148.355V866.348H148.406C149.385 864.711 150.802 863.893 152.659 863.893C154.077 863.893 155.161 864.353 155.912 865.272C156.663 866.184 157.039 867.505 157.039 869.234V877.158ZM166.975 877.032C166.486 877.302 165.84 877.437 165.039 877.437C162.769 877.437 161.634 876.171 161.634 873.639V865.969H159.406V864.197H161.634V861.032L163.71 860.361V864.197H166.975V865.969H163.71V873.272C163.71 874.142 163.857 874.762 164.153 875.133C164.448 875.504 164.937 875.69 165.621 875.69C166.144 875.69 166.596 875.547 166.975 875.26V877.032ZM180.165 871.196H171.013C171.047 872.639 171.435 873.753 172.178 874.538C172.92 875.323 173.942 875.715 175.241 875.715C176.701 875.715 178.043 875.234 179.266 874.272V876.222C178.127 877.049 176.621 877.462 174.747 877.462C172.916 877.462 171.477 876.876 170.431 875.703C169.385 874.521 168.861 872.863 168.861 870.728C168.861 868.711 169.431 867.07 170.57 865.804C171.718 864.53 173.14 863.893 174.836 863.893C176.532 863.893 177.844 864.441 178.773 865.538C179.701 866.635 180.165 868.159 180.165 870.108V871.196ZM178.039 869.437C178.03 868.239 177.739 867.306 177.165 866.64C176.6 865.973 175.811 865.64 174.798 865.64C173.819 865.64 172.988 865.99 172.304 866.69C171.621 867.391 171.199 868.306 171.039 869.437H178.039ZM190.076 866.298C189.714 866.019 189.19 865.88 188.507 865.88C187.621 865.88 186.878 866.298 186.279 867.133C185.688 867.969 185.393 869.108 185.393 870.551V877.158H183.317V864.197H185.393V866.867H185.444C185.739 865.956 186.19 865.247 186.798 864.741C187.406 864.226 188.085 863.969 188.836 863.969C189.376 863.969 189.79 864.028 190.076 864.146V866.298ZM209.76 864.197L203.798 879.234C202.735 881.918 201.241 883.26 199.317 883.26C198.777 883.26 198.325 883.205 197.962 883.095V881.234C198.41 881.386 198.819 881.462 199.19 881.462C200.237 881.462 201.021 880.838 201.545 879.589L202.583 877.133L197.519 864.197H199.823L203.329 874.171C203.372 874.298 203.46 874.627 203.595 875.158H203.671C203.713 874.956 203.798 874.635 203.924 874.196L207.608 864.197H209.76ZM217.418 877.462C215.502 877.462 213.971 876.859 212.823 875.652C211.684 874.437 211.114 872.829 211.114 870.829C211.114 868.652 211.709 866.952 212.899 865.728C214.089 864.505 215.697 863.893 217.722 863.893C219.654 863.893 221.161 864.488 222.241 865.678C223.329 866.867 223.874 868.517 223.874 870.627C223.874 872.694 223.287 874.353 222.114 875.601C220.95 876.842 219.384 877.462 217.418 877.462ZM217.57 865.64C216.237 865.64 215.182 866.095 214.405 867.007C213.629 867.91 213.241 869.158 213.241 870.753C213.241 872.289 213.633 873.5 214.418 874.386C215.203 875.272 216.253 875.715 217.57 875.715C218.912 875.715 219.941 875.281 220.659 874.412C221.384 873.542 221.747 872.306 221.747 870.703C221.747 869.083 221.384 867.834 220.659 866.956C219.941 866.078 218.912 865.64 217.57 865.64ZM237.671 877.158H235.595V875.108H235.544C234.684 876.677 233.35 877.462 231.545 877.462C228.456 877.462 226.912 875.623 226.912 871.943V864.197H228.975V871.614C228.975 874.348 230.021 875.715 232.114 875.715C233.127 875.715 233.958 875.344 234.608 874.602C235.266 873.85 235.595 872.872 235.595 871.665V864.197H237.671V877.158ZM248.633 866.298C248.27 866.019 247.747 865.88 247.063 865.88C246.177 865.88 245.435 866.298 244.836 867.133C244.245 867.969 243.949 869.108 243.949 870.551V877.158H241.874V864.197H243.949V866.867H244C244.295 865.956 244.747 865.247 245.355 864.741C245.962 864.226 246.641 863.969 247.393 863.969C247.933 863.969 248.346 864.028 248.633 864.146V866.298Z" fill="#989898"/>
<path d="M267.899 877.158H258.279V859.007H267.494V860.931H260.405V866.969H266.962V868.88H260.405V875.234H267.899V877.158ZM289.519 877.158H287.443V869.715C287.443 868.281 287.219 867.243 286.772 866.602C286.333 865.96 285.591 865.64 284.544 865.64C283.658 865.64 282.903 866.045 282.278 866.855C281.662 867.665 281.354 868.635 281.354 869.766V877.158H279.278V869.462C279.278 866.914 278.295 865.64 276.329 865.64C275.418 865.64 274.667 866.023 274.076 866.791C273.485 867.551 273.19 868.542 273.19 869.766V877.158H271.114V864.197H273.19V866.247H273.24C274.16 864.678 275.502 863.893 277.266 863.893C278.152 863.893 278.924 864.142 279.582 864.64C280.24 865.129 280.692 865.775 280.937 866.576C281.899 864.787 283.333 863.893 285.24 863.893C288.093 863.893 289.519 865.652 289.519 869.171V877.158ZM302.721 877.158H300.645V875.133H300.595C299.692 876.686 298.363 877.462 296.607 877.462C295.316 877.462 294.304 877.12 293.569 876.437C292.844 875.753 292.481 874.846 292.481 873.715C292.481 871.294 293.907 869.884 296.759 869.488L300.645 868.943C300.645 866.741 299.755 865.64 297.974 865.64C296.413 865.64 295.004 866.171 293.747 867.234V865.108C295.021 864.298 296.489 863.893 298.152 863.893C301.198 863.893 302.721 865.505 302.721 868.728V877.158ZM300.645 870.602L297.519 871.032C296.557 871.167 295.831 871.407 295.342 871.753C294.852 872.091 294.607 872.694 294.607 873.564C294.607 874.196 294.831 874.715 295.278 875.12C295.734 875.517 296.337 875.715 297.088 875.715C298.118 875.715 298.966 875.357 299.633 874.639C300.308 873.914 300.645 872.998 300.645 871.893V870.602ZM307.696 860.905C307.325 860.905 307.008 860.779 306.747 860.526C306.485 860.272 306.354 859.952 306.354 859.564C306.354 859.175 306.485 858.855 306.747 858.602C307.008 858.34 307.325 858.209 307.696 858.209C308.076 858.209 308.396 858.34 308.658 858.602C308.928 858.855 309.063 859.175 309.063 859.564C309.063 859.935 308.928 860.251 308.658 860.513C308.396 860.775 308.076 860.905 307.696 860.905ZM308.709 877.158H306.633V864.197H308.709V877.158ZM314.987 877.158H312.911V857.969H314.987V877.158ZM340.632 877.158H338.278L336.354 872.07H328.658L326.848 877.158H324.481L331.443 859.007H333.645L340.632 877.158ZM335.658 870.158L332.81 862.424C332.717 862.171 332.624 861.766 332.531 861.209H332.481C332.396 861.724 332.299 862.129 332.189 862.424L329.367 870.158H335.658ZM354.101 877.158H352.025V874.956H351.974C351.012 876.627 349.527 877.462 347.518 877.462C345.89 877.462 344.586 876.884 343.607 875.728C342.637 874.564 342.151 872.981 342.151 870.981C342.151 868.838 342.691 867.121 343.772 865.829C344.852 864.538 346.291 863.893 348.088 863.893C349.869 863.893 351.164 864.593 351.974 865.994H352.025V857.969H354.101V877.158ZM352.025 871.298V869.386C352.025 868.34 351.679 867.454 350.987 866.728C350.295 866.002 349.417 865.64 348.354 865.64C347.088 865.64 346.092 866.104 345.367 867.032C344.641 867.96 344.278 869.243 344.278 870.88C344.278 872.374 344.624 873.555 345.316 874.424C346.016 875.285 346.953 875.715 348.126 875.715C349.282 875.715 350.219 875.298 350.936 874.462C351.662 873.627 352.025 872.572 352.025 871.298ZM369.366 877.158H367.29V874.956H367.24C366.278 876.627 364.793 877.462 362.784 877.462C361.155 877.462 359.852 876.884 358.873 875.728C357.902 874.564 357.417 872.981 357.417 870.981C357.417 868.838 357.957 867.121 359.037 865.829C360.118 864.538 361.556 863.893 363.354 863.893C365.134 863.893 366.43 864.593 367.24 865.994H367.29V857.969H369.366V877.158ZM367.29 871.298V869.386C367.29 868.34 366.944 867.454 366.252 866.728C365.561 866.002 364.683 865.64 363.62 865.64C362.354 865.64 361.358 866.104 360.632 867.032C359.907 867.96 359.544 869.243 359.544 870.88C359.544 872.374 359.89 873.555 360.582 874.424C361.282 875.285 362.219 875.715 363.392 875.715C364.548 875.715 365.485 875.298 366.202 874.462C366.928 873.627 367.29 872.572 367.29 871.298ZM380.328 866.298C379.965 866.019 379.442 865.88 378.759 865.88C377.873 865.88 377.13 866.298 376.531 867.133C375.94 867.969 375.645 869.108 375.645 870.551V877.158H373.569V864.197H375.645V866.867H375.695C375.991 865.956 376.442 865.247 377.05 864.741C377.657 864.226 378.337 863.969 379.088 863.969C379.628 863.969 380.041 864.028 380.328 864.146V866.298ZM392.999 871.196H383.847C383.881 872.639 384.269 873.753 385.012 874.538C385.754 875.323 386.776 875.715 388.075 875.715C389.535 875.715 390.877 875.234 392.1 874.272V876.222C390.961 877.049 389.455 877.462 387.581 877.462C385.75 877.462 384.311 876.876 383.265 875.703C382.219 874.521 381.695 872.863 381.695 870.728C381.695 868.711 382.265 867.07 383.404 865.804C384.552 864.53 385.974 863.893 387.67 863.893C389.366 863.893 390.678 864.441 391.607 865.538C392.535 866.635 392.999 868.159 392.999 870.108V871.196ZM390.873 869.437C390.864 868.239 390.573 867.306 389.999 866.64C389.434 865.973 388.645 865.64 387.632 865.64C386.653 865.64 385.822 865.99 385.138 866.69C384.455 867.391 384.033 868.306 383.873 869.437H390.873ZM395.366 876.69V874.462C396.497 875.298 397.742 875.715 399.1 875.715C400.923 875.715 401.835 875.108 401.835 873.893C401.835 873.547 401.754 873.256 401.594 873.019C401.442 872.775 401.231 872.559 400.961 872.374C400.7 872.188 400.387 872.023 400.024 871.88C399.67 871.728 399.286 871.572 398.873 871.412C398.299 871.184 397.792 870.956 397.354 870.728C396.923 870.492 396.56 870.23 396.265 869.943C395.978 869.648 395.759 869.315 395.607 868.943C395.463 868.572 395.392 868.137 395.392 867.64C395.392 867.032 395.531 866.496 395.809 866.032C396.088 865.559 396.459 865.167 396.923 864.855C397.387 864.534 397.915 864.294 398.505 864.133C399.105 863.973 399.721 863.893 400.354 863.893C401.476 863.893 402.48 864.087 403.366 864.475V866.576C402.413 865.952 401.316 865.64 400.075 865.64C399.687 865.64 399.337 865.686 399.024 865.779C398.712 865.863 398.442 865.986 398.214 866.146C397.995 866.306 397.822 866.5 397.695 866.728C397.577 866.948 397.518 867.192 397.518 867.462C397.518 867.8 397.577 868.083 397.695 868.31C397.822 868.538 398.003 868.741 398.24 868.918C398.476 869.095 398.763 869.256 399.1 869.399C399.438 869.542 399.822 869.699 400.252 869.867C400.826 870.087 401.341 870.315 401.797 870.551C402.252 870.779 402.64 871.04 402.961 871.336C403.282 871.623 403.527 871.956 403.695 872.336C403.872 872.715 403.961 873.167 403.961 873.69C403.961 874.331 403.818 874.888 403.531 875.361C403.252 875.834 402.877 876.226 402.404 876.538C401.932 876.85 401.387 877.082 400.771 877.234C400.155 877.386 399.51 877.462 398.835 877.462C397.501 877.462 396.345 877.205 395.366 876.69ZM406.379 876.69V874.462C407.51 875.298 408.754 875.715 410.113 875.715C411.936 875.715 412.847 875.108 412.847 873.893C412.847 873.547 412.767 873.256 412.607 873.019C412.455 872.775 412.244 872.559 411.974 872.374C411.712 872.188 411.4 872.023 411.037 871.88C410.683 871.728 410.299 871.572 409.885 871.412C409.311 871.184 408.805 870.956 408.366 870.728C407.936 870.492 407.573 870.23 407.278 869.943C406.991 869.648 406.771 869.315 406.619 868.943C406.476 868.572 406.404 868.137 406.404 867.64C406.404 867.032 406.543 866.496 406.822 866.032C407.1 865.559 407.472 865.167 407.936 864.855C408.4 864.534 408.927 864.294 409.518 864.133C410.117 863.973 410.733 863.893 411.366 863.893C412.488 863.893 413.493 864.087 414.379 864.475V866.576C413.425 865.952 412.328 865.64 411.088 865.64C410.699 865.64 410.349 865.686 410.037 865.779C409.725 865.863 409.455 865.986 409.227 866.146C409.007 866.306 408.834 866.5 408.708 866.728C408.59 866.948 408.531 867.192 408.531 867.462C408.531 867.8 408.59 868.083 408.708 868.31C408.834 868.538 409.016 868.741 409.252 868.918C409.488 869.095 409.775 869.256 410.113 869.399C410.45 869.542 410.834 869.699 411.265 869.867C411.839 870.087 412.353 870.315 412.809 870.551C413.265 870.779 413.653 871.04 413.974 871.336C414.294 871.623 414.539 871.956 414.708 872.336C414.885 872.715 414.974 873.167 414.974 873.69C414.974 874.331 414.83 874.888 414.543 875.361C414.265 875.834 413.889 876.226 413.417 876.538C412.944 876.85 412.4 877.082 411.784 877.234C411.168 877.386 410.522 877.462 409.847 877.462C408.514 877.462 407.358 877.205 406.379 876.69Z" fill="#605959"/>
<rect x="92.6503" y="599.65" width="581.369" height="88.6434" rx="24.2826" fill="white" stroke="#E1E1E1" stroke-width="3.30055" stroke-linejoin="bevel"/>
<path d="M143.082 655.648H133.459V637.49H142.677V639.415H135.586V645.455H142.145V647.367H135.586V653.723H143.082V655.648ZM157.062 655.648H154.985V648.253C154.985 645.501 153.98 644.125 151.971 644.125C150.933 644.125 150.072 644.518 149.388 645.303C148.713 646.079 148.375 647.063 148.375 648.253V655.648H146.299V642.681H148.375V644.834H148.426C149.405 643.196 150.823 642.378 152.68 642.378C154.099 642.378 155.183 642.838 155.935 643.758C156.686 644.67 157.062 645.991 157.062 647.721V655.648ZM167.002 655.521C166.512 655.791 165.866 655.927 165.064 655.927C162.794 655.927 161.658 654.66 161.658 652.128V644.454H159.43V642.681H161.658V639.516L163.735 638.845V642.681H167.002V644.454H163.735V651.761C163.735 652.63 163.883 653.251 164.178 653.622C164.474 653.993 164.963 654.179 165.647 654.179C166.17 654.179 166.622 654.036 167.002 653.749V655.521ZM180.196 649.684H171.041C171.075 651.127 171.463 652.242 172.206 653.027C172.949 653.812 173.97 654.204 175.27 654.204C176.731 654.204 178.073 653.723 179.297 652.761V654.711C178.158 655.538 176.651 655.952 174.777 655.952C172.945 655.952 171.505 655.365 170.459 654.192C169.412 653.01 168.889 651.351 168.889 649.215C168.889 647.198 169.458 645.556 170.598 644.29C171.746 643.015 173.168 642.378 174.865 642.378C176.562 642.378 177.875 642.926 178.803 644.024C179.732 645.121 180.196 646.645 180.196 648.595V649.684ZM178.069 647.924C178.06 646.725 177.769 645.792 177.195 645.125C176.63 644.458 175.84 644.125 174.827 644.125C173.848 644.125 173.017 644.475 172.333 645.176C171.649 645.877 171.227 646.793 171.066 647.924H178.069ZM190.111 644.783C189.748 644.505 189.225 644.366 188.541 644.366C187.654 644.366 186.912 644.783 186.312 645.619C185.721 646.455 185.426 647.595 185.426 649.038V655.648H183.349V642.681H185.426V645.353H185.476C185.772 644.442 186.224 643.732 186.831 643.226C187.439 642.711 188.119 642.454 188.87 642.454C189.41 642.454 189.824 642.513 190.111 642.631V644.783ZM209.801 642.681L203.837 657.725C202.774 660.409 201.279 661.751 199.355 661.751C198.814 661.751 198.363 661.696 198 661.587V659.725C198.447 659.877 198.857 659.953 199.228 659.953C200.275 659.953 201.06 659.329 201.583 658.079L202.622 655.623L197.557 642.681H199.861L203.369 652.66C203.411 652.786 203.5 653.115 203.635 653.647H203.711C203.753 653.445 203.837 653.124 203.964 652.685L207.649 642.681H209.801ZM217.462 655.952C215.546 655.952 214.014 655.348 212.866 654.141C211.726 652.925 211.156 651.317 211.156 649.317C211.156 647.139 211.751 645.438 212.942 644.214C214.132 642.99 215.74 642.378 217.766 642.378C219.699 642.378 221.206 642.973 222.287 644.163C223.376 645.353 223.92 647.004 223.92 649.114C223.92 651.182 223.333 652.841 222.16 654.09C220.995 655.331 219.429 655.952 217.462 655.952ZM217.614 644.125C216.28 644.125 215.225 644.581 214.448 645.493C213.672 646.396 213.283 647.645 213.283 649.241C213.283 650.777 213.676 651.988 214.461 652.875C215.246 653.761 216.297 654.204 217.614 654.204C218.956 654.204 219.986 653.77 220.704 652.9C221.43 652.031 221.793 650.794 221.793 649.19C221.793 647.569 221.43 646.32 220.704 645.442C219.986 644.564 218.956 644.125 217.614 644.125ZM237.722 655.648H235.646V653.597H235.595C234.734 655.167 233.4 655.952 231.594 655.952C228.504 655.952 226.959 654.112 226.959 650.431V642.681H229.023V650.102C229.023 652.837 230.07 654.204 232.163 654.204C233.176 654.204 234.008 653.833 234.658 653.09C235.316 652.339 235.646 651.36 235.646 650.152V642.681H237.722V655.648ZM248.688 644.783C248.325 644.505 247.802 644.366 247.118 644.366C246.231 644.366 245.489 644.783 244.889 645.619C244.298 646.455 244.003 647.595 244.003 649.038V655.648H241.926V642.681H244.003V645.353H244.053C244.349 644.442 244.801 643.732 245.408 643.226C246.016 642.711 246.696 642.454 247.447 642.454C247.987 642.454 248.401 642.513 248.688 642.631V644.783Z" fill="#989898"/>
<path d="M267.555 639.415H260.464V645.695H267.023V647.607H260.464V655.648H258.337V637.49H267.555V639.415ZM271.784 639.389C271.413 639.389 271.096 639.263 270.835 639.009C270.573 638.756 270.442 638.435 270.442 638.047C270.442 637.659 270.573 637.338 270.835 637.085C271.096 636.823 271.413 636.692 271.784 636.692C272.164 636.692 272.485 636.823 272.747 637.085C273.017 637.338 273.152 637.659 273.152 638.047C273.152 638.418 273.017 638.735 272.747 638.997C272.485 639.258 272.164 639.389 271.784 639.389ZM272.797 655.648H270.721V642.681H272.797V655.648ZM283.763 644.783C283.4 644.505 282.877 644.366 282.193 644.366C281.307 644.366 280.564 644.783 279.964 645.619C279.374 646.455 279.078 647.595 279.078 649.038V655.648H277.001V642.681H279.078V645.353H279.129C279.424 644.442 279.876 643.732 280.484 643.226C281.091 642.711 281.771 642.454 282.522 642.454C283.063 642.454 283.476 642.513 283.763 642.631V644.783ZM285.232 655.179V652.951C286.363 653.787 287.608 654.204 288.968 654.204C290.791 654.204 291.703 653.597 291.703 652.381C291.703 652.035 291.622 651.744 291.462 651.507C291.31 651.262 291.099 651.047 290.829 650.862C290.567 650.676 290.255 650.511 289.892 650.368C289.537 650.216 289.153 650.06 288.74 649.899C288.166 649.671 287.659 649.443 287.22 649.215C286.79 648.979 286.427 648.717 286.131 648.43C285.844 648.135 285.625 647.801 285.473 647.43C285.329 647.059 285.257 646.624 285.257 646.126C285.257 645.518 285.397 644.982 285.675 644.518C285.954 644.045 286.325 643.652 286.79 643.34C287.254 643.019 287.781 642.779 288.372 642.618C288.972 642.458 289.588 642.378 290.221 642.378C291.344 642.378 292.348 642.572 293.235 642.96V645.062C292.281 644.437 291.183 644.125 289.943 644.125C289.554 644.125 289.204 644.171 288.892 644.264C288.579 644.349 288.309 644.471 288.081 644.632C287.862 644.792 287.689 644.986 287.562 645.214C287.444 645.433 287.385 645.678 287.385 645.948C287.385 646.286 287.444 646.569 287.562 646.797C287.689 647.025 287.87 647.227 288.106 647.405C288.343 647.582 288.63 647.742 288.968 647.886C289.305 648.029 289.689 648.185 290.12 648.354C290.694 648.574 291.209 648.802 291.665 649.038C292.121 649.266 292.509 649.528 292.83 649.823C293.15 650.11 293.395 650.444 293.564 650.824C293.741 651.203 293.83 651.655 293.83 652.178C293.83 652.82 293.686 653.377 293.399 653.85C293.121 654.323 292.745 654.715 292.272 655.027C291.8 655.34 291.255 655.572 290.639 655.724C290.023 655.876 289.377 655.952 288.702 655.952C287.368 655.952 286.211 655.694 285.232 655.179ZM303.048 655.521C302.559 655.791 301.913 655.927 301.111 655.927C298.84 655.927 297.705 654.66 297.705 652.128V644.454H295.476V642.681H297.705V639.516L299.781 638.845V642.681H303.048V644.454H299.781V651.761C299.781 652.63 299.929 653.251 300.225 653.622C300.52 653.993 301.01 654.179 301.693 654.179C302.217 654.179 302.668 654.036 303.048 653.749V655.521ZM327.854 655.648H325.246L315.901 641.175C315.664 640.812 315.47 640.432 315.318 640.035H315.242C315.31 640.423 315.344 641.255 315.344 642.53V655.648H313.216V637.49H315.977L325.068 651.735C325.448 652.326 325.693 652.731 325.803 652.951H325.854C325.769 652.427 325.727 651.537 325.727 650.279V637.49H327.854V655.648ZM341.618 655.648H339.542V653.622H339.491C338.588 655.175 337.258 655.952 335.502 655.952C334.211 655.952 333.198 655.61 332.463 654.926C331.737 654.242 331.374 653.335 331.374 652.204C331.374 649.781 332.801 648.371 335.654 647.974L339.542 647.43C339.542 645.227 338.651 644.125 336.87 644.125C335.308 644.125 333.899 644.657 332.641 645.721V643.593C333.915 642.783 335.384 642.378 337.047 642.378C340.095 642.378 341.618 643.99 341.618 647.215V655.648ZM339.542 649.089L336.414 649.519C335.452 649.654 334.726 649.895 334.236 650.241C333.747 650.579 333.502 651.182 333.502 652.052C333.502 652.685 333.725 653.204 334.173 653.609C334.629 654.006 335.232 654.204 335.984 654.204C337.014 654.204 337.862 653.846 338.529 653.128C339.204 652.402 339.542 651.486 339.542 650.38V649.089ZM363.943 655.648H361.866V648.202C361.866 646.767 361.642 645.729 361.195 645.087C360.756 644.446 360.013 644.125 358.966 644.125C358.08 644.125 357.324 644.53 356.7 645.341C356.083 646.151 355.775 647.122 355.775 648.253V655.648H353.699V647.949C353.699 645.4 352.715 644.125 350.748 644.125C349.836 644.125 349.085 644.509 348.494 645.277C347.903 646.037 347.608 647.029 347.608 648.253V655.648H345.531V642.681H347.608V644.733H347.658C348.579 643.163 349.921 642.378 351.685 642.378C352.572 642.378 353.344 642.627 354.002 643.125C354.661 643.614 355.113 644.26 355.357 645.062C356.32 643.272 357.755 642.378 359.663 642.378C362.516 642.378 363.943 644.138 363.943 647.658V655.648ZM378.289 649.684H369.134C369.168 651.127 369.556 652.242 370.299 653.027C371.042 653.812 372.063 654.204 373.363 654.204C374.824 654.204 376.166 653.723 377.39 652.761V654.711C376.251 655.538 374.744 655.952 372.87 655.952C371.038 655.952 369.598 655.365 368.552 654.192C367.505 653.01 366.982 651.351 366.982 649.215C366.982 647.198 367.551 645.556 368.691 644.29C369.839 643.015 371.261 642.378 372.958 642.378C374.655 642.378 375.968 642.926 376.896 644.024C377.825 645.121 378.289 646.645 378.289 648.595V649.684ZM376.162 647.924C376.153 646.725 375.862 645.792 375.288 645.125C374.723 644.458 373.933 644.125 372.92 644.125C371.941 644.125 371.11 644.475 370.426 645.176C369.742 645.877 369.32 646.793 369.16 647.924H376.162Z" fill="#605959"/>
<rect x="770.981" y="599.65" width="581.369" height="309.583" rx="24.2826" fill="white" stroke="#E1E1E1" stroke-width="3.30055" stroke-linejoin="bevel"/>
<path d="M826.39 652.534H816.766V634.376H825.985V636.3H818.894V642.34H825.453V644.252H818.894V650.609H826.39V652.534ZM840.369 652.534H838.293V645.139C838.293 642.387 837.288 641.011 835.279 641.011C834.241 641.011 833.38 641.403 832.696 642.188C832.02 642.965 831.683 643.948 831.683 645.139V652.534H829.606V639.567H831.683V641.72H831.733C832.713 640.082 834.131 639.263 835.988 639.263C837.406 639.263 838.491 639.723 839.242 640.644C839.994 641.555 840.369 642.876 840.369 644.607V652.534ZM850.309 652.407C849.82 652.677 849.174 652.812 848.372 652.812C846.101 652.812 844.966 651.546 844.966 649.014V641.34H842.737V639.567H844.966V636.402L847.043 635.73V639.567H850.309V641.34H847.043V648.646C847.043 649.516 847.19 650.136 847.486 650.508C847.781 650.879 848.271 651.065 848.955 651.065C849.478 651.065 849.93 650.921 850.309 650.634V652.407ZM863.504 646.57H854.349C854.383 648.013 854.771 649.127 855.514 649.913C856.257 650.698 857.278 651.09 858.578 651.09C860.039 651.09 861.381 650.609 862.605 649.647V651.597C861.465 652.424 859.958 652.838 858.084 652.838C856.252 652.838 854.813 652.251 853.766 651.077C852.72 649.896 852.196 648.237 852.196 646.101C852.196 644.084 852.766 642.442 853.906 641.175C855.054 639.901 856.476 639.263 858.173 639.263C859.87 639.263 861.182 639.812 862.111 640.909C863.04 642.007 863.504 643.531 863.504 645.481V646.57ZM861.377 644.81C861.368 643.611 861.077 642.678 860.503 642.011C859.937 641.344 859.148 641.011 858.135 641.011C857.156 641.011 856.324 641.361 855.64 642.062C854.957 642.762 854.535 643.678 854.374 644.81H861.377ZM873.419 641.669C873.056 641.391 872.532 641.251 871.848 641.251C870.962 641.251 870.219 641.669 869.62 642.505C869.029 643.341 868.733 644.48 868.733 645.924V652.534H866.657V639.567H868.733V642.239H868.784C869.08 641.327 869.531 640.618 870.139 640.112C870.747 639.597 871.426 639.339 872.178 639.339C872.718 639.339 873.132 639.398 873.419 639.517V641.669ZM893.109 639.567L887.145 654.61C886.081 657.295 884.587 658.637 882.662 658.637C882.122 658.637 881.67 658.582 881.307 658.472V656.611C881.755 656.763 882.164 656.839 882.536 656.839C883.582 656.839 884.368 656.214 884.891 654.965L885.929 652.508L880.864 639.567H883.169L886.676 649.545C886.719 649.672 886.807 650.001 886.942 650.533H887.018C887.06 650.33 887.145 650.01 887.271 649.571L890.956 639.567H893.109ZM900.77 652.838C898.853 652.838 897.321 652.234 896.173 651.027C895.034 649.811 894.464 648.203 894.464 646.202C894.464 644.024 895.059 642.323 896.249 641.099C897.439 639.875 899.048 639.263 901.074 639.263C903.007 639.263 904.514 639.858 905.594 641.049C906.683 642.239 907.228 643.889 907.228 646C907.228 648.068 906.641 649.727 905.468 650.976C904.303 652.217 902.737 652.838 900.77 652.838ZM900.922 641.011C899.588 641.011 898.533 641.467 897.756 642.378C896.979 643.282 896.591 644.531 896.591 646.126C896.591 647.663 896.984 648.874 897.769 649.761C898.554 650.647 899.605 651.09 900.922 651.09C902.264 651.09 903.294 650.655 904.011 649.786C904.737 648.916 905.1 647.68 905.1 646.076C905.1 644.455 904.737 643.206 904.011 642.328C903.294 641.45 902.264 641.011 900.922 641.011ZM921.03 652.534H918.953V650.482H918.903C918.041 652.053 916.708 652.838 914.901 652.838C911.811 652.838 910.267 650.997 910.267 647.317V639.567H912.331V646.987C912.331 649.723 913.377 651.09 915.471 651.09C916.484 651.09 917.315 650.719 917.965 649.976C918.624 649.225 918.953 648.245 918.953 647.038V639.567H921.03V652.534ZM931.996 641.669C931.633 641.391 931.109 641.251 930.425 641.251C929.539 641.251 928.796 641.669 928.197 642.505C927.606 643.341 927.31 644.48 927.31 645.924V652.534H925.234V639.567H927.31V642.239H927.361C927.657 641.327 928.108 640.618 928.716 640.112C929.324 639.597 930.003 639.339 930.755 639.339C931.295 639.339 931.709 639.398 931.996 639.517V641.669Z" fill="#989898"/>
<path d="M960.157 652.534H958.042V640.352C958.042 639.39 958.102 638.212 958.22 636.819H958.169C957.967 637.638 957.785 638.225 957.625 638.58L951.42 652.534H950.382L944.19 638.681C944.012 638.276 943.831 637.655 943.645 636.819H943.595C943.662 637.545 943.696 638.732 943.696 640.378V652.534H941.644V634.376H944.456L950.027 647.038C950.458 648.009 950.736 648.735 950.863 649.216H950.939C951.302 648.22 951.593 647.477 951.813 646.987L957.498 634.376H960.157V652.534ZM975.086 646.57H965.931C965.965 648.013 966.353 649.127 967.096 649.913C967.839 650.698 968.861 651.09 970.161 651.09C971.621 651.09 972.963 650.609 974.187 649.647V651.597C973.048 652.424 971.541 652.838 969.667 652.838C967.835 652.838 966.396 652.251 965.349 651.077C964.302 649.896 963.779 648.237 963.779 646.101C963.779 644.084 964.348 642.442 965.488 641.175C966.636 639.901 968.059 639.263 969.755 639.263C971.452 639.263 972.765 639.812 973.693 640.909C974.622 642.007 975.086 643.531 975.086 645.481V646.57ZM972.959 644.81C972.951 643.611 972.659 642.678 972.085 642.011C971.52 641.344 970.73 641.011 969.717 641.011C968.738 641.011 967.907 641.361 967.223 642.062C966.539 642.762 966.117 643.678 965.957 644.81H972.959ZM977.454 652.065V649.837C978.585 650.672 979.831 651.09 981.19 651.09C983.013 651.09 983.925 650.482 983.925 649.267C983.925 648.921 983.845 648.629 983.684 648.393C983.532 648.148 983.321 647.933 983.051 647.747C982.789 647.562 982.477 647.397 982.114 647.253C981.759 647.101 981.375 646.945 980.962 646.785C980.388 646.557 979.881 646.329 979.442 646.101C979.012 645.865 978.649 645.603 978.353 645.316C978.066 645.021 977.847 644.687 977.695 644.316C977.551 643.944 977.479 643.51 977.479 643.011C977.479 642.404 977.619 641.868 977.897 641.403C978.176 640.931 978.547 640.538 979.012 640.226C979.476 639.905 980.004 639.664 980.594 639.504C981.194 639.344 981.81 639.263 982.443 639.263C983.566 639.263 984.571 639.457 985.457 639.846V641.948C984.503 641.323 983.406 641.011 982.165 641.011C981.776 641.011 981.426 641.057 981.114 641.15C980.801 641.234 980.531 641.357 980.303 641.517C980.084 641.678 979.911 641.872 979.784 642.1C979.666 642.319 979.607 642.564 979.607 642.834C979.607 643.172 979.666 643.455 979.784 643.683C979.911 643.91 980.092 644.113 980.329 644.29C980.565 644.468 980.852 644.628 981.19 644.772C981.527 644.915 981.911 645.071 982.342 645.24C982.916 645.46 983.431 645.687 983.887 645.924C984.343 646.152 984.731 646.413 985.052 646.709C985.372 646.996 985.617 647.329 985.786 647.709C985.963 648.089 986.052 648.541 986.052 649.064C986.052 649.706 985.909 650.263 985.622 650.736C985.343 651.208 984.967 651.601 984.495 651.913C984.022 652.226 983.477 652.458 982.861 652.61C982.245 652.762 981.599 652.838 980.924 652.838C979.59 652.838 978.433 652.58 977.454 652.065ZM988.471 652.065V649.837C989.602 650.672 990.847 651.09 992.206 651.09C994.029 651.09 994.941 650.482 994.941 649.267C994.941 648.921 994.861 648.629 994.701 648.393C994.549 648.148 994.338 647.933 994.067 647.747C993.806 647.562 993.493 647.397 993.13 647.253C992.776 647.101 992.392 646.945 991.978 646.785C991.404 646.557 990.898 646.329 990.459 646.101C990.028 645.865 989.665 645.603 989.37 645.316C989.083 645.021 988.863 644.687 988.711 644.316C988.568 643.944 988.496 643.51 988.496 643.011C988.496 642.404 988.635 641.868 988.914 641.403C989.192 640.931 989.564 640.538 990.028 640.226C990.492 639.905 991.02 639.664 991.611 639.504C992.21 639.344 992.827 639.263 993.46 639.263C994.582 639.263 995.587 639.457 996.473 639.846V641.948C995.519 641.323 994.422 641.011 993.181 641.011C992.793 641.011 992.442 641.057 992.13 641.15C991.818 641.234 991.548 641.357 991.32 641.517C991.1 641.678 990.927 641.872 990.801 642.1C990.682 642.319 990.623 642.564 990.623 642.834C990.623 643.172 990.682 643.455 990.801 643.683C990.927 643.91 991.109 644.113 991.345 644.29C991.581 644.468 991.868 644.628 992.206 644.772C992.544 644.915 992.928 645.071 993.358 645.24C993.932 645.46 994.447 645.687 994.903 645.924C995.359 646.152 995.747 646.413 996.068 646.709C996.389 646.996 996.634 647.329 996.803 647.709C996.98 648.089 997.068 648.541 997.068 649.064C997.068 649.706 996.925 650.263 996.638 650.736C996.359 651.208 995.984 651.601 995.511 651.913C995.038 652.226 994.494 652.458 993.878 652.61C993.261 652.762 992.615 652.838 991.94 652.838C990.606 652.838 989.45 652.58 988.471 652.065ZM1009.55 652.534H1007.48V650.508H1007.43C1006.52 652.061 1005.19 652.838 1003.44 652.838C1002.15 652.838 1001.13 652.496 1000.4 651.812C999.673 651.128 999.31 650.221 999.31 649.089C999.31 646.667 1000.74 645.257 1003.59 644.86L1007.48 644.316C1007.48 642.112 1006.59 641.011 1004.81 641.011C1003.24 641.011 1001.83 641.543 1000.58 642.606V640.479C1001.85 639.669 1003.32 639.263 1004.98 639.263C1008.03 639.263 1009.55 640.876 1009.55 644.1V652.534ZM1007.48 645.974L1004.35 646.405C1003.39 646.54 1002.66 646.781 1002.17 647.127C1001.68 647.464 1001.44 648.068 1001.44 648.938C1001.44 649.571 1001.66 650.09 1002.11 650.495C1002.56 650.892 1003.17 651.09 1003.92 651.09C1004.95 651.09 1005.8 650.731 1006.46 650.014C1007.14 649.288 1007.48 648.372 1007.48 647.266V645.974ZM1024.53 651.495C1024.53 656.256 1022.25 658.637 1017.7 658.637C1016.09 658.637 1014.69 658.333 1013.49 657.725V655.649C1014.95 656.459 1016.35 656.864 1017.67 656.864C1020.86 656.864 1022.46 655.168 1022.46 651.774V650.356H1022.41C1021.42 652.01 1019.93 652.838 1017.95 652.838C1016.34 652.838 1015.04 652.264 1014.05 651.115C1013.07 649.959 1012.58 648.41 1012.58 646.468C1012.58 644.265 1013.11 642.513 1014.16 641.213C1015.23 639.913 1016.68 639.263 1018.52 639.263C1020.27 639.263 1021.56 639.964 1022.41 641.365H1022.46V639.567H1024.53V651.495ZM1022.46 646.671V644.759C1022.46 643.729 1022.11 642.847 1021.41 642.112C1020.71 641.378 1019.85 641.011 1018.81 641.011C1017.53 641.011 1016.52 641.479 1015.8 642.416C1015.07 643.345 1014.71 644.649 1014.71 646.329C1014.71 647.773 1015.05 648.929 1015.75 649.799C1016.45 650.66 1017.37 651.09 1018.52 651.09C1019.68 651.09 1020.63 650.677 1021.36 649.849C1022.09 649.022 1022.46 647.963 1022.46 646.671ZM1039.16 646.57H1030C1030.04 648.013 1030.43 649.127 1031.17 649.913C1031.91 650.698 1032.93 651.09 1034.23 651.09C1035.69 651.09 1037.04 650.609 1038.26 649.647V651.597C1037.12 652.424 1035.61 652.838 1033.74 652.838C1031.91 652.838 1030.47 652.251 1029.42 651.077C1028.37 649.896 1027.85 648.237 1027.85 646.101C1027.85 644.084 1028.42 642.442 1029.56 641.175C1030.71 639.901 1032.13 639.263 1033.83 639.263C1035.52 639.263 1036.84 639.812 1037.77 640.909C1038.69 642.007 1039.16 643.531 1039.16 645.481V646.57ZM1037.03 644.81C1037.02 643.611 1036.73 642.678 1036.16 642.011C1035.59 641.344 1034.8 641.011 1033.79 641.011C1032.81 641.011 1031.98 641.361 1031.3 642.062C1030.61 642.762 1030.19 643.678 1030.03 644.81H1037.03Z" fill="#605959"/>
<rect x="92.6503" y="710.454" width="581.369" height="88.6434" rx="24.2826" fill="white" stroke="#E1E1E1" stroke-width="3.30055" stroke-linejoin="bevel"/>
<path d="M143.082 768.81H133.459V750.652H142.677V752.576H135.586V758.616H142.145V760.529H135.586V766.885H143.082V768.81ZM157.062 768.81H154.985V761.415C154.985 758.663 153.98 757.287 151.971 757.287C150.933 757.287 150.072 757.679 149.388 758.465C148.713 759.241 148.375 760.225 148.375 761.415V768.81H146.299V755.843H148.375V757.996H148.426C149.405 756.358 150.823 755.539 152.68 755.539C154.099 755.539 155.183 756 155.935 756.92C156.686 757.831 157.062 759.153 157.062 760.883V768.81ZM167.002 768.683C166.512 768.953 165.866 769.088 165.064 769.088C162.794 769.088 161.658 767.822 161.658 765.29V757.616H159.43V755.843H161.658V752.678L163.735 752.007V755.843H167.002V757.616H163.735V764.922C163.735 765.792 163.883 766.412 164.178 766.784C164.474 767.155 164.963 767.341 165.647 767.341C166.17 767.341 166.622 767.197 167.002 766.91V768.683ZM180.196 762.846H171.041C171.075 764.289 171.463 765.404 172.206 766.189C172.949 766.974 173.97 767.366 175.27 767.366C176.731 767.366 178.073 766.885 179.297 765.923V767.873C178.158 768.7 176.651 769.114 174.777 769.114C172.945 769.114 171.505 768.527 170.459 767.354C169.412 766.172 168.889 764.513 168.889 762.377C168.889 760.36 169.458 758.718 170.598 757.452C171.746 756.177 173.168 755.539 174.865 755.539C176.562 755.539 177.875 756.088 178.803 757.186C179.732 758.283 180.196 759.807 180.196 761.757V762.846ZM178.069 761.086C178.06 759.887 177.769 758.954 177.195 758.287C176.63 757.62 175.84 757.287 174.827 757.287C173.848 757.287 173.017 757.637 172.333 758.338C171.649 759.039 171.227 759.954 171.066 761.086H178.069ZM190.111 757.945C189.748 757.667 189.225 757.527 188.541 757.527C187.654 757.527 186.912 757.945 186.312 758.781C185.721 759.617 185.426 760.756 185.426 762.2V768.81H183.349V755.843H185.426V758.515H185.476C185.772 757.603 186.224 756.894 186.831 756.388C187.439 755.873 188.119 755.615 188.87 755.615C189.41 755.615 189.824 755.675 190.111 755.793V757.945ZM209.801 755.843L203.837 770.886C202.774 773.571 201.279 774.913 199.355 774.913C198.814 774.913 198.363 774.858 198 774.749V772.887C198.447 773.039 198.857 773.115 199.228 773.115C200.275 773.115 201.06 772.49 201.583 771.241L202.622 768.784L197.557 755.843H199.861L203.369 765.821C203.411 765.948 203.5 766.277 203.635 766.809H203.711C203.753 766.607 203.837 766.286 203.964 765.847L207.649 755.843H209.801ZM217.462 769.114C215.546 769.114 214.014 768.51 212.866 767.303C211.726 766.087 211.156 764.479 211.156 762.479C211.156 760.301 211.751 758.6 212.942 757.376C214.132 756.151 215.74 755.539 217.766 755.539C219.699 755.539 221.206 756.135 222.287 757.325C223.376 758.515 223.92 760.166 223.92 762.276C223.92 764.344 223.333 766.003 222.16 767.252C220.995 768.493 219.429 769.114 217.462 769.114ZM217.614 757.287C216.28 757.287 215.225 757.743 214.448 758.654C213.672 759.558 213.283 760.807 213.283 762.403C213.283 763.939 213.676 765.15 214.461 766.037C215.246 766.923 216.297 767.366 217.614 767.366C218.956 767.366 219.986 766.932 220.704 766.062C221.43 765.193 221.793 763.956 221.793 762.352C221.793 760.731 221.43 759.482 220.704 758.604C219.986 757.726 218.956 757.287 217.614 757.287ZM237.722 768.81H235.646V766.758H235.595C234.734 768.329 233.4 769.114 231.594 769.114C228.504 769.114 226.959 767.273 226.959 763.593V755.843H229.023V763.264C229.023 765.999 230.07 767.366 232.163 767.366C233.176 767.366 234.008 766.995 234.658 766.252C235.316 765.501 235.646 764.521 235.646 763.314V755.843H237.722V768.81ZM248.688 757.945C248.325 757.667 247.802 757.527 247.118 757.527C246.231 757.527 245.489 757.945 244.889 758.781C244.298 759.617 244.003 760.756 244.003 762.2V768.81H241.926V755.843H244.003V758.515H244.053C244.349 757.603 244.801 756.894 245.408 756.388C246.016 755.873 246.696 755.615 247.447 755.615C247.987 755.615 248.401 755.675 248.688 755.793V757.945Z" fill="#989898"/>
<path d="M267.758 768.81H258.337V750.652H260.464V766.885H267.758V768.81ZM279.547 768.81H277.47V766.784H277.419C276.516 768.337 275.186 769.114 273.431 769.114C272.139 769.114 271.126 768.772 270.392 768.088C269.666 767.404 269.303 766.497 269.303 765.366C269.303 762.943 270.729 761.533 273.583 761.136L277.47 760.592C277.47 758.389 276.579 757.287 274.798 757.287C273.236 757.287 271.827 757.819 270.569 758.882V756.755C271.844 755.945 273.312 755.539 274.975 755.539C278.023 755.539 279.547 757.152 279.547 760.377V768.81ZM277.47 762.251L274.342 762.681C273.38 762.816 272.654 763.057 272.164 763.403C271.675 763.741 271.43 764.344 271.43 765.214C271.43 765.847 271.654 766.366 272.101 766.771C272.557 767.168 273.16 767.366 273.912 767.366C274.942 767.366 275.79 767.008 276.457 766.29C277.132 765.564 277.47 764.648 277.47 763.542V762.251ZM282.674 768.341V766.113C283.805 766.948 285.051 767.366 286.41 767.366C288.233 767.366 289.145 766.758 289.145 765.543C289.145 765.197 289.065 764.906 288.904 764.669C288.752 764.424 288.541 764.209 288.271 764.023C288.009 763.838 287.697 763.673 287.334 763.53C286.98 763.378 286.595 763.221 286.182 763.061C285.608 762.833 285.101 762.605 284.662 762.377C284.232 762.141 283.869 761.879 283.573 761.592C283.286 761.297 283.067 760.963 282.915 760.592C282.771 760.22 282.7 759.786 282.7 759.288C282.7 758.68 282.839 758.144 283.117 757.679C283.396 757.207 283.767 756.814 284.232 756.502C284.696 756.181 285.224 755.94 285.815 755.78C286.414 755.62 287.03 755.539 287.663 755.539C288.786 755.539 289.791 755.734 290.677 756.122V758.224C289.723 757.599 288.626 757.287 287.385 757.287C286.996 757.287 286.646 757.333 286.334 757.426C286.021 757.511 285.751 757.633 285.523 757.793C285.304 757.954 285.131 758.148 285.004 758.376C284.886 758.595 284.827 758.84 284.827 759.11C284.827 759.448 284.886 759.731 285.004 759.959C285.131 760.187 285.312 760.389 285.549 760.566C285.785 760.744 286.072 760.904 286.41 761.048C286.747 761.191 287.131 761.347 287.562 761.516C288.136 761.736 288.651 761.964 289.107 762.2C289.563 762.428 289.951 762.69 290.272 762.985C290.593 763.272 290.837 763.606 291.006 763.985C291.183 764.365 291.272 764.817 291.272 765.34C291.272 765.982 291.129 766.539 290.842 767.012C290.563 767.484 290.187 767.877 289.715 768.189C289.242 768.502 288.697 768.734 288.081 768.886C287.465 769.038 286.819 769.114 286.144 769.114C284.81 769.114 283.653 768.856 282.674 768.341ZM300.49 768.683C300.001 768.953 299.355 769.088 298.553 769.088C296.282 769.088 295.147 767.822 295.147 765.29V757.616H292.918V755.843H295.147V752.678L297.224 752.007V755.843H300.49V757.616H297.224V764.922C297.224 765.792 297.371 766.412 297.667 766.784C297.962 767.155 298.452 767.341 299.136 767.341C299.659 767.341 300.111 767.197 300.49 766.91V768.683ZM325.296 768.81H322.688L313.343 754.337C313.107 753.974 312.912 753.594 312.76 753.197H312.685C312.752 753.585 312.786 754.417 312.786 755.691V768.81H310.658V750.652H313.419L322.511 764.897C322.891 765.488 323.135 765.893 323.245 766.113H323.296C323.211 765.589 323.169 764.699 323.169 763.441V750.652H325.296V768.81ZM339.061 768.81H336.984V766.784H336.933C336.03 768.337 334.7 769.114 332.945 769.114C331.653 769.114 330.64 768.772 329.906 768.088C329.18 767.404 328.817 766.497 328.817 765.366C328.817 762.943 330.243 761.533 333.097 761.136L336.984 760.592C336.984 758.389 336.093 757.287 334.312 757.287C332.75 757.287 331.341 757.819 330.083 758.882V756.755C331.358 755.945 332.826 755.539 334.489 755.539C337.537 755.539 339.061 757.152 339.061 760.377V768.81ZM336.984 762.251L333.856 762.681C332.894 762.816 332.168 763.057 331.678 763.403C331.189 763.741 330.944 764.344 330.944 765.214C330.944 765.847 331.168 766.366 331.615 766.771C332.071 767.168 332.674 767.366 333.426 767.366C334.456 767.366 335.304 767.008 335.971 766.29C336.646 765.564 336.984 764.648 336.984 763.542V762.251ZM361.385 768.81H359.308V761.364C359.308 759.929 359.084 758.891 358.637 758.249C358.198 757.608 357.455 757.287 356.408 757.287C355.522 757.287 354.766 757.692 354.142 758.502C353.525 759.313 353.217 760.284 353.217 761.415V768.81H351.141V761.111C351.141 758.562 350.157 757.287 348.19 757.287C347.279 757.287 346.527 757.671 345.936 758.439C345.345 759.199 345.05 760.191 345.05 761.415V768.81H342.973V755.843H345.05V757.895H345.101C346.021 756.325 347.363 755.539 349.127 755.539C350.014 755.539 350.786 755.788 351.445 756.287C352.103 756.776 352.555 757.422 352.799 758.224C353.762 756.434 355.197 755.539 357.105 755.539C359.958 755.539 361.385 757.3 361.385 760.82V768.81ZM375.731 762.846H366.576C366.61 764.289 366.998 765.404 367.741 766.189C368.484 766.974 369.506 767.366 370.806 767.366C372.266 767.366 373.608 766.885 374.832 765.923V767.873C373.693 768.7 372.186 769.114 370.312 769.114C368.48 769.114 367.041 768.527 365.994 767.354C364.947 766.172 364.424 764.513 364.424 762.377C364.424 760.36 364.994 758.718 366.133 757.452C367.281 756.177 368.704 755.539 370.4 755.539C372.097 755.539 373.41 756.088 374.339 757.186C375.267 758.283 375.731 759.807 375.731 761.757V762.846ZM373.604 761.086C373.596 759.887 373.304 758.954 372.73 758.287C372.165 757.62 371.375 757.287 370.362 757.287C369.383 757.287 368.552 757.637 367.868 758.338C367.184 759.039 366.762 759.954 366.602 761.086H373.604Z" fill="#605959"/>
</svg>
