<svg width="1577" height="495" viewBox="0 0 1577 495" fill="none" xmlns="http://www.w3.org/2000/svg">
<path d="M715.603 18.8241V22.9958H707.304V50H702.19V22.9958H693.847V18.8241H715.603ZM733.566 24.8798C735.45 24.8798 737.125 25.2836 738.59 26.091C740.085 26.8984 741.252 28.0946 742.089 29.6796C742.956 31.2645 743.39 33.1785 743.39 35.4213V50H738.321V36.1839C738.321 33.9709 737.768 32.2813 736.661 31.115C735.555 29.9188 734.044 29.3207 732.131 29.3207C730.217 29.3207 728.691 29.9188 727.555 31.115C726.449 32.2813 725.895 33.9709 725.895 36.1839V50H720.782V16.8055H725.895V28.1544C726.763 27.1078 727.854 26.3003 729.17 25.7321C730.516 25.1639 731.981 24.8798 733.566 24.8798ZM772.566 37.0362C772.566 37.9633 772.506 38.8006 772.386 39.5482H753.501C753.651 41.5219 754.383 43.1069 755.699 44.3031C757.015 45.4993 758.63 46.0974 760.544 46.0974C763.295 46.0974 765.239 44.9461 766.375 42.6434H771.893C771.145 44.9162 769.784 46.7852 767.811 48.2506C765.867 49.686 763.445 50.4037 760.544 50.4037C758.181 50.4037 756.058 49.8804 754.174 48.8337C752.32 47.7571 750.855 46.2619 749.778 44.348C748.731 42.4041 748.208 40.1613 748.208 37.6193C748.208 35.0774 748.716 32.8495 749.733 30.9356C750.78 28.9918 752.23 27.4965 754.084 26.4498C755.968 25.4032 758.122 24.8798 760.544 24.8798C762.876 24.8798 764.955 25.3882 766.779 26.405C768.603 27.4218 770.024 28.8572 771.04 30.7113C772.057 32.5355 772.566 34.6438 772.566 37.0362ZM767.228 35.4213C767.198 33.5373 766.525 32.0271 765.209 30.8907C763.893 29.7543 762.263 29.1862 760.32 29.1862C758.555 29.1862 757.045 29.7543 755.789 30.8907C754.533 31.9972 753.785 33.5074 753.546 35.4213H767.228ZM809.391 18.8241V22.9958H801.093V50H795.979V22.9958H787.636V18.8241H809.391ZM837.223 37.0362C837.223 37.9633 837.164 38.8006 837.044 39.5482H818.159C818.309 41.5219 819.041 43.1069 820.357 44.3031C821.673 45.4993 823.288 46.0974 825.202 46.0974C827.953 46.0974 829.897 44.9461 831.033 42.6434H836.551C835.803 44.9162 834.442 46.7852 832.469 48.2506C830.525 49.686 828.102 50.4037 825.202 50.4037C822.839 50.4037 820.716 49.8804 818.832 48.8337C816.978 47.7571 815.512 46.2619 814.436 44.348C813.389 42.4041 812.866 40.1613 812.866 37.6193C812.866 35.0774 813.374 32.8495 814.391 30.9356C815.438 28.9918 816.888 27.4965 818.742 26.4498C820.626 25.4032 822.779 24.8798 825.202 24.8798C827.534 24.8798 829.613 25.3882 831.437 26.405C833.261 27.4218 834.682 28.8572 835.698 30.7113C836.715 32.5355 837.223 34.6438 837.223 37.0362ZM831.885 35.4213C831.855 33.5373 831.183 32.0271 829.867 30.8907C828.551 29.7543 826.921 29.1862 824.977 29.1862C823.213 29.1862 821.703 29.7543 820.447 30.8907C819.191 31.9972 818.443 33.5074 818.204 35.4213H831.885ZM840.551 37.5296C840.551 35.0475 841.06 32.8495 842.076 30.9356C843.123 29.0217 844.529 27.5414 846.293 26.4947C848.087 25.4181 850.061 24.8798 852.214 24.8798C854.158 24.8798 855.848 25.2686 857.283 26.0461C858.748 26.7938 859.915 27.7358 860.782 28.8721V25.2836H865.941V50H860.782V46.3217C859.915 47.488 858.733 48.4599 857.238 49.2374C855.743 50.015 854.038 50.4037 852.124 50.4037C850.001 50.4037 848.057 49.8654 846.293 48.7888C844.529 47.6824 843.123 46.1572 842.076 44.2134C841.06 42.2397 840.551 40.0117 840.551 37.5296ZM860.782 37.6193C860.782 35.9148 860.423 34.4345 859.705 33.1785C859.018 31.9225 858.105 30.9655 856.969 30.3076C855.833 29.6497 854.607 29.3207 853.291 29.3207C851.975 29.3207 850.749 29.6497 849.612 30.3076C848.476 30.9356 847.549 31.8776 846.831 33.1336C846.143 34.3597 845.8 35.8251 845.8 37.5296C845.8 39.2342 846.143 40.7295 846.831 42.0154C847.549 43.3013 848.476 44.2882 849.612 44.976C850.779 45.6339 852.005 45.9628 853.291 45.9628C854.607 45.9628 855.833 45.6339 856.969 44.976C858.105 44.3181 859.018 43.3611 859.705 42.1051C860.423 40.8192 860.782 39.3239 860.782 37.6193ZM902.577 24.8798C904.521 24.8798 906.255 25.2836 907.781 26.091C909.336 26.8984 910.547 28.0946 911.414 29.6796C912.311 31.2645 912.76 33.1785 912.76 35.4213V50H907.691V36.1839C907.691 33.9709 907.138 32.2813 906.031 31.115C904.925 29.9188 903.415 29.3207 901.501 29.3207C899.587 29.3207 898.062 29.9188 896.925 31.115C895.819 32.2813 895.265 33.9709 895.265 36.1839V50H890.197V36.1839C890.197 33.9709 889.643 32.2813 888.537 31.115C887.43 29.9188 885.92 29.3207 884.006 29.3207C882.092 29.3207 880.567 29.9188 879.431 31.115C878.324 32.2813 877.771 33.9709 877.771 36.1839V50H872.657V25.2836H877.771V28.1096C878.608 27.0928 879.67 26.3003 880.956 25.7321C882.242 25.1639 883.617 24.8798 885.083 24.8798C887.057 24.8798 888.821 25.2985 890.376 26.1358C891.931 26.9732 893.127 28.1843 893.965 29.7693C894.712 28.274 895.878 27.0928 897.463 26.2256C899.048 25.3284 900.753 24.8798 902.577 24.8798Z" fill="white"/>
<circle cx="144.536" cy="289.315" r="144.536" fill="#C4C4C4"/>
<path d="M116.738 482.193L112.111 473.794H110.811V482.193H105.392V459.945H114.487C116.241 459.945 117.731 460.251 118.956 460.864C120.203 461.477 121.132 462.322 121.745 463.399C122.358 464.456 122.664 465.639 122.664 466.949C122.664 468.428 122.242 469.748 121.396 470.91C120.572 472.072 119.347 472.896 117.72 473.382L122.854 482.193H116.738ZM110.811 469.96H114.171C115.164 469.96 115.903 469.717 116.389 469.231C116.896 468.745 117.15 468.058 117.15 467.171C117.15 466.326 116.896 465.66 116.389 465.174C115.903 464.688 115.164 464.445 114.171 464.445H110.811V469.96ZM124.989 473.319C124.989 471.502 125.327 469.907 126.003 468.533C126.7 467.16 127.64 466.104 128.823 465.364C130.007 464.625 131.327 464.255 132.785 464.255C134.032 464.255 135.12 464.508 136.049 465.016C137 465.523 137.729 466.188 138.236 467.012V464.508H143.655V482.193H138.236V479.689C137.708 480.513 136.968 481.179 136.018 481.686C135.088 482.193 134 482.446 132.753 482.446C131.317 482.446 130.007 482.077 128.823 481.337C127.64 480.577 126.7 479.51 126.003 478.136C125.327 476.742 124.989 475.136 124.989 473.319ZM138.236 473.351C138.236 471.998 137.856 470.931 137.095 470.15C136.356 469.368 135.447 468.977 134.37 468.977C133.292 468.977 132.373 469.368 131.612 470.15C130.873 470.91 130.503 471.967 130.503 473.319C130.503 474.671 130.873 475.749 131.612 476.552C132.373 477.333 133.292 477.724 134.37 477.724C135.447 477.724 136.356 477.333 137.095 476.552C137.856 475.77 138.236 474.703 138.236 473.351ZM157.433 477.597V482.193H154.675C152.71 482.193 151.179 481.717 150.08 480.767C148.981 479.795 148.432 478.221 148.432 476.045V469.009H146.277V464.508H148.432V460.198H153.851V464.508H157.401V469.009H153.851V476.108C153.851 476.636 153.978 477.016 154.232 477.249C154.485 477.481 154.908 477.597 155.499 477.597H157.433ZM163.177 462.67C162.226 462.67 161.444 462.396 160.832 461.846C160.24 461.276 159.944 460.579 159.944 459.755C159.944 458.909 160.24 458.212 160.832 457.663C161.444 457.092 162.226 456.807 163.177 456.807C164.106 456.807 164.867 457.092 165.459 457.663C166.071 458.212 166.378 458.909 166.378 459.755C166.378 460.579 166.071 461.276 165.459 461.846C164.867 462.396 164.106 462.67 163.177 462.67ZM165.871 464.508V482.193H160.451V464.508H165.871ZM180.605 482.193L175.217 474.777V482.193H169.798V458.74H175.217V471.703L180.574 464.508H187.261L179.908 473.382L187.324 482.193H180.605Z" fill="white"/>
<circle cx="470.965" cy="289.315" r="144.536" fill="#C4C4C4"/>
<path d="M429.669 482.193L425.042 473.794H423.743V482.193H418.324V459.945H427.419C429.173 459.945 430.663 460.251 431.888 460.864C433.135 461.477 434.064 462.322 434.677 463.399C435.29 464.456 435.596 465.639 435.596 466.949C435.596 468.428 435.173 469.748 434.328 470.91C433.504 472.072 432.279 472.896 430.652 473.382L435.786 482.193H429.669ZM423.743 469.96H427.102C428.095 469.96 428.835 469.717 429.321 469.231C429.828 468.745 430.081 468.058 430.081 467.171C430.081 466.326 429.828 465.66 429.321 465.174C428.835 464.688 428.095 464.445 427.102 464.445H423.743V469.96ZM447.048 482.446C445.315 482.446 443.752 482.077 442.357 481.337C440.984 480.598 439.896 479.541 439.093 478.168C438.311 476.795 437.92 475.189 437.92 473.351C437.92 471.534 438.322 469.938 439.125 468.565C439.928 467.171 441.026 466.104 442.421 465.364C443.815 464.625 445.379 464.255 447.111 464.255C448.844 464.255 450.407 464.625 451.802 465.364C453.196 466.104 454.295 467.171 455.098 468.565C455.901 469.938 456.302 471.534 456.302 473.351C456.302 475.168 455.89 476.773 455.066 478.168C454.263 479.541 453.154 480.598 451.738 481.337C450.344 482.077 448.78 482.446 447.048 482.446ZM447.048 477.756C448.083 477.756 448.96 477.376 449.678 476.615C450.418 475.854 450.788 474.766 450.788 473.351C450.788 471.935 450.428 470.847 449.71 470.086C449.013 469.326 448.147 468.945 447.111 468.945C446.055 468.945 445.178 469.326 444.481 470.086C443.784 470.826 443.435 471.914 443.435 473.351C443.435 474.766 443.773 475.854 444.449 476.615C445.146 477.376 446.013 477.756 447.048 477.756ZM464.597 467.012C465.104 466.188 465.833 465.523 466.783 465.016C467.734 464.508 468.822 464.255 470.048 464.255C471.506 464.255 472.826 464.625 474.009 465.364C475.192 466.104 476.122 467.16 476.798 468.533C477.495 469.907 477.844 471.502 477.844 473.319C477.844 475.136 477.495 476.742 476.798 478.136C476.122 479.51 475.192 480.577 474.009 481.337C472.826 482.077 471.506 482.446 470.048 482.446C468.801 482.446 467.713 482.203 466.783 481.717C465.854 481.21 465.125 480.545 464.597 479.721V482.193H459.177V458.74H464.597V467.012ZM472.33 473.319C472.33 471.967 471.949 470.91 471.189 470.15C470.449 469.368 469.53 468.977 468.431 468.977C467.354 468.977 466.435 469.368 465.674 470.15C464.935 470.931 464.565 471.998 464.565 473.351C464.565 474.703 464.935 475.77 465.674 476.552C466.435 477.333 467.354 477.724 468.431 477.724C469.509 477.724 470.428 477.333 471.189 476.552C471.949 475.749 472.33 474.671 472.33 473.319ZM497.357 473.065C497.357 473.573 497.326 474.101 497.262 474.65H484.997C485.082 475.749 485.431 476.594 486.043 477.185C486.677 477.756 487.448 478.041 488.357 478.041C489.709 478.041 490.649 477.471 491.177 476.33H496.945C496.65 477.492 496.111 478.538 495.329 479.467C494.569 480.397 493.607 481.126 492.445 481.654C491.283 482.182 489.984 482.446 488.547 482.446C486.814 482.446 485.272 482.077 483.92 481.337C482.568 480.598 481.511 479.541 480.751 478.168C479.99 476.795 479.61 475.189 479.61 473.351C479.61 471.513 479.979 469.907 480.719 468.533C481.48 467.16 482.536 466.104 483.888 465.364C485.24 464.625 486.793 464.255 488.547 464.255C490.258 464.255 491.78 464.614 493.111 465.332C494.442 466.051 495.477 467.076 496.217 468.407C496.977 469.738 497.357 471.291 497.357 473.065ZM491.811 471.639C491.811 470.71 491.494 469.97 490.86 469.421C490.227 468.871 489.434 468.597 488.484 468.597C487.575 468.597 486.804 468.861 486.17 469.389C485.557 469.917 485.177 470.667 485.029 471.639H491.811ZM505.636 467.456C506.27 466.484 507.062 465.723 508.013 465.174C508.964 464.604 510.02 464.318 511.182 464.318V470.055H509.693C508.34 470.055 507.326 470.35 506.65 470.942C505.974 471.513 505.636 472.527 505.636 473.985V482.193H500.216V464.508H505.636V467.456ZM523.629 477.597V482.193H520.872C518.907 482.193 517.375 481.717 516.276 480.767C515.177 479.795 514.628 478.221 514.628 476.045V469.009H512.473V464.508H514.628V460.198H520.048V464.508H523.597V469.009H520.048V476.108C520.048 476.636 520.174 477.016 520.428 477.249C520.681 477.481 521.104 477.597 521.696 477.597H523.629Z" fill="white"/>
<circle cx="792.947" cy="289.315" r="144.536" fill="#C4C4C4"/>
<path d="M759.769 477.756H769.34V482.193H753.62V478.073L763.128 464.382H753.62V459.945H769.34V464.065L759.769 477.756ZM771.803 473.319C771.803 471.502 772.141 469.907 772.817 468.533C773.514 467.16 774.454 466.104 775.637 465.364C776.82 464.625 778.141 464.255 779.599 464.255C780.845 464.255 781.934 464.508 782.863 465.016C783.814 465.523 784.543 466.188 785.05 467.012V464.508H790.469V482.193H785.05V479.689C784.522 480.513 783.782 481.179 782.832 481.686C781.902 482.193 780.814 482.446 779.567 482.446C778.13 482.446 776.82 482.077 775.637 481.337C774.454 480.577 773.514 479.51 772.817 478.136C772.141 476.742 771.803 475.136 771.803 473.319ZM785.05 473.351C785.05 471.998 784.67 470.931 783.909 470.15C783.17 469.368 782.261 468.977 781.183 468.977C780.106 468.977 779.187 469.368 778.426 470.15C777.687 470.91 777.317 471.967 777.317 473.319C777.317 474.671 777.687 475.749 778.426 476.552C779.187 477.333 780.106 477.724 781.183 477.724C782.261 477.724 783.17 477.333 783.909 476.552C784.67 475.77 785.05 474.703 785.05 473.351ZM793.313 473.351C793.313 471.513 793.682 469.907 794.422 468.533C795.182 467.16 796.228 466.104 797.559 465.364C798.912 464.625 800.454 464.255 802.186 464.255C804.405 464.255 806.254 464.836 807.733 465.998C809.233 467.16 810.215 468.798 810.68 470.91H804.912C804.426 469.558 803.486 468.882 802.091 468.882C801.098 468.882 800.306 469.273 799.714 470.055C799.123 470.815 798.827 471.914 798.827 473.351C798.827 474.787 799.123 475.897 799.714 476.678C800.306 477.439 801.098 477.819 802.091 477.819C803.486 477.819 804.426 477.143 804.912 475.791H810.68C810.215 477.862 809.233 479.488 807.733 480.672C806.233 481.855 804.384 482.446 802.186 482.446C800.454 482.446 798.912 482.077 797.559 481.337C796.228 480.598 795.182 479.541 794.422 478.168C793.682 476.795 793.313 475.189 793.313 473.351ZM824.449 464.318C826.478 464.318 828.105 464.994 829.33 466.347C830.556 467.678 831.168 469.516 831.168 471.861V482.193H825.781V472.59C825.781 471.407 825.474 470.488 824.861 469.833C824.249 469.178 823.425 468.85 822.389 468.85C821.354 468.85 820.53 469.178 819.917 469.833C819.305 470.488 818.998 471.407 818.998 472.59V482.193H813.579V458.74H818.998V466.885C819.548 466.104 820.298 465.48 821.248 465.016C822.199 464.551 823.266 464.318 824.449 464.318Z" fill="white"/>
<circle cx="1114.04" cy="289.315" r="144.536" fill="#C4C4C4"/>
<path d="M1085.87 482.193L1081.24 473.794H1079.94V482.193H1074.52V459.945H1083.62C1085.37 459.945 1086.86 460.251 1088.09 460.864C1089.33 461.477 1090.26 462.322 1090.87 463.399C1091.49 464.456 1091.79 465.639 1091.79 466.949C1091.79 468.428 1091.37 469.748 1090.53 470.91C1089.7 472.072 1088.48 472.896 1086.85 473.382L1091.98 482.193H1085.87ZM1079.94 469.96H1083.3C1084.29 469.96 1085.03 469.717 1085.52 469.231C1086.03 468.745 1086.28 468.058 1086.28 467.171C1086.28 466.326 1086.03 465.66 1085.52 465.174C1085.03 464.688 1084.29 464.445 1083.3 464.445H1079.94V469.96ZM1097.92 462.67C1096.97 462.67 1096.19 462.396 1095.58 461.846C1094.98 461.276 1094.69 460.579 1094.69 459.755C1094.69 458.909 1094.98 458.212 1095.58 457.663C1096.19 457.092 1096.97 456.807 1097.92 456.807C1098.85 456.807 1099.61 457.092 1100.2 457.663C1100.82 458.212 1101.12 458.909 1101.12 459.755C1101.12 460.579 1100.82 461.276 1100.2 461.846C1099.61 462.396 1098.85 462.67 1097.92 462.67ZM1100.61 464.508V482.193H1095.2V464.508H1100.61ZM1111.74 482.446C1110.19 482.446 1108.82 482.182 1107.62 481.654C1106.41 481.126 1105.46 480.408 1104.76 479.499C1104.07 478.569 1103.68 477.534 1103.59 476.393H1108.95C1109.01 477.006 1109.3 477.502 1109.8 477.883C1110.31 478.263 1110.93 478.453 1111.67 478.453C1112.35 478.453 1112.87 478.326 1113.23 478.073C1113.61 477.798 1113.8 477.45 1113.8 477.027C1113.8 476.52 1113.53 476.15 1113 475.918C1112.48 475.664 1111.62 475.39 1110.44 475.094C1109.17 474.798 1108.11 474.492 1107.27 474.175C1106.42 473.837 1105.69 473.319 1105.08 472.622C1104.47 471.903 1104.16 470.942 1104.16 469.738C1104.16 468.724 1104.44 467.804 1104.99 466.98C1105.56 466.135 1106.38 465.47 1107.46 464.984C1108.56 464.498 1109.86 464.255 1111.36 464.255C1113.57 464.255 1115.32 464.804 1116.58 465.903C1117.87 467.002 1118.61 468.459 1118.8 470.276H1113.8C1113.71 469.664 1113.44 469.178 1112.97 468.819C1112.53 468.459 1111.94 468.28 1111.2 468.28C1110.56 468.28 1110.08 468.407 1109.74 468.66C1109.4 468.893 1109.23 469.22 1109.23 469.643C1109.23 470.15 1109.5 470.53 1110.02 470.784C1110.57 471.037 1111.42 471.291 1112.56 471.544C1113.87 471.882 1114.94 472.22 1115.76 472.558C1116.58 472.875 1117.3 473.403 1117.92 474.143C1118.55 474.861 1118.88 475.833 1118.9 477.059C1118.9 478.094 1118.6 479.024 1118.01 479.848C1117.44 480.651 1116.61 481.284 1115.51 481.749C1114.43 482.214 1113.17 482.446 1111.74 482.446ZM1121.14 473.319C1121.14 471.502 1121.47 469.907 1122.15 468.533C1122.85 467.16 1123.79 466.104 1124.97 465.364C1126.15 464.625 1127.48 464.255 1128.93 464.255C1130.18 464.255 1131.27 464.508 1132.2 465.016C1133.15 465.523 1133.88 466.188 1134.38 467.012V464.508H1139.8V482.193H1134.38V479.689C1133.86 480.513 1133.12 481.179 1132.17 481.686C1131.24 482.193 1130.15 482.446 1128.9 482.446C1127.46 482.446 1126.15 482.077 1124.97 481.337C1123.79 480.577 1122.85 479.51 1122.15 478.136C1121.47 476.742 1121.14 475.136 1121.14 473.319ZM1134.38 473.351C1134.38 471.998 1134 470.931 1133.24 470.15C1132.5 469.368 1131.6 468.977 1130.52 468.977C1129.44 468.977 1128.52 469.368 1127.76 470.15C1127.02 470.91 1126.65 471.967 1126.65 473.319C1126.65 474.671 1127.02 475.749 1127.76 476.552C1128.52 477.333 1129.44 477.724 1130.52 477.724C1131.6 477.724 1132.5 477.333 1133.24 476.552C1134 475.77 1134.38 474.703 1134.38 473.351ZM1153.58 477.597V482.193H1150.82C1148.86 482.193 1147.33 481.717 1146.23 480.767C1145.13 479.795 1144.58 478.221 1144.58 476.045V469.009H1142.42V464.508H1144.58V460.198H1150V464.508H1153.55V469.009H1150V476.108C1150 476.636 1150.13 477.016 1150.38 477.249C1150.63 477.481 1151.06 477.597 1151.65 477.597H1153.58Z" fill="white"/>
<circle cx="1432.46" cy="287.536" r="144.536" fill="#C4C4C4"/>
<path d="M1384.94 480.636C1383.31 480.636 1381.85 480.372 1380.56 479.844C1379.27 479.315 1378.24 478.534 1377.46 477.498C1376.7 476.463 1376.29 475.216 1376.25 473.759H1382.02C1382.1 474.583 1382.39 475.216 1382.88 475.66C1383.36 476.083 1384 476.294 1384.78 476.294C1385.58 476.294 1386.21 476.114 1386.68 475.755C1387.14 475.375 1387.38 474.857 1387.38 474.202C1387.38 473.653 1387.19 473.199 1386.81 472.84C1386.45 472.48 1385.99 472.185 1385.44 471.952C1384.91 471.72 1384.15 471.456 1383.16 471.16C1381.72 470.716 1380.55 470.272 1379.64 469.829C1378.73 469.385 1377.95 468.73 1377.3 467.864C1376.64 466.998 1376.32 465.867 1376.32 464.473C1376.32 462.402 1377.07 460.786 1378.57 459.624C1380.07 458.441 1382.02 457.849 1384.43 457.849C1386.88 457.849 1388.85 458.441 1390.36 459.624C1391.86 460.786 1392.66 462.413 1392.76 464.504H1386.9C1386.86 463.786 1386.59 463.226 1386.11 462.825C1385.62 462.402 1385 462.191 1384.24 462.191C1383.58 462.191 1383.06 462.37 1382.65 462.73C1382.25 463.068 1382.05 463.564 1382.05 464.219C1382.05 464.938 1382.39 465.497 1383.07 465.899C1383.74 466.3 1384.8 466.733 1386.24 467.198C1387.67 467.684 1388.83 468.149 1389.72 468.593C1390.63 469.036 1391.41 469.681 1392.07 470.526C1392.72 471.371 1393.05 472.459 1393.05 473.79C1393.05 475.058 1392.72 476.21 1392.07 477.245C1391.43 478.28 1390.5 479.104 1389.28 479.717C1388.05 480.33 1386.6 480.636 1384.94 480.636ZM1395.31 471.54C1395.31 469.723 1395.64 468.128 1396.32 466.755C1397.02 465.381 1397.96 464.325 1399.14 463.585C1400.32 462.846 1401.65 462.476 1403.1 462.476C1404.35 462.476 1405.44 462.73 1406.37 463.237C1407.32 463.744 1408.05 464.409 1408.55 465.233V462.73H1413.97V480.414H1408.55V477.91C1408.03 478.734 1407.29 479.4 1406.34 479.907C1405.41 480.414 1404.32 480.668 1403.07 480.668C1401.63 480.668 1400.32 480.298 1399.14 479.558C1397.96 478.798 1397.02 477.731 1396.32 476.357C1395.64 474.963 1395.31 473.357 1395.31 471.54ZM1408.55 471.572C1408.55 470.22 1408.17 469.153 1407.41 468.371C1406.67 467.589 1405.77 467.198 1404.69 467.198C1403.61 467.198 1402.69 467.589 1401.93 468.371C1401.19 469.132 1400.82 470.188 1400.82 471.54C1400.82 472.892 1401.19 473.97 1401.93 474.773C1402.69 475.555 1403.61 475.945 1404.69 475.945C1405.77 475.945 1406.67 475.555 1407.41 474.773C1408.17 473.991 1408.55 472.924 1408.55 471.572ZM1440.46 462.54C1442.66 462.54 1444.4 463.205 1445.69 464.536C1447 465.867 1447.65 467.716 1447.65 470.082V480.414H1442.27V470.811C1442.27 469.67 1441.96 468.793 1441.35 468.181C1440.75 467.547 1439.93 467.23 1438.87 467.23C1437.82 467.23 1436.98 467.547 1436.37 468.181C1435.78 468.793 1435.48 469.67 1435.48 470.811V480.414H1430.1V470.811C1430.1 469.67 1429.79 468.793 1429.18 468.181C1428.59 467.547 1427.76 467.23 1426.7 467.23C1425.65 467.23 1424.81 467.547 1424.2 468.181C1423.61 468.793 1423.31 469.67 1423.31 470.811V480.414H1417.89V462.73H1423.31V464.948C1423.86 464.209 1424.58 463.628 1425.47 463.205C1426.36 462.761 1427.36 462.54 1428.48 462.54C1429.81 462.54 1430.99 462.825 1432.03 463.395C1433.09 463.966 1433.91 464.779 1434.5 465.836C1435.11 464.864 1435.95 464.071 1437 463.459C1438.06 462.846 1439.21 462.54 1440.46 462.54ZM1458.64 480.668C1457.1 480.668 1455.72 480.403 1454.52 479.875C1453.31 479.347 1452.36 478.629 1451.67 477.72C1450.97 476.791 1450.58 475.755 1450.49 474.614H1455.85C1455.91 475.227 1456.2 475.724 1456.7 476.104C1457.21 476.484 1457.83 476.674 1458.57 476.674C1459.25 476.674 1459.77 476.548 1460.13 476.294C1460.51 476.019 1460.7 475.671 1460.7 475.248C1460.7 474.741 1460.43 474.371 1459.91 474.139C1459.38 473.885 1458.52 473.611 1457.34 473.315C1456.07 473.019 1455.01 472.713 1454.17 472.396C1453.32 472.058 1452.6 471.54 1451.98 470.843C1451.37 470.125 1451.06 469.163 1451.06 467.959C1451.06 466.945 1451.34 466.026 1451.89 465.202C1452.46 464.357 1453.28 463.691 1454.36 463.205C1455.46 462.719 1456.76 462.476 1458.26 462.476C1460.48 462.476 1462.22 463.025 1463.49 464.124C1464.78 465.223 1465.52 466.681 1465.71 468.498H1460.7C1460.61 467.885 1460.34 467.399 1459.87 467.04C1459.43 466.681 1458.84 466.501 1458.1 466.501C1457.47 466.501 1456.98 466.628 1456.64 466.881C1456.3 467.114 1456.13 467.441 1456.13 467.864C1456.13 468.371 1456.4 468.751 1456.93 469.005C1457.48 469.258 1458.32 469.512 1459.46 469.765C1460.77 470.103 1461.84 470.441 1462.66 470.78C1463.49 471.096 1464.21 471.625 1464.82 472.364C1465.45 473.083 1465.78 474.054 1465.8 475.28C1465.8 476.315 1465.5 477.245 1464.91 478.069C1464.34 478.872 1463.51 479.506 1462.41 479.97C1461.33 480.435 1460.07 480.668 1458.64 480.668ZM1477.17 480.668C1475.43 480.668 1473.87 480.298 1472.48 479.558C1471.1 478.819 1470.01 477.762 1469.21 476.389C1468.43 475.016 1468.04 473.41 1468.04 471.572C1468.04 469.755 1468.44 468.16 1469.24 466.786C1470.05 465.392 1471.14 464.325 1472.54 463.585C1473.93 462.846 1475.5 462.476 1477.23 462.476C1478.96 462.476 1480.53 462.846 1481.92 463.585C1483.31 464.325 1484.41 465.392 1485.22 466.786C1486.02 468.16 1486.42 469.755 1486.42 471.572C1486.42 473.389 1486.01 474.995 1485.18 476.389C1484.38 477.762 1483.27 478.819 1481.86 479.558C1480.46 480.298 1478.9 480.668 1477.17 480.668ZM1477.17 475.977C1478.2 475.977 1479.08 475.597 1479.8 474.836C1480.54 474.076 1480.91 472.987 1480.91 471.572C1480.91 470.156 1480.55 469.068 1479.83 468.308C1479.13 467.547 1478.26 467.167 1477.23 467.167C1476.17 467.167 1475.3 467.547 1474.6 468.308C1473.9 469.047 1473.55 470.135 1473.55 471.572C1473.55 472.987 1473.89 474.076 1474.57 474.836C1475.26 475.597 1476.13 475.977 1477.17 475.977ZM1500.07 462.54C1502.14 462.54 1503.79 463.216 1505.01 464.568C1506.26 465.899 1506.88 467.737 1506.88 470.082V480.414H1501.5V470.811C1501.5 469.628 1501.19 468.709 1500.58 468.054C1499.96 467.399 1499.14 467.072 1498.11 467.072C1497.07 467.072 1496.25 467.399 1495.63 468.054C1495.02 468.709 1494.71 469.628 1494.71 470.811V480.414H1489.3V462.73H1494.71V465.075C1495.26 464.293 1496 463.68 1496.93 463.237C1497.86 462.772 1498.91 462.54 1500.07 462.54Z" fill="white"/>
</svg>
